G04 #@! TF.GenerationSoftware,KiCad,Pcbnew,(5.1.2)-2*
G04 #@! TF.CreationDate,2019-08-06T20:33:04-04:00*
G04 #@! TF.ProjectId,Thermostat_Layout,54686572-6d6f-4737-9461-745f4c61796f,rev?*
G04 #@! TF.SameCoordinates,Original*
G04 #@! TF.FileFunction,Legend,Top*
G04 #@! TF.FilePolarity,Positive*
%FSLAX46Y46*%
G04 Gerber Fmt 4.6, Leading zero omitted, Abs format (unit mm)*
G04 Created by KiCad (PCBNEW (5.1.2)-2) date 2019-08-06 20:33:04*
%MOMM*%
%LPD*%
G04 APERTURE LIST*
%ADD10C,0.120000*%
%ADD11C,0.100000*%
%ADD12C,0.152400*%
%ADD13C,0.127000*%
%ADD14C,0.200000*%
%ADD15C,0.066040*%
%ADD16C,0.150000*%
%ADD17C,0.050000*%
G04 APERTURE END LIST*
D10*
X126400000Y-37700000D02*
X56400000Y-37700000D01*
X126400000Y-97700000D02*
X126400000Y-37700000D01*
X56400000Y-97700000D02*
X126400000Y-97700000D01*
X56400000Y-37700000D02*
X56400000Y-97700000D01*
X68950000Y-48650000D02*
X68950000Y-52750000D01*
X73450000Y-52930000D02*
X76950000Y-52930000D01*
X73450000Y-48470000D02*
X76950000Y-48470000D01*
X100450000Y-52750000D02*
X100450000Y-48650000D01*
X95950000Y-48470000D02*
X92450000Y-48470000D01*
X95950000Y-52930000D02*
X92450000Y-52930000D01*
D11*
X83052194Y-44595200D02*
G75*
G02X83179200Y-45179400I-1254J-306178D01*
G01*
D12*
X83052200Y-44595200D02*
X83052200Y-45255600D01*
X83052200Y-44239600D02*
X83052200Y-44595200D01*
X85947800Y-44239600D02*
X85109600Y-44239600D01*
X85947800Y-45255600D02*
X85947800Y-44239600D01*
X83890400Y-44239600D02*
X83052200Y-44239600D01*
D10*
X102840000Y-76185000D02*
X101025000Y-76185000D01*
X102840000Y-75940000D02*
X102840000Y-76185000D01*
X106700000Y-75940000D02*
X102840000Y-75940000D01*
X110560000Y-75940000D02*
X110560000Y-76185000D01*
X106700000Y-75940000D02*
X110560000Y-75940000D01*
X102840000Y-94060000D02*
X102840000Y-93815000D01*
X106700000Y-94060000D02*
X102840000Y-94060000D01*
X110560000Y-94060000D02*
X110560000Y-93815000D01*
X106700000Y-94060000D02*
X110560000Y-94060000D01*
X58215840Y-82614615D02*
G75*
G02X58600000Y-81700000I984160J124615D01*
G01*
X58215840Y-71785385D02*
G75*
G03X58600000Y-72700000I984160J-124615D01*
G01*
X58611329Y-81690661D02*
G75*
G03X58600000Y-72700000I-3711329J4490661D01*
G01*
X59750000Y-83950000D02*
G75*
G02X58200000Y-82500000I-50000J1500000D01*
G01*
X59750000Y-70450000D02*
G75*
G03X58200000Y-71900000I-50000J-1500000D01*
G01*
X61800000Y-83950000D02*
X59700000Y-83950000D01*
X61800000Y-70450000D02*
X59700000Y-70450000D01*
X65800000Y-70450000D02*
X67250000Y-70450000D01*
X67250000Y-70450000D02*
X69850000Y-73050000D01*
X69850000Y-73050000D02*
X70650000Y-73050000D01*
X70650000Y-73050000D02*
X70650000Y-81350000D01*
X70650000Y-81350000D02*
X69850000Y-81350000D01*
X69850000Y-81350000D02*
X67250000Y-83950000D01*
X67250000Y-83950000D02*
X65800000Y-83950000D01*
X113400000Y-55700000D02*
G75*
G03X113400000Y-55700000I-700000J0D01*
G01*
X91650000Y-68350000D02*
X94150000Y-68350000D01*
X90150000Y-70100000D02*
X90150000Y-72100000D01*
X91650000Y-73850000D02*
X94150000Y-73850000D01*
X95650000Y-70100000D02*
X95650000Y-72100000D01*
X91200000Y-68800000D02*
X91650000Y-68350000D01*
X94600000Y-68800000D02*
X94150000Y-68350000D01*
X94600000Y-73400000D02*
X94150000Y-73850000D01*
X91200000Y-73400000D02*
X91650000Y-73850000D01*
X95060000Y-88070000D02*
X93410000Y-88070000D01*
X95060000Y-95810000D02*
X95060000Y-88070000D01*
X89760000Y-95810000D02*
X95060000Y-95810000D01*
X89760000Y-88070000D02*
X89760000Y-95810000D01*
X91410000Y-88070000D02*
X89760000Y-88070000D01*
X93410000Y-88070000D02*
G75*
G02X91410000Y-88070000I-1000000J0D01*
G01*
X82660000Y-88070000D02*
X81010000Y-88070000D01*
X82660000Y-95810000D02*
X82660000Y-88070000D01*
X77360000Y-95810000D02*
X82660000Y-95810000D01*
X77360000Y-88070000D02*
X77360000Y-95810000D01*
X79010000Y-88070000D02*
X77360000Y-88070000D01*
X81010000Y-88070000D02*
G75*
G02X79010000Y-88070000I-1000000J0D01*
G01*
X95060000Y-77370000D02*
X93410000Y-77370000D01*
X95060000Y-85110000D02*
X95060000Y-77370000D01*
X89760000Y-85110000D02*
X95060000Y-85110000D01*
X89760000Y-77370000D02*
X89760000Y-85110000D01*
X91410000Y-77370000D02*
X89760000Y-77370000D01*
X93410000Y-77370000D02*
G75*
G02X91410000Y-77370000I-1000000J0D01*
G01*
D13*
X88106500Y-60920000D02*
X92093500Y-60920000D01*
X88106500Y-55880000D02*
X92093500Y-55880000D01*
D14*
X85925000Y-55905000D02*
G75*
G03X85925000Y-55905000I-100000J0D01*
G01*
D10*
X76440000Y-66685000D02*
X75715000Y-66685000D01*
X75715000Y-66685000D02*
X75715000Y-65960000D01*
X79210000Y-62465000D02*
X79935000Y-62465000D01*
X79935000Y-62465000D02*
X79935000Y-63190000D01*
X76440000Y-62465000D02*
X75715000Y-62465000D01*
X75715000Y-62465000D02*
X75715000Y-63190000D01*
X79210000Y-66685000D02*
X79935000Y-66685000D01*
X78300000Y-74840000D02*
X74850000Y-74840000D01*
X78300000Y-74840000D02*
X80250000Y-74840000D01*
X78300000Y-79960000D02*
X76350000Y-79960000D01*
X78300000Y-79960000D02*
X80250000Y-79960000D01*
X112850000Y-50750000D02*
X112850000Y-48420000D01*
X110400000Y-50750000D02*
X112850000Y-50750000D01*
X112520000Y-38480000D02*
X112520000Y-50420000D01*
X104670000Y-38480000D02*
X112520000Y-38480000D01*
X104670000Y-50420000D02*
X104670000Y-38480000D01*
X112520000Y-50420000D02*
X104670000Y-50420000D01*
D11*
X99600000Y-56300000D02*
X100050000Y-56300000D01*
X99600000Y-56300000D02*
X99600000Y-56750000D01*
X99600000Y-63500000D02*
X99600000Y-63050000D01*
X99600000Y-63500000D02*
X100050000Y-63500000D01*
X106800000Y-63500000D02*
X106350000Y-63500000D01*
X106800000Y-63500000D02*
X106800000Y-63050000D01*
X106350000Y-56300000D02*
X106350000Y-55000000D01*
X106450000Y-56300000D02*
X106350000Y-56300000D01*
X106800000Y-56650000D02*
X106450000Y-56300000D01*
X106800000Y-56750000D02*
X106800000Y-56650000D01*
D10*
X63200000Y-48200000D02*
X63600000Y-48200000D01*
X61800000Y-47100000D02*
X61800000Y-44200000D01*
X61800000Y-44200000D02*
X62400000Y-44200000D01*
X65000000Y-47100000D02*
X65000000Y-44200000D01*
X65000000Y-44200000D02*
X64400000Y-44200000D01*
X61600000Y-48000000D02*
X61600000Y-48700000D01*
X61600000Y-48700000D02*
X62300000Y-48700000D01*
D15*
X81798120Y-58800280D02*
X81401880Y-58800280D01*
X81401880Y-58800280D02*
X81401880Y-59399720D01*
X81798120Y-59399720D02*
X81401880Y-59399720D01*
X81798120Y-58800280D02*
X81798120Y-59399720D01*
X100800280Y-40001880D02*
X100800280Y-40398120D01*
X100800280Y-40398120D02*
X101399720Y-40398120D01*
X101399720Y-40001880D02*
X101399720Y-40398120D01*
X100800280Y-40001880D02*
X101399720Y-40001880D01*
D10*
X125010000Y-93540000D02*
X125010000Y-72860000D01*
X118790000Y-72160000D02*
X118790000Y-73440000D01*
X117190000Y-72160000D02*
X118790000Y-72160000D01*
X117190000Y-71140000D02*
X117190000Y-72160000D01*
X121440000Y-71140000D02*
X117190000Y-71140000D01*
X118790000Y-92960000D02*
X115900000Y-92960000D01*
X118790000Y-94240000D02*
X118790000Y-92960000D01*
X117190000Y-94240000D02*
X118790000Y-94240000D01*
X117190000Y-95260000D02*
X117190000Y-94240000D01*
X121440000Y-95260000D02*
X117190000Y-95260000D01*
X56980000Y-96650000D02*
X67841000Y-96650000D01*
X56980000Y-91550000D02*
X67841000Y-91550000D01*
X56980000Y-90430000D02*
X67841000Y-90430000D01*
X56980000Y-97170000D02*
X67841000Y-97170000D01*
X56980000Y-90430000D02*
X56980000Y-97170000D01*
X67841000Y-90430000D02*
X67841000Y-97170000D01*
X56740000Y-96770000D02*
X56740000Y-97410000D01*
X56740000Y-97410000D02*
X57140000Y-97410000D01*
X60100000Y-54400000D02*
X60100000Y-54900000D01*
X58700000Y-54400000D02*
X58700000Y-54900000D01*
X58700000Y-54400000D02*
X58100000Y-54400000D01*
X58100000Y-54400000D02*
X57900000Y-54200000D01*
X60900000Y-54200000D02*
X60900000Y-54400000D01*
X60900000Y-54400000D02*
X60100000Y-54400000D01*
X60100000Y-51400000D02*
X60900000Y-51400000D01*
X60900000Y-51400000D02*
X60900000Y-51600000D01*
X57900000Y-51600000D02*
X57900000Y-51400000D01*
X57900000Y-51400000D02*
X58700000Y-51400000D01*
X56970000Y-40930000D02*
X56970000Y-39600000D01*
X58300000Y-40930000D02*
X56970000Y-40930000D01*
X59570000Y-40930000D02*
X59570000Y-38270000D01*
X59570000Y-38270000D02*
X97730000Y-38270000D01*
X59570000Y-40930000D02*
X97730000Y-40930000D01*
X97730000Y-40930000D02*
X97730000Y-38270000D01*
X125610000Y-44840000D02*
X125610000Y-40160000D01*
X119390000Y-39460000D02*
X119390000Y-40740000D01*
X117790000Y-39460000D02*
X119390000Y-39460000D01*
X117790000Y-38440000D02*
X117790000Y-39460000D01*
X122040000Y-38440000D02*
X117790000Y-38440000D01*
X119390000Y-44260000D02*
X116500000Y-44260000D01*
X119390000Y-45540000D02*
X119390000Y-44260000D01*
X117790000Y-45540000D02*
X119390000Y-45540000D01*
X117790000Y-46560000D02*
X117790000Y-45540000D01*
X122040000Y-46560000D02*
X117790000Y-46560000D01*
X125110000Y-67140000D02*
X125110000Y-60460000D01*
X118890000Y-59760000D02*
X118890000Y-61040000D01*
X117290000Y-59760000D02*
X118890000Y-59760000D01*
X117290000Y-58740000D02*
X117290000Y-59760000D01*
X121540000Y-58740000D02*
X117290000Y-58740000D01*
X118890000Y-66560000D02*
X116000000Y-66560000D01*
X118890000Y-67840000D02*
X118890000Y-66560000D01*
X117290000Y-67840000D02*
X118890000Y-67840000D01*
X117290000Y-68860000D02*
X117290000Y-67840000D01*
X121540000Y-68860000D02*
X117290000Y-68860000D01*
D16*
X74723809Y-47446190D02*
X74723809Y-47922380D01*
X74390476Y-46922380D02*
X74723809Y-47446190D01*
X75057142Y-46922380D01*
X75342857Y-47017619D02*
X75390476Y-46970000D01*
X75485714Y-46922380D01*
X75723809Y-46922380D01*
X75819047Y-46970000D01*
X75866666Y-47017619D01*
X75914285Y-47112857D01*
X75914285Y-47208095D01*
X75866666Y-47350952D01*
X75295238Y-47922380D01*
X75914285Y-47922380D01*
X93723809Y-53906190D02*
X93723809Y-54382380D01*
X93390476Y-53382380D02*
X93723809Y-53906190D01*
X94057142Y-53382380D01*
X94914285Y-54382380D02*
X94342857Y-54382380D01*
X94628571Y-54382380D02*
X94628571Y-53382380D01*
X94533333Y-53525238D01*
X94438095Y-53620476D01*
X94342857Y-53668095D01*
D17*
X80778051Y-46608767D02*
X82107257Y-46608767D01*
X82263634Y-46530578D01*
X82341822Y-46452390D01*
X82420011Y-46296012D01*
X82420011Y-45983258D01*
X82341822Y-45826881D01*
X82263634Y-45748692D01*
X82107257Y-45670504D01*
X80778051Y-45670504D01*
X82420011Y-44028544D02*
X82420011Y-44966807D01*
X82420011Y-44497675D02*
X80778051Y-44497675D01*
X81012617Y-44654052D01*
X81168994Y-44810430D01*
X81247182Y-44966807D01*
D16*
X105938095Y-74552380D02*
X105938095Y-75361904D01*
X105985714Y-75457142D01*
X106033333Y-75504761D01*
X106128571Y-75552380D01*
X106319047Y-75552380D01*
X106414285Y-75504761D01*
X106461904Y-75457142D01*
X106509523Y-75361904D01*
X106509523Y-74552380D01*
X107414285Y-74885714D02*
X107414285Y-75552380D01*
X107176190Y-74504761D02*
X106938095Y-75219047D01*
X107557142Y-75219047D01*
X71728571Y-77985714D02*
X71776190Y-77842857D01*
X71823809Y-77795238D01*
X71919047Y-77747619D01*
X72061904Y-77747619D01*
X72157142Y-77795238D01*
X72204761Y-77842857D01*
X72252380Y-77938095D01*
X72252380Y-78319047D01*
X71252380Y-78319047D01*
X71252380Y-77985714D01*
X71300000Y-77890476D01*
X71347619Y-77842857D01*
X71442857Y-77795238D01*
X71538095Y-77795238D01*
X71633333Y-77842857D01*
X71680952Y-77890476D01*
X71728571Y-77985714D01*
X71728571Y-78319047D01*
X71252380Y-77461904D02*
X71252380Y-76890476D01*
X72252380Y-77176190D02*
X71252380Y-77176190D01*
X72252380Y-76033333D02*
X72252380Y-76604761D01*
X72252380Y-76319047D02*
X71252380Y-76319047D01*
X71395238Y-76414285D01*
X71490476Y-76509523D01*
X71538095Y-76604761D01*
X102927142Y-72751666D02*
X102974761Y-72799285D01*
X103022380Y-72942142D01*
X103022380Y-73037380D01*
X102974761Y-73180238D01*
X102879523Y-73275476D01*
X102784285Y-73323095D01*
X102593809Y-73370714D01*
X102450952Y-73370714D01*
X102260476Y-73323095D01*
X102165238Y-73275476D01*
X102070000Y-73180238D01*
X102022380Y-73037380D01*
X102022380Y-72942142D01*
X102070000Y-72799285D01*
X102117619Y-72751666D01*
X103022380Y-71799285D02*
X103022380Y-72370714D01*
X103022380Y-72085000D02*
X102022380Y-72085000D01*
X102165238Y-72180238D01*
X102260476Y-72275476D01*
X102308095Y-72370714D01*
X111438095Y-53704380D02*
X112009523Y-53704380D01*
X111723809Y-54704380D02*
X111723809Y-53704380D01*
X112342857Y-54704380D02*
X112342857Y-53704380D01*
X112723809Y-53704380D01*
X112819047Y-53752000D01*
X112866666Y-53799619D01*
X112914285Y-53894857D01*
X112914285Y-54037714D01*
X112866666Y-54132952D01*
X112819047Y-54180571D01*
X112723809Y-54228190D01*
X112342857Y-54228190D01*
X113866666Y-54704380D02*
X113295238Y-54704380D01*
X113580952Y-54704380D02*
X113580952Y-53704380D01*
X113485714Y-53847238D01*
X113390476Y-53942476D01*
X113295238Y-53990095D01*
X91566666Y-67754761D02*
X91709523Y-67802380D01*
X91947619Y-67802380D01*
X92042857Y-67754761D01*
X92090476Y-67707142D01*
X92138095Y-67611904D01*
X92138095Y-67516666D01*
X92090476Y-67421428D01*
X92042857Y-67373809D01*
X91947619Y-67326190D01*
X91757142Y-67278571D01*
X91661904Y-67230952D01*
X91614285Y-67183333D01*
X91566666Y-67088095D01*
X91566666Y-66992857D01*
X91614285Y-66897619D01*
X91661904Y-66850000D01*
X91757142Y-66802380D01*
X91995238Y-66802380D01*
X92138095Y-66850000D01*
X92471428Y-66802380D02*
X92709523Y-67802380D01*
X92900000Y-67088095D01*
X93090476Y-67802380D01*
X93328571Y-66802380D01*
X94233333Y-67802380D02*
X93661904Y-67802380D01*
X93947619Y-67802380D02*
X93947619Y-66802380D01*
X93852380Y-66945238D01*
X93757142Y-67040476D01*
X93661904Y-67088095D01*
X85457142Y-68482380D02*
X85123809Y-68006190D01*
X84885714Y-68482380D02*
X84885714Y-67482380D01*
X85266666Y-67482380D01*
X85361904Y-67530000D01*
X85409523Y-67577619D01*
X85457142Y-67672857D01*
X85457142Y-67815714D01*
X85409523Y-67910952D01*
X85361904Y-67958571D01*
X85266666Y-68006190D01*
X84885714Y-68006190D01*
X86409523Y-68482380D02*
X85838095Y-68482380D01*
X86123809Y-68482380D02*
X86123809Y-67482380D01*
X86028571Y-67625238D01*
X85933333Y-67720476D01*
X85838095Y-67768095D01*
X86742857Y-67482380D02*
X87361904Y-67482380D01*
X87028571Y-67863333D01*
X87171428Y-67863333D01*
X87266666Y-67910952D01*
X87314285Y-67958571D01*
X87361904Y-68053809D01*
X87361904Y-68291904D01*
X87314285Y-68387142D01*
X87266666Y-68434761D01*
X87171428Y-68482380D01*
X86885714Y-68482380D01*
X86790476Y-68434761D01*
X86742857Y-68387142D01*
X91171904Y-86522380D02*
X91171904Y-87331904D01*
X91219523Y-87427142D01*
X91267142Y-87474761D01*
X91362380Y-87522380D01*
X91552857Y-87522380D01*
X91648095Y-87474761D01*
X91695714Y-87427142D01*
X91743333Y-87331904D01*
X91743333Y-86522380D01*
X92743333Y-87522380D02*
X92171904Y-87522380D01*
X92457619Y-87522380D02*
X92457619Y-86522380D01*
X92362380Y-86665238D01*
X92267142Y-86760476D01*
X92171904Y-86808095D01*
X93362380Y-86522380D02*
X93457619Y-86522380D01*
X93552857Y-86570000D01*
X93600476Y-86617619D01*
X93648095Y-86712857D01*
X93695714Y-86903333D01*
X93695714Y-87141428D01*
X93648095Y-87331904D01*
X93600476Y-87427142D01*
X93552857Y-87474761D01*
X93457619Y-87522380D01*
X93362380Y-87522380D01*
X93267142Y-87474761D01*
X93219523Y-87427142D01*
X93171904Y-87331904D01*
X93124285Y-87141428D01*
X93124285Y-86903333D01*
X93171904Y-86712857D01*
X93219523Y-86617619D01*
X93267142Y-86570000D01*
X93362380Y-86522380D01*
X79248095Y-86522380D02*
X79248095Y-87331904D01*
X79295714Y-87427142D01*
X79343333Y-87474761D01*
X79438571Y-87522380D01*
X79629047Y-87522380D01*
X79724285Y-87474761D01*
X79771904Y-87427142D01*
X79819523Y-87331904D01*
X79819523Y-86522380D01*
X80343333Y-87522380D02*
X80533809Y-87522380D01*
X80629047Y-87474761D01*
X80676666Y-87427142D01*
X80771904Y-87284285D01*
X80819523Y-87093809D01*
X80819523Y-86712857D01*
X80771904Y-86617619D01*
X80724285Y-86570000D01*
X80629047Y-86522380D01*
X80438571Y-86522380D01*
X80343333Y-86570000D01*
X80295714Y-86617619D01*
X80248095Y-86712857D01*
X80248095Y-86950952D01*
X80295714Y-87046190D01*
X80343333Y-87093809D01*
X80438571Y-87141428D01*
X80629047Y-87141428D01*
X80724285Y-87093809D01*
X80771904Y-87046190D01*
X80819523Y-86950952D01*
X91648095Y-75822380D02*
X91648095Y-76631904D01*
X91695714Y-76727142D01*
X91743333Y-76774761D01*
X91838571Y-76822380D01*
X92029047Y-76822380D01*
X92124285Y-76774761D01*
X92171904Y-76727142D01*
X92219523Y-76631904D01*
X92219523Y-75822380D01*
X92838571Y-76250952D02*
X92743333Y-76203333D01*
X92695714Y-76155714D01*
X92648095Y-76060476D01*
X92648095Y-76012857D01*
X92695714Y-75917619D01*
X92743333Y-75870000D01*
X92838571Y-75822380D01*
X93029047Y-75822380D01*
X93124285Y-75870000D01*
X93171904Y-75917619D01*
X93219523Y-76012857D01*
X93219523Y-76060476D01*
X93171904Y-76155714D01*
X93124285Y-76203333D01*
X93029047Y-76250952D01*
X92838571Y-76250952D01*
X92743333Y-76298571D01*
X92695714Y-76346190D01*
X92648095Y-76441428D01*
X92648095Y-76631904D01*
X92695714Y-76727142D01*
X92743333Y-76774761D01*
X92838571Y-76822380D01*
X93029047Y-76822380D01*
X93124285Y-76774761D01*
X93171904Y-76727142D01*
X93219523Y-76631904D01*
X93219523Y-76441428D01*
X93171904Y-76346190D01*
X93124285Y-76298571D01*
X93029047Y-76250952D01*
D17*
X88244595Y-54520380D02*
X88244595Y-55329904D01*
X88292214Y-55425142D01*
X88339833Y-55472761D01*
X88435071Y-55520380D01*
X88625547Y-55520380D01*
X88720785Y-55472761D01*
X88768404Y-55425142D01*
X88816023Y-55329904D01*
X88816023Y-54520380D01*
X89196976Y-54520380D02*
X89863642Y-54520380D01*
X89435071Y-55520380D01*
D16*
X77063095Y-67327380D02*
X77063095Y-68136904D01*
X77110714Y-68232142D01*
X77158333Y-68279761D01*
X77253571Y-68327380D01*
X77444047Y-68327380D01*
X77539285Y-68279761D01*
X77586904Y-68232142D01*
X77634523Y-68136904D01*
X77634523Y-67327380D01*
X78539285Y-67327380D02*
X78348809Y-67327380D01*
X78253571Y-67375000D01*
X78205952Y-67422619D01*
X78110714Y-67565476D01*
X78063095Y-67755952D01*
X78063095Y-68136904D01*
X78110714Y-68232142D01*
X78158333Y-68279761D01*
X78253571Y-68327380D01*
X78444047Y-68327380D01*
X78539285Y-68279761D01*
X78586904Y-68232142D01*
X78634523Y-68136904D01*
X78634523Y-67898809D01*
X78586904Y-67803571D01*
X78539285Y-67755952D01*
X78444047Y-67708333D01*
X78253571Y-67708333D01*
X78158333Y-67755952D01*
X78110714Y-67803571D01*
X78063095Y-67898809D01*
X77538095Y-73452380D02*
X77538095Y-74261904D01*
X77585714Y-74357142D01*
X77633333Y-74404761D01*
X77728571Y-74452380D01*
X77919047Y-74452380D01*
X78014285Y-74404761D01*
X78061904Y-74357142D01*
X78109523Y-74261904D01*
X78109523Y-73452380D01*
X79061904Y-73452380D02*
X78585714Y-73452380D01*
X78538095Y-73928571D01*
X78585714Y-73880952D01*
X78680952Y-73833333D01*
X78919047Y-73833333D01*
X79014285Y-73880952D01*
X79061904Y-73928571D01*
X79109523Y-74023809D01*
X79109523Y-74261904D01*
X79061904Y-74357142D01*
X79014285Y-74404761D01*
X78919047Y-74452380D01*
X78680952Y-74452380D01*
X78585714Y-74404761D01*
X78538095Y-74357142D01*
X103142380Y-49261904D02*
X103951904Y-49261904D01*
X104047142Y-49214285D01*
X104094761Y-49166666D01*
X104142380Y-49071428D01*
X104142380Y-48880952D01*
X104094761Y-48785714D01*
X104047142Y-48738095D01*
X103951904Y-48690476D01*
X103142380Y-48690476D01*
X103142380Y-48309523D02*
X103142380Y-47690476D01*
X103523333Y-48023809D01*
X103523333Y-47880952D01*
X103570952Y-47785714D01*
X103618571Y-47738095D01*
X103713809Y-47690476D01*
X103951904Y-47690476D01*
X104047142Y-47738095D01*
X104094761Y-47785714D01*
X104142380Y-47880952D01*
X104142380Y-48166666D01*
X104094761Y-48261904D01*
X104047142Y-48309523D01*
X108902380Y-60661904D02*
X109711904Y-60661904D01*
X109807142Y-60614285D01*
X109854761Y-60566666D01*
X109902380Y-60471428D01*
X109902380Y-60280952D01*
X109854761Y-60185714D01*
X109807142Y-60138095D01*
X109711904Y-60090476D01*
X108902380Y-60090476D01*
X108997619Y-59661904D02*
X108950000Y-59614285D01*
X108902380Y-59519047D01*
X108902380Y-59280952D01*
X108950000Y-59185714D01*
X108997619Y-59138095D01*
X109092857Y-59090476D01*
X109188095Y-59090476D01*
X109330952Y-59138095D01*
X109902380Y-59709523D01*
X109902380Y-59090476D01*
X61352380Y-46695238D02*
X60876190Y-47028571D01*
X61352380Y-47266666D02*
X60352380Y-47266666D01*
X60352380Y-46885714D01*
X60400000Y-46790476D01*
X60447619Y-46742857D01*
X60542857Y-46695238D01*
X60685714Y-46695238D01*
X60780952Y-46742857D01*
X60828571Y-46790476D01*
X60876190Y-46885714D01*
X60876190Y-47266666D01*
X60352380Y-46409523D02*
X61352380Y-46076190D01*
X60352380Y-45742857D01*
X61352380Y-44885714D02*
X61352380Y-45457142D01*
X61352380Y-45171428D02*
X60352380Y-45171428D01*
X60495238Y-45266666D01*
X60590476Y-45361904D01*
X60638095Y-45457142D01*
X86752380Y-89442857D02*
X86276190Y-89776190D01*
X86752380Y-90014285D02*
X85752380Y-90014285D01*
X85752380Y-89633333D01*
X85800000Y-89538095D01*
X85847619Y-89490476D01*
X85942857Y-89442857D01*
X86085714Y-89442857D01*
X86180952Y-89490476D01*
X86228571Y-89538095D01*
X86276190Y-89633333D01*
X86276190Y-90014285D01*
X86752380Y-88490476D02*
X86752380Y-89061904D01*
X86752380Y-88776190D02*
X85752380Y-88776190D01*
X85895238Y-88871428D01*
X85990476Y-88966666D01*
X86038095Y-89061904D01*
X85847619Y-88109523D02*
X85800000Y-88061904D01*
X85752380Y-87966666D01*
X85752380Y-87728571D01*
X85800000Y-87633333D01*
X85847619Y-87585714D01*
X85942857Y-87538095D01*
X86038095Y-87538095D01*
X86180952Y-87585714D01*
X86752380Y-88157142D01*
X86752380Y-87538095D01*
X72382380Y-92042857D02*
X71906190Y-92376190D01*
X72382380Y-92614285D02*
X71382380Y-92614285D01*
X71382380Y-92233333D01*
X71430000Y-92138095D01*
X71477619Y-92090476D01*
X71572857Y-92042857D01*
X71715714Y-92042857D01*
X71810952Y-92090476D01*
X71858571Y-92138095D01*
X71906190Y-92233333D01*
X71906190Y-92614285D01*
X72382380Y-91090476D02*
X72382380Y-91661904D01*
X72382380Y-91376190D02*
X71382380Y-91376190D01*
X71525238Y-91471428D01*
X71620476Y-91566666D01*
X71668095Y-91661904D01*
X72382380Y-90138095D02*
X72382380Y-90709523D01*
X72382380Y-90423809D02*
X71382380Y-90423809D01*
X71525238Y-90519047D01*
X71620476Y-90614285D01*
X71668095Y-90709523D01*
X85482380Y-81342857D02*
X85006190Y-81676190D01*
X85482380Y-81914285D02*
X84482380Y-81914285D01*
X84482380Y-81533333D01*
X84530000Y-81438095D01*
X84577619Y-81390476D01*
X84672857Y-81342857D01*
X84815714Y-81342857D01*
X84910952Y-81390476D01*
X84958571Y-81438095D01*
X85006190Y-81533333D01*
X85006190Y-81914285D01*
X85482380Y-80390476D02*
X85482380Y-80961904D01*
X85482380Y-80676190D02*
X84482380Y-80676190D01*
X84625238Y-80771428D01*
X84720476Y-80866666D01*
X84768095Y-80961904D01*
X84482380Y-79771428D02*
X84482380Y-79676190D01*
X84530000Y-79580952D01*
X84577619Y-79533333D01*
X84672857Y-79485714D01*
X84863333Y-79438095D01*
X85101428Y-79438095D01*
X85291904Y-79485714D01*
X85387142Y-79533333D01*
X85434761Y-79580952D01*
X85482380Y-79676190D01*
X85482380Y-79771428D01*
X85434761Y-79866666D01*
X85387142Y-79914285D01*
X85291904Y-79961904D01*
X85101428Y-80009523D01*
X84863333Y-80009523D01*
X84672857Y-79961904D01*
X84577619Y-79914285D01*
X84530000Y-79866666D01*
X84482380Y-79771428D01*
X74833333Y-43952380D02*
X74500000Y-43476190D01*
X74261904Y-43952380D02*
X74261904Y-42952380D01*
X74642857Y-42952380D01*
X74738095Y-43000000D01*
X74785714Y-43047619D01*
X74833333Y-43142857D01*
X74833333Y-43285714D01*
X74785714Y-43380952D01*
X74738095Y-43428571D01*
X74642857Y-43476190D01*
X74261904Y-43476190D01*
X75309523Y-43952380D02*
X75500000Y-43952380D01*
X75595238Y-43904761D01*
X75642857Y-43857142D01*
X75738095Y-43714285D01*
X75785714Y-43523809D01*
X75785714Y-43142857D01*
X75738095Y-43047619D01*
X75690476Y-43000000D01*
X75595238Y-42952380D01*
X75404761Y-42952380D01*
X75309523Y-43000000D01*
X75261904Y-43047619D01*
X75214285Y-43142857D01*
X75214285Y-43380952D01*
X75261904Y-43476190D01*
X75309523Y-43523809D01*
X75404761Y-43571428D01*
X75595238Y-43571428D01*
X75690476Y-43523809D01*
X75738095Y-43476190D01*
X75785714Y-43380952D01*
D13*
X81498400Y-60518771D02*
X81295200Y-60228485D01*
X81150057Y-60518771D02*
X81150057Y-59909171D01*
X81382285Y-59909171D01*
X81440342Y-59938200D01*
X81469371Y-59967228D01*
X81498400Y-60025285D01*
X81498400Y-60112371D01*
X81469371Y-60170428D01*
X81440342Y-60199457D01*
X81382285Y-60228485D01*
X81150057Y-60228485D01*
X81846742Y-60170428D02*
X81788685Y-60141400D01*
X81759657Y-60112371D01*
X81730628Y-60054314D01*
X81730628Y-60025285D01*
X81759657Y-59967228D01*
X81788685Y-59938200D01*
X81846742Y-59909171D01*
X81962857Y-59909171D01*
X82020914Y-59938200D01*
X82049942Y-59967228D01*
X82078971Y-60025285D01*
X82078971Y-60054314D01*
X82049942Y-60112371D01*
X82020914Y-60141400D01*
X81962857Y-60170428D01*
X81846742Y-60170428D01*
X81788685Y-60199457D01*
X81759657Y-60228485D01*
X81730628Y-60286542D01*
X81730628Y-60402657D01*
X81759657Y-60460714D01*
X81788685Y-60489742D01*
X81846742Y-60518771D01*
X81962857Y-60518771D01*
X82020914Y-60489742D01*
X82049942Y-60460714D01*
X82078971Y-60402657D01*
X82078971Y-60286542D01*
X82049942Y-60228485D01*
X82020914Y-60199457D01*
X81962857Y-60170428D01*
X102518771Y-40301600D02*
X102228485Y-40504800D01*
X102518771Y-40649942D02*
X101909171Y-40649942D01*
X101909171Y-40417714D01*
X101938200Y-40359657D01*
X101967228Y-40330628D01*
X102025285Y-40301600D01*
X102112371Y-40301600D01*
X102170428Y-40330628D01*
X102199457Y-40359657D01*
X102228485Y-40417714D01*
X102228485Y-40649942D01*
X101909171Y-40098400D02*
X101909171Y-39692000D01*
X102518771Y-39953257D01*
D16*
X121033333Y-57322380D02*
X120700000Y-56846190D01*
X120461904Y-57322380D02*
X120461904Y-56322380D01*
X120842857Y-56322380D01*
X120938095Y-56370000D01*
X120985714Y-56417619D01*
X121033333Y-56512857D01*
X121033333Y-56655714D01*
X120985714Y-56750952D01*
X120938095Y-56798571D01*
X120842857Y-56846190D01*
X120461904Y-56846190D01*
X121890476Y-56322380D02*
X121700000Y-56322380D01*
X121604761Y-56370000D01*
X121557142Y-56417619D01*
X121461904Y-56560476D01*
X121414285Y-56750952D01*
X121414285Y-57131904D01*
X121461904Y-57227142D01*
X121509523Y-57274761D01*
X121604761Y-57322380D01*
X121795238Y-57322380D01*
X121890476Y-57274761D01*
X121938095Y-57227142D01*
X121985714Y-57131904D01*
X121985714Y-56893809D01*
X121938095Y-56798571D01*
X121890476Y-56750952D01*
X121795238Y-56703333D01*
X121604761Y-56703333D01*
X121509523Y-56750952D01*
X121461904Y-56798571D01*
X121414285Y-56893809D01*
X123333333Y-57322380D02*
X123000000Y-56846190D01*
X122761904Y-57322380D02*
X122761904Y-56322380D01*
X123142857Y-56322380D01*
X123238095Y-56370000D01*
X123285714Y-56417619D01*
X123333333Y-56512857D01*
X123333333Y-56655714D01*
X123285714Y-56750952D01*
X123238095Y-56798571D01*
X123142857Y-56846190D01*
X122761904Y-56846190D01*
X124238095Y-56322380D02*
X123761904Y-56322380D01*
X123714285Y-56798571D01*
X123761904Y-56750952D01*
X123857142Y-56703333D01*
X124095238Y-56703333D01*
X124190476Y-56750952D01*
X124238095Y-56798571D01*
X124285714Y-56893809D01*
X124285714Y-57131904D01*
X124238095Y-57227142D01*
X124190476Y-57274761D01*
X124095238Y-57322380D01*
X123857142Y-57322380D01*
X123761904Y-57274761D01*
X123714285Y-57227142D01*
X112133333Y-63422380D02*
X111800000Y-62946190D01*
X111561904Y-63422380D02*
X111561904Y-62422380D01*
X111942857Y-62422380D01*
X112038095Y-62470000D01*
X112085714Y-62517619D01*
X112133333Y-62612857D01*
X112133333Y-62755714D01*
X112085714Y-62850952D01*
X112038095Y-62898571D01*
X111942857Y-62946190D01*
X111561904Y-62946190D01*
X112990476Y-62755714D02*
X112990476Y-63422380D01*
X112752380Y-62374761D02*
X112514285Y-63089047D01*
X113133333Y-63089047D01*
X112133333Y-67422380D02*
X111800000Y-66946190D01*
X111561904Y-67422380D02*
X111561904Y-66422380D01*
X111942857Y-66422380D01*
X112038095Y-66470000D01*
X112085714Y-66517619D01*
X112133333Y-66612857D01*
X112133333Y-66755714D01*
X112085714Y-66850952D01*
X112038095Y-66898571D01*
X111942857Y-66946190D01*
X111561904Y-66946190D01*
X112466666Y-66422380D02*
X113085714Y-66422380D01*
X112752380Y-66803333D01*
X112895238Y-66803333D01*
X112990476Y-66850952D01*
X113038095Y-66898571D01*
X113085714Y-66993809D01*
X113085714Y-67231904D01*
X113038095Y-67327142D01*
X112990476Y-67374761D01*
X112895238Y-67422380D01*
X112609523Y-67422380D01*
X112514285Y-67374761D01*
X112466666Y-67327142D01*
X81252380Y-71266666D02*
X80776190Y-71600000D01*
X81252380Y-71838095D02*
X80252380Y-71838095D01*
X80252380Y-71457142D01*
X80300000Y-71361904D01*
X80347619Y-71314285D01*
X80442857Y-71266666D01*
X80585714Y-71266666D01*
X80680952Y-71314285D01*
X80728571Y-71361904D01*
X80776190Y-71457142D01*
X80776190Y-71838095D01*
X80347619Y-70885714D02*
X80300000Y-70838095D01*
X80252380Y-70742857D01*
X80252380Y-70504761D01*
X80300000Y-70409523D01*
X80347619Y-70361904D01*
X80442857Y-70314285D01*
X80538095Y-70314285D01*
X80680952Y-70361904D01*
X81252380Y-70933333D01*
X81252380Y-70314285D01*
X84522380Y-73166666D02*
X84046190Y-73500000D01*
X84522380Y-73738095D02*
X83522380Y-73738095D01*
X83522380Y-73357142D01*
X83570000Y-73261904D01*
X83617619Y-73214285D01*
X83712857Y-73166666D01*
X83855714Y-73166666D01*
X83950952Y-73214285D01*
X83998571Y-73261904D01*
X84046190Y-73357142D01*
X84046190Y-73738095D01*
X84522380Y-72214285D02*
X84522380Y-72785714D01*
X84522380Y-72500000D02*
X83522380Y-72500000D01*
X83665238Y-72595238D01*
X83760476Y-72690476D01*
X83808095Y-72785714D01*
X62033333Y-64022380D02*
X61557142Y-64022380D01*
X61557142Y-63022380D01*
X62271428Y-63022380D02*
X62890476Y-63022380D01*
X62557142Y-63403333D01*
X62700000Y-63403333D01*
X62795238Y-63450952D01*
X62842857Y-63498571D01*
X62890476Y-63593809D01*
X62890476Y-63831904D01*
X62842857Y-63927142D01*
X62795238Y-63974761D01*
X62700000Y-64022380D01*
X62414285Y-64022380D01*
X62319047Y-63974761D01*
X62271428Y-63927142D01*
X67882380Y-63066666D02*
X67882380Y-63542857D01*
X66882380Y-63542857D01*
X66977619Y-62780952D02*
X66930000Y-62733333D01*
X66882380Y-62638095D01*
X66882380Y-62400000D01*
X66930000Y-62304761D01*
X66977619Y-62257142D01*
X67072857Y-62209523D01*
X67168095Y-62209523D01*
X67310952Y-62257142D01*
X67882380Y-62828571D01*
X67882380Y-62209523D01*
X66522380Y-63066666D02*
X66522380Y-63542857D01*
X65522380Y-63542857D01*
X66522380Y-62209523D02*
X66522380Y-62780952D01*
X66522380Y-62495238D02*
X65522380Y-62495238D01*
X65665238Y-62590476D01*
X65760476Y-62685714D01*
X65808095Y-62780952D01*
X114152380Y-83533333D02*
X114866666Y-83533333D01*
X115009523Y-83580952D01*
X115104761Y-83676190D01*
X115152380Y-83819047D01*
X115152380Y-83914285D01*
X114152380Y-82628571D02*
X114152380Y-82819047D01*
X114200000Y-82914285D01*
X114247619Y-82961904D01*
X114390476Y-83057142D01*
X114580952Y-83104761D01*
X114961904Y-83104761D01*
X115057142Y-83057142D01*
X115104761Y-83009523D01*
X115152380Y-82914285D01*
X115152380Y-82723809D01*
X115104761Y-82628571D01*
X115057142Y-82580952D01*
X114961904Y-82533333D01*
X114723809Y-82533333D01*
X114628571Y-82580952D01*
X114580952Y-82628571D01*
X114533333Y-82723809D01*
X114533333Y-82914285D01*
X114580952Y-83009523D01*
X114628571Y-83057142D01*
X114723809Y-83104761D01*
X62076666Y-88882380D02*
X62076666Y-89596666D01*
X62029047Y-89739523D01*
X61933809Y-89834761D01*
X61790952Y-89882380D01*
X61695714Y-89882380D01*
X63029047Y-88882380D02*
X62552857Y-88882380D01*
X62505238Y-89358571D01*
X62552857Y-89310952D01*
X62648095Y-89263333D01*
X62886190Y-89263333D01*
X62981428Y-89310952D01*
X63029047Y-89358571D01*
X63076666Y-89453809D01*
X63076666Y-89691904D01*
X63029047Y-89787142D01*
X62981428Y-89834761D01*
X62886190Y-89882380D01*
X62648095Y-89882380D01*
X62552857Y-89834761D01*
X62505238Y-89787142D01*
X62466666Y-52352380D02*
X62466666Y-53066666D01*
X62419047Y-53209523D01*
X62323809Y-53304761D01*
X62180952Y-53352380D01*
X62085714Y-53352380D01*
X63371428Y-52685714D02*
X63371428Y-53352380D01*
X63133333Y-52304761D02*
X62895238Y-53019047D01*
X63514285Y-53019047D01*
X55422380Y-39933333D02*
X56136666Y-39933333D01*
X56279523Y-39980952D01*
X56374761Y-40076190D01*
X56422380Y-40219047D01*
X56422380Y-40314285D01*
X55422380Y-39552380D02*
X55422380Y-38933333D01*
X55803333Y-39266666D01*
X55803333Y-39123809D01*
X55850952Y-39028571D01*
X55898571Y-38980952D01*
X55993809Y-38933333D01*
X56231904Y-38933333D01*
X56327142Y-38980952D01*
X56374761Y-39028571D01*
X56422380Y-39123809D01*
X56422380Y-39409523D01*
X56374761Y-39504761D01*
X56327142Y-39552380D01*
X114752380Y-42833333D02*
X115466666Y-42833333D01*
X115609523Y-42880952D01*
X115704761Y-42976190D01*
X115752380Y-43119047D01*
X115752380Y-43214285D01*
X114847619Y-42404761D02*
X114800000Y-42357142D01*
X114752380Y-42261904D01*
X114752380Y-42023809D01*
X114800000Y-41928571D01*
X114847619Y-41880952D01*
X114942857Y-41833333D01*
X115038095Y-41833333D01*
X115180952Y-41880952D01*
X115752380Y-42452380D01*
X115752380Y-41833333D01*
X114252380Y-64133333D02*
X114966666Y-64133333D01*
X115109523Y-64180952D01*
X115204761Y-64276190D01*
X115252380Y-64419047D01*
X115252380Y-64514285D01*
X115252380Y-63133333D02*
X115252380Y-63704761D01*
X115252380Y-63419047D02*
X114252380Y-63419047D01*
X114395238Y-63514285D01*
X114490476Y-63609523D01*
X114538095Y-63704761D01*
X63527142Y-58942857D02*
X63574761Y-58990476D01*
X63622380Y-59133333D01*
X63622380Y-59228571D01*
X63574761Y-59371428D01*
X63479523Y-59466666D01*
X63384285Y-59514285D01*
X63193809Y-59561904D01*
X63050952Y-59561904D01*
X62860476Y-59514285D01*
X62765238Y-59466666D01*
X62670000Y-59371428D01*
X62622380Y-59228571D01*
X62622380Y-59133333D01*
X62670000Y-58990476D01*
X62717619Y-58942857D01*
X63622380Y-57990476D02*
X63622380Y-58561904D01*
X63622380Y-58276190D02*
X62622380Y-58276190D01*
X62765238Y-58371428D01*
X62860476Y-58466666D01*
X62908095Y-58561904D01*
X62955714Y-57133333D02*
X63622380Y-57133333D01*
X62574761Y-57371428D02*
X63289047Y-57609523D01*
X63289047Y-56990476D01*
X60927142Y-58942857D02*
X60974761Y-58990476D01*
X61022380Y-59133333D01*
X61022380Y-59228571D01*
X60974761Y-59371428D01*
X60879523Y-59466666D01*
X60784285Y-59514285D01*
X60593809Y-59561904D01*
X60450952Y-59561904D01*
X60260476Y-59514285D01*
X60165238Y-59466666D01*
X60070000Y-59371428D01*
X60022380Y-59228571D01*
X60022380Y-59133333D01*
X60070000Y-58990476D01*
X60117619Y-58942857D01*
X61022380Y-57990476D02*
X61022380Y-58561904D01*
X61022380Y-58276190D02*
X60022380Y-58276190D01*
X60165238Y-58371428D01*
X60260476Y-58466666D01*
X60308095Y-58561904D01*
X60022380Y-57657142D02*
X60022380Y-57038095D01*
X60403333Y-57371428D01*
X60403333Y-57228571D01*
X60450952Y-57133333D01*
X60498571Y-57085714D01*
X60593809Y-57038095D01*
X60831904Y-57038095D01*
X60927142Y-57085714D01*
X60974761Y-57133333D01*
X61022380Y-57228571D01*
X61022380Y-57514285D01*
X60974761Y-57609523D01*
X60927142Y-57657142D01*
X65457142Y-57987142D02*
X65409523Y-58034761D01*
X65266666Y-58082380D01*
X65171428Y-58082380D01*
X65028571Y-58034761D01*
X64933333Y-57939523D01*
X64885714Y-57844285D01*
X64838095Y-57653809D01*
X64838095Y-57510952D01*
X64885714Y-57320476D01*
X64933333Y-57225238D01*
X65028571Y-57130000D01*
X65171428Y-57082380D01*
X65266666Y-57082380D01*
X65409523Y-57130000D01*
X65457142Y-57177619D01*
X66409523Y-58082380D02*
X65838095Y-58082380D01*
X66123809Y-58082380D02*
X66123809Y-57082380D01*
X66028571Y-57225238D01*
X65933333Y-57320476D01*
X65838095Y-57368095D01*
X66790476Y-57177619D02*
X66838095Y-57130000D01*
X66933333Y-57082380D01*
X67171428Y-57082380D01*
X67266666Y-57130000D01*
X67314285Y-57177619D01*
X67361904Y-57272857D01*
X67361904Y-57368095D01*
X67314285Y-57510952D01*
X66742857Y-58082380D01*
X67361904Y-58082380D01*
X76857142Y-46157142D02*
X76809523Y-46204761D01*
X76666666Y-46252380D01*
X76571428Y-46252380D01*
X76428571Y-46204761D01*
X76333333Y-46109523D01*
X76285714Y-46014285D01*
X76238095Y-45823809D01*
X76238095Y-45680952D01*
X76285714Y-45490476D01*
X76333333Y-45395238D01*
X76428571Y-45300000D01*
X76571428Y-45252380D01*
X76666666Y-45252380D01*
X76809523Y-45300000D01*
X76857142Y-45347619D01*
X77809523Y-46252380D02*
X77238095Y-46252380D01*
X77523809Y-46252380D02*
X77523809Y-45252380D01*
X77428571Y-45395238D01*
X77333333Y-45490476D01*
X77238095Y-45538095D01*
X78761904Y-46252380D02*
X78190476Y-46252380D01*
X78476190Y-46252380D02*
X78476190Y-45252380D01*
X78380952Y-45395238D01*
X78285714Y-45490476D01*
X78190476Y-45538095D01*
X65457142Y-55487142D02*
X65409523Y-55534761D01*
X65266666Y-55582380D01*
X65171428Y-55582380D01*
X65028571Y-55534761D01*
X64933333Y-55439523D01*
X64885714Y-55344285D01*
X64838095Y-55153809D01*
X64838095Y-55010952D01*
X64885714Y-54820476D01*
X64933333Y-54725238D01*
X65028571Y-54630000D01*
X65171428Y-54582380D01*
X65266666Y-54582380D01*
X65409523Y-54630000D01*
X65457142Y-54677619D01*
X66409523Y-55582380D02*
X65838095Y-55582380D01*
X66123809Y-55582380D02*
X66123809Y-54582380D01*
X66028571Y-54725238D01*
X65933333Y-54820476D01*
X65838095Y-54868095D01*
X67028571Y-54582380D02*
X67123809Y-54582380D01*
X67219047Y-54630000D01*
X67266666Y-54677619D01*
X67314285Y-54772857D01*
X67361904Y-54963333D01*
X67361904Y-55201428D01*
X67314285Y-55391904D01*
X67266666Y-55487142D01*
X67219047Y-55534761D01*
X67123809Y-55582380D01*
X67028571Y-55582380D01*
X66933333Y-55534761D01*
X66885714Y-55487142D01*
X66838095Y-55391904D01*
X66790476Y-55201428D01*
X66790476Y-54963333D01*
X66838095Y-54772857D01*
X66885714Y-54677619D01*
X66933333Y-54630000D01*
X67028571Y-54582380D01*
X72533333Y-46257142D02*
X72485714Y-46304761D01*
X72342857Y-46352380D01*
X72247619Y-46352380D01*
X72104761Y-46304761D01*
X72009523Y-46209523D01*
X71961904Y-46114285D01*
X71914285Y-45923809D01*
X71914285Y-45780952D01*
X71961904Y-45590476D01*
X72009523Y-45495238D01*
X72104761Y-45400000D01*
X72247619Y-45352380D01*
X72342857Y-45352380D01*
X72485714Y-45400000D01*
X72533333Y-45447619D01*
X73009523Y-46352380D02*
X73200000Y-46352380D01*
X73295238Y-46304761D01*
X73342857Y-46257142D01*
X73438095Y-46114285D01*
X73485714Y-45923809D01*
X73485714Y-45542857D01*
X73438095Y-45447619D01*
X73390476Y-45400000D01*
X73295238Y-45352380D01*
X73104761Y-45352380D01*
X73009523Y-45400000D01*
X72961904Y-45447619D01*
X72914285Y-45542857D01*
X72914285Y-45780952D01*
X72961904Y-45876190D01*
X73009523Y-45923809D01*
X73104761Y-45971428D01*
X73295238Y-45971428D01*
X73390476Y-45923809D01*
X73438095Y-45876190D01*
X73485714Y-45780952D01*
X77633333Y-58287142D02*
X77585714Y-58334761D01*
X77442857Y-58382380D01*
X77347619Y-58382380D01*
X77204761Y-58334761D01*
X77109523Y-58239523D01*
X77061904Y-58144285D01*
X77014285Y-57953809D01*
X77014285Y-57810952D01*
X77061904Y-57620476D01*
X77109523Y-57525238D01*
X77204761Y-57430000D01*
X77347619Y-57382380D01*
X77442857Y-57382380D01*
X77585714Y-57430000D01*
X77633333Y-57477619D01*
X78204761Y-57810952D02*
X78109523Y-57763333D01*
X78061904Y-57715714D01*
X78014285Y-57620476D01*
X78014285Y-57572857D01*
X78061904Y-57477619D01*
X78109523Y-57430000D01*
X78204761Y-57382380D01*
X78395238Y-57382380D01*
X78490476Y-57430000D01*
X78538095Y-57477619D01*
X78585714Y-57572857D01*
X78585714Y-57620476D01*
X78538095Y-57715714D01*
X78490476Y-57763333D01*
X78395238Y-57810952D01*
X78204761Y-57810952D01*
X78109523Y-57858571D01*
X78061904Y-57906190D01*
X78014285Y-58001428D01*
X78014285Y-58191904D01*
X78061904Y-58287142D01*
X78109523Y-58334761D01*
X78204761Y-58382380D01*
X78395238Y-58382380D01*
X78490476Y-58334761D01*
X78538095Y-58287142D01*
X78585714Y-58191904D01*
X78585714Y-58001428D01*
X78538095Y-57906190D01*
X78490476Y-57858571D01*
X78395238Y-57810952D01*
X119933333Y-52657142D02*
X119885714Y-52704761D01*
X119742857Y-52752380D01*
X119647619Y-52752380D01*
X119504761Y-52704761D01*
X119409523Y-52609523D01*
X119361904Y-52514285D01*
X119314285Y-52323809D01*
X119314285Y-52180952D01*
X119361904Y-51990476D01*
X119409523Y-51895238D01*
X119504761Y-51800000D01*
X119647619Y-51752380D01*
X119742857Y-51752380D01*
X119885714Y-51800000D01*
X119933333Y-51847619D01*
X120266666Y-51752380D02*
X120933333Y-51752380D01*
X120504761Y-52752380D01*
X120033333Y-48387142D02*
X119985714Y-48434761D01*
X119842857Y-48482380D01*
X119747619Y-48482380D01*
X119604761Y-48434761D01*
X119509523Y-48339523D01*
X119461904Y-48244285D01*
X119414285Y-48053809D01*
X119414285Y-47910952D01*
X119461904Y-47720476D01*
X119509523Y-47625238D01*
X119604761Y-47530000D01*
X119747619Y-47482380D01*
X119842857Y-47482380D01*
X119985714Y-47530000D01*
X120033333Y-47577619D01*
X120890476Y-47482380D02*
X120700000Y-47482380D01*
X120604761Y-47530000D01*
X120557142Y-47577619D01*
X120461904Y-47720476D01*
X120414285Y-47910952D01*
X120414285Y-48291904D01*
X120461904Y-48387142D01*
X120509523Y-48434761D01*
X120604761Y-48482380D01*
X120795238Y-48482380D01*
X120890476Y-48434761D01*
X120938095Y-48387142D01*
X120985714Y-48291904D01*
X120985714Y-48053809D01*
X120938095Y-47958571D01*
X120890476Y-47910952D01*
X120795238Y-47863333D01*
X120604761Y-47863333D01*
X120509523Y-47910952D01*
X120461904Y-47958571D01*
X120414285Y-48053809D01*
X123533333Y-48387142D02*
X123485714Y-48434761D01*
X123342857Y-48482380D01*
X123247619Y-48482380D01*
X123104761Y-48434761D01*
X123009523Y-48339523D01*
X122961904Y-48244285D01*
X122914285Y-48053809D01*
X122914285Y-47910952D01*
X122961904Y-47720476D01*
X123009523Y-47625238D01*
X123104761Y-47530000D01*
X123247619Y-47482380D01*
X123342857Y-47482380D01*
X123485714Y-47530000D01*
X123533333Y-47577619D01*
X124438095Y-47482380D02*
X123961904Y-47482380D01*
X123914285Y-47958571D01*
X123961904Y-47910952D01*
X124057142Y-47863333D01*
X124295238Y-47863333D01*
X124390476Y-47910952D01*
X124438095Y-47958571D01*
X124485714Y-48053809D01*
X124485714Y-48291904D01*
X124438095Y-48387142D01*
X124390476Y-48434761D01*
X124295238Y-48482380D01*
X124057142Y-48482380D01*
X123961904Y-48434761D01*
X123914285Y-48387142D01*
X123533333Y-52657142D02*
X123485714Y-52704761D01*
X123342857Y-52752380D01*
X123247619Y-52752380D01*
X123104761Y-52704761D01*
X123009523Y-52609523D01*
X122961904Y-52514285D01*
X122914285Y-52323809D01*
X122914285Y-52180952D01*
X122961904Y-51990476D01*
X123009523Y-51895238D01*
X123104761Y-51800000D01*
X123247619Y-51752380D01*
X123342857Y-51752380D01*
X123485714Y-51800000D01*
X123533333Y-51847619D01*
X124390476Y-52085714D02*
X124390476Y-52752380D01*
X124152380Y-51704761D02*
X123914285Y-52419047D01*
X124533333Y-52419047D01*
X91733333Y-45757142D02*
X91685714Y-45804761D01*
X91542857Y-45852380D01*
X91447619Y-45852380D01*
X91304761Y-45804761D01*
X91209523Y-45709523D01*
X91161904Y-45614285D01*
X91114285Y-45423809D01*
X91114285Y-45280952D01*
X91161904Y-45090476D01*
X91209523Y-44995238D01*
X91304761Y-44900000D01*
X91447619Y-44852380D01*
X91542857Y-44852380D01*
X91685714Y-44900000D01*
X91733333Y-44947619D01*
X92066666Y-44852380D02*
X92685714Y-44852380D01*
X92352380Y-45233333D01*
X92495238Y-45233333D01*
X92590476Y-45280952D01*
X92638095Y-45328571D01*
X92685714Y-45423809D01*
X92685714Y-45661904D01*
X92638095Y-45757142D01*
X92590476Y-45804761D01*
X92495238Y-45852380D01*
X92209523Y-45852380D01*
X92114285Y-45804761D01*
X92066666Y-45757142D01*
X96333333Y-45787142D02*
X96285714Y-45834761D01*
X96142857Y-45882380D01*
X96047619Y-45882380D01*
X95904761Y-45834761D01*
X95809523Y-45739523D01*
X95761904Y-45644285D01*
X95714285Y-45453809D01*
X95714285Y-45310952D01*
X95761904Y-45120476D01*
X95809523Y-45025238D01*
X95904761Y-44930000D01*
X96047619Y-44882380D01*
X96142857Y-44882380D01*
X96285714Y-44930000D01*
X96333333Y-44977619D01*
X96714285Y-44977619D02*
X96761904Y-44930000D01*
X96857142Y-44882380D01*
X97095238Y-44882380D01*
X97190476Y-44930000D01*
X97238095Y-44977619D01*
X97285714Y-45072857D01*
X97285714Y-45168095D01*
X97238095Y-45310952D01*
X96666666Y-45882380D01*
X97285714Y-45882380D01*
M02*
