M48
; DRILL file {KiCad (5.1.2)-2} date 8/6/2019 8:31:16 PM
; FORMAT={3:3/ absolute / metric / suppress leading zeros}
; #@! TF.CreationDate,2019-08-06T20:31:16-04:00
; #@! TF.GenerationSoftware,Kicad,Pcbnew,(5.1.2)-2
FMAT,2
METRIC,TZ
T1C0.400
T2C0.800
T3C1.000
T4C1.100
%
G90
G05
T1
X73850Y-54581
X74874Y-65903
X76072Y-66494
X77112Y-68123
X77325Y-61442
X77590Y-60032
X77750Y-73328
X78603Y-67530
X82179Y-60190
X89727Y-64575
X90836Y-58780
X90842Y-60081
X95560Y-62981
X96245Y-57674
X96637Y-64465
X97003Y-60300
X97297Y-70931
X98320Y-68688
X98711Y-89875
X99219Y-70179
X99361Y-65668
X99504Y-93110
X100064Y-79912
X100395Y-91613
X101815Y-62612
X104245Y-61718
X105017Y-59503
X105543Y-57054
X106030Y-60300
X108772Y-61100
X109519Y-57100
X110401Y-75833
T2
X88600Y-89400
X88600Y-91940
X88600Y-94480
X96220Y-89400
X96220Y-91940
X96220Y-94480
X88600Y-78700
X88600Y-81240
X88600Y-83780
X96220Y-78700
X96220Y-81240
X96220Y-83780
X76200Y-89400
X76200Y-91940
X76200Y-94480
X83820Y-89400
X83820Y-91940
X83820Y-94480
T3
X110400Y-41920
X110400Y-44460
X110400Y-47000
X58300Y-39600
X60840Y-39600
X63380Y-39600
X65920Y-39600
X68460Y-39600
X71000Y-39600
X73540Y-39600
X76080Y-39600
X78620Y-39600
X81160Y-39600
X83700Y-39600
X86240Y-39600
X88780Y-39600
X91320Y-39600
X93860Y-39600
X96400Y-39600
T4
X58600Y-93800
X61140Y-93800
X63680Y-93800
X66220Y-93800
T0
M30
