G04 #@! TF.GenerationSoftware,KiCad,Pcbnew,(5.1.2)-2*
G04 #@! TF.CreationDate,2019-08-06T20:33:04-04:00*
G04 #@! TF.ProjectId,Thermostat_Layout,54686572-6d6f-4737-9461-745f4c61796f,rev?*
G04 #@! TF.SameCoordinates,Original*
G04 #@! TF.FileFunction,Soldermask,Bot*
G04 #@! TF.FilePolarity,Negative*
%FSLAX46Y46*%
G04 Gerber Fmt 4.6, Leading zero omitted, Abs format (unit mm)*
G04 Created by KiCad (PCBNEW (5.1.2)-2) date 2019-08-06 20:33:04*
%MOMM*%
%LPD*%
G04 APERTURE LIST*
%ADD10C,0.100000*%
G04 APERTURE END LIST*
D10*
G36*
X96386823Y-93641313D02*
G01*
X96547242Y-93689976D01*
X96679906Y-93760886D01*
X96695078Y-93768996D01*
X96824659Y-93875341D01*
X96931004Y-94004922D01*
X96931005Y-94004924D01*
X97010024Y-94152758D01*
X97058687Y-94313177D01*
X97075117Y-94480000D01*
X97058687Y-94646823D01*
X97010024Y-94807242D01*
X96982525Y-94858689D01*
X96931004Y-94955078D01*
X96824659Y-95084659D01*
X96695078Y-95191004D01*
X96695076Y-95191005D01*
X96547242Y-95270024D01*
X96386823Y-95318687D01*
X96261804Y-95331000D01*
X96178196Y-95331000D01*
X96053177Y-95318687D01*
X95892758Y-95270024D01*
X95744924Y-95191005D01*
X95744922Y-95191004D01*
X95615341Y-95084659D01*
X95508996Y-94955078D01*
X95457475Y-94858689D01*
X95429976Y-94807242D01*
X95381313Y-94646823D01*
X95364883Y-94480000D01*
X95381313Y-94313177D01*
X95429976Y-94152758D01*
X95508995Y-94004924D01*
X95508996Y-94004922D01*
X95615341Y-93875341D01*
X95744922Y-93768996D01*
X95760094Y-93760886D01*
X95892758Y-93689976D01*
X96053177Y-93641313D01*
X96178196Y-93629000D01*
X96261804Y-93629000D01*
X96386823Y-93641313D01*
X96386823Y-93641313D01*
G37*
G36*
X88766823Y-93641313D02*
G01*
X88927242Y-93689976D01*
X89059906Y-93760886D01*
X89075078Y-93768996D01*
X89204659Y-93875341D01*
X89311004Y-94004922D01*
X89311005Y-94004924D01*
X89390024Y-94152758D01*
X89438687Y-94313177D01*
X89455117Y-94480000D01*
X89438687Y-94646823D01*
X89390024Y-94807242D01*
X89362525Y-94858689D01*
X89311004Y-94955078D01*
X89204659Y-95084659D01*
X89075078Y-95191004D01*
X89075076Y-95191005D01*
X88927242Y-95270024D01*
X88766823Y-95318687D01*
X88641804Y-95331000D01*
X88558196Y-95331000D01*
X88433177Y-95318687D01*
X88272758Y-95270024D01*
X88124924Y-95191005D01*
X88124922Y-95191004D01*
X87995341Y-95084659D01*
X87888996Y-94955078D01*
X87837475Y-94858689D01*
X87809976Y-94807242D01*
X87761313Y-94646823D01*
X87744883Y-94480000D01*
X87761313Y-94313177D01*
X87809976Y-94152758D01*
X87888995Y-94004924D01*
X87888996Y-94004922D01*
X87995341Y-93875341D01*
X88124922Y-93768996D01*
X88140094Y-93760886D01*
X88272758Y-93689976D01*
X88433177Y-93641313D01*
X88558196Y-93629000D01*
X88641804Y-93629000D01*
X88766823Y-93641313D01*
X88766823Y-93641313D01*
G37*
G36*
X83986823Y-93641313D02*
G01*
X84147242Y-93689976D01*
X84279906Y-93760886D01*
X84295078Y-93768996D01*
X84424659Y-93875341D01*
X84531004Y-94004922D01*
X84531005Y-94004924D01*
X84610024Y-94152758D01*
X84658687Y-94313177D01*
X84675117Y-94480000D01*
X84658687Y-94646823D01*
X84610024Y-94807242D01*
X84582525Y-94858689D01*
X84531004Y-94955078D01*
X84424659Y-95084659D01*
X84295078Y-95191004D01*
X84295076Y-95191005D01*
X84147242Y-95270024D01*
X83986823Y-95318687D01*
X83861804Y-95331000D01*
X83778196Y-95331000D01*
X83653177Y-95318687D01*
X83492758Y-95270024D01*
X83344924Y-95191005D01*
X83344922Y-95191004D01*
X83215341Y-95084659D01*
X83108996Y-94955078D01*
X83057475Y-94858689D01*
X83029976Y-94807242D01*
X82981313Y-94646823D01*
X82964883Y-94480000D01*
X82981313Y-94313177D01*
X83029976Y-94152758D01*
X83108995Y-94004924D01*
X83108996Y-94004922D01*
X83215341Y-93875341D01*
X83344922Y-93768996D01*
X83360094Y-93760886D01*
X83492758Y-93689976D01*
X83653177Y-93641313D01*
X83778196Y-93629000D01*
X83861804Y-93629000D01*
X83986823Y-93641313D01*
X83986823Y-93641313D01*
G37*
G36*
X76366823Y-93641313D02*
G01*
X76527242Y-93689976D01*
X76659906Y-93760886D01*
X76675078Y-93768996D01*
X76804659Y-93875341D01*
X76911004Y-94004922D01*
X76911005Y-94004924D01*
X76990024Y-94152758D01*
X77038687Y-94313177D01*
X77055117Y-94480000D01*
X77038687Y-94646823D01*
X76990024Y-94807242D01*
X76962525Y-94858689D01*
X76911004Y-94955078D01*
X76804659Y-95084659D01*
X76675078Y-95191004D01*
X76675076Y-95191005D01*
X76527242Y-95270024D01*
X76366823Y-95318687D01*
X76241804Y-95331000D01*
X76158196Y-95331000D01*
X76033177Y-95318687D01*
X75872758Y-95270024D01*
X75724924Y-95191005D01*
X75724922Y-95191004D01*
X75595341Y-95084659D01*
X75488996Y-94955078D01*
X75437475Y-94858689D01*
X75409976Y-94807242D01*
X75361313Y-94646823D01*
X75344883Y-94480000D01*
X75361313Y-94313177D01*
X75409976Y-94152758D01*
X75488995Y-94004924D01*
X75488996Y-94004922D01*
X75595341Y-93875341D01*
X75724922Y-93768996D01*
X75740094Y-93760886D01*
X75872758Y-93689976D01*
X76033177Y-93641313D01*
X76158196Y-93629000D01*
X76241804Y-93629000D01*
X76366823Y-93641313D01*
X76366823Y-93641313D01*
G37*
G36*
X59701000Y-94901000D02*
G01*
X57499000Y-94901000D01*
X57499000Y-92699000D01*
X59701000Y-92699000D01*
X59701000Y-94901000D01*
X59701000Y-94901000D01*
G37*
G36*
X66434794Y-92720155D02*
G01*
X66541150Y-92741311D01*
X66631381Y-92778686D01*
X66741520Y-92824307D01*
X66921844Y-92944795D01*
X67075205Y-93098156D01*
X67195693Y-93278480D01*
X67278689Y-93478851D01*
X67321000Y-93691560D01*
X67321000Y-93908440D01*
X67278689Y-94121149D01*
X67195693Y-94321520D01*
X67075205Y-94501844D01*
X66921844Y-94655205D01*
X66741520Y-94775693D01*
X66641334Y-94817191D01*
X66541150Y-94858689D01*
X66434795Y-94879844D01*
X66328440Y-94901000D01*
X66111560Y-94901000D01*
X66005205Y-94879844D01*
X65898850Y-94858689D01*
X65798666Y-94817191D01*
X65698480Y-94775693D01*
X65518156Y-94655205D01*
X65364795Y-94501844D01*
X65244307Y-94321520D01*
X65161311Y-94121149D01*
X65119000Y-93908440D01*
X65119000Y-93691560D01*
X65161311Y-93478851D01*
X65244307Y-93278480D01*
X65364795Y-93098156D01*
X65518156Y-92944795D01*
X65698480Y-92824307D01*
X65808619Y-92778686D01*
X65898850Y-92741311D01*
X66005206Y-92720155D01*
X66111560Y-92699000D01*
X66328440Y-92699000D01*
X66434794Y-92720155D01*
X66434794Y-92720155D01*
G37*
G36*
X63894794Y-92720155D02*
G01*
X64001150Y-92741311D01*
X64091381Y-92778686D01*
X64201520Y-92824307D01*
X64381844Y-92944795D01*
X64535205Y-93098156D01*
X64655693Y-93278480D01*
X64738689Y-93478851D01*
X64781000Y-93691560D01*
X64781000Y-93908440D01*
X64738689Y-94121149D01*
X64655693Y-94321520D01*
X64535205Y-94501844D01*
X64381844Y-94655205D01*
X64201520Y-94775693D01*
X64101334Y-94817191D01*
X64001150Y-94858689D01*
X63894795Y-94879844D01*
X63788440Y-94901000D01*
X63571560Y-94901000D01*
X63465205Y-94879844D01*
X63358850Y-94858689D01*
X63258666Y-94817191D01*
X63158480Y-94775693D01*
X62978156Y-94655205D01*
X62824795Y-94501844D01*
X62704307Y-94321520D01*
X62621311Y-94121149D01*
X62579000Y-93908440D01*
X62579000Y-93691560D01*
X62621311Y-93478851D01*
X62704307Y-93278480D01*
X62824795Y-93098156D01*
X62978156Y-92944795D01*
X63158480Y-92824307D01*
X63268619Y-92778686D01*
X63358850Y-92741311D01*
X63465206Y-92720155D01*
X63571560Y-92699000D01*
X63788440Y-92699000D01*
X63894794Y-92720155D01*
X63894794Y-92720155D01*
G37*
G36*
X61354794Y-92720155D02*
G01*
X61461150Y-92741311D01*
X61551381Y-92778686D01*
X61661520Y-92824307D01*
X61841844Y-92944795D01*
X61995205Y-93098156D01*
X62115693Y-93278480D01*
X62198689Y-93478851D01*
X62241000Y-93691560D01*
X62241000Y-93908440D01*
X62198689Y-94121149D01*
X62115693Y-94321520D01*
X61995205Y-94501844D01*
X61841844Y-94655205D01*
X61661520Y-94775693D01*
X61561334Y-94817191D01*
X61461150Y-94858689D01*
X61354795Y-94879844D01*
X61248440Y-94901000D01*
X61031560Y-94901000D01*
X60925205Y-94879844D01*
X60818850Y-94858689D01*
X60718666Y-94817191D01*
X60618480Y-94775693D01*
X60438156Y-94655205D01*
X60284795Y-94501844D01*
X60164307Y-94321520D01*
X60081311Y-94121149D01*
X60039000Y-93908440D01*
X60039000Y-93691560D01*
X60081311Y-93478851D01*
X60164307Y-93278480D01*
X60284795Y-93098156D01*
X60438156Y-92944795D01*
X60618480Y-92824307D01*
X60728619Y-92778686D01*
X60818850Y-92741311D01*
X60925206Y-92720155D01*
X61031560Y-92699000D01*
X61248440Y-92699000D01*
X61354794Y-92720155D01*
X61354794Y-92720155D01*
G37*
G36*
X76366823Y-91101313D02*
G01*
X76527242Y-91149976D01*
X76659906Y-91220886D01*
X76675078Y-91228996D01*
X76804659Y-91335341D01*
X76911004Y-91464922D01*
X76911005Y-91464924D01*
X76990024Y-91612758D01*
X77038687Y-91773177D01*
X77055117Y-91940000D01*
X77038687Y-92106823D01*
X76990024Y-92267242D01*
X76919114Y-92399906D01*
X76911004Y-92415078D01*
X76804659Y-92544659D01*
X76675078Y-92651004D01*
X76675076Y-92651005D01*
X76527242Y-92730024D01*
X76366823Y-92778687D01*
X76241804Y-92791000D01*
X76158196Y-92791000D01*
X76033177Y-92778687D01*
X75872758Y-92730024D01*
X75724924Y-92651005D01*
X75724922Y-92651004D01*
X75595341Y-92544659D01*
X75488996Y-92415078D01*
X75480886Y-92399906D01*
X75409976Y-92267242D01*
X75361313Y-92106823D01*
X75344883Y-91940000D01*
X75361313Y-91773177D01*
X75409976Y-91612758D01*
X75488995Y-91464924D01*
X75488996Y-91464922D01*
X75595341Y-91335341D01*
X75724922Y-91228996D01*
X75740094Y-91220886D01*
X75872758Y-91149976D01*
X76033177Y-91101313D01*
X76158196Y-91089000D01*
X76241804Y-91089000D01*
X76366823Y-91101313D01*
X76366823Y-91101313D01*
G37*
G36*
X83986823Y-91101313D02*
G01*
X84147242Y-91149976D01*
X84279906Y-91220886D01*
X84295078Y-91228996D01*
X84424659Y-91335341D01*
X84531004Y-91464922D01*
X84531005Y-91464924D01*
X84610024Y-91612758D01*
X84658687Y-91773177D01*
X84675117Y-91940000D01*
X84658687Y-92106823D01*
X84610024Y-92267242D01*
X84539114Y-92399906D01*
X84531004Y-92415078D01*
X84424659Y-92544659D01*
X84295078Y-92651004D01*
X84295076Y-92651005D01*
X84147242Y-92730024D01*
X83986823Y-92778687D01*
X83861804Y-92791000D01*
X83778196Y-92791000D01*
X83653177Y-92778687D01*
X83492758Y-92730024D01*
X83344924Y-92651005D01*
X83344922Y-92651004D01*
X83215341Y-92544659D01*
X83108996Y-92415078D01*
X83100886Y-92399906D01*
X83029976Y-92267242D01*
X82981313Y-92106823D01*
X82964883Y-91940000D01*
X82981313Y-91773177D01*
X83029976Y-91612758D01*
X83108995Y-91464924D01*
X83108996Y-91464922D01*
X83215341Y-91335341D01*
X83344922Y-91228996D01*
X83360094Y-91220886D01*
X83492758Y-91149976D01*
X83653177Y-91101313D01*
X83778196Y-91089000D01*
X83861804Y-91089000D01*
X83986823Y-91101313D01*
X83986823Y-91101313D01*
G37*
G36*
X88766823Y-91101313D02*
G01*
X88927242Y-91149976D01*
X89059906Y-91220886D01*
X89075078Y-91228996D01*
X89204659Y-91335341D01*
X89311004Y-91464922D01*
X89311005Y-91464924D01*
X89390024Y-91612758D01*
X89438687Y-91773177D01*
X89455117Y-91940000D01*
X89438687Y-92106823D01*
X89390024Y-92267242D01*
X89319114Y-92399906D01*
X89311004Y-92415078D01*
X89204659Y-92544659D01*
X89075078Y-92651004D01*
X89075076Y-92651005D01*
X88927242Y-92730024D01*
X88766823Y-92778687D01*
X88641804Y-92791000D01*
X88558196Y-92791000D01*
X88433177Y-92778687D01*
X88272758Y-92730024D01*
X88124924Y-92651005D01*
X88124922Y-92651004D01*
X87995341Y-92544659D01*
X87888996Y-92415078D01*
X87880886Y-92399906D01*
X87809976Y-92267242D01*
X87761313Y-92106823D01*
X87744883Y-91940000D01*
X87761313Y-91773177D01*
X87809976Y-91612758D01*
X87888995Y-91464924D01*
X87888996Y-91464922D01*
X87995341Y-91335341D01*
X88124922Y-91228996D01*
X88140094Y-91220886D01*
X88272758Y-91149976D01*
X88433177Y-91101313D01*
X88558196Y-91089000D01*
X88641804Y-91089000D01*
X88766823Y-91101313D01*
X88766823Y-91101313D01*
G37*
G36*
X96386823Y-91101313D02*
G01*
X96547242Y-91149976D01*
X96679906Y-91220886D01*
X96695078Y-91228996D01*
X96824659Y-91335341D01*
X96931004Y-91464922D01*
X96931005Y-91464924D01*
X97010024Y-91612758D01*
X97058687Y-91773177D01*
X97075117Y-91940000D01*
X97058687Y-92106823D01*
X97010024Y-92267242D01*
X96939114Y-92399906D01*
X96931004Y-92415078D01*
X96824659Y-92544659D01*
X96695078Y-92651004D01*
X96695076Y-92651005D01*
X96547242Y-92730024D01*
X96386823Y-92778687D01*
X96261804Y-92791000D01*
X96178196Y-92791000D01*
X96053177Y-92778687D01*
X95892758Y-92730024D01*
X95744924Y-92651005D01*
X95744922Y-92651004D01*
X95615341Y-92544659D01*
X95508996Y-92415078D01*
X95500886Y-92399906D01*
X95429976Y-92267242D01*
X95381313Y-92106823D01*
X95364883Y-91940000D01*
X95381313Y-91773177D01*
X95429976Y-91612758D01*
X95508995Y-91464924D01*
X95508996Y-91464922D01*
X95615341Y-91335341D01*
X95744922Y-91228996D01*
X95760094Y-91220886D01*
X95892758Y-91149976D01*
X96053177Y-91101313D01*
X96178196Y-91089000D01*
X96261804Y-91089000D01*
X96386823Y-91101313D01*
X96386823Y-91101313D01*
G37*
G36*
X77051000Y-90251000D02*
G01*
X75349000Y-90251000D01*
X75349000Y-88549000D01*
X77051000Y-88549000D01*
X77051000Y-90251000D01*
X77051000Y-90251000D01*
G37*
G36*
X96386823Y-88561313D02*
G01*
X96547242Y-88609976D01*
X96679906Y-88680886D01*
X96695078Y-88688996D01*
X96824659Y-88795341D01*
X96931004Y-88924922D01*
X96931005Y-88924924D01*
X97010024Y-89072758D01*
X97058687Y-89233177D01*
X97075117Y-89400000D01*
X97058687Y-89566823D01*
X97010024Y-89727242D01*
X96939114Y-89859906D01*
X96931004Y-89875078D01*
X96824659Y-90004659D01*
X96695078Y-90111004D01*
X96695076Y-90111005D01*
X96547242Y-90190024D01*
X96386823Y-90238687D01*
X96261804Y-90251000D01*
X96178196Y-90251000D01*
X96053177Y-90238687D01*
X95892758Y-90190024D01*
X95744924Y-90111005D01*
X95744922Y-90111004D01*
X95615341Y-90004659D01*
X95508996Y-89875078D01*
X95500886Y-89859906D01*
X95429976Y-89727242D01*
X95381313Y-89566823D01*
X95364883Y-89400000D01*
X95381313Y-89233177D01*
X95429976Y-89072758D01*
X95508995Y-88924924D01*
X95508996Y-88924922D01*
X95615341Y-88795341D01*
X95744922Y-88688996D01*
X95760094Y-88680886D01*
X95892758Y-88609976D01*
X96053177Y-88561313D01*
X96178196Y-88549000D01*
X96261804Y-88549000D01*
X96386823Y-88561313D01*
X96386823Y-88561313D01*
G37*
G36*
X89451000Y-90251000D02*
G01*
X87749000Y-90251000D01*
X87749000Y-88549000D01*
X89451000Y-88549000D01*
X89451000Y-90251000D01*
X89451000Y-90251000D01*
G37*
G36*
X83986823Y-88561313D02*
G01*
X84147242Y-88609976D01*
X84279906Y-88680886D01*
X84295078Y-88688996D01*
X84424659Y-88795341D01*
X84531004Y-88924922D01*
X84531005Y-88924924D01*
X84610024Y-89072758D01*
X84658687Y-89233177D01*
X84675117Y-89400000D01*
X84658687Y-89566823D01*
X84610024Y-89727242D01*
X84539114Y-89859906D01*
X84531004Y-89875078D01*
X84424659Y-90004659D01*
X84295078Y-90111004D01*
X84295076Y-90111005D01*
X84147242Y-90190024D01*
X83986823Y-90238687D01*
X83861804Y-90251000D01*
X83778196Y-90251000D01*
X83653177Y-90238687D01*
X83492758Y-90190024D01*
X83344924Y-90111005D01*
X83344922Y-90111004D01*
X83215341Y-90004659D01*
X83108996Y-89875078D01*
X83100886Y-89859906D01*
X83029976Y-89727242D01*
X82981313Y-89566823D01*
X82964883Y-89400000D01*
X82981313Y-89233177D01*
X83029976Y-89072758D01*
X83108995Y-88924924D01*
X83108996Y-88924922D01*
X83215341Y-88795341D01*
X83344922Y-88688996D01*
X83360094Y-88680886D01*
X83492758Y-88609976D01*
X83653177Y-88561313D01*
X83778196Y-88549000D01*
X83861804Y-88549000D01*
X83986823Y-88561313D01*
X83986823Y-88561313D01*
G37*
G36*
X96386823Y-82941313D02*
G01*
X96547242Y-82989976D01*
X96679906Y-83060886D01*
X96695078Y-83068996D01*
X96824659Y-83175341D01*
X96931004Y-83304922D01*
X96931005Y-83304924D01*
X97010024Y-83452758D01*
X97058687Y-83613177D01*
X97075117Y-83780000D01*
X97058687Y-83946823D01*
X97010024Y-84107242D01*
X96939114Y-84239906D01*
X96931004Y-84255078D01*
X96824659Y-84384659D01*
X96695078Y-84491004D01*
X96695076Y-84491005D01*
X96547242Y-84570024D01*
X96386823Y-84618687D01*
X96261804Y-84631000D01*
X96178196Y-84631000D01*
X96053177Y-84618687D01*
X95892758Y-84570024D01*
X95744924Y-84491005D01*
X95744922Y-84491004D01*
X95615341Y-84384659D01*
X95508996Y-84255078D01*
X95500886Y-84239906D01*
X95429976Y-84107242D01*
X95381313Y-83946823D01*
X95364883Y-83780000D01*
X95381313Y-83613177D01*
X95429976Y-83452758D01*
X95508995Y-83304924D01*
X95508996Y-83304922D01*
X95615341Y-83175341D01*
X95744922Y-83068996D01*
X95760094Y-83060886D01*
X95892758Y-82989976D01*
X96053177Y-82941313D01*
X96178196Y-82929000D01*
X96261804Y-82929000D01*
X96386823Y-82941313D01*
X96386823Y-82941313D01*
G37*
G36*
X88766823Y-82941313D02*
G01*
X88927242Y-82989976D01*
X89059906Y-83060886D01*
X89075078Y-83068996D01*
X89204659Y-83175341D01*
X89311004Y-83304922D01*
X89311005Y-83304924D01*
X89390024Y-83452758D01*
X89438687Y-83613177D01*
X89455117Y-83780000D01*
X89438687Y-83946823D01*
X89390024Y-84107242D01*
X89319114Y-84239906D01*
X89311004Y-84255078D01*
X89204659Y-84384659D01*
X89075078Y-84491004D01*
X89075076Y-84491005D01*
X88927242Y-84570024D01*
X88766823Y-84618687D01*
X88641804Y-84631000D01*
X88558196Y-84631000D01*
X88433177Y-84618687D01*
X88272758Y-84570024D01*
X88124924Y-84491005D01*
X88124922Y-84491004D01*
X87995341Y-84384659D01*
X87888996Y-84255078D01*
X87880886Y-84239906D01*
X87809976Y-84107242D01*
X87761313Y-83946823D01*
X87744883Y-83780000D01*
X87761313Y-83613177D01*
X87809976Y-83452758D01*
X87888995Y-83304924D01*
X87888996Y-83304922D01*
X87995341Y-83175341D01*
X88124922Y-83068996D01*
X88140094Y-83060886D01*
X88272758Y-82989976D01*
X88433177Y-82941313D01*
X88558196Y-82929000D01*
X88641804Y-82929000D01*
X88766823Y-82941313D01*
X88766823Y-82941313D01*
G37*
G36*
X88766823Y-80401313D02*
G01*
X88927242Y-80449976D01*
X89059906Y-80520886D01*
X89075078Y-80528996D01*
X89204659Y-80635341D01*
X89311004Y-80764922D01*
X89311005Y-80764924D01*
X89390024Y-80912758D01*
X89438687Y-81073177D01*
X89455117Y-81240000D01*
X89438687Y-81406823D01*
X89390024Y-81567242D01*
X89319114Y-81699906D01*
X89311004Y-81715078D01*
X89204659Y-81844659D01*
X89075078Y-81951004D01*
X89075076Y-81951005D01*
X88927242Y-82030024D01*
X88766823Y-82078687D01*
X88641804Y-82091000D01*
X88558196Y-82091000D01*
X88433177Y-82078687D01*
X88272758Y-82030024D01*
X88124924Y-81951005D01*
X88124922Y-81951004D01*
X87995341Y-81844659D01*
X87888996Y-81715078D01*
X87880886Y-81699906D01*
X87809976Y-81567242D01*
X87761313Y-81406823D01*
X87744883Y-81240000D01*
X87761313Y-81073177D01*
X87809976Y-80912758D01*
X87888995Y-80764924D01*
X87888996Y-80764922D01*
X87995341Y-80635341D01*
X88124922Y-80528996D01*
X88140094Y-80520886D01*
X88272758Y-80449976D01*
X88433177Y-80401313D01*
X88558196Y-80389000D01*
X88641804Y-80389000D01*
X88766823Y-80401313D01*
X88766823Y-80401313D01*
G37*
G36*
X96386823Y-80401313D02*
G01*
X96547242Y-80449976D01*
X96679906Y-80520886D01*
X96695078Y-80528996D01*
X96824659Y-80635341D01*
X96931004Y-80764922D01*
X96931005Y-80764924D01*
X97010024Y-80912758D01*
X97058687Y-81073177D01*
X97075117Y-81240000D01*
X97058687Y-81406823D01*
X97010024Y-81567242D01*
X96939114Y-81699906D01*
X96931004Y-81715078D01*
X96824659Y-81844659D01*
X96695078Y-81951004D01*
X96695076Y-81951005D01*
X96547242Y-82030024D01*
X96386823Y-82078687D01*
X96261804Y-82091000D01*
X96178196Y-82091000D01*
X96053177Y-82078687D01*
X95892758Y-82030024D01*
X95744924Y-81951005D01*
X95744922Y-81951004D01*
X95615341Y-81844659D01*
X95508996Y-81715078D01*
X95500886Y-81699906D01*
X95429976Y-81567242D01*
X95381313Y-81406823D01*
X95364883Y-81240000D01*
X95381313Y-81073177D01*
X95429976Y-80912758D01*
X95508995Y-80764924D01*
X95508996Y-80764922D01*
X95615341Y-80635341D01*
X95744922Y-80528996D01*
X95760094Y-80520886D01*
X95892758Y-80449976D01*
X96053177Y-80401313D01*
X96178196Y-80389000D01*
X96261804Y-80389000D01*
X96386823Y-80401313D01*
X96386823Y-80401313D01*
G37*
G36*
X89451000Y-79551000D02*
G01*
X87749000Y-79551000D01*
X87749000Y-77849000D01*
X89451000Y-77849000D01*
X89451000Y-79551000D01*
X89451000Y-79551000D01*
G37*
G36*
X96386823Y-77861313D02*
G01*
X96547242Y-77909976D01*
X96679906Y-77980886D01*
X96695078Y-77988996D01*
X96824659Y-78095341D01*
X96931004Y-78224922D01*
X96931005Y-78224924D01*
X97010024Y-78372758D01*
X97058687Y-78533177D01*
X97075117Y-78700000D01*
X97058687Y-78866823D01*
X97010024Y-79027242D01*
X96939114Y-79159906D01*
X96931004Y-79175078D01*
X96824659Y-79304659D01*
X96695078Y-79411004D01*
X96695076Y-79411005D01*
X96547242Y-79490024D01*
X96386823Y-79538687D01*
X96261804Y-79551000D01*
X96178196Y-79551000D01*
X96053177Y-79538687D01*
X95892758Y-79490024D01*
X95744924Y-79411005D01*
X95744922Y-79411004D01*
X95615341Y-79304659D01*
X95508996Y-79175078D01*
X95500886Y-79159906D01*
X95429976Y-79027242D01*
X95381313Y-78866823D01*
X95364883Y-78700000D01*
X95381313Y-78533177D01*
X95429976Y-78372758D01*
X95508995Y-78224924D01*
X95508996Y-78224922D01*
X95615341Y-78095341D01*
X95744922Y-77988996D01*
X95760094Y-77980886D01*
X95892758Y-77909976D01*
X96053177Y-77861313D01*
X96178196Y-77849000D01*
X96261804Y-77849000D01*
X96386823Y-77861313D01*
X96386823Y-77861313D01*
G37*
G36*
X111701000Y-47801000D02*
G01*
X109099000Y-47801000D01*
X109099000Y-46199000D01*
X111701000Y-46199000D01*
X111701000Y-47801000D01*
X111701000Y-47801000D01*
G37*
G36*
X110978571Y-43662863D02*
G01*
X111057023Y-43670590D01*
X111157682Y-43701125D01*
X111208013Y-43716392D01*
X111347165Y-43790771D01*
X111469133Y-43890867D01*
X111569229Y-44012835D01*
X111643608Y-44151987D01*
X111643608Y-44151988D01*
X111689410Y-44302977D01*
X111704875Y-44460000D01*
X111689410Y-44617023D01*
X111658875Y-44717682D01*
X111643608Y-44768013D01*
X111569229Y-44907165D01*
X111469133Y-45029133D01*
X111347165Y-45129229D01*
X111208013Y-45203608D01*
X111157682Y-45218875D01*
X111057023Y-45249410D01*
X110978571Y-45257137D01*
X110939346Y-45261000D01*
X109860654Y-45261000D01*
X109821429Y-45257137D01*
X109742977Y-45249410D01*
X109642318Y-45218875D01*
X109591987Y-45203608D01*
X109452835Y-45129229D01*
X109330867Y-45029133D01*
X109230771Y-44907165D01*
X109156392Y-44768013D01*
X109141125Y-44717682D01*
X109110590Y-44617023D01*
X109095125Y-44460000D01*
X109110590Y-44302977D01*
X109156392Y-44151988D01*
X109156392Y-44151987D01*
X109230771Y-44012835D01*
X109330867Y-43890867D01*
X109452835Y-43790771D01*
X109591987Y-43716392D01*
X109642318Y-43701125D01*
X109742977Y-43670590D01*
X109821429Y-43662863D01*
X109860654Y-43659000D01*
X110939346Y-43659000D01*
X110978571Y-43662863D01*
X110978571Y-43662863D01*
G37*
G36*
X110978571Y-41122863D02*
G01*
X111057023Y-41130590D01*
X111157682Y-41161125D01*
X111208013Y-41176392D01*
X111347165Y-41250771D01*
X111469133Y-41350867D01*
X111569229Y-41472835D01*
X111643608Y-41611987D01*
X111643608Y-41611988D01*
X111689410Y-41762977D01*
X111704875Y-41920000D01*
X111689410Y-42077023D01*
X111658875Y-42177682D01*
X111643608Y-42228013D01*
X111569229Y-42367165D01*
X111469133Y-42489133D01*
X111347165Y-42589229D01*
X111208013Y-42663608D01*
X111157682Y-42678875D01*
X111057023Y-42709410D01*
X110978571Y-42717137D01*
X110939346Y-42721000D01*
X109860654Y-42721000D01*
X109821429Y-42717137D01*
X109742977Y-42709410D01*
X109642318Y-42678875D01*
X109591987Y-42663608D01*
X109452835Y-42589229D01*
X109330867Y-42489133D01*
X109230771Y-42367165D01*
X109156392Y-42228013D01*
X109141125Y-42177682D01*
X109110590Y-42077023D01*
X109095125Y-41920000D01*
X109110590Y-41762977D01*
X109156392Y-41611988D01*
X109156392Y-41611987D01*
X109230771Y-41472835D01*
X109330867Y-41350867D01*
X109452835Y-41250771D01*
X109591987Y-41176392D01*
X109642318Y-41161125D01*
X109742977Y-41130590D01*
X109821429Y-41122863D01*
X109860654Y-41119000D01*
X110939346Y-41119000D01*
X110978571Y-41122863D01*
X110978571Y-41122863D01*
G37*
G36*
X96510443Y-38705519D02*
G01*
X96576627Y-38712037D01*
X96746466Y-38763557D01*
X96902991Y-38847222D01*
X96938729Y-38876552D01*
X97040186Y-38959814D01*
X97123448Y-39061271D01*
X97152778Y-39097009D01*
X97236443Y-39253534D01*
X97287963Y-39423373D01*
X97305359Y-39600000D01*
X97287963Y-39776627D01*
X97236443Y-39946466D01*
X97152778Y-40102991D01*
X97123448Y-40138729D01*
X97040186Y-40240186D01*
X96938729Y-40323448D01*
X96902991Y-40352778D01*
X96746466Y-40436443D01*
X96576627Y-40487963D01*
X96510442Y-40494482D01*
X96444260Y-40501000D01*
X96355740Y-40501000D01*
X96289558Y-40494482D01*
X96223373Y-40487963D01*
X96053534Y-40436443D01*
X95897009Y-40352778D01*
X95861271Y-40323448D01*
X95759814Y-40240186D01*
X95676552Y-40138729D01*
X95647222Y-40102991D01*
X95563557Y-39946466D01*
X95512037Y-39776627D01*
X95494641Y-39600000D01*
X95512037Y-39423373D01*
X95563557Y-39253534D01*
X95647222Y-39097009D01*
X95676552Y-39061271D01*
X95759814Y-38959814D01*
X95861271Y-38876552D01*
X95897009Y-38847222D01*
X96053534Y-38763557D01*
X96223373Y-38712037D01*
X96289557Y-38705519D01*
X96355740Y-38699000D01*
X96444260Y-38699000D01*
X96510443Y-38705519D01*
X96510443Y-38705519D01*
G37*
G36*
X59201000Y-40501000D02*
G01*
X57399000Y-40501000D01*
X57399000Y-38699000D01*
X59201000Y-38699000D01*
X59201000Y-40501000D01*
X59201000Y-40501000D01*
G37*
G36*
X93970443Y-38705519D02*
G01*
X94036627Y-38712037D01*
X94206466Y-38763557D01*
X94362991Y-38847222D01*
X94398729Y-38876552D01*
X94500186Y-38959814D01*
X94583448Y-39061271D01*
X94612778Y-39097009D01*
X94696443Y-39253534D01*
X94747963Y-39423373D01*
X94765359Y-39600000D01*
X94747963Y-39776627D01*
X94696443Y-39946466D01*
X94612778Y-40102991D01*
X94583448Y-40138729D01*
X94500186Y-40240186D01*
X94398729Y-40323448D01*
X94362991Y-40352778D01*
X94206466Y-40436443D01*
X94036627Y-40487963D01*
X93970442Y-40494482D01*
X93904260Y-40501000D01*
X93815740Y-40501000D01*
X93749558Y-40494482D01*
X93683373Y-40487963D01*
X93513534Y-40436443D01*
X93357009Y-40352778D01*
X93321271Y-40323448D01*
X93219814Y-40240186D01*
X93136552Y-40138729D01*
X93107222Y-40102991D01*
X93023557Y-39946466D01*
X92972037Y-39776627D01*
X92954641Y-39600000D01*
X92972037Y-39423373D01*
X93023557Y-39253534D01*
X93107222Y-39097009D01*
X93136552Y-39061271D01*
X93219814Y-38959814D01*
X93321271Y-38876552D01*
X93357009Y-38847222D01*
X93513534Y-38763557D01*
X93683373Y-38712037D01*
X93749557Y-38705519D01*
X93815740Y-38699000D01*
X93904260Y-38699000D01*
X93970443Y-38705519D01*
X93970443Y-38705519D01*
G37*
G36*
X91430443Y-38705519D02*
G01*
X91496627Y-38712037D01*
X91666466Y-38763557D01*
X91822991Y-38847222D01*
X91858729Y-38876552D01*
X91960186Y-38959814D01*
X92043448Y-39061271D01*
X92072778Y-39097009D01*
X92156443Y-39253534D01*
X92207963Y-39423373D01*
X92225359Y-39600000D01*
X92207963Y-39776627D01*
X92156443Y-39946466D01*
X92072778Y-40102991D01*
X92043448Y-40138729D01*
X91960186Y-40240186D01*
X91858729Y-40323448D01*
X91822991Y-40352778D01*
X91666466Y-40436443D01*
X91496627Y-40487963D01*
X91430442Y-40494482D01*
X91364260Y-40501000D01*
X91275740Y-40501000D01*
X91209558Y-40494482D01*
X91143373Y-40487963D01*
X90973534Y-40436443D01*
X90817009Y-40352778D01*
X90781271Y-40323448D01*
X90679814Y-40240186D01*
X90596552Y-40138729D01*
X90567222Y-40102991D01*
X90483557Y-39946466D01*
X90432037Y-39776627D01*
X90414641Y-39600000D01*
X90432037Y-39423373D01*
X90483557Y-39253534D01*
X90567222Y-39097009D01*
X90596552Y-39061271D01*
X90679814Y-38959814D01*
X90781271Y-38876552D01*
X90817009Y-38847222D01*
X90973534Y-38763557D01*
X91143373Y-38712037D01*
X91209557Y-38705519D01*
X91275740Y-38699000D01*
X91364260Y-38699000D01*
X91430443Y-38705519D01*
X91430443Y-38705519D01*
G37*
G36*
X86350443Y-38705519D02*
G01*
X86416627Y-38712037D01*
X86586466Y-38763557D01*
X86742991Y-38847222D01*
X86778729Y-38876552D01*
X86880186Y-38959814D01*
X86963448Y-39061271D01*
X86992778Y-39097009D01*
X87076443Y-39253534D01*
X87127963Y-39423373D01*
X87145359Y-39600000D01*
X87127963Y-39776627D01*
X87076443Y-39946466D01*
X86992778Y-40102991D01*
X86963448Y-40138729D01*
X86880186Y-40240186D01*
X86778729Y-40323448D01*
X86742991Y-40352778D01*
X86586466Y-40436443D01*
X86416627Y-40487963D01*
X86350442Y-40494482D01*
X86284260Y-40501000D01*
X86195740Y-40501000D01*
X86129558Y-40494482D01*
X86063373Y-40487963D01*
X85893534Y-40436443D01*
X85737009Y-40352778D01*
X85701271Y-40323448D01*
X85599814Y-40240186D01*
X85516552Y-40138729D01*
X85487222Y-40102991D01*
X85403557Y-39946466D01*
X85352037Y-39776627D01*
X85334641Y-39600000D01*
X85352037Y-39423373D01*
X85403557Y-39253534D01*
X85487222Y-39097009D01*
X85516552Y-39061271D01*
X85599814Y-38959814D01*
X85701271Y-38876552D01*
X85737009Y-38847222D01*
X85893534Y-38763557D01*
X86063373Y-38712037D01*
X86129557Y-38705519D01*
X86195740Y-38699000D01*
X86284260Y-38699000D01*
X86350443Y-38705519D01*
X86350443Y-38705519D01*
G37*
G36*
X83810443Y-38705519D02*
G01*
X83876627Y-38712037D01*
X84046466Y-38763557D01*
X84202991Y-38847222D01*
X84238729Y-38876552D01*
X84340186Y-38959814D01*
X84423448Y-39061271D01*
X84452778Y-39097009D01*
X84536443Y-39253534D01*
X84587963Y-39423373D01*
X84605359Y-39600000D01*
X84587963Y-39776627D01*
X84536443Y-39946466D01*
X84452778Y-40102991D01*
X84423448Y-40138729D01*
X84340186Y-40240186D01*
X84238729Y-40323448D01*
X84202991Y-40352778D01*
X84046466Y-40436443D01*
X83876627Y-40487963D01*
X83810442Y-40494482D01*
X83744260Y-40501000D01*
X83655740Y-40501000D01*
X83589558Y-40494482D01*
X83523373Y-40487963D01*
X83353534Y-40436443D01*
X83197009Y-40352778D01*
X83161271Y-40323448D01*
X83059814Y-40240186D01*
X82976552Y-40138729D01*
X82947222Y-40102991D01*
X82863557Y-39946466D01*
X82812037Y-39776627D01*
X82794641Y-39600000D01*
X82812037Y-39423373D01*
X82863557Y-39253534D01*
X82947222Y-39097009D01*
X82976552Y-39061271D01*
X83059814Y-38959814D01*
X83161271Y-38876552D01*
X83197009Y-38847222D01*
X83353534Y-38763557D01*
X83523373Y-38712037D01*
X83589557Y-38705519D01*
X83655740Y-38699000D01*
X83744260Y-38699000D01*
X83810443Y-38705519D01*
X83810443Y-38705519D01*
G37*
G36*
X81270443Y-38705519D02*
G01*
X81336627Y-38712037D01*
X81506466Y-38763557D01*
X81662991Y-38847222D01*
X81698729Y-38876552D01*
X81800186Y-38959814D01*
X81883448Y-39061271D01*
X81912778Y-39097009D01*
X81996443Y-39253534D01*
X82047963Y-39423373D01*
X82065359Y-39600000D01*
X82047963Y-39776627D01*
X81996443Y-39946466D01*
X81912778Y-40102991D01*
X81883448Y-40138729D01*
X81800186Y-40240186D01*
X81698729Y-40323448D01*
X81662991Y-40352778D01*
X81506466Y-40436443D01*
X81336627Y-40487963D01*
X81270442Y-40494482D01*
X81204260Y-40501000D01*
X81115740Y-40501000D01*
X81049558Y-40494482D01*
X80983373Y-40487963D01*
X80813534Y-40436443D01*
X80657009Y-40352778D01*
X80621271Y-40323448D01*
X80519814Y-40240186D01*
X80436552Y-40138729D01*
X80407222Y-40102991D01*
X80323557Y-39946466D01*
X80272037Y-39776627D01*
X80254641Y-39600000D01*
X80272037Y-39423373D01*
X80323557Y-39253534D01*
X80407222Y-39097009D01*
X80436552Y-39061271D01*
X80519814Y-38959814D01*
X80621271Y-38876552D01*
X80657009Y-38847222D01*
X80813534Y-38763557D01*
X80983373Y-38712037D01*
X81049557Y-38705519D01*
X81115740Y-38699000D01*
X81204260Y-38699000D01*
X81270443Y-38705519D01*
X81270443Y-38705519D01*
G37*
G36*
X78730443Y-38705519D02*
G01*
X78796627Y-38712037D01*
X78966466Y-38763557D01*
X79122991Y-38847222D01*
X79158729Y-38876552D01*
X79260186Y-38959814D01*
X79343448Y-39061271D01*
X79372778Y-39097009D01*
X79456443Y-39253534D01*
X79507963Y-39423373D01*
X79525359Y-39600000D01*
X79507963Y-39776627D01*
X79456443Y-39946466D01*
X79372778Y-40102991D01*
X79343448Y-40138729D01*
X79260186Y-40240186D01*
X79158729Y-40323448D01*
X79122991Y-40352778D01*
X78966466Y-40436443D01*
X78796627Y-40487963D01*
X78730442Y-40494482D01*
X78664260Y-40501000D01*
X78575740Y-40501000D01*
X78509558Y-40494482D01*
X78443373Y-40487963D01*
X78273534Y-40436443D01*
X78117009Y-40352778D01*
X78081271Y-40323448D01*
X77979814Y-40240186D01*
X77896552Y-40138729D01*
X77867222Y-40102991D01*
X77783557Y-39946466D01*
X77732037Y-39776627D01*
X77714641Y-39600000D01*
X77732037Y-39423373D01*
X77783557Y-39253534D01*
X77867222Y-39097009D01*
X77896552Y-39061271D01*
X77979814Y-38959814D01*
X78081271Y-38876552D01*
X78117009Y-38847222D01*
X78273534Y-38763557D01*
X78443373Y-38712037D01*
X78509557Y-38705519D01*
X78575740Y-38699000D01*
X78664260Y-38699000D01*
X78730443Y-38705519D01*
X78730443Y-38705519D01*
G37*
G36*
X76190443Y-38705519D02*
G01*
X76256627Y-38712037D01*
X76426466Y-38763557D01*
X76582991Y-38847222D01*
X76618729Y-38876552D01*
X76720186Y-38959814D01*
X76803448Y-39061271D01*
X76832778Y-39097009D01*
X76916443Y-39253534D01*
X76967963Y-39423373D01*
X76985359Y-39600000D01*
X76967963Y-39776627D01*
X76916443Y-39946466D01*
X76832778Y-40102991D01*
X76803448Y-40138729D01*
X76720186Y-40240186D01*
X76618729Y-40323448D01*
X76582991Y-40352778D01*
X76426466Y-40436443D01*
X76256627Y-40487963D01*
X76190442Y-40494482D01*
X76124260Y-40501000D01*
X76035740Y-40501000D01*
X75969558Y-40494482D01*
X75903373Y-40487963D01*
X75733534Y-40436443D01*
X75577009Y-40352778D01*
X75541271Y-40323448D01*
X75439814Y-40240186D01*
X75356552Y-40138729D01*
X75327222Y-40102991D01*
X75243557Y-39946466D01*
X75192037Y-39776627D01*
X75174641Y-39600000D01*
X75192037Y-39423373D01*
X75243557Y-39253534D01*
X75327222Y-39097009D01*
X75356552Y-39061271D01*
X75439814Y-38959814D01*
X75541271Y-38876552D01*
X75577009Y-38847222D01*
X75733534Y-38763557D01*
X75903373Y-38712037D01*
X75969557Y-38705519D01*
X76035740Y-38699000D01*
X76124260Y-38699000D01*
X76190443Y-38705519D01*
X76190443Y-38705519D01*
G37*
G36*
X73650443Y-38705519D02*
G01*
X73716627Y-38712037D01*
X73886466Y-38763557D01*
X74042991Y-38847222D01*
X74078729Y-38876552D01*
X74180186Y-38959814D01*
X74263448Y-39061271D01*
X74292778Y-39097009D01*
X74376443Y-39253534D01*
X74427963Y-39423373D01*
X74445359Y-39600000D01*
X74427963Y-39776627D01*
X74376443Y-39946466D01*
X74292778Y-40102991D01*
X74263448Y-40138729D01*
X74180186Y-40240186D01*
X74078729Y-40323448D01*
X74042991Y-40352778D01*
X73886466Y-40436443D01*
X73716627Y-40487963D01*
X73650442Y-40494482D01*
X73584260Y-40501000D01*
X73495740Y-40501000D01*
X73429558Y-40494482D01*
X73363373Y-40487963D01*
X73193534Y-40436443D01*
X73037009Y-40352778D01*
X73001271Y-40323448D01*
X72899814Y-40240186D01*
X72816552Y-40138729D01*
X72787222Y-40102991D01*
X72703557Y-39946466D01*
X72652037Y-39776627D01*
X72634641Y-39600000D01*
X72652037Y-39423373D01*
X72703557Y-39253534D01*
X72787222Y-39097009D01*
X72816552Y-39061271D01*
X72899814Y-38959814D01*
X73001271Y-38876552D01*
X73037009Y-38847222D01*
X73193534Y-38763557D01*
X73363373Y-38712037D01*
X73429557Y-38705519D01*
X73495740Y-38699000D01*
X73584260Y-38699000D01*
X73650443Y-38705519D01*
X73650443Y-38705519D01*
G37*
G36*
X71110443Y-38705519D02*
G01*
X71176627Y-38712037D01*
X71346466Y-38763557D01*
X71502991Y-38847222D01*
X71538729Y-38876552D01*
X71640186Y-38959814D01*
X71723448Y-39061271D01*
X71752778Y-39097009D01*
X71836443Y-39253534D01*
X71887963Y-39423373D01*
X71905359Y-39600000D01*
X71887963Y-39776627D01*
X71836443Y-39946466D01*
X71752778Y-40102991D01*
X71723448Y-40138729D01*
X71640186Y-40240186D01*
X71538729Y-40323448D01*
X71502991Y-40352778D01*
X71346466Y-40436443D01*
X71176627Y-40487963D01*
X71110442Y-40494482D01*
X71044260Y-40501000D01*
X70955740Y-40501000D01*
X70889558Y-40494482D01*
X70823373Y-40487963D01*
X70653534Y-40436443D01*
X70497009Y-40352778D01*
X70461271Y-40323448D01*
X70359814Y-40240186D01*
X70276552Y-40138729D01*
X70247222Y-40102991D01*
X70163557Y-39946466D01*
X70112037Y-39776627D01*
X70094641Y-39600000D01*
X70112037Y-39423373D01*
X70163557Y-39253534D01*
X70247222Y-39097009D01*
X70276552Y-39061271D01*
X70359814Y-38959814D01*
X70461271Y-38876552D01*
X70497009Y-38847222D01*
X70653534Y-38763557D01*
X70823373Y-38712037D01*
X70889557Y-38705519D01*
X70955740Y-38699000D01*
X71044260Y-38699000D01*
X71110443Y-38705519D01*
X71110443Y-38705519D01*
G37*
G36*
X68570443Y-38705519D02*
G01*
X68636627Y-38712037D01*
X68806466Y-38763557D01*
X68962991Y-38847222D01*
X68998729Y-38876552D01*
X69100186Y-38959814D01*
X69183448Y-39061271D01*
X69212778Y-39097009D01*
X69296443Y-39253534D01*
X69347963Y-39423373D01*
X69365359Y-39600000D01*
X69347963Y-39776627D01*
X69296443Y-39946466D01*
X69212778Y-40102991D01*
X69183448Y-40138729D01*
X69100186Y-40240186D01*
X68998729Y-40323448D01*
X68962991Y-40352778D01*
X68806466Y-40436443D01*
X68636627Y-40487963D01*
X68570442Y-40494482D01*
X68504260Y-40501000D01*
X68415740Y-40501000D01*
X68349558Y-40494482D01*
X68283373Y-40487963D01*
X68113534Y-40436443D01*
X67957009Y-40352778D01*
X67921271Y-40323448D01*
X67819814Y-40240186D01*
X67736552Y-40138729D01*
X67707222Y-40102991D01*
X67623557Y-39946466D01*
X67572037Y-39776627D01*
X67554641Y-39600000D01*
X67572037Y-39423373D01*
X67623557Y-39253534D01*
X67707222Y-39097009D01*
X67736552Y-39061271D01*
X67819814Y-38959814D01*
X67921271Y-38876552D01*
X67957009Y-38847222D01*
X68113534Y-38763557D01*
X68283373Y-38712037D01*
X68349557Y-38705519D01*
X68415740Y-38699000D01*
X68504260Y-38699000D01*
X68570443Y-38705519D01*
X68570443Y-38705519D01*
G37*
G36*
X66030443Y-38705519D02*
G01*
X66096627Y-38712037D01*
X66266466Y-38763557D01*
X66422991Y-38847222D01*
X66458729Y-38876552D01*
X66560186Y-38959814D01*
X66643448Y-39061271D01*
X66672778Y-39097009D01*
X66756443Y-39253534D01*
X66807963Y-39423373D01*
X66825359Y-39600000D01*
X66807963Y-39776627D01*
X66756443Y-39946466D01*
X66672778Y-40102991D01*
X66643448Y-40138729D01*
X66560186Y-40240186D01*
X66458729Y-40323448D01*
X66422991Y-40352778D01*
X66266466Y-40436443D01*
X66096627Y-40487963D01*
X66030442Y-40494482D01*
X65964260Y-40501000D01*
X65875740Y-40501000D01*
X65809558Y-40494482D01*
X65743373Y-40487963D01*
X65573534Y-40436443D01*
X65417009Y-40352778D01*
X65381271Y-40323448D01*
X65279814Y-40240186D01*
X65196552Y-40138729D01*
X65167222Y-40102991D01*
X65083557Y-39946466D01*
X65032037Y-39776627D01*
X65014641Y-39600000D01*
X65032037Y-39423373D01*
X65083557Y-39253534D01*
X65167222Y-39097009D01*
X65196552Y-39061271D01*
X65279814Y-38959814D01*
X65381271Y-38876552D01*
X65417009Y-38847222D01*
X65573534Y-38763557D01*
X65743373Y-38712037D01*
X65809557Y-38705519D01*
X65875740Y-38699000D01*
X65964260Y-38699000D01*
X66030443Y-38705519D01*
X66030443Y-38705519D01*
G37*
G36*
X63490443Y-38705519D02*
G01*
X63556627Y-38712037D01*
X63726466Y-38763557D01*
X63882991Y-38847222D01*
X63918729Y-38876552D01*
X64020186Y-38959814D01*
X64103448Y-39061271D01*
X64132778Y-39097009D01*
X64216443Y-39253534D01*
X64267963Y-39423373D01*
X64285359Y-39600000D01*
X64267963Y-39776627D01*
X64216443Y-39946466D01*
X64132778Y-40102991D01*
X64103448Y-40138729D01*
X64020186Y-40240186D01*
X63918729Y-40323448D01*
X63882991Y-40352778D01*
X63726466Y-40436443D01*
X63556627Y-40487963D01*
X63490442Y-40494482D01*
X63424260Y-40501000D01*
X63335740Y-40501000D01*
X63269558Y-40494482D01*
X63203373Y-40487963D01*
X63033534Y-40436443D01*
X62877009Y-40352778D01*
X62841271Y-40323448D01*
X62739814Y-40240186D01*
X62656552Y-40138729D01*
X62627222Y-40102991D01*
X62543557Y-39946466D01*
X62492037Y-39776627D01*
X62474641Y-39600000D01*
X62492037Y-39423373D01*
X62543557Y-39253534D01*
X62627222Y-39097009D01*
X62656552Y-39061271D01*
X62739814Y-38959814D01*
X62841271Y-38876552D01*
X62877009Y-38847222D01*
X63033534Y-38763557D01*
X63203373Y-38712037D01*
X63269557Y-38705519D01*
X63335740Y-38699000D01*
X63424260Y-38699000D01*
X63490443Y-38705519D01*
X63490443Y-38705519D01*
G37*
G36*
X60950443Y-38705519D02*
G01*
X61016627Y-38712037D01*
X61186466Y-38763557D01*
X61342991Y-38847222D01*
X61378729Y-38876552D01*
X61480186Y-38959814D01*
X61563448Y-39061271D01*
X61592778Y-39097009D01*
X61676443Y-39253534D01*
X61727963Y-39423373D01*
X61745359Y-39600000D01*
X61727963Y-39776627D01*
X61676443Y-39946466D01*
X61592778Y-40102991D01*
X61563448Y-40138729D01*
X61480186Y-40240186D01*
X61378729Y-40323448D01*
X61342991Y-40352778D01*
X61186466Y-40436443D01*
X61016627Y-40487963D01*
X60950442Y-40494482D01*
X60884260Y-40501000D01*
X60795740Y-40501000D01*
X60729558Y-40494482D01*
X60663373Y-40487963D01*
X60493534Y-40436443D01*
X60337009Y-40352778D01*
X60301271Y-40323448D01*
X60199814Y-40240186D01*
X60116552Y-40138729D01*
X60087222Y-40102991D01*
X60003557Y-39946466D01*
X59952037Y-39776627D01*
X59934641Y-39600000D01*
X59952037Y-39423373D01*
X60003557Y-39253534D01*
X60087222Y-39097009D01*
X60116552Y-39061271D01*
X60199814Y-38959814D01*
X60301271Y-38876552D01*
X60337009Y-38847222D01*
X60493534Y-38763557D01*
X60663373Y-38712037D01*
X60729557Y-38705519D01*
X60795740Y-38699000D01*
X60884260Y-38699000D01*
X60950443Y-38705519D01*
X60950443Y-38705519D01*
G37*
G36*
X88890443Y-38705519D02*
G01*
X88956627Y-38712037D01*
X89126466Y-38763557D01*
X89282991Y-38847222D01*
X89318729Y-38876552D01*
X89420186Y-38959814D01*
X89503448Y-39061271D01*
X89532778Y-39097009D01*
X89616443Y-39253534D01*
X89667963Y-39423373D01*
X89685359Y-39600000D01*
X89667963Y-39776627D01*
X89616443Y-39946466D01*
X89532778Y-40102991D01*
X89503448Y-40138729D01*
X89420186Y-40240186D01*
X89318729Y-40323448D01*
X89282991Y-40352778D01*
X89126466Y-40436443D01*
X88956627Y-40487963D01*
X88890442Y-40494482D01*
X88824260Y-40501000D01*
X88735740Y-40501000D01*
X88669558Y-40494482D01*
X88603373Y-40487963D01*
X88433534Y-40436443D01*
X88277009Y-40352778D01*
X88241271Y-40323448D01*
X88139814Y-40240186D01*
X88056552Y-40138729D01*
X88027222Y-40102991D01*
X87943557Y-39946466D01*
X87892037Y-39776627D01*
X87874641Y-39600000D01*
X87892037Y-39423373D01*
X87943557Y-39253534D01*
X88027222Y-39097009D01*
X88056552Y-39061271D01*
X88139814Y-38959814D01*
X88241271Y-38876552D01*
X88277009Y-38847222D01*
X88433534Y-38763557D01*
X88603373Y-38712037D01*
X88669557Y-38705519D01*
X88735740Y-38699000D01*
X88824260Y-38699000D01*
X88890443Y-38705519D01*
X88890443Y-38705519D01*
G37*
M02*
