G04 #@! TF.GenerationSoftware,KiCad,Pcbnew,(5.1.2)-2*
G04 #@! TF.CreationDate,2019-10-30T20:43:34-04:00*
G04 #@! TF.ProjectId,Thermostat_Layout,54686572-6d6f-4737-9461-745f4c61796f,rev?*
G04 #@! TF.SameCoordinates,Original*
G04 #@! TF.FileFunction,Paste,Bot*
G04 #@! TF.FilePolarity,Positive*
%FSLAX46Y46*%
G04 Gerber Fmt 4.6, Leading zero omitted, Abs format (unit mm)*
G04 Created by KiCad (PCBNEW (5.1.2)-2) date 2019-10-30 20:43:34*
%MOMM*%
%LPD*%
G04 APERTURE LIST*
%ADD10R,2.500000X1.000000*%
%ADD11R,3.325000X2.500000*%
%ADD12C,0.100000*%
%ADD13C,0.600000*%
%ADD14R,1.500000X0.550000*%
%ADD15R,0.550000X1.500000*%
%ADD16C,0.590000*%
G04 APERTURE END LIST*
D10*
X180900000Y-75800000D03*
X180900000Y-77800000D03*
X180900000Y-79800000D03*
X180900000Y-81800000D03*
X180900000Y-83800000D03*
X180900000Y-85800000D03*
X180900000Y-87800000D03*
X180900000Y-89800000D03*
X165700000Y-89800000D03*
X165700000Y-87800000D03*
X165700000Y-85800000D03*
X165700000Y-83800000D03*
X165700000Y-81800000D03*
X165700000Y-79800000D03*
X165700000Y-77800000D03*
X165700000Y-75800000D03*
D11*
X147912500Y-101100000D03*
X142087500Y-101100000D03*
D12*
G36*
X145514703Y-115405722D02*
G01*
X145529264Y-115407882D01*
X145543543Y-115411459D01*
X145557403Y-115416418D01*
X145570710Y-115422712D01*
X145583336Y-115430280D01*
X145595159Y-115439048D01*
X145606066Y-115448934D01*
X145615952Y-115459841D01*
X145624720Y-115471664D01*
X145632288Y-115484290D01*
X145638582Y-115497597D01*
X145643541Y-115511457D01*
X145647118Y-115525736D01*
X145649278Y-115540297D01*
X145650000Y-115555000D01*
X145650000Y-115855000D01*
X145649278Y-115869703D01*
X145647118Y-115884264D01*
X145643541Y-115898543D01*
X145638582Y-115912403D01*
X145632288Y-115925710D01*
X145624720Y-115938336D01*
X145615952Y-115950159D01*
X145606066Y-115961066D01*
X145595159Y-115970952D01*
X145583336Y-115979720D01*
X145570710Y-115987288D01*
X145557403Y-115993582D01*
X145543543Y-115998541D01*
X145529264Y-116002118D01*
X145514703Y-116004278D01*
X145500000Y-116005000D01*
X143850000Y-116005000D01*
X143835297Y-116004278D01*
X143820736Y-116002118D01*
X143806457Y-115998541D01*
X143792597Y-115993582D01*
X143779290Y-115987288D01*
X143766664Y-115979720D01*
X143754841Y-115970952D01*
X143743934Y-115961066D01*
X143734048Y-115950159D01*
X143725280Y-115938336D01*
X143717712Y-115925710D01*
X143711418Y-115912403D01*
X143706459Y-115898543D01*
X143702882Y-115884264D01*
X143700722Y-115869703D01*
X143700000Y-115855000D01*
X143700000Y-115555000D01*
X143700722Y-115540297D01*
X143702882Y-115525736D01*
X143706459Y-115511457D01*
X143711418Y-115497597D01*
X143717712Y-115484290D01*
X143725280Y-115471664D01*
X143734048Y-115459841D01*
X143743934Y-115448934D01*
X143754841Y-115439048D01*
X143766664Y-115430280D01*
X143779290Y-115422712D01*
X143792597Y-115416418D01*
X143806457Y-115411459D01*
X143820736Y-115407882D01*
X143835297Y-115405722D01*
X143850000Y-115405000D01*
X145500000Y-115405000D01*
X145514703Y-115405722D01*
X145514703Y-115405722D01*
G37*
D13*
X144675000Y-115705000D03*
D12*
G36*
X145514703Y-114135722D02*
G01*
X145529264Y-114137882D01*
X145543543Y-114141459D01*
X145557403Y-114146418D01*
X145570710Y-114152712D01*
X145583336Y-114160280D01*
X145595159Y-114169048D01*
X145606066Y-114178934D01*
X145615952Y-114189841D01*
X145624720Y-114201664D01*
X145632288Y-114214290D01*
X145638582Y-114227597D01*
X145643541Y-114241457D01*
X145647118Y-114255736D01*
X145649278Y-114270297D01*
X145650000Y-114285000D01*
X145650000Y-114585000D01*
X145649278Y-114599703D01*
X145647118Y-114614264D01*
X145643541Y-114628543D01*
X145638582Y-114642403D01*
X145632288Y-114655710D01*
X145624720Y-114668336D01*
X145615952Y-114680159D01*
X145606066Y-114691066D01*
X145595159Y-114700952D01*
X145583336Y-114709720D01*
X145570710Y-114717288D01*
X145557403Y-114723582D01*
X145543543Y-114728541D01*
X145529264Y-114732118D01*
X145514703Y-114734278D01*
X145500000Y-114735000D01*
X143850000Y-114735000D01*
X143835297Y-114734278D01*
X143820736Y-114732118D01*
X143806457Y-114728541D01*
X143792597Y-114723582D01*
X143779290Y-114717288D01*
X143766664Y-114709720D01*
X143754841Y-114700952D01*
X143743934Y-114691066D01*
X143734048Y-114680159D01*
X143725280Y-114668336D01*
X143717712Y-114655710D01*
X143711418Y-114642403D01*
X143706459Y-114628543D01*
X143702882Y-114614264D01*
X143700722Y-114599703D01*
X143700000Y-114585000D01*
X143700000Y-114285000D01*
X143700722Y-114270297D01*
X143702882Y-114255736D01*
X143706459Y-114241457D01*
X143711418Y-114227597D01*
X143717712Y-114214290D01*
X143725280Y-114201664D01*
X143734048Y-114189841D01*
X143743934Y-114178934D01*
X143754841Y-114169048D01*
X143766664Y-114160280D01*
X143779290Y-114152712D01*
X143792597Y-114146418D01*
X143806457Y-114141459D01*
X143820736Y-114137882D01*
X143835297Y-114135722D01*
X143850000Y-114135000D01*
X145500000Y-114135000D01*
X145514703Y-114135722D01*
X145514703Y-114135722D01*
G37*
D13*
X144675000Y-114435000D03*
D12*
G36*
X145514703Y-112865722D02*
G01*
X145529264Y-112867882D01*
X145543543Y-112871459D01*
X145557403Y-112876418D01*
X145570710Y-112882712D01*
X145583336Y-112890280D01*
X145595159Y-112899048D01*
X145606066Y-112908934D01*
X145615952Y-112919841D01*
X145624720Y-112931664D01*
X145632288Y-112944290D01*
X145638582Y-112957597D01*
X145643541Y-112971457D01*
X145647118Y-112985736D01*
X145649278Y-113000297D01*
X145650000Y-113015000D01*
X145650000Y-113315000D01*
X145649278Y-113329703D01*
X145647118Y-113344264D01*
X145643541Y-113358543D01*
X145638582Y-113372403D01*
X145632288Y-113385710D01*
X145624720Y-113398336D01*
X145615952Y-113410159D01*
X145606066Y-113421066D01*
X145595159Y-113430952D01*
X145583336Y-113439720D01*
X145570710Y-113447288D01*
X145557403Y-113453582D01*
X145543543Y-113458541D01*
X145529264Y-113462118D01*
X145514703Y-113464278D01*
X145500000Y-113465000D01*
X143850000Y-113465000D01*
X143835297Y-113464278D01*
X143820736Y-113462118D01*
X143806457Y-113458541D01*
X143792597Y-113453582D01*
X143779290Y-113447288D01*
X143766664Y-113439720D01*
X143754841Y-113430952D01*
X143743934Y-113421066D01*
X143734048Y-113410159D01*
X143725280Y-113398336D01*
X143717712Y-113385710D01*
X143711418Y-113372403D01*
X143706459Y-113358543D01*
X143702882Y-113344264D01*
X143700722Y-113329703D01*
X143700000Y-113315000D01*
X143700000Y-113015000D01*
X143700722Y-113000297D01*
X143702882Y-112985736D01*
X143706459Y-112971457D01*
X143711418Y-112957597D01*
X143717712Y-112944290D01*
X143725280Y-112931664D01*
X143734048Y-112919841D01*
X143743934Y-112908934D01*
X143754841Y-112899048D01*
X143766664Y-112890280D01*
X143779290Y-112882712D01*
X143792597Y-112876418D01*
X143806457Y-112871459D01*
X143820736Y-112867882D01*
X143835297Y-112865722D01*
X143850000Y-112865000D01*
X145500000Y-112865000D01*
X145514703Y-112865722D01*
X145514703Y-112865722D01*
G37*
D13*
X144675000Y-113165000D03*
D12*
G36*
X145514703Y-111595722D02*
G01*
X145529264Y-111597882D01*
X145543543Y-111601459D01*
X145557403Y-111606418D01*
X145570710Y-111612712D01*
X145583336Y-111620280D01*
X145595159Y-111629048D01*
X145606066Y-111638934D01*
X145615952Y-111649841D01*
X145624720Y-111661664D01*
X145632288Y-111674290D01*
X145638582Y-111687597D01*
X145643541Y-111701457D01*
X145647118Y-111715736D01*
X145649278Y-111730297D01*
X145650000Y-111745000D01*
X145650000Y-112045000D01*
X145649278Y-112059703D01*
X145647118Y-112074264D01*
X145643541Y-112088543D01*
X145638582Y-112102403D01*
X145632288Y-112115710D01*
X145624720Y-112128336D01*
X145615952Y-112140159D01*
X145606066Y-112151066D01*
X145595159Y-112160952D01*
X145583336Y-112169720D01*
X145570710Y-112177288D01*
X145557403Y-112183582D01*
X145543543Y-112188541D01*
X145529264Y-112192118D01*
X145514703Y-112194278D01*
X145500000Y-112195000D01*
X143850000Y-112195000D01*
X143835297Y-112194278D01*
X143820736Y-112192118D01*
X143806457Y-112188541D01*
X143792597Y-112183582D01*
X143779290Y-112177288D01*
X143766664Y-112169720D01*
X143754841Y-112160952D01*
X143743934Y-112151066D01*
X143734048Y-112140159D01*
X143725280Y-112128336D01*
X143717712Y-112115710D01*
X143711418Y-112102403D01*
X143706459Y-112088543D01*
X143702882Y-112074264D01*
X143700722Y-112059703D01*
X143700000Y-112045000D01*
X143700000Y-111745000D01*
X143700722Y-111730297D01*
X143702882Y-111715736D01*
X143706459Y-111701457D01*
X143711418Y-111687597D01*
X143717712Y-111674290D01*
X143725280Y-111661664D01*
X143734048Y-111649841D01*
X143743934Y-111638934D01*
X143754841Y-111629048D01*
X143766664Y-111620280D01*
X143779290Y-111612712D01*
X143792597Y-111606418D01*
X143806457Y-111601459D01*
X143820736Y-111597882D01*
X143835297Y-111595722D01*
X143850000Y-111595000D01*
X145500000Y-111595000D01*
X145514703Y-111595722D01*
X145514703Y-111595722D01*
G37*
D13*
X144675000Y-111895000D03*
D12*
G36*
X140564703Y-111595722D02*
G01*
X140579264Y-111597882D01*
X140593543Y-111601459D01*
X140607403Y-111606418D01*
X140620710Y-111612712D01*
X140633336Y-111620280D01*
X140645159Y-111629048D01*
X140656066Y-111638934D01*
X140665952Y-111649841D01*
X140674720Y-111661664D01*
X140682288Y-111674290D01*
X140688582Y-111687597D01*
X140693541Y-111701457D01*
X140697118Y-111715736D01*
X140699278Y-111730297D01*
X140700000Y-111745000D01*
X140700000Y-112045000D01*
X140699278Y-112059703D01*
X140697118Y-112074264D01*
X140693541Y-112088543D01*
X140688582Y-112102403D01*
X140682288Y-112115710D01*
X140674720Y-112128336D01*
X140665952Y-112140159D01*
X140656066Y-112151066D01*
X140645159Y-112160952D01*
X140633336Y-112169720D01*
X140620710Y-112177288D01*
X140607403Y-112183582D01*
X140593543Y-112188541D01*
X140579264Y-112192118D01*
X140564703Y-112194278D01*
X140550000Y-112195000D01*
X138900000Y-112195000D01*
X138885297Y-112194278D01*
X138870736Y-112192118D01*
X138856457Y-112188541D01*
X138842597Y-112183582D01*
X138829290Y-112177288D01*
X138816664Y-112169720D01*
X138804841Y-112160952D01*
X138793934Y-112151066D01*
X138784048Y-112140159D01*
X138775280Y-112128336D01*
X138767712Y-112115710D01*
X138761418Y-112102403D01*
X138756459Y-112088543D01*
X138752882Y-112074264D01*
X138750722Y-112059703D01*
X138750000Y-112045000D01*
X138750000Y-111745000D01*
X138750722Y-111730297D01*
X138752882Y-111715736D01*
X138756459Y-111701457D01*
X138761418Y-111687597D01*
X138767712Y-111674290D01*
X138775280Y-111661664D01*
X138784048Y-111649841D01*
X138793934Y-111638934D01*
X138804841Y-111629048D01*
X138816664Y-111620280D01*
X138829290Y-111612712D01*
X138842597Y-111606418D01*
X138856457Y-111601459D01*
X138870736Y-111597882D01*
X138885297Y-111595722D01*
X138900000Y-111595000D01*
X140550000Y-111595000D01*
X140564703Y-111595722D01*
X140564703Y-111595722D01*
G37*
D13*
X139725000Y-111895000D03*
D12*
G36*
X140564703Y-112865722D02*
G01*
X140579264Y-112867882D01*
X140593543Y-112871459D01*
X140607403Y-112876418D01*
X140620710Y-112882712D01*
X140633336Y-112890280D01*
X140645159Y-112899048D01*
X140656066Y-112908934D01*
X140665952Y-112919841D01*
X140674720Y-112931664D01*
X140682288Y-112944290D01*
X140688582Y-112957597D01*
X140693541Y-112971457D01*
X140697118Y-112985736D01*
X140699278Y-113000297D01*
X140700000Y-113015000D01*
X140700000Y-113315000D01*
X140699278Y-113329703D01*
X140697118Y-113344264D01*
X140693541Y-113358543D01*
X140688582Y-113372403D01*
X140682288Y-113385710D01*
X140674720Y-113398336D01*
X140665952Y-113410159D01*
X140656066Y-113421066D01*
X140645159Y-113430952D01*
X140633336Y-113439720D01*
X140620710Y-113447288D01*
X140607403Y-113453582D01*
X140593543Y-113458541D01*
X140579264Y-113462118D01*
X140564703Y-113464278D01*
X140550000Y-113465000D01*
X138900000Y-113465000D01*
X138885297Y-113464278D01*
X138870736Y-113462118D01*
X138856457Y-113458541D01*
X138842597Y-113453582D01*
X138829290Y-113447288D01*
X138816664Y-113439720D01*
X138804841Y-113430952D01*
X138793934Y-113421066D01*
X138784048Y-113410159D01*
X138775280Y-113398336D01*
X138767712Y-113385710D01*
X138761418Y-113372403D01*
X138756459Y-113358543D01*
X138752882Y-113344264D01*
X138750722Y-113329703D01*
X138750000Y-113315000D01*
X138750000Y-113015000D01*
X138750722Y-113000297D01*
X138752882Y-112985736D01*
X138756459Y-112971457D01*
X138761418Y-112957597D01*
X138767712Y-112944290D01*
X138775280Y-112931664D01*
X138784048Y-112919841D01*
X138793934Y-112908934D01*
X138804841Y-112899048D01*
X138816664Y-112890280D01*
X138829290Y-112882712D01*
X138842597Y-112876418D01*
X138856457Y-112871459D01*
X138870736Y-112867882D01*
X138885297Y-112865722D01*
X138900000Y-112865000D01*
X140550000Y-112865000D01*
X140564703Y-112865722D01*
X140564703Y-112865722D01*
G37*
D13*
X139725000Y-113165000D03*
D12*
G36*
X140564703Y-114135722D02*
G01*
X140579264Y-114137882D01*
X140593543Y-114141459D01*
X140607403Y-114146418D01*
X140620710Y-114152712D01*
X140633336Y-114160280D01*
X140645159Y-114169048D01*
X140656066Y-114178934D01*
X140665952Y-114189841D01*
X140674720Y-114201664D01*
X140682288Y-114214290D01*
X140688582Y-114227597D01*
X140693541Y-114241457D01*
X140697118Y-114255736D01*
X140699278Y-114270297D01*
X140700000Y-114285000D01*
X140700000Y-114585000D01*
X140699278Y-114599703D01*
X140697118Y-114614264D01*
X140693541Y-114628543D01*
X140688582Y-114642403D01*
X140682288Y-114655710D01*
X140674720Y-114668336D01*
X140665952Y-114680159D01*
X140656066Y-114691066D01*
X140645159Y-114700952D01*
X140633336Y-114709720D01*
X140620710Y-114717288D01*
X140607403Y-114723582D01*
X140593543Y-114728541D01*
X140579264Y-114732118D01*
X140564703Y-114734278D01*
X140550000Y-114735000D01*
X138900000Y-114735000D01*
X138885297Y-114734278D01*
X138870736Y-114732118D01*
X138856457Y-114728541D01*
X138842597Y-114723582D01*
X138829290Y-114717288D01*
X138816664Y-114709720D01*
X138804841Y-114700952D01*
X138793934Y-114691066D01*
X138784048Y-114680159D01*
X138775280Y-114668336D01*
X138767712Y-114655710D01*
X138761418Y-114642403D01*
X138756459Y-114628543D01*
X138752882Y-114614264D01*
X138750722Y-114599703D01*
X138750000Y-114585000D01*
X138750000Y-114285000D01*
X138750722Y-114270297D01*
X138752882Y-114255736D01*
X138756459Y-114241457D01*
X138761418Y-114227597D01*
X138767712Y-114214290D01*
X138775280Y-114201664D01*
X138784048Y-114189841D01*
X138793934Y-114178934D01*
X138804841Y-114169048D01*
X138816664Y-114160280D01*
X138829290Y-114152712D01*
X138842597Y-114146418D01*
X138856457Y-114141459D01*
X138870736Y-114137882D01*
X138885297Y-114135722D01*
X138900000Y-114135000D01*
X140550000Y-114135000D01*
X140564703Y-114135722D01*
X140564703Y-114135722D01*
G37*
D13*
X139725000Y-114435000D03*
D12*
G36*
X140564703Y-115405722D02*
G01*
X140579264Y-115407882D01*
X140593543Y-115411459D01*
X140607403Y-115416418D01*
X140620710Y-115422712D01*
X140633336Y-115430280D01*
X140645159Y-115439048D01*
X140656066Y-115448934D01*
X140665952Y-115459841D01*
X140674720Y-115471664D01*
X140682288Y-115484290D01*
X140688582Y-115497597D01*
X140693541Y-115511457D01*
X140697118Y-115525736D01*
X140699278Y-115540297D01*
X140700000Y-115555000D01*
X140700000Y-115855000D01*
X140699278Y-115869703D01*
X140697118Y-115884264D01*
X140693541Y-115898543D01*
X140688582Y-115912403D01*
X140682288Y-115925710D01*
X140674720Y-115938336D01*
X140665952Y-115950159D01*
X140656066Y-115961066D01*
X140645159Y-115970952D01*
X140633336Y-115979720D01*
X140620710Y-115987288D01*
X140607403Y-115993582D01*
X140593543Y-115998541D01*
X140579264Y-116002118D01*
X140564703Y-116004278D01*
X140550000Y-116005000D01*
X138900000Y-116005000D01*
X138885297Y-116004278D01*
X138870736Y-116002118D01*
X138856457Y-115998541D01*
X138842597Y-115993582D01*
X138829290Y-115987288D01*
X138816664Y-115979720D01*
X138804841Y-115970952D01*
X138793934Y-115961066D01*
X138784048Y-115950159D01*
X138775280Y-115938336D01*
X138767712Y-115925710D01*
X138761418Y-115912403D01*
X138756459Y-115898543D01*
X138752882Y-115884264D01*
X138750722Y-115869703D01*
X138750000Y-115855000D01*
X138750000Y-115555000D01*
X138750722Y-115540297D01*
X138752882Y-115525736D01*
X138756459Y-115511457D01*
X138761418Y-115497597D01*
X138767712Y-115484290D01*
X138775280Y-115471664D01*
X138784048Y-115459841D01*
X138793934Y-115448934D01*
X138804841Y-115439048D01*
X138816664Y-115430280D01*
X138829290Y-115422712D01*
X138842597Y-115416418D01*
X138856457Y-115411459D01*
X138870736Y-115407882D01*
X138885297Y-115405722D01*
X138900000Y-115405000D01*
X140550000Y-115405000D01*
X140564703Y-115405722D01*
X140564703Y-115405722D01*
G37*
D13*
X139725000Y-115705000D03*
D12*
G36*
X133939703Y-75745722D02*
G01*
X133954264Y-75747882D01*
X133968543Y-75751459D01*
X133982403Y-75756418D01*
X133995710Y-75762712D01*
X134008336Y-75770280D01*
X134020159Y-75779048D01*
X134031066Y-75788934D01*
X134040952Y-75799841D01*
X134049720Y-75811664D01*
X134057288Y-75824290D01*
X134063582Y-75837597D01*
X134068541Y-75851457D01*
X134072118Y-75865736D01*
X134074278Y-75880297D01*
X134075000Y-75895000D01*
X134075000Y-76195000D01*
X134074278Y-76209703D01*
X134072118Y-76224264D01*
X134068541Y-76238543D01*
X134063582Y-76252403D01*
X134057288Y-76265710D01*
X134049720Y-76278336D01*
X134040952Y-76290159D01*
X134031066Y-76301066D01*
X134020159Y-76310952D01*
X134008336Y-76319720D01*
X133995710Y-76327288D01*
X133982403Y-76333582D01*
X133968543Y-76338541D01*
X133954264Y-76342118D01*
X133939703Y-76344278D01*
X133925000Y-76345000D01*
X132175000Y-76345000D01*
X132160297Y-76344278D01*
X132145736Y-76342118D01*
X132131457Y-76338541D01*
X132117597Y-76333582D01*
X132104290Y-76327288D01*
X132091664Y-76319720D01*
X132079841Y-76310952D01*
X132068934Y-76301066D01*
X132059048Y-76290159D01*
X132050280Y-76278336D01*
X132042712Y-76265710D01*
X132036418Y-76252403D01*
X132031459Y-76238543D01*
X132027882Y-76224264D01*
X132025722Y-76209703D01*
X132025000Y-76195000D01*
X132025000Y-75895000D01*
X132025722Y-75880297D01*
X132027882Y-75865736D01*
X132031459Y-75851457D01*
X132036418Y-75837597D01*
X132042712Y-75824290D01*
X132050280Y-75811664D01*
X132059048Y-75799841D01*
X132068934Y-75788934D01*
X132079841Y-75779048D01*
X132091664Y-75770280D01*
X132104290Y-75762712D01*
X132117597Y-75756418D01*
X132131457Y-75751459D01*
X132145736Y-75747882D01*
X132160297Y-75745722D01*
X132175000Y-75745000D01*
X133925000Y-75745000D01*
X133939703Y-75745722D01*
X133939703Y-75745722D01*
G37*
D13*
X133050000Y-76045000D03*
D12*
G36*
X133939703Y-77015722D02*
G01*
X133954264Y-77017882D01*
X133968543Y-77021459D01*
X133982403Y-77026418D01*
X133995710Y-77032712D01*
X134008336Y-77040280D01*
X134020159Y-77049048D01*
X134031066Y-77058934D01*
X134040952Y-77069841D01*
X134049720Y-77081664D01*
X134057288Y-77094290D01*
X134063582Y-77107597D01*
X134068541Y-77121457D01*
X134072118Y-77135736D01*
X134074278Y-77150297D01*
X134075000Y-77165000D01*
X134075000Y-77465000D01*
X134074278Y-77479703D01*
X134072118Y-77494264D01*
X134068541Y-77508543D01*
X134063582Y-77522403D01*
X134057288Y-77535710D01*
X134049720Y-77548336D01*
X134040952Y-77560159D01*
X134031066Y-77571066D01*
X134020159Y-77580952D01*
X134008336Y-77589720D01*
X133995710Y-77597288D01*
X133982403Y-77603582D01*
X133968543Y-77608541D01*
X133954264Y-77612118D01*
X133939703Y-77614278D01*
X133925000Y-77615000D01*
X132175000Y-77615000D01*
X132160297Y-77614278D01*
X132145736Y-77612118D01*
X132131457Y-77608541D01*
X132117597Y-77603582D01*
X132104290Y-77597288D01*
X132091664Y-77589720D01*
X132079841Y-77580952D01*
X132068934Y-77571066D01*
X132059048Y-77560159D01*
X132050280Y-77548336D01*
X132042712Y-77535710D01*
X132036418Y-77522403D01*
X132031459Y-77508543D01*
X132027882Y-77494264D01*
X132025722Y-77479703D01*
X132025000Y-77465000D01*
X132025000Y-77165000D01*
X132025722Y-77150297D01*
X132027882Y-77135736D01*
X132031459Y-77121457D01*
X132036418Y-77107597D01*
X132042712Y-77094290D01*
X132050280Y-77081664D01*
X132059048Y-77069841D01*
X132068934Y-77058934D01*
X132079841Y-77049048D01*
X132091664Y-77040280D01*
X132104290Y-77032712D01*
X132117597Y-77026418D01*
X132131457Y-77021459D01*
X132145736Y-77017882D01*
X132160297Y-77015722D01*
X132175000Y-77015000D01*
X133925000Y-77015000D01*
X133939703Y-77015722D01*
X133939703Y-77015722D01*
G37*
D13*
X133050000Y-77315000D03*
D12*
G36*
X133939703Y-78285722D02*
G01*
X133954264Y-78287882D01*
X133968543Y-78291459D01*
X133982403Y-78296418D01*
X133995710Y-78302712D01*
X134008336Y-78310280D01*
X134020159Y-78319048D01*
X134031066Y-78328934D01*
X134040952Y-78339841D01*
X134049720Y-78351664D01*
X134057288Y-78364290D01*
X134063582Y-78377597D01*
X134068541Y-78391457D01*
X134072118Y-78405736D01*
X134074278Y-78420297D01*
X134075000Y-78435000D01*
X134075000Y-78735000D01*
X134074278Y-78749703D01*
X134072118Y-78764264D01*
X134068541Y-78778543D01*
X134063582Y-78792403D01*
X134057288Y-78805710D01*
X134049720Y-78818336D01*
X134040952Y-78830159D01*
X134031066Y-78841066D01*
X134020159Y-78850952D01*
X134008336Y-78859720D01*
X133995710Y-78867288D01*
X133982403Y-78873582D01*
X133968543Y-78878541D01*
X133954264Y-78882118D01*
X133939703Y-78884278D01*
X133925000Y-78885000D01*
X132175000Y-78885000D01*
X132160297Y-78884278D01*
X132145736Y-78882118D01*
X132131457Y-78878541D01*
X132117597Y-78873582D01*
X132104290Y-78867288D01*
X132091664Y-78859720D01*
X132079841Y-78850952D01*
X132068934Y-78841066D01*
X132059048Y-78830159D01*
X132050280Y-78818336D01*
X132042712Y-78805710D01*
X132036418Y-78792403D01*
X132031459Y-78778543D01*
X132027882Y-78764264D01*
X132025722Y-78749703D01*
X132025000Y-78735000D01*
X132025000Y-78435000D01*
X132025722Y-78420297D01*
X132027882Y-78405736D01*
X132031459Y-78391457D01*
X132036418Y-78377597D01*
X132042712Y-78364290D01*
X132050280Y-78351664D01*
X132059048Y-78339841D01*
X132068934Y-78328934D01*
X132079841Y-78319048D01*
X132091664Y-78310280D01*
X132104290Y-78302712D01*
X132117597Y-78296418D01*
X132131457Y-78291459D01*
X132145736Y-78287882D01*
X132160297Y-78285722D01*
X132175000Y-78285000D01*
X133925000Y-78285000D01*
X133939703Y-78285722D01*
X133939703Y-78285722D01*
G37*
D13*
X133050000Y-78585000D03*
D12*
G36*
X133939703Y-79555722D02*
G01*
X133954264Y-79557882D01*
X133968543Y-79561459D01*
X133982403Y-79566418D01*
X133995710Y-79572712D01*
X134008336Y-79580280D01*
X134020159Y-79589048D01*
X134031066Y-79598934D01*
X134040952Y-79609841D01*
X134049720Y-79621664D01*
X134057288Y-79634290D01*
X134063582Y-79647597D01*
X134068541Y-79661457D01*
X134072118Y-79675736D01*
X134074278Y-79690297D01*
X134075000Y-79705000D01*
X134075000Y-80005000D01*
X134074278Y-80019703D01*
X134072118Y-80034264D01*
X134068541Y-80048543D01*
X134063582Y-80062403D01*
X134057288Y-80075710D01*
X134049720Y-80088336D01*
X134040952Y-80100159D01*
X134031066Y-80111066D01*
X134020159Y-80120952D01*
X134008336Y-80129720D01*
X133995710Y-80137288D01*
X133982403Y-80143582D01*
X133968543Y-80148541D01*
X133954264Y-80152118D01*
X133939703Y-80154278D01*
X133925000Y-80155000D01*
X132175000Y-80155000D01*
X132160297Y-80154278D01*
X132145736Y-80152118D01*
X132131457Y-80148541D01*
X132117597Y-80143582D01*
X132104290Y-80137288D01*
X132091664Y-80129720D01*
X132079841Y-80120952D01*
X132068934Y-80111066D01*
X132059048Y-80100159D01*
X132050280Y-80088336D01*
X132042712Y-80075710D01*
X132036418Y-80062403D01*
X132031459Y-80048543D01*
X132027882Y-80034264D01*
X132025722Y-80019703D01*
X132025000Y-80005000D01*
X132025000Y-79705000D01*
X132025722Y-79690297D01*
X132027882Y-79675736D01*
X132031459Y-79661457D01*
X132036418Y-79647597D01*
X132042712Y-79634290D01*
X132050280Y-79621664D01*
X132059048Y-79609841D01*
X132068934Y-79598934D01*
X132079841Y-79589048D01*
X132091664Y-79580280D01*
X132104290Y-79572712D01*
X132117597Y-79566418D01*
X132131457Y-79561459D01*
X132145736Y-79557882D01*
X132160297Y-79555722D01*
X132175000Y-79555000D01*
X133925000Y-79555000D01*
X133939703Y-79555722D01*
X133939703Y-79555722D01*
G37*
D13*
X133050000Y-79855000D03*
D12*
G36*
X133939703Y-80825722D02*
G01*
X133954264Y-80827882D01*
X133968543Y-80831459D01*
X133982403Y-80836418D01*
X133995710Y-80842712D01*
X134008336Y-80850280D01*
X134020159Y-80859048D01*
X134031066Y-80868934D01*
X134040952Y-80879841D01*
X134049720Y-80891664D01*
X134057288Y-80904290D01*
X134063582Y-80917597D01*
X134068541Y-80931457D01*
X134072118Y-80945736D01*
X134074278Y-80960297D01*
X134075000Y-80975000D01*
X134075000Y-81275000D01*
X134074278Y-81289703D01*
X134072118Y-81304264D01*
X134068541Y-81318543D01*
X134063582Y-81332403D01*
X134057288Y-81345710D01*
X134049720Y-81358336D01*
X134040952Y-81370159D01*
X134031066Y-81381066D01*
X134020159Y-81390952D01*
X134008336Y-81399720D01*
X133995710Y-81407288D01*
X133982403Y-81413582D01*
X133968543Y-81418541D01*
X133954264Y-81422118D01*
X133939703Y-81424278D01*
X133925000Y-81425000D01*
X132175000Y-81425000D01*
X132160297Y-81424278D01*
X132145736Y-81422118D01*
X132131457Y-81418541D01*
X132117597Y-81413582D01*
X132104290Y-81407288D01*
X132091664Y-81399720D01*
X132079841Y-81390952D01*
X132068934Y-81381066D01*
X132059048Y-81370159D01*
X132050280Y-81358336D01*
X132042712Y-81345710D01*
X132036418Y-81332403D01*
X132031459Y-81318543D01*
X132027882Y-81304264D01*
X132025722Y-81289703D01*
X132025000Y-81275000D01*
X132025000Y-80975000D01*
X132025722Y-80960297D01*
X132027882Y-80945736D01*
X132031459Y-80931457D01*
X132036418Y-80917597D01*
X132042712Y-80904290D01*
X132050280Y-80891664D01*
X132059048Y-80879841D01*
X132068934Y-80868934D01*
X132079841Y-80859048D01*
X132091664Y-80850280D01*
X132104290Y-80842712D01*
X132117597Y-80836418D01*
X132131457Y-80831459D01*
X132145736Y-80827882D01*
X132160297Y-80825722D01*
X132175000Y-80825000D01*
X133925000Y-80825000D01*
X133939703Y-80825722D01*
X133939703Y-80825722D01*
G37*
D13*
X133050000Y-81125000D03*
D12*
G36*
X133939703Y-82095722D02*
G01*
X133954264Y-82097882D01*
X133968543Y-82101459D01*
X133982403Y-82106418D01*
X133995710Y-82112712D01*
X134008336Y-82120280D01*
X134020159Y-82129048D01*
X134031066Y-82138934D01*
X134040952Y-82149841D01*
X134049720Y-82161664D01*
X134057288Y-82174290D01*
X134063582Y-82187597D01*
X134068541Y-82201457D01*
X134072118Y-82215736D01*
X134074278Y-82230297D01*
X134075000Y-82245000D01*
X134075000Y-82545000D01*
X134074278Y-82559703D01*
X134072118Y-82574264D01*
X134068541Y-82588543D01*
X134063582Y-82602403D01*
X134057288Y-82615710D01*
X134049720Y-82628336D01*
X134040952Y-82640159D01*
X134031066Y-82651066D01*
X134020159Y-82660952D01*
X134008336Y-82669720D01*
X133995710Y-82677288D01*
X133982403Y-82683582D01*
X133968543Y-82688541D01*
X133954264Y-82692118D01*
X133939703Y-82694278D01*
X133925000Y-82695000D01*
X132175000Y-82695000D01*
X132160297Y-82694278D01*
X132145736Y-82692118D01*
X132131457Y-82688541D01*
X132117597Y-82683582D01*
X132104290Y-82677288D01*
X132091664Y-82669720D01*
X132079841Y-82660952D01*
X132068934Y-82651066D01*
X132059048Y-82640159D01*
X132050280Y-82628336D01*
X132042712Y-82615710D01*
X132036418Y-82602403D01*
X132031459Y-82588543D01*
X132027882Y-82574264D01*
X132025722Y-82559703D01*
X132025000Y-82545000D01*
X132025000Y-82245000D01*
X132025722Y-82230297D01*
X132027882Y-82215736D01*
X132031459Y-82201457D01*
X132036418Y-82187597D01*
X132042712Y-82174290D01*
X132050280Y-82161664D01*
X132059048Y-82149841D01*
X132068934Y-82138934D01*
X132079841Y-82129048D01*
X132091664Y-82120280D01*
X132104290Y-82112712D01*
X132117597Y-82106418D01*
X132131457Y-82101459D01*
X132145736Y-82097882D01*
X132160297Y-82095722D01*
X132175000Y-82095000D01*
X133925000Y-82095000D01*
X133939703Y-82095722D01*
X133939703Y-82095722D01*
G37*
D13*
X133050000Y-82395000D03*
D12*
G36*
X133939703Y-83365722D02*
G01*
X133954264Y-83367882D01*
X133968543Y-83371459D01*
X133982403Y-83376418D01*
X133995710Y-83382712D01*
X134008336Y-83390280D01*
X134020159Y-83399048D01*
X134031066Y-83408934D01*
X134040952Y-83419841D01*
X134049720Y-83431664D01*
X134057288Y-83444290D01*
X134063582Y-83457597D01*
X134068541Y-83471457D01*
X134072118Y-83485736D01*
X134074278Y-83500297D01*
X134075000Y-83515000D01*
X134075000Y-83815000D01*
X134074278Y-83829703D01*
X134072118Y-83844264D01*
X134068541Y-83858543D01*
X134063582Y-83872403D01*
X134057288Y-83885710D01*
X134049720Y-83898336D01*
X134040952Y-83910159D01*
X134031066Y-83921066D01*
X134020159Y-83930952D01*
X134008336Y-83939720D01*
X133995710Y-83947288D01*
X133982403Y-83953582D01*
X133968543Y-83958541D01*
X133954264Y-83962118D01*
X133939703Y-83964278D01*
X133925000Y-83965000D01*
X132175000Y-83965000D01*
X132160297Y-83964278D01*
X132145736Y-83962118D01*
X132131457Y-83958541D01*
X132117597Y-83953582D01*
X132104290Y-83947288D01*
X132091664Y-83939720D01*
X132079841Y-83930952D01*
X132068934Y-83921066D01*
X132059048Y-83910159D01*
X132050280Y-83898336D01*
X132042712Y-83885710D01*
X132036418Y-83872403D01*
X132031459Y-83858543D01*
X132027882Y-83844264D01*
X132025722Y-83829703D01*
X132025000Y-83815000D01*
X132025000Y-83515000D01*
X132025722Y-83500297D01*
X132027882Y-83485736D01*
X132031459Y-83471457D01*
X132036418Y-83457597D01*
X132042712Y-83444290D01*
X132050280Y-83431664D01*
X132059048Y-83419841D01*
X132068934Y-83408934D01*
X132079841Y-83399048D01*
X132091664Y-83390280D01*
X132104290Y-83382712D01*
X132117597Y-83376418D01*
X132131457Y-83371459D01*
X132145736Y-83367882D01*
X132160297Y-83365722D01*
X132175000Y-83365000D01*
X133925000Y-83365000D01*
X133939703Y-83365722D01*
X133939703Y-83365722D01*
G37*
D13*
X133050000Y-83665000D03*
D12*
G36*
X133939703Y-84635722D02*
G01*
X133954264Y-84637882D01*
X133968543Y-84641459D01*
X133982403Y-84646418D01*
X133995710Y-84652712D01*
X134008336Y-84660280D01*
X134020159Y-84669048D01*
X134031066Y-84678934D01*
X134040952Y-84689841D01*
X134049720Y-84701664D01*
X134057288Y-84714290D01*
X134063582Y-84727597D01*
X134068541Y-84741457D01*
X134072118Y-84755736D01*
X134074278Y-84770297D01*
X134075000Y-84785000D01*
X134075000Y-85085000D01*
X134074278Y-85099703D01*
X134072118Y-85114264D01*
X134068541Y-85128543D01*
X134063582Y-85142403D01*
X134057288Y-85155710D01*
X134049720Y-85168336D01*
X134040952Y-85180159D01*
X134031066Y-85191066D01*
X134020159Y-85200952D01*
X134008336Y-85209720D01*
X133995710Y-85217288D01*
X133982403Y-85223582D01*
X133968543Y-85228541D01*
X133954264Y-85232118D01*
X133939703Y-85234278D01*
X133925000Y-85235000D01*
X132175000Y-85235000D01*
X132160297Y-85234278D01*
X132145736Y-85232118D01*
X132131457Y-85228541D01*
X132117597Y-85223582D01*
X132104290Y-85217288D01*
X132091664Y-85209720D01*
X132079841Y-85200952D01*
X132068934Y-85191066D01*
X132059048Y-85180159D01*
X132050280Y-85168336D01*
X132042712Y-85155710D01*
X132036418Y-85142403D01*
X132031459Y-85128543D01*
X132027882Y-85114264D01*
X132025722Y-85099703D01*
X132025000Y-85085000D01*
X132025000Y-84785000D01*
X132025722Y-84770297D01*
X132027882Y-84755736D01*
X132031459Y-84741457D01*
X132036418Y-84727597D01*
X132042712Y-84714290D01*
X132050280Y-84701664D01*
X132059048Y-84689841D01*
X132068934Y-84678934D01*
X132079841Y-84669048D01*
X132091664Y-84660280D01*
X132104290Y-84652712D01*
X132117597Y-84646418D01*
X132131457Y-84641459D01*
X132145736Y-84637882D01*
X132160297Y-84635722D01*
X132175000Y-84635000D01*
X133925000Y-84635000D01*
X133939703Y-84635722D01*
X133939703Y-84635722D01*
G37*
D13*
X133050000Y-84935000D03*
D12*
G36*
X133939703Y-85905722D02*
G01*
X133954264Y-85907882D01*
X133968543Y-85911459D01*
X133982403Y-85916418D01*
X133995710Y-85922712D01*
X134008336Y-85930280D01*
X134020159Y-85939048D01*
X134031066Y-85948934D01*
X134040952Y-85959841D01*
X134049720Y-85971664D01*
X134057288Y-85984290D01*
X134063582Y-85997597D01*
X134068541Y-86011457D01*
X134072118Y-86025736D01*
X134074278Y-86040297D01*
X134075000Y-86055000D01*
X134075000Y-86355000D01*
X134074278Y-86369703D01*
X134072118Y-86384264D01*
X134068541Y-86398543D01*
X134063582Y-86412403D01*
X134057288Y-86425710D01*
X134049720Y-86438336D01*
X134040952Y-86450159D01*
X134031066Y-86461066D01*
X134020159Y-86470952D01*
X134008336Y-86479720D01*
X133995710Y-86487288D01*
X133982403Y-86493582D01*
X133968543Y-86498541D01*
X133954264Y-86502118D01*
X133939703Y-86504278D01*
X133925000Y-86505000D01*
X132175000Y-86505000D01*
X132160297Y-86504278D01*
X132145736Y-86502118D01*
X132131457Y-86498541D01*
X132117597Y-86493582D01*
X132104290Y-86487288D01*
X132091664Y-86479720D01*
X132079841Y-86470952D01*
X132068934Y-86461066D01*
X132059048Y-86450159D01*
X132050280Y-86438336D01*
X132042712Y-86425710D01*
X132036418Y-86412403D01*
X132031459Y-86398543D01*
X132027882Y-86384264D01*
X132025722Y-86369703D01*
X132025000Y-86355000D01*
X132025000Y-86055000D01*
X132025722Y-86040297D01*
X132027882Y-86025736D01*
X132031459Y-86011457D01*
X132036418Y-85997597D01*
X132042712Y-85984290D01*
X132050280Y-85971664D01*
X132059048Y-85959841D01*
X132068934Y-85948934D01*
X132079841Y-85939048D01*
X132091664Y-85930280D01*
X132104290Y-85922712D01*
X132117597Y-85916418D01*
X132131457Y-85911459D01*
X132145736Y-85907882D01*
X132160297Y-85905722D01*
X132175000Y-85905000D01*
X133925000Y-85905000D01*
X133939703Y-85905722D01*
X133939703Y-85905722D01*
G37*
D13*
X133050000Y-86205000D03*
D12*
G36*
X133939703Y-87175722D02*
G01*
X133954264Y-87177882D01*
X133968543Y-87181459D01*
X133982403Y-87186418D01*
X133995710Y-87192712D01*
X134008336Y-87200280D01*
X134020159Y-87209048D01*
X134031066Y-87218934D01*
X134040952Y-87229841D01*
X134049720Y-87241664D01*
X134057288Y-87254290D01*
X134063582Y-87267597D01*
X134068541Y-87281457D01*
X134072118Y-87295736D01*
X134074278Y-87310297D01*
X134075000Y-87325000D01*
X134075000Y-87625000D01*
X134074278Y-87639703D01*
X134072118Y-87654264D01*
X134068541Y-87668543D01*
X134063582Y-87682403D01*
X134057288Y-87695710D01*
X134049720Y-87708336D01*
X134040952Y-87720159D01*
X134031066Y-87731066D01*
X134020159Y-87740952D01*
X134008336Y-87749720D01*
X133995710Y-87757288D01*
X133982403Y-87763582D01*
X133968543Y-87768541D01*
X133954264Y-87772118D01*
X133939703Y-87774278D01*
X133925000Y-87775000D01*
X132175000Y-87775000D01*
X132160297Y-87774278D01*
X132145736Y-87772118D01*
X132131457Y-87768541D01*
X132117597Y-87763582D01*
X132104290Y-87757288D01*
X132091664Y-87749720D01*
X132079841Y-87740952D01*
X132068934Y-87731066D01*
X132059048Y-87720159D01*
X132050280Y-87708336D01*
X132042712Y-87695710D01*
X132036418Y-87682403D01*
X132031459Y-87668543D01*
X132027882Y-87654264D01*
X132025722Y-87639703D01*
X132025000Y-87625000D01*
X132025000Y-87325000D01*
X132025722Y-87310297D01*
X132027882Y-87295736D01*
X132031459Y-87281457D01*
X132036418Y-87267597D01*
X132042712Y-87254290D01*
X132050280Y-87241664D01*
X132059048Y-87229841D01*
X132068934Y-87218934D01*
X132079841Y-87209048D01*
X132091664Y-87200280D01*
X132104290Y-87192712D01*
X132117597Y-87186418D01*
X132131457Y-87181459D01*
X132145736Y-87177882D01*
X132160297Y-87175722D01*
X132175000Y-87175000D01*
X133925000Y-87175000D01*
X133939703Y-87175722D01*
X133939703Y-87175722D01*
G37*
D13*
X133050000Y-87475000D03*
D12*
G36*
X133939703Y-88445722D02*
G01*
X133954264Y-88447882D01*
X133968543Y-88451459D01*
X133982403Y-88456418D01*
X133995710Y-88462712D01*
X134008336Y-88470280D01*
X134020159Y-88479048D01*
X134031066Y-88488934D01*
X134040952Y-88499841D01*
X134049720Y-88511664D01*
X134057288Y-88524290D01*
X134063582Y-88537597D01*
X134068541Y-88551457D01*
X134072118Y-88565736D01*
X134074278Y-88580297D01*
X134075000Y-88595000D01*
X134075000Y-88895000D01*
X134074278Y-88909703D01*
X134072118Y-88924264D01*
X134068541Y-88938543D01*
X134063582Y-88952403D01*
X134057288Y-88965710D01*
X134049720Y-88978336D01*
X134040952Y-88990159D01*
X134031066Y-89001066D01*
X134020159Y-89010952D01*
X134008336Y-89019720D01*
X133995710Y-89027288D01*
X133982403Y-89033582D01*
X133968543Y-89038541D01*
X133954264Y-89042118D01*
X133939703Y-89044278D01*
X133925000Y-89045000D01*
X132175000Y-89045000D01*
X132160297Y-89044278D01*
X132145736Y-89042118D01*
X132131457Y-89038541D01*
X132117597Y-89033582D01*
X132104290Y-89027288D01*
X132091664Y-89019720D01*
X132079841Y-89010952D01*
X132068934Y-89001066D01*
X132059048Y-88990159D01*
X132050280Y-88978336D01*
X132042712Y-88965710D01*
X132036418Y-88952403D01*
X132031459Y-88938543D01*
X132027882Y-88924264D01*
X132025722Y-88909703D01*
X132025000Y-88895000D01*
X132025000Y-88595000D01*
X132025722Y-88580297D01*
X132027882Y-88565736D01*
X132031459Y-88551457D01*
X132036418Y-88537597D01*
X132042712Y-88524290D01*
X132050280Y-88511664D01*
X132059048Y-88499841D01*
X132068934Y-88488934D01*
X132079841Y-88479048D01*
X132091664Y-88470280D01*
X132104290Y-88462712D01*
X132117597Y-88456418D01*
X132131457Y-88451459D01*
X132145736Y-88447882D01*
X132160297Y-88445722D01*
X132175000Y-88445000D01*
X133925000Y-88445000D01*
X133939703Y-88445722D01*
X133939703Y-88445722D01*
G37*
D13*
X133050000Y-88745000D03*
D12*
G36*
X133939703Y-89715722D02*
G01*
X133954264Y-89717882D01*
X133968543Y-89721459D01*
X133982403Y-89726418D01*
X133995710Y-89732712D01*
X134008336Y-89740280D01*
X134020159Y-89749048D01*
X134031066Y-89758934D01*
X134040952Y-89769841D01*
X134049720Y-89781664D01*
X134057288Y-89794290D01*
X134063582Y-89807597D01*
X134068541Y-89821457D01*
X134072118Y-89835736D01*
X134074278Y-89850297D01*
X134075000Y-89865000D01*
X134075000Y-90165000D01*
X134074278Y-90179703D01*
X134072118Y-90194264D01*
X134068541Y-90208543D01*
X134063582Y-90222403D01*
X134057288Y-90235710D01*
X134049720Y-90248336D01*
X134040952Y-90260159D01*
X134031066Y-90271066D01*
X134020159Y-90280952D01*
X134008336Y-90289720D01*
X133995710Y-90297288D01*
X133982403Y-90303582D01*
X133968543Y-90308541D01*
X133954264Y-90312118D01*
X133939703Y-90314278D01*
X133925000Y-90315000D01*
X132175000Y-90315000D01*
X132160297Y-90314278D01*
X132145736Y-90312118D01*
X132131457Y-90308541D01*
X132117597Y-90303582D01*
X132104290Y-90297288D01*
X132091664Y-90289720D01*
X132079841Y-90280952D01*
X132068934Y-90271066D01*
X132059048Y-90260159D01*
X132050280Y-90248336D01*
X132042712Y-90235710D01*
X132036418Y-90222403D01*
X132031459Y-90208543D01*
X132027882Y-90194264D01*
X132025722Y-90179703D01*
X132025000Y-90165000D01*
X132025000Y-89865000D01*
X132025722Y-89850297D01*
X132027882Y-89835736D01*
X132031459Y-89821457D01*
X132036418Y-89807597D01*
X132042712Y-89794290D01*
X132050280Y-89781664D01*
X132059048Y-89769841D01*
X132068934Y-89758934D01*
X132079841Y-89749048D01*
X132091664Y-89740280D01*
X132104290Y-89732712D01*
X132117597Y-89726418D01*
X132131457Y-89721459D01*
X132145736Y-89717882D01*
X132160297Y-89715722D01*
X132175000Y-89715000D01*
X133925000Y-89715000D01*
X133939703Y-89715722D01*
X133939703Y-89715722D01*
G37*
D13*
X133050000Y-90015000D03*
D12*
G36*
X133939703Y-90985722D02*
G01*
X133954264Y-90987882D01*
X133968543Y-90991459D01*
X133982403Y-90996418D01*
X133995710Y-91002712D01*
X134008336Y-91010280D01*
X134020159Y-91019048D01*
X134031066Y-91028934D01*
X134040952Y-91039841D01*
X134049720Y-91051664D01*
X134057288Y-91064290D01*
X134063582Y-91077597D01*
X134068541Y-91091457D01*
X134072118Y-91105736D01*
X134074278Y-91120297D01*
X134075000Y-91135000D01*
X134075000Y-91435000D01*
X134074278Y-91449703D01*
X134072118Y-91464264D01*
X134068541Y-91478543D01*
X134063582Y-91492403D01*
X134057288Y-91505710D01*
X134049720Y-91518336D01*
X134040952Y-91530159D01*
X134031066Y-91541066D01*
X134020159Y-91550952D01*
X134008336Y-91559720D01*
X133995710Y-91567288D01*
X133982403Y-91573582D01*
X133968543Y-91578541D01*
X133954264Y-91582118D01*
X133939703Y-91584278D01*
X133925000Y-91585000D01*
X132175000Y-91585000D01*
X132160297Y-91584278D01*
X132145736Y-91582118D01*
X132131457Y-91578541D01*
X132117597Y-91573582D01*
X132104290Y-91567288D01*
X132091664Y-91559720D01*
X132079841Y-91550952D01*
X132068934Y-91541066D01*
X132059048Y-91530159D01*
X132050280Y-91518336D01*
X132042712Y-91505710D01*
X132036418Y-91492403D01*
X132031459Y-91478543D01*
X132027882Y-91464264D01*
X132025722Y-91449703D01*
X132025000Y-91435000D01*
X132025000Y-91135000D01*
X132025722Y-91120297D01*
X132027882Y-91105736D01*
X132031459Y-91091457D01*
X132036418Y-91077597D01*
X132042712Y-91064290D01*
X132050280Y-91051664D01*
X132059048Y-91039841D01*
X132068934Y-91028934D01*
X132079841Y-91019048D01*
X132091664Y-91010280D01*
X132104290Y-91002712D01*
X132117597Y-90996418D01*
X132131457Y-90991459D01*
X132145736Y-90987882D01*
X132160297Y-90985722D01*
X132175000Y-90985000D01*
X133925000Y-90985000D01*
X133939703Y-90985722D01*
X133939703Y-90985722D01*
G37*
D13*
X133050000Y-91285000D03*
D12*
G36*
X133939703Y-92255722D02*
G01*
X133954264Y-92257882D01*
X133968543Y-92261459D01*
X133982403Y-92266418D01*
X133995710Y-92272712D01*
X134008336Y-92280280D01*
X134020159Y-92289048D01*
X134031066Y-92298934D01*
X134040952Y-92309841D01*
X134049720Y-92321664D01*
X134057288Y-92334290D01*
X134063582Y-92347597D01*
X134068541Y-92361457D01*
X134072118Y-92375736D01*
X134074278Y-92390297D01*
X134075000Y-92405000D01*
X134075000Y-92705000D01*
X134074278Y-92719703D01*
X134072118Y-92734264D01*
X134068541Y-92748543D01*
X134063582Y-92762403D01*
X134057288Y-92775710D01*
X134049720Y-92788336D01*
X134040952Y-92800159D01*
X134031066Y-92811066D01*
X134020159Y-92820952D01*
X134008336Y-92829720D01*
X133995710Y-92837288D01*
X133982403Y-92843582D01*
X133968543Y-92848541D01*
X133954264Y-92852118D01*
X133939703Y-92854278D01*
X133925000Y-92855000D01*
X132175000Y-92855000D01*
X132160297Y-92854278D01*
X132145736Y-92852118D01*
X132131457Y-92848541D01*
X132117597Y-92843582D01*
X132104290Y-92837288D01*
X132091664Y-92829720D01*
X132079841Y-92820952D01*
X132068934Y-92811066D01*
X132059048Y-92800159D01*
X132050280Y-92788336D01*
X132042712Y-92775710D01*
X132036418Y-92762403D01*
X132031459Y-92748543D01*
X132027882Y-92734264D01*
X132025722Y-92719703D01*
X132025000Y-92705000D01*
X132025000Y-92405000D01*
X132025722Y-92390297D01*
X132027882Y-92375736D01*
X132031459Y-92361457D01*
X132036418Y-92347597D01*
X132042712Y-92334290D01*
X132050280Y-92321664D01*
X132059048Y-92309841D01*
X132068934Y-92298934D01*
X132079841Y-92289048D01*
X132091664Y-92280280D01*
X132104290Y-92272712D01*
X132117597Y-92266418D01*
X132131457Y-92261459D01*
X132145736Y-92257882D01*
X132160297Y-92255722D01*
X132175000Y-92255000D01*
X133925000Y-92255000D01*
X133939703Y-92255722D01*
X133939703Y-92255722D01*
G37*
D13*
X133050000Y-92555000D03*
D12*
G36*
X143239703Y-92255722D02*
G01*
X143254264Y-92257882D01*
X143268543Y-92261459D01*
X143282403Y-92266418D01*
X143295710Y-92272712D01*
X143308336Y-92280280D01*
X143320159Y-92289048D01*
X143331066Y-92298934D01*
X143340952Y-92309841D01*
X143349720Y-92321664D01*
X143357288Y-92334290D01*
X143363582Y-92347597D01*
X143368541Y-92361457D01*
X143372118Y-92375736D01*
X143374278Y-92390297D01*
X143375000Y-92405000D01*
X143375000Y-92705000D01*
X143374278Y-92719703D01*
X143372118Y-92734264D01*
X143368541Y-92748543D01*
X143363582Y-92762403D01*
X143357288Y-92775710D01*
X143349720Y-92788336D01*
X143340952Y-92800159D01*
X143331066Y-92811066D01*
X143320159Y-92820952D01*
X143308336Y-92829720D01*
X143295710Y-92837288D01*
X143282403Y-92843582D01*
X143268543Y-92848541D01*
X143254264Y-92852118D01*
X143239703Y-92854278D01*
X143225000Y-92855000D01*
X141475000Y-92855000D01*
X141460297Y-92854278D01*
X141445736Y-92852118D01*
X141431457Y-92848541D01*
X141417597Y-92843582D01*
X141404290Y-92837288D01*
X141391664Y-92829720D01*
X141379841Y-92820952D01*
X141368934Y-92811066D01*
X141359048Y-92800159D01*
X141350280Y-92788336D01*
X141342712Y-92775710D01*
X141336418Y-92762403D01*
X141331459Y-92748543D01*
X141327882Y-92734264D01*
X141325722Y-92719703D01*
X141325000Y-92705000D01*
X141325000Y-92405000D01*
X141325722Y-92390297D01*
X141327882Y-92375736D01*
X141331459Y-92361457D01*
X141336418Y-92347597D01*
X141342712Y-92334290D01*
X141350280Y-92321664D01*
X141359048Y-92309841D01*
X141368934Y-92298934D01*
X141379841Y-92289048D01*
X141391664Y-92280280D01*
X141404290Y-92272712D01*
X141417597Y-92266418D01*
X141431457Y-92261459D01*
X141445736Y-92257882D01*
X141460297Y-92255722D01*
X141475000Y-92255000D01*
X143225000Y-92255000D01*
X143239703Y-92255722D01*
X143239703Y-92255722D01*
G37*
D13*
X142350000Y-92555000D03*
D12*
G36*
X143239703Y-90985722D02*
G01*
X143254264Y-90987882D01*
X143268543Y-90991459D01*
X143282403Y-90996418D01*
X143295710Y-91002712D01*
X143308336Y-91010280D01*
X143320159Y-91019048D01*
X143331066Y-91028934D01*
X143340952Y-91039841D01*
X143349720Y-91051664D01*
X143357288Y-91064290D01*
X143363582Y-91077597D01*
X143368541Y-91091457D01*
X143372118Y-91105736D01*
X143374278Y-91120297D01*
X143375000Y-91135000D01*
X143375000Y-91435000D01*
X143374278Y-91449703D01*
X143372118Y-91464264D01*
X143368541Y-91478543D01*
X143363582Y-91492403D01*
X143357288Y-91505710D01*
X143349720Y-91518336D01*
X143340952Y-91530159D01*
X143331066Y-91541066D01*
X143320159Y-91550952D01*
X143308336Y-91559720D01*
X143295710Y-91567288D01*
X143282403Y-91573582D01*
X143268543Y-91578541D01*
X143254264Y-91582118D01*
X143239703Y-91584278D01*
X143225000Y-91585000D01*
X141475000Y-91585000D01*
X141460297Y-91584278D01*
X141445736Y-91582118D01*
X141431457Y-91578541D01*
X141417597Y-91573582D01*
X141404290Y-91567288D01*
X141391664Y-91559720D01*
X141379841Y-91550952D01*
X141368934Y-91541066D01*
X141359048Y-91530159D01*
X141350280Y-91518336D01*
X141342712Y-91505710D01*
X141336418Y-91492403D01*
X141331459Y-91478543D01*
X141327882Y-91464264D01*
X141325722Y-91449703D01*
X141325000Y-91435000D01*
X141325000Y-91135000D01*
X141325722Y-91120297D01*
X141327882Y-91105736D01*
X141331459Y-91091457D01*
X141336418Y-91077597D01*
X141342712Y-91064290D01*
X141350280Y-91051664D01*
X141359048Y-91039841D01*
X141368934Y-91028934D01*
X141379841Y-91019048D01*
X141391664Y-91010280D01*
X141404290Y-91002712D01*
X141417597Y-90996418D01*
X141431457Y-90991459D01*
X141445736Y-90987882D01*
X141460297Y-90985722D01*
X141475000Y-90985000D01*
X143225000Y-90985000D01*
X143239703Y-90985722D01*
X143239703Y-90985722D01*
G37*
D13*
X142350000Y-91285000D03*
D12*
G36*
X143239703Y-89715722D02*
G01*
X143254264Y-89717882D01*
X143268543Y-89721459D01*
X143282403Y-89726418D01*
X143295710Y-89732712D01*
X143308336Y-89740280D01*
X143320159Y-89749048D01*
X143331066Y-89758934D01*
X143340952Y-89769841D01*
X143349720Y-89781664D01*
X143357288Y-89794290D01*
X143363582Y-89807597D01*
X143368541Y-89821457D01*
X143372118Y-89835736D01*
X143374278Y-89850297D01*
X143375000Y-89865000D01*
X143375000Y-90165000D01*
X143374278Y-90179703D01*
X143372118Y-90194264D01*
X143368541Y-90208543D01*
X143363582Y-90222403D01*
X143357288Y-90235710D01*
X143349720Y-90248336D01*
X143340952Y-90260159D01*
X143331066Y-90271066D01*
X143320159Y-90280952D01*
X143308336Y-90289720D01*
X143295710Y-90297288D01*
X143282403Y-90303582D01*
X143268543Y-90308541D01*
X143254264Y-90312118D01*
X143239703Y-90314278D01*
X143225000Y-90315000D01*
X141475000Y-90315000D01*
X141460297Y-90314278D01*
X141445736Y-90312118D01*
X141431457Y-90308541D01*
X141417597Y-90303582D01*
X141404290Y-90297288D01*
X141391664Y-90289720D01*
X141379841Y-90280952D01*
X141368934Y-90271066D01*
X141359048Y-90260159D01*
X141350280Y-90248336D01*
X141342712Y-90235710D01*
X141336418Y-90222403D01*
X141331459Y-90208543D01*
X141327882Y-90194264D01*
X141325722Y-90179703D01*
X141325000Y-90165000D01*
X141325000Y-89865000D01*
X141325722Y-89850297D01*
X141327882Y-89835736D01*
X141331459Y-89821457D01*
X141336418Y-89807597D01*
X141342712Y-89794290D01*
X141350280Y-89781664D01*
X141359048Y-89769841D01*
X141368934Y-89758934D01*
X141379841Y-89749048D01*
X141391664Y-89740280D01*
X141404290Y-89732712D01*
X141417597Y-89726418D01*
X141431457Y-89721459D01*
X141445736Y-89717882D01*
X141460297Y-89715722D01*
X141475000Y-89715000D01*
X143225000Y-89715000D01*
X143239703Y-89715722D01*
X143239703Y-89715722D01*
G37*
D13*
X142350000Y-90015000D03*
D12*
G36*
X143239703Y-88445722D02*
G01*
X143254264Y-88447882D01*
X143268543Y-88451459D01*
X143282403Y-88456418D01*
X143295710Y-88462712D01*
X143308336Y-88470280D01*
X143320159Y-88479048D01*
X143331066Y-88488934D01*
X143340952Y-88499841D01*
X143349720Y-88511664D01*
X143357288Y-88524290D01*
X143363582Y-88537597D01*
X143368541Y-88551457D01*
X143372118Y-88565736D01*
X143374278Y-88580297D01*
X143375000Y-88595000D01*
X143375000Y-88895000D01*
X143374278Y-88909703D01*
X143372118Y-88924264D01*
X143368541Y-88938543D01*
X143363582Y-88952403D01*
X143357288Y-88965710D01*
X143349720Y-88978336D01*
X143340952Y-88990159D01*
X143331066Y-89001066D01*
X143320159Y-89010952D01*
X143308336Y-89019720D01*
X143295710Y-89027288D01*
X143282403Y-89033582D01*
X143268543Y-89038541D01*
X143254264Y-89042118D01*
X143239703Y-89044278D01*
X143225000Y-89045000D01*
X141475000Y-89045000D01*
X141460297Y-89044278D01*
X141445736Y-89042118D01*
X141431457Y-89038541D01*
X141417597Y-89033582D01*
X141404290Y-89027288D01*
X141391664Y-89019720D01*
X141379841Y-89010952D01*
X141368934Y-89001066D01*
X141359048Y-88990159D01*
X141350280Y-88978336D01*
X141342712Y-88965710D01*
X141336418Y-88952403D01*
X141331459Y-88938543D01*
X141327882Y-88924264D01*
X141325722Y-88909703D01*
X141325000Y-88895000D01*
X141325000Y-88595000D01*
X141325722Y-88580297D01*
X141327882Y-88565736D01*
X141331459Y-88551457D01*
X141336418Y-88537597D01*
X141342712Y-88524290D01*
X141350280Y-88511664D01*
X141359048Y-88499841D01*
X141368934Y-88488934D01*
X141379841Y-88479048D01*
X141391664Y-88470280D01*
X141404290Y-88462712D01*
X141417597Y-88456418D01*
X141431457Y-88451459D01*
X141445736Y-88447882D01*
X141460297Y-88445722D01*
X141475000Y-88445000D01*
X143225000Y-88445000D01*
X143239703Y-88445722D01*
X143239703Y-88445722D01*
G37*
D13*
X142350000Y-88745000D03*
D12*
G36*
X143239703Y-87175722D02*
G01*
X143254264Y-87177882D01*
X143268543Y-87181459D01*
X143282403Y-87186418D01*
X143295710Y-87192712D01*
X143308336Y-87200280D01*
X143320159Y-87209048D01*
X143331066Y-87218934D01*
X143340952Y-87229841D01*
X143349720Y-87241664D01*
X143357288Y-87254290D01*
X143363582Y-87267597D01*
X143368541Y-87281457D01*
X143372118Y-87295736D01*
X143374278Y-87310297D01*
X143375000Y-87325000D01*
X143375000Y-87625000D01*
X143374278Y-87639703D01*
X143372118Y-87654264D01*
X143368541Y-87668543D01*
X143363582Y-87682403D01*
X143357288Y-87695710D01*
X143349720Y-87708336D01*
X143340952Y-87720159D01*
X143331066Y-87731066D01*
X143320159Y-87740952D01*
X143308336Y-87749720D01*
X143295710Y-87757288D01*
X143282403Y-87763582D01*
X143268543Y-87768541D01*
X143254264Y-87772118D01*
X143239703Y-87774278D01*
X143225000Y-87775000D01*
X141475000Y-87775000D01*
X141460297Y-87774278D01*
X141445736Y-87772118D01*
X141431457Y-87768541D01*
X141417597Y-87763582D01*
X141404290Y-87757288D01*
X141391664Y-87749720D01*
X141379841Y-87740952D01*
X141368934Y-87731066D01*
X141359048Y-87720159D01*
X141350280Y-87708336D01*
X141342712Y-87695710D01*
X141336418Y-87682403D01*
X141331459Y-87668543D01*
X141327882Y-87654264D01*
X141325722Y-87639703D01*
X141325000Y-87625000D01*
X141325000Y-87325000D01*
X141325722Y-87310297D01*
X141327882Y-87295736D01*
X141331459Y-87281457D01*
X141336418Y-87267597D01*
X141342712Y-87254290D01*
X141350280Y-87241664D01*
X141359048Y-87229841D01*
X141368934Y-87218934D01*
X141379841Y-87209048D01*
X141391664Y-87200280D01*
X141404290Y-87192712D01*
X141417597Y-87186418D01*
X141431457Y-87181459D01*
X141445736Y-87177882D01*
X141460297Y-87175722D01*
X141475000Y-87175000D01*
X143225000Y-87175000D01*
X143239703Y-87175722D01*
X143239703Y-87175722D01*
G37*
D13*
X142350000Y-87475000D03*
D12*
G36*
X143239703Y-85905722D02*
G01*
X143254264Y-85907882D01*
X143268543Y-85911459D01*
X143282403Y-85916418D01*
X143295710Y-85922712D01*
X143308336Y-85930280D01*
X143320159Y-85939048D01*
X143331066Y-85948934D01*
X143340952Y-85959841D01*
X143349720Y-85971664D01*
X143357288Y-85984290D01*
X143363582Y-85997597D01*
X143368541Y-86011457D01*
X143372118Y-86025736D01*
X143374278Y-86040297D01*
X143375000Y-86055000D01*
X143375000Y-86355000D01*
X143374278Y-86369703D01*
X143372118Y-86384264D01*
X143368541Y-86398543D01*
X143363582Y-86412403D01*
X143357288Y-86425710D01*
X143349720Y-86438336D01*
X143340952Y-86450159D01*
X143331066Y-86461066D01*
X143320159Y-86470952D01*
X143308336Y-86479720D01*
X143295710Y-86487288D01*
X143282403Y-86493582D01*
X143268543Y-86498541D01*
X143254264Y-86502118D01*
X143239703Y-86504278D01*
X143225000Y-86505000D01*
X141475000Y-86505000D01*
X141460297Y-86504278D01*
X141445736Y-86502118D01*
X141431457Y-86498541D01*
X141417597Y-86493582D01*
X141404290Y-86487288D01*
X141391664Y-86479720D01*
X141379841Y-86470952D01*
X141368934Y-86461066D01*
X141359048Y-86450159D01*
X141350280Y-86438336D01*
X141342712Y-86425710D01*
X141336418Y-86412403D01*
X141331459Y-86398543D01*
X141327882Y-86384264D01*
X141325722Y-86369703D01*
X141325000Y-86355000D01*
X141325000Y-86055000D01*
X141325722Y-86040297D01*
X141327882Y-86025736D01*
X141331459Y-86011457D01*
X141336418Y-85997597D01*
X141342712Y-85984290D01*
X141350280Y-85971664D01*
X141359048Y-85959841D01*
X141368934Y-85948934D01*
X141379841Y-85939048D01*
X141391664Y-85930280D01*
X141404290Y-85922712D01*
X141417597Y-85916418D01*
X141431457Y-85911459D01*
X141445736Y-85907882D01*
X141460297Y-85905722D01*
X141475000Y-85905000D01*
X143225000Y-85905000D01*
X143239703Y-85905722D01*
X143239703Y-85905722D01*
G37*
D13*
X142350000Y-86205000D03*
D12*
G36*
X143239703Y-84635722D02*
G01*
X143254264Y-84637882D01*
X143268543Y-84641459D01*
X143282403Y-84646418D01*
X143295710Y-84652712D01*
X143308336Y-84660280D01*
X143320159Y-84669048D01*
X143331066Y-84678934D01*
X143340952Y-84689841D01*
X143349720Y-84701664D01*
X143357288Y-84714290D01*
X143363582Y-84727597D01*
X143368541Y-84741457D01*
X143372118Y-84755736D01*
X143374278Y-84770297D01*
X143375000Y-84785000D01*
X143375000Y-85085000D01*
X143374278Y-85099703D01*
X143372118Y-85114264D01*
X143368541Y-85128543D01*
X143363582Y-85142403D01*
X143357288Y-85155710D01*
X143349720Y-85168336D01*
X143340952Y-85180159D01*
X143331066Y-85191066D01*
X143320159Y-85200952D01*
X143308336Y-85209720D01*
X143295710Y-85217288D01*
X143282403Y-85223582D01*
X143268543Y-85228541D01*
X143254264Y-85232118D01*
X143239703Y-85234278D01*
X143225000Y-85235000D01*
X141475000Y-85235000D01*
X141460297Y-85234278D01*
X141445736Y-85232118D01*
X141431457Y-85228541D01*
X141417597Y-85223582D01*
X141404290Y-85217288D01*
X141391664Y-85209720D01*
X141379841Y-85200952D01*
X141368934Y-85191066D01*
X141359048Y-85180159D01*
X141350280Y-85168336D01*
X141342712Y-85155710D01*
X141336418Y-85142403D01*
X141331459Y-85128543D01*
X141327882Y-85114264D01*
X141325722Y-85099703D01*
X141325000Y-85085000D01*
X141325000Y-84785000D01*
X141325722Y-84770297D01*
X141327882Y-84755736D01*
X141331459Y-84741457D01*
X141336418Y-84727597D01*
X141342712Y-84714290D01*
X141350280Y-84701664D01*
X141359048Y-84689841D01*
X141368934Y-84678934D01*
X141379841Y-84669048D01*
X141391664Y-84660280D01*
X141404290Y-84652712D01*
X141417597Y-84646418D01*
X141431457Y-84641459D01*
X141445736Y-84637882D01*
X141460297Y-84635722D01*
X141475000Y-84635000D01*
X143225000Y-84635000D01*
X143239703Y-84635722D01*
X143239703Y-84635722D01*
G37*
D13*
X142350000Y-84935000D03*
D12*
G36*
X143239703Y-83365722D02*
G01*
X143254264Y-83367882D01*
X143268543Y-83371459D01*
X143282403Y-83376418D01*
X143295710Y-83382712D01*
X143308336Y-83390280D01*
X143320159Y-83399048D01*
X143331066Y-83408934D01*
X143340952Y-83419841D01*
X143349720Y-83431664D01*
X143357288Y-83444290D01*
X143363582Y-83457597D01*
X143368541Y-83471457D01*
X143372118Y-83485736D01*
X143374278Y-83500297D01*
X143375000Y-83515000D01*
X143375000Y-83815000D01*
X143374278Y-83829703D01*
X143372118Y-83844264D01*
X143368541Y-83858543D01*
X143363582Y-83872403D01*
X143357288Y-83885710D01*
X143349720Y-83898336D01*
X143340952Y-83910159D01*
X143331066Y-83921066D01*
X143320159Y-83930952D01*
X143308336Y-83939720D01*
X143295710Y-83947288D01*
X143282403Y-83953582D01*
X143268543Y-83958541D01*
X143254264Y-83962118D01*
X143239703Y-83964278D01*
X143225000Y-83965000D01*
X141475000Y-83965000D01*
X141460297Y-83964278D01*
X141445736Y-83962118D01*
X141431457Y-83958541D01*
X141417597Y-83953582D01*
X141404290Y-83947288D01*
X141391664Y-83939720D01*
X141379841Y-83930952D01*
X141368934Y-83921066D01*
X141359048Y-83910159D01*
X141350280Y-83898336D01*
X141342712Y-83885710D01*
X141336418Y-83872403D01*
X141331459Y-83858543D01*
X141327882Y-83844264D01*
X141325722Y-83829703D01*
X141325000Y-83815000D01*
X141325000Y-83515000D01*
X141325722Y-83500297D01*
X141327882Y-83485736D01*
X141331459Y-83471457D01*
X141336418Y-83457597D01*
X141342712Y-83444290D01*
X141350280Y-83431664D01*
X141359048Y-83419841D01*
X141368934Y-83408934D01*
X141379841Y-83399048D01*
X141391664Y-83390280D01*
X141404290Y-83382712D01*
X141417597Y-83376418D01*
X141431457Y-83371459D01*
X141445736Y-83367882D01*
X141460297Y-83365722D01*
X141475000Y-83365000D01*
X143225000Y-83365000D01*
X143239703Y-83365722D01*
X143239703Y-83365722D01*
G37*
D13*
X142350000Y-83665000D03*
D12*
G36*
X143239703Y-82095722D02*
G01*
X143254264Y-82097882D01*
X143268543Y-82101459D01*
X143282403Y-82106418D01*
X143295710Y-82112712D01*
X143308336Y-82120280D01*
X143320159Y-82129048D01*
X143331066Y-82138934D01*
X143340952Y-82149841D01*
X143349720Y-82161664D01*
X143357288Y-82174290D01*
X143363582Y-82187597D01*
X143368541Y-82201457D01*
X143372118Y-82215736D01*
X143374278Y-82230297D01*
X143375000Y-82245000D01*
X143375000Y-82545000D01*
X143374278Y-82559703D01*
X143372118Y-82574264D01*
X143368541Y-82588543D01*
X143363582Y-82602403D01*
X143357288Y-82615710D01*
X143349720Y-82628336D01*
X143340952Y-82640159D01*
X143331066Y-82651066D01*
X143320159Y-82660952D01*
X143308336Y-82669720D01*
X143295710Y-82677288D01*
X143282403Y-82683582D01*
X143268543Y-82688541D01*
X143254264Y-82692118D01*
X143239703Y-82694278D01*
X143225000Y-82695000D01*
X141475000Y-82695000D01*
X141460297Y-82694278D01*
X141445736Y-82692118D01*
X141431457Y-82688541D01*
X141417597Y-82683582D01*
X141404290Y-82677288D01*
X141391664Y-82669720D01*
X141379841Y-82660952D01*
X141368934Y-82651066D01*
X141359048Y-82640159D01*
X141350280Y-82628336D01*
X141342712Y-82615710D01*
X141336418Y-82602403D01*
X141331459Y-82588543D01*
X141327882Y-82574264D01*
X141325722Y-82559703D01*
X141325000Y-82545000D01*
X141325000Y-82245000D01*
X141325722Y-82230297D01*
X141327882Y-82215736D01*
X141331459Y-82201457D01*
X141336418Y-82187597D01*
X141342712Y-82174290D01*
X141350280Y-82161664D01*
X141359048Y-82149841D01*
X141368934Y-82138934D01*
X141379841Y-82129048D01*
X141391664Y-82120280D01*
X141404290Y-82112712D01*
X141417597Y-82106418D01*
X141431457Y-82101459D01*
X141445736Y-82097882D01*
X141460297Y-82095722D01*
X141475000Y-82095000D01*
X143225000Y-82095000D01*
X143239703Y-82095722D01*
X143239703Y-82095722D01*
G37*
D13*
X142350000Y-82395000D03*
D12*
G36*
X143239703Y-80825722D02*
G01*
X143254264Y-80827882D01*
X143268543Y-80831459D01*
X143282403Y-80836418D01*
X143295710Y-80842712D01*
X143308336Y-80850280D01*
X143320159Y-80859048D01*
X143331066Y-80868934D01*
X143340952Y-80879841D01*
X143349720Y-80891664D01*
X143357288Y-80904290D01*
X143363582Y-80917597D01*
X143368541Y-80931457D01*
X143372118Y-80945736D01*
X143374278Y-80960297D01*
X143375000Y-80975000D01*
X143375000Y-81275000D01*
X143374278Y-81289703D01*
X143372118Y-81304264D01*
X143368541Y-81318543D01*
X143363582Y-81332403D01*
X143357288Y-81345710D01*
X143349720Y-81358336D01*
X143340952Y-81370159D01*
X143331066Y-81381066D01*
X143320159Y-81390952D01*
X143308336Y-81399720D01*
X143295710Y-81407288D01*
X143282403Y-81413582D01*
X143268543Y-81418541D01*
X143254264Y-81422118D01*
X143239703Y-81424278D01*
X143225000Y-81425000D01*
X141475000Y-81425000D01*
X141460297Y-81424278D01*
X141445736Y-81422118D01*
X141431457Y-81418541D01*
X141417597Y-81413582D01*
X141404290Y-81407288D01*
X141391664Y-81399720D01*
X141379841Y-81390952D01*
X141368934Y-81381066D01*
X141359048Y-81370159D01*
X141350280Y-81358336D01*
X141342712Y-81345710D01*
X141336418Y-81332403D01*
X141331459Y-81318543D01*
X141327882Y-81304264D01*
X141325722Y-81289703D01*
X141325000Y-81275000D01*
X141325000Y-80975000D01*
X141325722Y-80960297D01*
X141327882Y-80945736D01*
X141331459Y-80931457D01*
X141336418Y-80917597D01*
X141342712Y-80904290D01*
X141350280Y-80891664D01*
X141359048Y-80879841D01*
X141368934Y-80868934D01*
X141379841Y-80859048D01*
X141391664Y-80850280D01*
X141404290Y-80842712D01*
X141417597Y-80836418D01*
X141431457Y-80831459D01*
X141445736Y-80827882D01*
X141460297Y-80825722D01*
X141475000Y-80825000D01*
X143225000Y-80825000D01*
X143239703Y-80825722D01*
X143239703Y-80825722D01*
G37*
D13*
X142350000Y-81125000D03*
D12*
G36*
X143239703Y-79555722D02*
G01*
X143254264Y-79557882D01*
X143268543Y-79561459D01*
X143282403Y-79566418D01*
X143295710Y-79572712D01*
X143308336Y-79580280D01*
X143320159Y-79589048D01*
X143331066Y-79598934D01*
X143340952Y-79609841D01*
X143349720Y-79621664D01*
X143357288Y-79634290D01*
X143363582Y-79647597D01*
X143368541Y-79661457D01*
X143372118Y-79675736D01*
X143374278Y-79690297D01*
X143375000Y-79705000D01*
X143375000Y-80005000D01*
X143374278Y-80019703D01*
X143372118Y-80034264D01*
X143368541Y-80048543D01*
X143363582Y-80062403D01*
X143357288Y-80075710D01*
X143349720Y-80088336D01*
X143340952Y-80100159D01*
X143331066Y-80111066D01*
X143320159Y-80120952D01*
X143308336Y-80129720D01*
X143295710Y-80137288D01*
X143282403Y-80143582D01*
X143268543Y-80148541D01*
X143254264Y-80152118D01*
X143239703Y-80154278D01*
X143225000Y-80155000D01*
X141475000Y-80155000D01*
X141460297Y-80154278D01*
X141445736Y-80152118D01*
X141431457Y-80148541D01*
X141417597Y-80143582D01*
X141404290Y-80137288D01*
X141391664Y-80129720D01*
X141379841Y-80120952D01*
X141368934Y-80111066D01*
X141359048Y-80100159D01*
X141350280Y-80088336D01*
X141342712Y-80075710D01*
X141336418Y-80062403D01*
X141331459Y-80048543D01*
X141327882Y-80034264D01*
X141325722Y-80019703D01*
X141325000Y-80005000D01*
X141325000Y-79705000D01*
X141325722Y-79690297D01*
X141327882Y-79675736D01*
X141331459Y-79661457D01*
X141336418Y-79647597D01*
X141342712Y-79634290D01*
X141350280Y-79621664D01*
X141359048Y-79609841D01*
X141368934Y-79598934D01*
X141379841Y-79589048D01*
X141391664Y-79580280D01*
X141404290Y-79572712D01*
X141417597Y-79566418D01*
X141431457Y-79561459D01*
X141445736Y-79557882D01*
X141460297Y-79555722D01*
X141475000Y-79555000D01*
X143225000Y-79555000D01*
X143239703Y-79555722D01*
X143239703Y-79555722D01*
G37*
D13*
X142350000Y-79855000D03*
D12*
G36*
X143239703Y-78285722D02*
G01*
X143254264Y-78287882D01*
X143268543Y-78291459D01*
X143282403Y-78296418D01*
X143295710Y-78302712D01*
X143308336Y-78310280D01*
X143320159Y-78319048D01*
X143331066Y-78328934D01*
X143340952Y-78339841D01*
X143349720Y-78351664D01*
X143357288Y-78364290D01*
X143363582Y-78377597D01*
X143368541Y-78391457D01*
X143372118Y-78405736D01*
X143374278Y-78420297D01*
X143375000Y-78435000D01*
X143375000Y-78735000D01*
X143374278Y-78749703D01*
X143372118Y-78764264D01*
X143368541Y-78778543D01*
X143363582Y-78792403D01*
X143357288Y-78805710D01*
X143349720Y-78818336D01*
X143340952Y-78830159D01*
X143331066Y-78841066D01*
X143320159Y-78850952D01*
X143308336Y-78859720D01*
X143295710Y-78867288D01*
X143282403Y-78873582D01*
X143268543Y-78878541D01*
X143254264Y-78882118D01*
X143239703Y-78884278D01*
X143225000Y-78885000D01*
X141475000Y-78885000D01*
X141460297Y-78884278D01*
X141445736Y-78882118D01*
X141431457Y-78878541D01*
X141417597Y-78873582D01*
X141404290Y-78867288D01*
X141391664Y-78859720D01*
X141379841Y-78850952D01*
X141368934Y-78841066D01*
X141359048Y-78830159D01*
X141350280Y-78818336D01*
X141342712Y-78805710D01*
X141336418Y-78792403D01*
X141331459Y-78778543D01*
X141327882Y-78764264D01*
X141325722Y-78749703D01*
X141325000Y-78735000D01*
X141325000Y-78435000D01*
X141325722Y-78420297D01*
X141327882Y-78405736D01*
X141331459Y-78391457D01*
X141336418Y-78377597D01*
X141342712Y-78364290D01*
X141350280Y-78351664D01*
X141359048Y-78339841D01*
X141368934Y-78328934D01*
X141379841Y-78319048D01*
X141391664Y-78310280D01*
X141404290Y-78302712D01*
X141417597Y-78296418D01*
X141431457Y-78291459D01*
X141445736Y-78287882D01*
X141460297Y-78285722D01*
X141475000Y-78285000D01*
X143225000Y-78285000D01*
X143239703Y-78285722D01*
X143239703Y-78285722D01*
G37*
D13*
X142350000Y-78585000D03*
D12*
G36*
X143239703Y-77015722D02*
G01*
X143254264Y-77017882D01*
X143268543Y-77021459D01*
X143282403Y-77026418D01*
X143295710Y-77032712D01*
X143308336Y-77040280D01*
X143320159Y-77049048D01*
X143331066Y-77058934D01*
X143340952Y-77069841D01*
X143349720Y-77081664D01*
X143357288Y-77094290D01*
X143363582Y-77107597D01*
X143368541Y-77121457D01*
X143372118Y-77135736D01*
X143374278Y-77150297D01*
X143375000Y-77165000D01*
X143375000Y-77465000D01*
X143374278Y-77479703D01*
X143372118Y-77494264D01*
X143368541Y-77508543D01*
X143363582Y-77522403D01*
X143357288Y-77535710D01*
X143349720Y-77548336D01*
X143340952Y-77560159D01*
X143331066Y-77571066D01*
X143320159Y-77580952D01*
X143308336Y-77589720D01*
X143295710Y-77597288D01*
X143282403Y-77603582D01*
X143268543Y-77608541D01*
X143254264Y-77612118D01*
X143239703Y-77614278D01*
X143225000Y-77615000D01*
X141475000Y-77615000D01*
X141460297Y-77614278D01*
X141445736Y-77612118D01*
X141431457Y-77608541D01*
X141417597Y-77603582D01*
X141404290Y-77597288D01*
X141391664Y-77589720D01*
X141379841Y-77580952D01*
X141368934Y-77571066D01*
X141359048Y-77560159D01*
X141350280Y-77548336D01*
X141342712Y-77535710D01*
X141336418Y-77522403D01*
X141331459Y-77508543D01*
X141327882Y-77494264D01*
X141325722Y-77479703D01*
X141325000Y-77465000D01*
X141325000Y-77165000D01*
X141325722Y-77150297D01*
X141327882Y-77135736D01*
X141331459Y-77121457D01*
X141336418Y-77107597D01*
X141342712Y-77094290D01*
X141350280Y-77081664D01*
X141359048Y-77069841D01*
X141368934Y-77058934D01*
X141379841Y-77049048D01*
X141391664Y-77040280D01*
X141404290Y-77032712D01*
X141417597Y-77026418D01*
X141431457Y-77021459D01*
X141445736Y-77017882D01*
X141460297Y-77015722D01*
X141475000Y-77015000D01*
X143225000Y-77015000D01*
X143239703Y-77015722D01*
X143239703Y-77015722D01*
G37*
D13*
X142350000Y-77315000D03*
D12*
G36*
X143239703Y-75745722D02*
G01*
X143254264Y-75747882D01*
X143268543Y-75751459D01*
X143282403Y-75756418D01*
X143295710Y-75762712D01*
X143308336Y-75770280D01*
X143320159Y-75779048D01*
X143331066Y-75788934D01*
X143340952Y-75799841D01*
X143349720Y-75811664D01*
X143357288Y-75824290D01*
X143363582Y-75837597D01*
X143368541Y-75851457D01*
X143372118Y-75865736D01*
X143374278Y-75880297D01*
X143375000Y-75895000D01*
X143375000Y-76195000D01*
X143374278Y-76209703D01*
X143372118Y-76224264D01*
X143368541Y-76238543D01*
X143363582Y-76252403D01*
X143357288Y-76265710D01*
X143349720Y-76278336D01*
X143340952Y-76290159D01*
X143331066Y-76301066D01*
X143320159Y-76310952D01*
X143308336Y-76319720D01*
X143295710Y-76327288D01*
X143282403Y-76333582D01*
X143268543Y-76338541D01*
X143254264Y-76342118D01*
X143239703Y-76344278D01*
X143225000Y-76345000D01*
X141475000Y-76345000D01*
X141460297Y-76344278D01*
X141445736Y-76342118D01*
X141431457Y-76338541D01*
X141417597Y-76333582D01*
X141404290Y-76327288D01*
X141391664Y-76319720D01*
X141379841Y-76310952D01*
X141368934Y-76301066D01*
X141359048Y-76290159D01*
X141350280Y-76278336D01*
X141342712Y-76265710D01*
X141336418Y-76252403D01*
X141331459Y-76238543D01*
X141327882Y-76224264D01*
X141325722Y-76209703D01*
X141325000Y-76195000D01*
X141325000Y-75895000D01*
X141325722Y-75880297D01*
X141327882Y-75865736D01*
X141331459Y-75851457D01*
X141336418Y-75837597D01*
X141342712Y-75824290D01*
X141350280Y-75811664D01*
X141359048Y-75799841D01*
X141368934Y-75788934D01*
X141379841Y-75779048D01*
X141391664Y-75770280D01*
X141404290Y-75762712D01*
X141417597Y-75756418D01*
X141431457Y-75751459D01*
X141445736Y-75747882D01*
X141460297Y-75745722D01*
X141475000Y-75745000D01*
X143225000Y-75745000D01*
X143239703Y-75745722D01*
X143239703Y-75745722D01*
G37*
D13*
X142350000Y-76045000D03*
D14*
X175000000Y-97000000D03*
D15*
X168000000Y-95600000D03*
X168800000Y-95600000D03*
X169600000Y-95600000D03*
X170400000Y-95600000D03*
X171200000Y-95600000D03*
X172000000Y-95600000D03*
X172800000Y-95600000D03*
X173600000Y-95600000D03*
D14*
X175000000Y-97800000D03*
X175000000Y-98600000D03*
X175000000Y-99400000D03*
X175000000Y-100200000D03*
X175000000Y-101000000D03*
X175000000Y-101800000D03*
X175000000Y-102600000D03*
D15*
X173600000Y-104000000D03*
X172800000Y-104000000D03*
X172000000Y-104000000D03*
X171200000Y-104000000D03*
X170400000Y-104000000D03*
X169600000Y-104000000D03*
X168800000Y-104000000D03*
X168000000Y-104000000D03*
D14*
X166600000Y-102600000D03*
X166600000Y-101800000D03*
X166600000Y-101000000D03*
X166600000Y-100200000D03*
X166600000Y-99400000D03*
X166600000Y-98600000D03*
X166600000Y-97800000D03*
X166600000Y-97000000D03*
D12*
G36*
X170476958Y-106980710D02*
G01*
X170491276Y-106982834D01*
X170505317Y-106986351D01*
X170518946Y-106991228D01*
X170532031Y-106997417D01*
X170544447Y-107004858D01*
X170556073Y-107013481D01*
X170566798Y-107023202D01*
X170576519Y-107033927D01*
X170585142Y-107045553D01*
X170592583Y-107057969D01*
X170598772Y-107071054D01*
X170603649Y-107084683D01*
X170607166Y-107098724D01*
X170609290Y-107113042D01*
X170610000Y-107127500D01*
X170610000Y-107472500D01*
X170609290Y-107486958D01*
X170607166Y-107501276D01*
X170603649Y-107515317D01*
X170598772Y-107528946D01*
X170592583Y-107542031D01*
X170585142Y-107554447D01*
X170576519Y-107566073D01*
X170566798Y-107576798D01*
X170556073Y-107586519D01*
X170544447Y-107595142D01*
X170532031Y-107602583D01*
X170518946Y-107608772D01*
X170505317Y-107613649D01*
X170491276Y-107617166D01*
X170476958Y-107619290D01*
X170462500Y-107620000D01*
X170167500Y-107620000D01*
X170153042Y-107619290D01*
X170138724Y-107617166D01*
X170124683Y-107613649D01*
X170111054Y-107608772D01*
X170097969Y-107602583D01*
X170085553Y-107595142D01*
X170073927Y-107586519D01*
X170063202Y-107576798D01*
X170053481Y-107566073D01*
X170044858Y-107554447D01*
X170037417Y-107542031D01*
X170031228Y-107528946D01*
X170026351Y-107515317D01*
X170022834Y-107501276D01*
X170020710Y-107486958D01*
X170020000Y-107472500D01*
X170020000Y-107127500D01*
X170020710Y-107113042D01*
X170022834Y-107098724D01*
X170026351Y-107084683D01*
X170031228Y-107071054D01*
X170037417Y-107057969D01*
X170044858Y-107045553D01*
X170053481Y-107033927D01*
X170063202Y-107023202D01*
X170073927Y-107013481D01*
X170085553Y-107004858D01*
X170097969Y-106997417D01*
X170111054Y-106991228D01*
X170124683Y-106986351D01*
X170138724Y-106982834D01*
X170153042Y-106980710D01*
X170167500Y-106980000D01*
X170462500Y-106980000D01*
X170476958Y-106980710D01*
X170476958Y-106980710D01*
G37*
D16*
X170315000Y-107300000D03*
D12*
G36*
X171446958Y-106980710D02*
G01*
X171461276Y-106982834D01*
X171475317Y-106986351D01*
X171488946Y-106991228D01*
X171502031Y-106997417D01*
X171514447Y-107004858D01*
X171526073Y-107013481D01*
X171536798Y-107023202D01*
X171546519Y-107033927D01*
X171555142Y-107045553D01*
X171562583Y-107057969D01*
X171568772Y-107071054D01*
X171573649Y-107084683D01*
X171577166Y-107098724D01*
X171579290Y-107113042D01*
X171580000Y-107127500D01*
X171580000Y-107472500D01*
X171579290Y-107486958D01*
X171577166Y-107501276D01*
X171573649Y-107515317D01*
X171568772Y-107528946D01*
X171562583Y-107542031D01*
X171555142Y-107554447D01*
X171546519Y-107566073D01*
X171536798Y-107576798D01*
X171526073Y-107586519D01*
X171514447Y-107595142D01*
X171502031Y-107602583D01*
X171488946Y-107608772D01*
X171475317Y-107613649D01*
X171461276Y-107617166D01*
X171446958Y-107619290D01*
X171432500Y-107620000D01*
X171137500Y-107620000D01*
X171123042Y-107619290D01*
X171108724Y-107617166D01*
X171094683Y-107613649D01*
X171081054Y-107608772D01*
X171067969Y-107602583D01*
X171055553Y-107595142D01*
X171043927Y-107586519D01*
X171033202Y-107576798D01*
X171023481Y-107566073D01*
X171014858Y-107554447D01*
X171007417Y-107542031D01*
X171001228Y-107528946D01*
X170996351Y-107515317D01*
X170992834Y-107501276D01*
X170990710Y-107486958D01*
X170990000Y-107472500D01*
X170990000Y-107127500D01*
X170990710Y-107113042D01*
X170992834Y-107098724D01*
X170996351Y-107084683D01*
X171001228Y-107071054D01*
X171007417Y-107057969D01*
X171014858Y-107045553D01*
X171023481Y-107033927D01*
X171033202Y-107023202D01*
X171043927Y-107013481D01*
X171055553Y-107004858D01*
X171067969Y-106997417D01*
X171081054Y-106991228D01*
X171094683Y-106986351D01*
X171108724Y-106982834D01*
X171123042Y-106980710D01*
X171137500Y-106980000D01*
X171432500Y-106980000D01*
X171446958Y-106980710D01*
X171446958Y-106980710D01*
G37*
D16*
X171285000Y-107300000D03*
D12*
G36*
X147076958Y-96980710D02*
G01*
X147091276Y-96982834D01*
X147105317Y-96986351D01*
X147118946Y-96991228D01*
X147132031Y-96997417D01*
X147144447Y-97004858D01*
X147156073Y-97013481D01*
X147166798Y-97023202D01*
X147176519Y-97033927D01*
X147185142Y-97045553D01*
X147192583Y-97057969D01*
X147198772Y-97071054D01*
X147203649Y-97084683D01*
X147207166Y-97098724D01*
X147209290Y-97113042D01*
X147210000Y-97127500D01*
X147210000Y-97472500D01*
X147209290Y-97486958D01*
X147207166Y-97501276D01*
X147203649Y-97515317D01*
X147198772Y-97528946D01*
X147192583Y-97542031D01*
X147185142Y-97554447D01*
X147176519Y-97566073D01*
X147166798Y-97576798D01*
X147156073Y-97586519D01*
X147144447Y-97595142D01*
X147132031Y-97602583D01*
X147118946Y-97608772D01*
X147105317Y-97613649D01*
X147091276Y-97617166D01*
X147076958Y-97619290D01*
X147062500Y-97620000D01*
X146767500Y-97620000D01*
X146753042Y-97619290D01*
X146738724Y-97617166D01*
X146724683Y-97613649D01*
X146711054Y-97608772D01*
X146697969Y-97602583D01*
X146685553Y-97595142D01*
X146673927Y-97586519D01*
X146663202Y-97576798D01*
X146653481Y-97566073D01*
X146644858Y-97554447D01*
X146637417Y-97542031D01*
X146631228Y-97528946D01*
X146626351Y-97515317D01*
X146622834Y-97501276D01*
X146620710Y-97486958D01*
X146620000Y-97472500D01*
X146620000Y-97127500D01*
X146620710Y-97113042D01*
X146622834Y-97098724D01*
X146626351Y-97084683D01*
X146631228Y-97071054D01*
X146637417Y-97057969D01*
X146644858Y-97045553D01*
X146653481Y-97033927D01*
X146663202Y-97023202D01*
X146673927Y-97013481D01*
X146685553Y-97004858D01*
X146697969Y-96997417D01*
X146711054Y-96991228D01*
X146724683Y-96986351D01*
X146738724Y-96982834D01*
X146753042Y-96980710D01*
X146767500Y-96980000D01*
X147062500Y-96980000D01*
X147076958Y-96980710D01*
X147076958Y-96980710D01*
G37*
D16*
X146915000Y-97300000D03*
D12*
G36*
X148046958Y-96980710D02*
G01*
X148061276Y-96982834D01*
X148075317Y-96986351D01*
X148088946Y-96991228D01*
X148102031Y-96997417D01*
X148114447Y-97004858D01*
X148126073Y-97013481D01*
X148136798Y-97023202D01*
X148146519Y-97033927D01*
X148155142Y-97045553D01*
X148162583Y-97057969D01*
X148168772Y-97071054D01*
X148173649Y-97084683D01*
X148177166Y-97098724D01*
X148179290Y-97113042D01*
X148180000Y-97127500D01*
X148180000Y-97472500D01*
X148179290Y-97486958D01*
X148177166Y-97501276D01*
X148173649Y-97515317D01*
X148168772Y-97528946D01*
X148162583Y-97542031D01*
X148155142Y-97554447D01*
X148146519Y-97566073D01*
X148136798Y-97576798D01*
X148126073Y-97586519D01*
X148114447Y-97595142D01*
X148102031Y-97602583D01*
X148088946Y-97608772D01*
X148075317Y-97613649D01*
X148061276Y-97617166D01*
X148046958Y-97619290D01*
X148032500Y-97620000D01*
X147737500Y-97620000D01*
X147723042Y-97619290D01*
X147708724Y-97617166D01*
X147694683Y-97613649D01*
X147681054Y-97608772D01*
X147667969Y-97602583D01*
X147655553Y-97595142D01*
X147643927Y-97586519D01*
X147633202Y-97576798D01*
X147623481Y-97566073D01*
X147614858Y-97554447D01*
X147607417Y-97542031D01*
X147601228Y-97528946D01*
X147596351Y-97515317D01*
X147592834Y-97501276D01*
X147590710Y-97486958D01*
X147590000Y-97472500D01*
X147590000Y-97127500D01*
X147590710Y-97113042D01*
X147592834Y-97098724D01*
X147596351Y-97084683D01*
X147601228Y-97071054D01*
X147607417Y-97057969D01*
X147614858Y-97045553D01*
X147623481Y-97033927D01*
X147633202Y-97023202D01*
X147643927Y-97013481D01*
X147655553Y-97004858D01*
X147667969Y-96997417D01*
X147681054Y-96991228D01*
X147694683Y-96986351D01*
X147708724Y-96982834D01*
X147723042Y-96980710D01*
X147737500Y-96980000D01*
X148032500Y-96980000D01*
X148046958Y-96980710D01*
X148046958Y-96980710D01*
G37*
D16*
X147885000Y-97300000D03*
D12*
G36*
X141276958Y-96980710D02*
G01*
X141291276Y-96982834D01*
X141305317Y-96986351D01*
X141318946Y-96991228D01*
X141332031Y-96997417D01*
X141344447Y-97004858D01*
X141356073Y-97013481D01*
X141366798Y-97023202D01*
X141376519Y-97033927D01*
X141385142Y-97045553D01*
X141392583Y-97057969D01*
X141398772Y-97071054D01*
X141403649Y-97084683D01*
X141407166Y-97098724D01*
X141409290Y-97113042D01*
X141410000Y-97127500D01*
X141410000Y-97472500D01*
X141409290Y-97486958D01*
X141407166Y-97501276D01*
X141403649Y-97515317D01*
X141398772Y-97528946D01*
X141392583Y-97542031D01*
X141385142Y-97554447D01*
X141376519Y-97566073D01*
X141366798Y-97576798D01*
X141356073Y-97586519D01*
X141344447Y-97595142D01*
X141332031Y-97602583D01*
X141318946Y-97608772D01*
X141305317Y-97613649D01*
X141291276Y-97617166D01*
X141276958Y-97619290D01*
X141262500Y-97620000D01*
X140967500Y-97620000D01*
X140953042Y-97619290D01*
X140938724Y-97617166D01*
X140924683Y-97613649D01*
X140911054Y-97608772D01*
X140897969Y-97602583D01*
X140885553Y-97595142D01*
X140873927Y-97586519D01*
X140863202Y-97576798D01*
X140853481Y-97566073D01*
X140844858Y-97554447D01*
X140837417Y-97542031D01*
X140831228Y-97528946D01*
X140826351Y-97515317D01*
X140822834Y-97501276D01*
X140820710Y-97486958D01*
X140820000Y-97472500D01*
X140820000Y-97127500D01*
X140820710Y-97113042D01*
X140822834Y-97098724D01*
X140826351Y-97084683D01*
X140831228Y-97071054D01*
X140837417Y-97057969D01*
X140844858Y-97045553D01*
X140853481Y-97033927D01*
X140863202Y-97023202D01*
X140873927Y-97013481D01*
X140885553Y-97004858D01*
X140897969Y-96997417D01*
X140911054Y-96991228D01*
X140924683Y-96986351D01*
X140938724Y-96982834D01*
X140953042Y-96980710D01*
X140967500Y-96980000D01*
X141262500Y-96980000D01*
X141276958Y-96980710D01*
X141276958Y-96980710D01*
G37*
D16*
X141115000Y-97300000D03*
D12*
G36*
X142246958Y-96980710D02*
G01*
X142261276Y-96982834D01*
X142275317Y-96986351D01*
X142288946Y-96991228D01*
X142302031Y-96997417D01*
X142314447Y-97004858D01*
X142326073Y-97013481D01*
X142336798Y-97023202D01*
X142346519Y-97033927D01*
X142355142Y-97045553D01*
X142362583Y-97057969D01*
X142368772Y-97071054D01*
X142373649Y-97084683D01*
X142377166Y-97098724D01*
X142379290Y-97113042D01*
X142380000Y-97127500D01*
X142380000Y-97472500D01*
X142379290Y-97486958D01*
X142377166Y-97501276D01*
X142373649Y-97515317D01*
X142368772Y-97528946D01*
X142362583Y-97542031D01*
X142355142Y-97554447D01*
X142346519Y-97566073D01*
X142336798Y-97576798D01*
X142326073Y-97586519D01*
X142314447Y-97595142D01*
X142302031Y-97602583D01*
X142288946Y-97608772D01*
X142275317Y-97613649D01*
X142261276Y-97617166D01*
X142246958Y-97619290D01*
X142232500Y-97620000D01*
X141937500Y-97620000D01*
X141923042Y-97619290D01*
X141908724Y-97617166D01*
X141894683Y-97613649D01*
X141881054Y-97608772D01*
X141867969Y-97602583D01*
X141855553Y-97595142D01*
X141843927Y-97586519D01*
X141833202Y-97576798D01*
X141823481Y-97566073D01*
X141814858Y-97554447D01*
X141807417Y-97542031D01*
X141801228Y-97528946D01*
X141796351Y-97515317D01*
X141792834Y-97501276D01*
X141790710Y-97486958D01*
X141790000Y-97472500D01*
X141790000Y-97127500D01*
X141790710Y-97113042D01*
X141792834Y-97098724D01*
X141796351Y-97084683D01*
X141801228Y-97071054D01*
X141807417Y-97057969D01*
X141814858Y-97045553D01*
X141823481Y-97033927D01*
X141833202Y-97023202D01*
X141843927Y-97013481D01*
X141855553Y-97004858D01*
X141867969Y-96997417D01*
X141881054Y-96991228D01*
X141894683Y-96986351D01*
X141908724Y-96982834D01*
X141923042Y-96980710D01*
X141937500Y-96980000D01*
X142232500Y-96980000D01*
X142246958Y-96980710D01*
X142246958Y-96980710D01*
G37*
D16*
X142085000Y-97300000D03*
M02*
