G04 EAGLE Gerber X2 export*
%TF.Part,Single*%
%TF.FileFunction,Copper,L2,Bot,Mixed*%
%TF.FilePolarity,Positive*%
%TF.GenerationSoftware,Autodesk,EAGLE,9.0.0*%
%TF.CreationDate,2019-07-04T23:27:38Z*%
G75*
%MOMM*%
%FSLAX34Y34*%
%LPD*%
%AMOC8*
5,1,8,0,0,1.08239X$1,22.5*%
G01*
%ADD10P,1.924489X8X292.500000*%
%ADD11C,1.524000*%
%ADD12C,1.524000*%
%ADD13P,1.539592X8X22.500000*%
%ADD14R,1.408000X1.408000*%
%ADD15C,1.408000*%
%ADD16C,1.676400*%


D10*
X279400Y558800D03*
X254000Y558800D03*
X228600Y558800D03*
X203200Y558800D03*
X177800Y558800D03*
X152400Y558800D03*
X127000Y558800D03*
X101600Y558800D03*
D11*
X927100Y584200D03*
X927100Y558800D03*
X927100Y533400D03*
D12*
X927100Y741680D02*
X927100Y756920D01*
X901700Y756920D02*
X901700Y741680D01*
X876300Y741680D02*
X876300Y756920D01*
X850900Y756920D02*
X850900Y741680D01*
X825500Y741680D02*
X825500Y756920D01*
X800100Y756920D02*
X800100Y741680D01*
X774700Y741680D02*
X774700Y756920D01*
X749300Y756920D02*
X749300Y741680D01*
X723900Y741680D02*
X723900Y756920D01*
X698500Y756920D02*
X698500Y741680D01*
X673100Y741680D02*
X673100Y756920D01*
X647700Y756920D02*
X647700Y741680D01*
X622300Y741680D02*
X622300Y756920D01*
X596900Y756920D02*
X596900Y741680D01*
X571500Y741680D02*
X571500Y756920D01*
X546100Y756920D02*
X546100Y741680D01*
D13*
X723900Y342900D03*
X723900Y368300D03*
X749300Y342900D03*
X749300Y368300D03*
X774700Y342900D03*
X774700Y368300D03*
X800100Y368300D03*
X800100Y342900D03*
D12*
X622808Y683006D02*
X607568Y683006D01*
X607568Y637794D02*
X622808Y637794D01*
X672592Y683006D02*
X687832Y683006D01*
X687832Y637794D02*
X672592Y637794D01*
D11*
X393700Y749300D03*
X419100Y749300D03*
X444500Y749300D03*
D14*
X215900Y203200D03*
D15*
X215900Y228600D03*
X215900Y254000D03*
X139700Y254000D03*
X139700Y228600D03*
X139700Y203200D03*
D14*
X520700Y203200D03*
D15*
X520700Y228600D03*
X520700Y254000D03*
X444500Y254000D03*
X444500Y228600D03*
X444500Y203200D03*
D14*
X368300Y203200D03*
D15*
X368300Y228600D03*
X368300Y254000D03*
X292100Y254000D03*
X292100Y228600D03*
X292100Y203200D03*
D12*
X71120Y177800D02*
X55880Y177800D01*
X55880Y203200D02*
X71120Y203200D01*
X71120Y228600D02*
X55880Y228600D01*
X55880Y254000D02*
X71120Y254000D01*
D16*
X50800Y406400D03*
X50800Y431800D03*
X50800Y457200D03*
M02*
