M48
;GenerationSoftware,Autodesk,EAGLE,9.0.0*%
;CreationDate,2019-07-04T23:27:38Z*%
FMAT,2
ICI,OFF
METRIC,TZ,000.000
T3C0.900
T2C0.914
T1C1.016
%
G90
M71
T1
X27940Y55880
X25400Y55880
X22860Y55880
X20320Y55880
X17780Y55880
X15240Y55880
X12700Y55880
X10160Y55880
X92710Y58420
X92710Y55880
X92710Y53340
X92710Y74930
X90170Y74930
X87630Y74930
X85090Y74930
X82550Y74930
X80010Y74930
X77470Y74930
X74930Y74930
X72390Y74930
X69850Y74930
X67310Y74930
X64770Y74930
X62230Y74930
X59690Y74930
X57150Y74930
X54610Y74930
X6350Y17780
X6350Y20320
X6350Y22860
X6350Y25400
X5080Y40640
X5080Y43180
X44450Y74930
X61519Y68301
X61519Y63779
X68021Y68301
X68021Y63779
X39370Y74930
X41910Y74930
X5080Y45720
T2
X72390Y34290
X72390Y36830
X74930Y34290
X74930Y36830
X77470Y34290
X77470Y36830
X80010Y34290
X80010Y36830
T3
X13970Y20320
X52070Y20320
X52070Y22860
X44450Y25400
X44450Y22860
X44450Y20320
X36830Y20320
X36830Y22860
X36830Y25400
X29210Y25400
X52070Y25400
X29210Y20320
X21590Y20320
X21590Y22860
X21590Y25400
X13970Y25400
X13970Y22860
X29210Y22860
M30