G04 EAGLE Gerber X2 export*
%TF.Part,Single*%
%TF.FileFunction,Legend,Top,1*%
%TF.FilePolarity,Positive*%
%TF.GenerationSoftware,Autodesk,EAGLE,9.0.0*%
%TF.CreationDate,2019-07-04T23:27:38Z*%
G75*
%MOMM*%
%FSLAX34Y34*%
%LPD*%
%AMOC8*
5,1,8,0,0,1.08239X$1,22.5*%
G01*
%ADD10C,0.127000*%
%ADD11C,0.101600*%
%ADD12C,0.152400*%
%ADD13C,0.350000*%
%ADD14C,0.050800*%
%ADD15C,0.254000*%
%ADD16C,0.076200*%
%ADD17C,0.203200*%
%ADD18C,0.177800*%
%ADD19C,0.200000*%


D10*
X292100Y546100D02*
X88900Y546100D01*
X88900Y571500D01*
X292100Y571500D01*
X292100Y546100D01*
X190862Y534797D02*
X187687Y534797D01*
X190862Y534797D02*
X190973Y534795D01*
X191083Y534789D01*
X191194Y534780D01*
X191304Y534766D01*
X191413Y534749D01*
X191522Y534728D01*
X191630Y534703D01*
X191737Y534674D01*
X191843Y534642D01*
X191948Y534606D01*
X192051Y534566D01*
X192153Y534523D01*
X192254Y534476D01*
X192353Y534425D01*
X192450Y534372D01*
X192544Y534315D01*
X192637Y534254D01*
X192728Y534191D01*
X192817Y534124D01*
X192903Y534054D01*
X192986Y533981D01*
X193068Y533906D01*
X193146Y533828D01*
X193221Y533746D01*
X193294Y533663D01*
X193364Y533577D01*
X193431Y533488D01*
X193494Y533397D01*
X193555Y533304D01*
X193612Y533209D01*
X193665Y533113D01*
X193716Y533014D01*
X193763Y532913D01*
X193806Y532811D01*
X193846Y532708D01*
X193882Y532603D01*
X193914Y532497D01*
X193943Y532390D01*
X193968Y532282D01*
X193989Y532173D01*
X194006Y532064D01*
X194020Y531954D01*
X194029Y531843D01*
X194035Y531733D01*
X194037Y531622D01*
X194035Y531511D01*
X194029Y531401D01*
X194020Y531290D01*
X194006Y531180D01*
X193989Y531071D01*
X193968Y530962D01*
X193943Y530854D01*
X193914Y530747D01*
X193882Y530641D01*
X193846Y530536D01*
X193806Y530433D01*
X193763Y530331D01*
X193716Y530230D01*
X193665Y530131D01*
X193612Y530035D01*
X193555Y529940D01*
X193494Y529847D01*
X193431Y529756D01*
X193364Y529667D01*
X193294Y529581D01*
X193221Y529498D01*
X193146Y529416D01*
X193068Y529338D01*
X192986Y529263D01*
X192903Y529190D01*
X192817Y529120D01*
X192728Y529053D01*
X192637Y528990D01*
X192544Y528929D01*
X192449Y528872D01*
X192353Y528819D01*
X192254Y528768D01*
X192153Y528721D01*
X192051Y528678D01*
X191948Y528638D01*
X191843Y528602D01*
X191737Y528570D01*
X191630Y528541D01*
X191522Y528516D01*
X191413Y528495D01*
X191304Y528478D01*
X191194Y528464D01*
X191083Y528455D01*
X190973Y528449D01*
X190862Y528447D01*
X187687Y528447D01*
X187687Y539877D01*
X190862Y539877D01*
X190962Y539875D01*
X191061Y539869D01*
X191161Y539859D01*
X191259Y539846D01*
X191358Y539828D01*
X191455Y539807D01*
X191551Y539782D01*
X191647Y539753D01*
X191741Y539720D01*
X191834Y539684D01*
X191925Y539644D01*
X192015Y539600D01*
X192103Y539553D01*
X192189Y539503D01*
X192273Y539449D01*
X192355Y539392D01*
X192434Y539332D01*
X192512Y539268D01*
X192586Y539202D01*
X192658Y539133D01*
X192727Y539061D01*
X192793Y538987D01*
X192857Y538909D01*
X192917Y538830D01*
X192974Y538748D01*
X193028Y538664D01*
X193078Y538578D01*
X193125Y538490D01*
X193169Y538400D01*
X193209Y538309D01*
X193245Y538216D01*
X193278Y538122D01*
X193307Y538026D01*
X193332Y537930D01*
X193353Y537833D01*
X193371Y537734D01*
X193384Y537636D01*
X193394Y537536D01*
X193400Y537437D01*
X193402Y537337D01*
X193400Y537237D01*
X193394Y537138D01*
X193384Y537038D01*
X193371Y536940D01*
X193353Y536841D01*
X193332Y536744D01*
X193307Y536648D01*
X193278Y536552D01*
X193245Y536458D01*
X193209Y536365D01*
X193169Y536274D01*
X193125Y536184D01*
X193078Y536096D01*
X193028Y536010D01*
X192974Y535926D01*
X192917Y535844D01*
X192857Y535765D01*
X192793Y535687D01*
X192727Y535613D01*
X192658Y535541D01*
X192586Y535472D01*
X192512Y535406D01*
X192434Y535342D01*
X192355Y535282D01*
X192273Y535225D01*
X192189Y535171D01*
X192103Y535121D01*
X192015Y535074D01*
X191925Y535030D01*
X191834Y534990D01*
X191741Y534954D01*
X191647Y534921D01*
X191551Y534892D01*
X191455Y534867D01*
X191358Y534846D01*
X191259Y534828D01*
X191161Y534815D01*
X191061Y534805D01*
X190962Y534799D01*
X190862Y534797D01*
X200958Y539877D02*
X200958Y528447D01*
X197783Y539877D02*
X204133Y539877D01*
X208832Y539877D02*
X208832Y528447D01*
X215182Y528447D02*
X208832Y539877D01*
X215182Y539877D02*
X215182Y528447D01*
X220135Y527177D02*
X225215Y527177D01*
X230168Y528447D02*
X230168Y539877D01*
X230168Y534797D02*
X236518Y534797D01*
X236518Y539877D02*
X236518Y528447D01*
X242386Y528447D02*
X247466Y528447D01*
X242386Y528447D02*
X242386Y539877D01*
X247466Y539877D01*
X246196Y534797D02*
X242386Y534797D01*
X251250Y528447D02*
X255060Y539877D01*
X258870Y528447D01*
X257918Y531305D02*
X252203Y531305D01*
X263696Y528447D02*
X263696Y539877D01*
X266871Y539877D01*
X266982Y539875D01*
X267092Y539869D01*
X267203Y539860D01*
X267313Y539846D01*
X267422Y539829D01*
X267531Y539808D01*
X267639Y539783D01*
X267746Y539754D01*
X267852Y539722D01*
X267957Y539686D01*
X268060Y539646D01*
X268162Y539603D01*
X268263Y539556D01*
X268362Y539505D01*
X268459Y539452D01*
X268553Y539395D01*
X268646Y539334D01*
X268737Y539271D01*
X268826Y539204D01*
X268912Y539134D01*
X268995Y539061D01*
X269077Y538986D01*
X269155Y538908D01*
X269230Y538826D01*
X269303Y538743D01*
X269373Y538657D01*
X269440Y538568D01*
X269503Y538477D01*
X269564Y538384D01*
X269621Y538290D01*
X269674Y538193D01*
X269725Y538094D01*
X269772Y537993D01*
X269815Y537891D01*
X269855Y537788D01*
X269891Y537683D01*
X269923Y537577D01*
X269952Y537470D01*
X269977Y537362D01*
X269998Y537253D01*
X270015Y537144D01*
X270029Y537034D01*
X270038Y536923D01*
X270044Y536813D01*
X270046Y536702D01*
X270046Y531622D01*
X270044Y531511D01*
X270038Y531401D01*
X270029Y531290D01*
X270015Y531180D01*
X269998Y531071D01*
X269977Y530962D01*
X269952Y530854D01*
X269923Y530747D01*
X269891Y530641D01*
X269855Y530536D01*
X269815Y530433D01*
X269772Y530331D01*
X269725Y530230D01*
X269674Y530131D01*
X269621Y530035D01*
X269564Y529940D01*
X269503Y529847D01*
X269440Y529756D01*
X269373Y529667D01*
X269303Y529581D01*
X269230Y529498D01*
X269155Y529416D01*
X269077Y529338D01*
X268995Y529263D01*
X268912Y529190D01*
X268826Y529120D01*
X268737Y529053D01*
X268646Y528990D01*
X268553Y528929D01*
X268459Y528872D01*
X268362Y528819D01*
X268263Y528768D01*
X268162Y528721D01*
X268060Y528678D01*
X267957Y528638D01*
X267852Y528602D01*
X267746Y528570D01*
X267639Y528541D01*
X267531Y528516D01*
X267422Y528495D01*
X267313Y528478D01*
X267203Y528464D01*
X267092Y528455D01*
X266982Y528449D01*
X266871Y528447D01*
X263696Y528447D01*
X275914Y528447D02*
X280994Y528447D01*
X275914Y528447D02*
X275914Y539877D01*
X280994Y539877D01*
X279724Y534797D02*
X275914Y534797D01*
X285877Y539877D02*
X285877Y528447D01*
X285877Y539877D02*
X289052Y539877D01*
X289163Y539875D01*
X289273Y539869D01*
X289384Y539860D01*
X289494Y539846D01*
X289603Y539829D01*
X289712Y539808D01*
X289820Y539783D01*
X289927Y539754D01*
X290033Y539722D01*
X290138Y539686D01*
X290241Y539646D01*
X290343Y539603D01*
X290444Y539556D01*
X290543Y539505D01*
X290640Y539452D01*
X290734Y539395D01*
X290827Y539334D01*
X290918Y539271D01*
X291007Y539204D01*
X291093Y539134D01*
X291176Y539061D01*
X291258Y538986D01*
X291336Y538908D01*
X291411Y538826D01*
X291484Y538743D01*
X291554Y538657D01*
X291621Y538568D01*
X291684Y538477D01*
X291745Y538384D01*
X291802Y538289D01*
X291855Y538193D01*
X291906Y538094D01*
X291953Y537993D01*
X291996Y537891D01*
X292036Y537788D01*
X292072Y537683D01*
X292104Y537577D01*
X292133Y537470D01*
X292158Y537362D01*
X292179Y537253D01*
X292196Y537144D01*
X292210Y537034D01*
X292219Y536923D01*
X292225Y536813D01*
X292227Y536702D01*
X292225Y536591D01*
X292219Y536481D01*
X292210Y536370D01*
X292196Y536260D01*
X292179Y536151D01*
X292158Y536042D01*
X292133Y535934D01*
X292104Y535827D01*
X292072Y535721D01*
X292036Y535616D01*
X291996Y535513D01*
X291953Y535411D01*
X291906Y535310D01*
X291855Y535211D01*
X291802Y535115D01*
X291745Y535020D01*
X291684Y534927D01*
X291621Y534836D01*
X291554Y534747D01*
X291484Y534661D01*
X291411Y534578D01*
X291336Y534496D01*
X291258Y534418D01*
X291176Y534343D01*
X291093Y534270D01*
X291007Y534200D01*
X290918Y534133D01*
X290827Y534070D01*
X290734Y534009D01*
X290640Y533952D01*
X290543Y533899D01*
X290444Y533848D01*
X290343Y533801D01*
X290241Y533758D01*
X290138Y533718D01*
X290033Y533682D01*
X289927Y533650D01*
X289820Y533621D01*
X289712Y533596D01*
X289603Y533575D01*
X289494Y533558D01*
X289384Y533544D01*
X289273Y533535D01*
X289163Y533529D01*
X289052Y533527D01*
X285877Y533527D01*
X289687Y533527D02*
X292227Y528447D01*
D11*
X564642Y530154D02*
X564642Y532751D01*
X564642Y530154D02*
X564640Y530055D01*
X564634Y529955D01*
X564625Y529856D01*
X564612Y529758D01*
X564595Y529660D01*
X564574Y529562D01*
X564549Y529466D01*
X564521Y529371D01*
X564489Y529277D01*
X564454Y529184D01*
X564415Y529092D01*
X564372Y529002D01*
X564327Y528914D01*
X564277Y528827D01*
X564225Y528743D01*
X564169Y528660D01*
X564111Y528580D01*
X564049Y528502D01*
X563984Y528427D01*
X563916Y528354D01*
X563846Y528284D01*
X563773Y528216D01*
X563698Y528151D01*
X563620Y528089D01*
X563540Y528031D01*
X563457Y527975D01*
X563373Y527923D01*
X563286Y527873D01*
X563198Y527828D01*
X563108Y527785D01*
X563016Y527746D01*
X562923Y527711D01*
X562829Y527679D01*
X562734Y527651D01*
X562638Y527626D01*
X562540Y527605D01*
X562442Y527588D01*
X562344Y527575D01*
X562245Y527566D01*
X562145Y527560D01*
X562046Y527558D01*
X555554Y527558D01*
X555455Y527560D01*
X555355Y527566D01*
X555256Y527575D01*
X555158Y527588D01*
X555060Y527606D01*
X554962Y527626D01*
X554866Y527651D01*
X554770Y527679D01*
X554676Y527711D01*
X554583Y527746D01*
X554492Y527785D01*
X554402Y527828D01*
X554313Y527873D01*
X554227Y527923D01*
X554142Y527975D01*
X554060Y528031D01*
X553980Y528090D01*
X553902Y528151D01*
X553826Y528216D01*
X553753Y528284D01*
X553683Y528354D01*
X553615Y528427D01*
X553550Y528503D01*
X553489Y528581D01*
X553430Y528661D01*
X553374Y528743D01*
X553322Y528828D01*
X553273Y528914D01*
X553227Y529003D01*
X553184Y529093D01*
X553145Y529184D01*
X553110Y529277D01*
X553078Y529371D01*
X553050Y529467D01*
X553025Y529563D01*
X553005Y529661D01*
X552987Y529759D01*
X552974Y529857D01*
X552965Y529956D01*
X552959Y530055D01*
X552957Y530155D01*
X552958Y530154D02*
X552958Y532751D01*
X555554Y537116D02*
X552958Y540362D01*
X564642Y540362D01*
X564642Y543607D02*
X564642Y537116D01*
X590042Y477586D02*
X590042Y474989D01*
X590040Y474890D01*
X590034Y474790D01*
X590025Y474691D01*
X590012Y474593D01*
X589995Y474495D01*
X589974Y474397D01*
X589949Y474301D01*
X589921Y474206D01*
X589889Y474112D01*
X589854Y474019D01*
X589815Y473927D01*
X589772Y473837D01*
X589727Y473749D01*
X589677Y473662D01*
X589625Y473578D01*
X589569Y473495D01*
X589511Y473415D01*
X589449Y473337D01*
X589384Y473262D01*
X589316Y473189D01*
X589246Y473119D01*
X589173Y473051D01*
X589098Y472986D01*
X589020Y472924D01*
X588940Y472866D01*
X588857Y472810D01*
X588773Y472758D01*
X588686Y472708D01*
X588598Y472663D01*
X588508Y472620D01*
X588416Y472581D01*
X588323Y472546D01*
X588229Y472514D01*
X588134Y472486D01*
X588038Y472461D01*
X587940Y472440D01*
X587842Y472423D01*
X587744Y472410D01*
X587645Y472401D01*
X587545Y472395D01*
X587446Y472393D01*
X580954Y472393D01*
X580954Y472392D02*
X580855Y472394D01*
X580755Y472400D01*
X580656Y472409D01*
X580558Y472422D01*
X580460Y472440D01*
X580362Y472460D01*
X580266Y472485D01*
X580170Y472513D01*
X580076Y472545D01*
X579983Y472580D01*
X579892Y472619D01*
X579802Y472662D01*
X579713Y472707D01*
X579627Y472757D01*
X579542Y472809D01*
X579460Y472865D01*
X579380Y472924D01*
X579302Y472985D01*
X579226Y473050D01*
X579153Y473118D01*
X579083Y473188D01*
X579015Y473261D01*
X578950Y473337D01*
X578889Y473415D01*
X578830Y473495D01*
X578774Y473577D01*
X578722Y473662D01*
X578673Y473748D01*
X578627Y473837D01*
X578584Y473927D01*
X578545Y474018D01*
X578510Y474111D01*
X578478Y474205D01*
X578450Y474301D01*
X578425Y474397D01*
X578405Y474495D01*
X578387Y474593D01*
X578374Y474691D01*
X578365Y474790D01*
X578359Y474889D01*
X578357Y474989D01*
X578358Y474989D02*
X578358Y477586D01*
X578358Y485521D02*
X578360Y485628D01*
X578366Y485734D01*
X578376Y485840D01*
X578389Y485946D01*
X578407Y486052D01*
X578428Y486156D01*
X578453Y486260D01*
X578482Y486363D01*
X578514Y486464D01*
X578551Y486564D01*
X578591Y486663D01*
X578634Y486761D01*
X578681Y486857D01*
X578732Y486951D01*
X578786Y487043D01*
X578843Y487133D01*
X578903Y487221D01*
X578967Y487306D01*
X579034Y487389D01*
X579104Y487470D01*
X579176Y487548D01*
X579252Y487624D01*
X579330Y487696D01*
X579411Y487766D01*
X579494Y487833D01*
X579579Y487897D01*
X579667Y487957D01*
X579757Y488014D01*
X579849Y488068D01*
X579943Y488119D01*
X580039Y488166D01*
X580137Y488209D01*
X580236Y488249D01*
X580336Y488286D01*
X580437Y488318D01*
X580540Y488347D01*
X580644Y488372D01*
X580748Y488393D01*
X580854Y488411D01*
X580960Y488424D01*
X581066Y488434D01*
X581172Y488440D01*
X581279Y488442D01*
X578358Y485521D02*
X578360Y485400D01*
X578366Y485279D01*
X578376Y485159D01*
X578389Y485038D01*
X578407Y484919D01*
X578428Y484799D01*
X578453Y484681D01*
X578482Y484564D01*
X578515Y484447D01*
X578551Y484332D01*
X578592Y484218D01*
X578635Y484105D01*
X578683Y483993D01*
X578734Y483884D01*
X578789Y483776D01*
X578847Y483669D01*
X578908Y483565D01*
X578973Y483463D01*
X579041Y483363D01*
X579112Y483265D01*
X579186Y483169D01*
X579263Y483076D01*
X579344Y482986D01*
X579427Y482898D01*
X579513Y482813D01*
X579602Y482730D01*
X579693Y482651D01*
X579787Y482574D01*
X579883Y482501D01*
X579981Y482431D01*
X580082Y482364D01*
X580185Y482300D01*
X580290Y482240D01*
X580397Y482182D01*
X580505Y482129D01*
X580615Y482079D01*
X580727Y482033D01*
X580840Y481990D01*
X580955Y481951D01*
X583551Y487468D02*
X583473Y487547D01*
X583393Y487623D01*
X583310Y487696D01*
X583224Y487766D01*
X583137Y487833D01*
X583046Y487897D01*
X582954Y487957D01*
X582860Y488015D01*
X582763Y488069D01*
X582665Y488119D01*
X582565Y488166D01*
X582464Y488210D01*
X582361Y488250D01*
X582256Y488286D01*
X582151Y488318D01*
X582044Y488347D01*
X581937Y488372D01*
X581828Y488394D01*
X581719Y488411D01*
X581610Y488425D01*
X581500Y488434D01*
X581389Y488440D01*
X581279Y488442D01*
X583551Y487468D02*
X590042Y481951D01*
X590042Y488442D01*
D12*
X887480Y420620D02*
X895600Y420620D01*
X895600Y415040D01*
X895600Y397760D02*
X895600Y392180D01*
X887480Y392180D01*
D11*
X908558Y403027D02*
X920242Y403027D01*
X920242Y401729D02*
X920242Y404326D01*
X908558Y404326D02*
X908558Y401729D01*
X920242Y411489D02*
X920242Y414086D01*
X920242Y411489D02*
X920240Y411390D01*
X920234Y411290D01*
X920225Y411191D01*
X920212Y411093D01*
X920195Y410995D01*
X920174Y410897D01*
X920149Y410801D01*
X920121Y410706D01*
X920089Y410612D01*
X920054Y410519D01*
X920015Y410427D01*
X919972Y410337D01*
X919927Y410249D01*
X919877Y410162D01*
X919825Y410078D01*
X919769Y409995D01*
X919711Y409915D01*
X919649Y409837D01*
X919584Y409762D01*
X919516Y409689D01*
X919446Y409619D01*
X919373Y409551D01*
X919298Y409486D01*
X919220Y409424D01*
X919140Y409366D01*
X919057Y409310D01*
X918973Y409258D01*
X918886Y409208D01*
X918798Y409163D01*
X918708Y409120D01*
X918616Y409081D01*
X918523Y409046D01*
X918429Y409014D01*
X918334Y408986D01*
X918238Y408961D01*
X918140Y408940D01*
X918042Y408923D01*
X917944Y408910D01*
X917845Y408901D01*
X917745Y408895D01*
X917646Y408893D01*
X911154Y408893D01*
X911154Y408892D02*
X911055Y408894D01*
X910955Y408900D01*
X910856Y408909D01*
X910758Y408922D01*
X910660Y408940D01*
X910562Y408960D01*
X910466Y408985D01*
X910370Y409013D01*
X910276Y409045D01*
X910183Y409080D01*
X910092Y409119D01*
X910002Y409162D01*
X909913Y409207D01*
X909827Y409257D01*
X909742Y409309D01*
X909660Y409365D01*
X909580Y409424D01*
X909502Y409485D01*
X909426Y409550D01*
X909353Y409618D01*
X909283Y409688D01*
X909215Y409761D01*
X909150Y409837D01*
X909089Y409915D01*
X909030Y409995D01*
X908974Y410077D01*
X908922Y410162D01*
X908873Y410248D01*
X908827Y410337D01*
X908784Y410427D01*
X908745Y410518D01*
X908710Y410611D01*
X908678Y410705D01*
X908650Y410801D01*
X908625Y410897D01*
X908605Y410995D01*
X908587Y411093D01*
X908574Y411191D01*
X908565Y411290D01*
X908559Y411389D01*
X908557Y411489D01*
X908558Y411489D02*
X908558Y414086D01*
X911154Y418451D02*
X908558Y421696D01*
X920242Y421696D01*
X920242Y418451D02*
X920242Y424942D01*
D12*
X939800Y577850D02*
X939800Y590550D01*
X939800Y577850D02*
X933450Y571500D01*
X920750Y571500D01*
X914400Y577850D01*
X933450Y571500D02*
X939800Y565150D01*
X939800Y552450D01*
X933450Y546100D01*
X920750Y546100D01*
X914400Y552450D01*
X914400Y565150D01*
X920750Y571500D01*
X920750Y596900D02*
X933450Y596900D01*
X939800Y590550D01*
X920750Y596900D02*
X914400Y590550D01*
X914400Y577850D01*
X933450Y546100D02*
X939800Y539750D01*
X939800Y527050D01*
X933450Y520700D01*
X920750Y520700D01*
X914400Y527050D01*
X914400Y539750D01*
X920750Y546100D01*
D10*
X946023Y573838D02*
X954913Y573838D01*
X955013Y573836D01*
X955112Y573830D01*
X955212Y573820D01*
X955310Y573807D01*
X955409Y573789D01*
X955506Y573768D01*
X955602Y573743D01*
X955698Y573714D01*
X955792Y573681D01*
X955885Y573645D01*
X955976Y573605D01*
X956066Y573561D01*
X956154Y573514D01*
X956240Y573464D01*
X956324Y573410D01*
X956406Y573353D01*
X956485Y573293D01*
X956563Y573229D01*
X956637Y573163D01*
X956709Y573094D01*
X956778Y573022D01*
X956844Y572948D01*
X956908Y572870D01*
X956968Y572791D01*
X957025Y572709D01*
X957079Y572625D01*
X957129Y572539D01*
X957176Y572451D01*
X957220Y572361D01*
X957260Y572270D01*
X957296Y572177D01*
X957329Y572083D01*
X957358Y571987D01*
X957383Y571891D01*
X957404Y571794D01*
X957422Y571695D01*
X957435Y571597D01*
X957445Y571497D01*
X957451Y571398D01*
X957453Y571298D01*
X957453Y570028D01*
X957453Y579819D02*
X946023Y579819D01*
X946023Y582994D01*
X946025Y583105D01*
X946031Y583215D01*
X946040Y583326D01*
X946054Y583436D01*
X946071Y583545D01*
X946092Y583654D01*
X946117Y583762D01*
X946146Y583869D01*
X946178Y583975D01*
X946214Y584080D01*
X946254Y584183D01*
X946297Y584285D01*
X946344Y584386D01*
X946395Y584485D01*
X946448Y584582D01*
X946505Y584676D01*
X946566Y584769D01*
X946629Y584860D01*
X946696Y584949D01*
X946766Y585035D01*
X946839Y585118D01*
X946914Y585200D01*
X946992Y585278D01*
X947074Y585353D01*
X947157Y585426D01*
X947243Y585496D01*
X947332Y585563D01*
X947423Y585626D01*
X947516Y585687D01*
X947611Y585744D01*
X947707Y585797D01*
X947806Y585848D01*
X947907Y585895D01*
X948009Y585938D01*
X948112Y585978D01*
X948217Y586014D01*
X948323Y586046D01*
X948430Y586075D01*
X948538Y586100D01*
X948647Y586121D01*
X948756Y586138D01*
X948866Y586152D01*
X948977Y586161D01*
X949087Y586167D01*
X949198Y586169D01*
X949309Y586167D01*
X949419Y586161D01*
X949530Y586152D01*
X949640Y586138D01*
X949749Y586121D01*
X949858Y586100D01*
X949966Y586075D01*
X950073Y586046D01*
X950179Y586014D01*
X950284Y585978D01*
X950387Y585938D01*
X950489Y585895D01*
X950590Y585848D01*
X950689Y585797D01*
X950786Y585744D01*
X950880Y585687D01*
X950973Y585626D01*
X951064Y585563D01*
X951153Y585496D01*
X951239Y585426D01*
X951322Y585353D01*
X951404Y585278D01*
X951482Y585200D01*
X951557Y585118D01*
X951630Y585035D01*
X951700Y584949D01*
X951767Y584860D01*
X951830Y584769D01*
X951891Y584676D01*
X951948Y584582D01*
X952001Y584485D01*
X952052Y584386D01*
X952099Y584285D01*
X952142Y584183D01*
X952182Y584080D01*
X952218Y583975D01*
X952250Y583869D01*
X952279Y583762D01*
X952304Y583654D01*
X952325Y583545D01*
X952342Y583436D01*
X952356Y583326D01*
X952365Y583215D01*
X952371Y583105D01*
X952373Y582994D01*
X952373Y579819D01*
X948563Y590677D02*
X946023Y593852D01*
X957453Y593852D01*
X957453Y590677D02*
X957453Y597027D01*
D12*
X584200Y742950D02*
X577850Y736600D01*
X565150Y736600D01*
X558800Y742950D01*
X558800Y755650D01*
X565150Y762000D01*
X577850Y762000D01*
X584200Y755650D01*
X615950Y736600D02*
X628650Y736600D01*
X615950Y736600D02*
X609600Y742950D01*
X609600Y755650D01*
X615950Y762000D01*
X609600Y742950D02*
X603250Y736600D01*
X590550Y736600D01*
X584200Y742950D01*
X584200Y755650D01*
X590550Y762000D01*
X603250Y762000D01*
X609600Y755650D01*
X654050Y736600D02*
X660400Y742950D01*
X654050Y736600D02*
X641350Y736600D01*
X635000Y742950D01*
X635000Y755650D01*
X641350Y762000D01*
X654050Y762000D01*
X660400Y755650D01*
X635000Y742950D02*
X628650Y736600D01*
X635000Y755650D02*
X628650Y762000D01*
X615950Y762000D01*
X692150Y736600D02*
X704850Y736600D01*
X692150Y736600D02*
X685800Y742950D01*
X685800Y755650D01*
X692150Y762000D01*
X685800Y742950D02*
X679450Y736600D01*
X666750Y736600D01*
X660400Y742950D01*
X660400Y755650D01*
X666750Y762000D01*
X679450Y762000D01*
X685800Y755650D01*
X730250Y736600D02*
X736600Y742950D01*
X730250Y736600D02*
X717550Y736600D01*
X711200Y742950D01*
X711200Y755650D01*
X717550Y762000D01*
X730250Y762000D01*
X736600Y755650D01*
X711200Y742950D02*
X704850Y736600D01*
X711200Y755650D02*
X704850Y762000D01*
X692150Y762000D01*
X768350Y736600D02*
X781050Y736600D01*
X768350Y736600D02*
X762000Y742950D01*
X762000Y755650D01*
X768350Y762000D01*
X762000Y742950D02*
X755650Y736600D01*
X742950Y736600D01*
X736600Y742950D01*
X736600Y755650D01*
X742950Y762000D01*
X755650Y762000D01*
X762000Y755650D01*
X806450Y736600D02*
X812800Y742950D01*
X806450Y736600D02*
X793750Y736600D01*
X787400Y742950D01*
X787400Y755650D01*
X793750Y762000D01*
X806450Y762000D01*
X812800Y755650D01*
X787400Y742950D02*
X781050Y736600D01*
X787400Y755650D02*
X781050Y762000D01*
X768350Y762000D01*
X844550Y736600D02*
X857250Y736600D01*
X844550Y736600D02*
X838200Y742950D01*
X838200Y755650D01*
X844550Y762000D01*
X838200Y742950D02*
X831850Y736600D01*
X819150Y736600D01*
X812800Y742950D01*
X812800Y755650D01*
X819150Y762000D01*
X831850Y762000D01*
X838200Y755650D01*
X882650Y736600D02*
X889000Y742950D01*
X882650Y736600D02*
X869950Y736600D01*
X863600Y742950D01*
X863600Y755650D01*
X869950Y762000D01*
X882650Y762000D01*
X889000Y755650D01*
X863600Y742950D02*
X857250Y736600D01*
X863600Y755650D02*
X857250Y762000D01*
X844550Y762000D01*
X920750Y736600D02*
X933450Y736600D01*
X920750Y736600D02*
X914400Y742950D01*
X914400Y755650D01*
X920750Y762000D01*
X914400Y742950D02*
X908050Y736600D01*
X895350Y736600D01*
X889000Y742950D01*
X889000Y755650D01*
X895350Y762000D01*
X908050Y762000D01*
X914400Y755650D01*
X939800Y755650D02*
X939800Y742950D01*
X933450Y736600D01*
X939800Y755650D02*
X933450Y762000D01*
X920750Y762000D01*
X558800Y742950D02*
X552450Y736600D01*
X539750Y736600D01*
X533400Y742950D01*
X533400Y755650D01*
X539750Y762000D01*
X552450Y762000D01*
X558800Y755650D01*
D10*
X837127Y730377D02*
X837127Y718947D01*
X842207Y718947D01*
X849129Y718947D02*
X851669Y718947D01*
X849129Y718947D02*
X849029Y718949D01*
X848930Y718955D01*
X848830Y718965D01*
X848732Y718978D01*
X848633Y718996D01*
X848536Y719017D01*
X848440Y719042D01*
X848344Y719071D01*
X848250Y719104D01*
X848157Y719140D01*
X848066Y719180D01*
X847976Y719224D01*
X847888Y719271D01*
X847802Y719321D01*
X847718Y719375D01*
X847636Y719432D01*
X847557Y719492D01*
X847479Y719556D01*
X847405Y719622D01*
X847333Y719691D01*
X847264Y719763D01*
X847198Y719837D01*
X847134Y719915D01*
X847074Y719994D01*
X847017Y720076D01*
X846963Y720160D01*
X846913Y720246D01*
X846866Y720334D01*
X846822Y720424D01*
X846782Y720515D01*
X846746Y720608D01*
X846713Y720702D01*
X846684Y720798D01*
X846659Y720894D01*
X846638Y720991D01*
X846620Y721090D01*
X846607Y721188D01*
X846597Y721288D01*
X846591Y721387D01*
X846589Y721487D01*
X846589Y727837D01*
X846591Y727937D01*
X846597Y728036D01*
X846607Y728136D01*
X846620Y728234D01*
X846638Y728333D01*
X846659Y728430D01*
X846684Y728526D01*
X846713Y728622D01*
X846746Y728716D01*
X846782Y728809D01*
X846822Y728900D01*
X846866Y728990D01*
X846913Y729078D01*
X846963Y729164D01*
X847017Y729248D01*
X847074Y729330D01*
X847134Y729409D01*
X847198Y729487D01*
X847264Y729561D01*
X847333Y729633D01*
X847405Y729702D01*
X847479Y729768D01*
X847557Y729832D01*
X847636Y729892D01*
X847718Y729949D01*
X847802Y730003D01*
X847888Y730053D01*
X847976Y730100D01*
X848066Y730144D01*
X848157Y730184D01*
X848250Y730220D01*
X848344Y730253D01*
X848440Y730282D01*
X848536Y730307D01*
X848633Y730328D01*
X848732Y730346D01*
X848830Y730359D01*
X848930Y730369D01*
X849029Y730375D01*
X849129Y730377D01*
X851669Y730377D01*
X856532Y730377D02*
X856532Y718947D01*
X856532Y730377D02*
X859707Y730377D01*
X859818Y730375D01*
X859928Y730369D01*
X860039Y730360D01*
X860149Y730346D01*
X860258Y730329D01*
X860367Y730308D01*
X860475Y730283D01*
X860582Y730254D01*
X860688Y730222D01*
X860793Y730186D01*
X860896Y730146D01*
X860998Y730103D01*
X861099Y730056D01*
X861198Y730005D01*
X861295Y729952D01*
X861389Y729895D01*
X861482Y729834D01*
X861573Y729771D01*
X861662Y729704D01*
X861748Y729634D01*
X861831Y729561D01*
X861913Y729486D01*
X861991Y729408D01*
X862066Y729326D01*
X862139Y729243D01*
X862209Y729157D01*
X862276Y729068D01*
X862339Y728977D01*
X862400Y728884D01*
X862457Y728790D01*
X862510Y728693D01*
X862561Y728594D01*
X862608Y728493D01*
X862651Y728391D01*
X862691Y728288D01*
X862727Y728183D01*
X862759Y728077D01*
X862788Y727970D01*
X862813Y727862D01*
X862834Y727753D01*
X862851Y727644D01*
X862865Y727534D01*
X862874Y727423D01*
X862880Y727313D01*
X862882Y727202D01*
X862882Y722122D01*
X862880Y722011D01*
X862874Y721901D01*
X862865Y721790D01*
X862851Y721680D01*
X862834Y721571D01*
X862813Y721462D01*
X862788Y721354D01*
X862759Y721247D01*
X862727Y721141D01*
X862691Y721036D01*
X862651Y720933D01*
X862608Y720831D01*
X862561Y720730D01*
X862510Y720631D01*
X862457Y720535D01*
X862400Y720440D01*
X862339Y720347D01*
X862276Y720256D01*
X862209Y720167D01*
X862139Y720081D01*
X862066Y719998D01*
X861991Y719916D01*
X861913Y719838D01*
X861831Y719763D01*
X861748Y719690D01*
X861662Y719620D01*
X861573Y719553D01*
X861482Y719490D01*
X861389Y719429D01*
X861295Y719372D01*
X861198Y719319D01*
X861099Y719268D01*
X860998Y719221D01*
X860896Y719178D01*
X860793Y719138D01*
X860688Y719102D01*
X860582Y719070D01*
X860475Y719041D01*
X860367Y719016D01*
X860258Y718995D01*
X860149Y718978D01*
X860039Y718964D01*
X859928Y718955D01*
X859818Y718949D01*
X859707Y718947D01*
X856532Y718947D01*
X867835Y717677D02*
X872915Y717677D01*
X877868Y718947D02*
X877868Y730377D01*
X877868Y725297D02*
X884218Y725297D01*
X884218Y730377D02*
X884218Y718947D01*
X890086Y718947D02*
X895166Y718947D01*
X890086Y718947D02*
X890086Y730377D01*
X895166Y730377D01*
X893896Y725297D02*
X890086Y725297D01*
X898950Y718947D02*
X902760Y730377D01*
X906570Y718947D01*
X905618Y721805D02*
X899903Y721805D01*
X911396Y718947D02*
X911396Y730377D01*
X914571Y730377D01*
X914682Y730375D01*
X914792Y730369D01*
X914903Y730360D01*
X915013Y730346D01*
X915122Y730329D01*
X915231Y730308D01*
X915339Y730283D01*
X915446Y730254D01*
X915552Y730222D01*
X915657Y730186D01*
X915760Y730146D01*
X915862Y730103D01*
X915963Y730056D01*
X916062Y730005D01*
X916159Y729952D01*
X916253Y729895D01*
X916346Y729834D01*
X916437Y729771D01*
X916526Y729704D01*
X916612Y729634D01*
X916695Y729561D01*
X916777Y729486D01*
X916855Y729408D01*
X916930Y729326D01*
X917003Y729243D01*
X917073Y729157D01*
X917140Y729068D01*
X917203Y728977D01*
X917264Y728884D01*
X917321Y728790D01*
X917374Y728693D01*
X917425Y728594D01*
X917472Y728493D01*
X917515Y728391D01*
X917555Y728288D01*
X917591Y728183D01*
X917623Y728077D01*
X917652Y727970D01*
X917677Y727862D01*
X917698Y727753D01*
X917715Y727644D01*
X917729Y727534D01*
X917738Y727423D01*
X917744Y727313D01*
X917746Y727202D01*
X917746Y722122D01*
X917744Y722011D01*
X917738Y721901D01*
X917729Y721790D01*
X917715Y721680D01*
X917698Y721571D01*
X917677Y721462D01*
X917652Y721354D01*
X917623Y721247D01*
X917591Y721141D01*
X917555Y721036D01*
X917515Y720933D01*
X917472Y720831D01*
X917425Y720730D01*
X917374Y720631D01*
X917321Y720535D01*
X917264Y720440D01*
X917203Y720347D01*
X917140Y720256D01*
X917073Y720167D01*
X917003Y720081D01*
X916930Y719998D01*
X916855Y719916D01*
X916777Y719838D01*
X916695Y719763D01*
X916612Y719690D01*
X916526Y719620D01*
X916437Y719553D01*
X916346Y719490D01*
X916253Y719429D01*
X916159Y719372D01*
X916062Y719319D01*
X915963Y719268D01*
X915862Y719221D01*
X915760Y719178D01*
X915657Y719138D01*
X915552Y719102D01*
X915446Y719070D01*
X915339Y719041D01*
X915231Y719016D01*
X915122Y718995D01*
X915013Y718978D01*
X914903Y718964D01*
X914792Y718955D01*
X914682Y718949D01*
X914571Y718947D01*
X911396Y718947D01*
X923614Y718947D02*
X928694Y718947D01*
X923614Y718947D02*
X923614Y730377D01*
X928694Y730377D01*
X927424Y725297D02*
X923614Y725297D01*
X933577Y730377D02*
X933577Y718947D01*
X933577Y730377D02*
X936752Y730377D01*
X936863Y730375D01*
X936973Y730369D01*
X937084Y730360D01*
X937194Y730346D01*
X937303Y730329D01*
X937412Y730308D01*
X937520Y730283D01*
X937627Y730254D01*
X937733Y730222D01*
X937838Y730186D01*
X937941Y730146D01*
X938043Y730103D01*
X938144Y730056D01*
X938243Y730005D01*
X938340Y729952D01*
X938434Y729895D01*
X938527Y729834D01*
X938618Y729771D01*
X938707Y729704D01*
X938793Y729634D01*
X938876Y729561D01*
X938958Y729486D01*
X939036Y729408D01*
X939111Y729326D01*
X939184Y729243D01*
X939254Y729157D01*
X939321Y729068D01*
X939384Y728977D01*
X939445Y728884D01*
X939502Y728789D01*
X939555Y728693D01*
X939606Y728594D01*
X939653Y728493D01*
X939696Y728391D01*
X939736Y728288D01*
X939772Y728183D01*
X939804Y728077D01*
X939833Y727970D01*
X939858Y727862D01*
X939879Y727753D01*
X939896Y727644D01*
X939910Y727534D01*
X939919Y727423D01*
X939925Y727313D01*
X939927Y727202D01*
X939925Y727091D01*
X939919Y726981D01*
X939910Y726870D01*
X939896Y726760D01*
X939879Y726651D01*
X939858Y726542D01*
X939833Y726434D01*
X939804Y726327D01*
X939772Y726221D01*
X939736Y726116D01*
X939696Y726013D01*
X939653Y725911D01*
X939606Y725810D01*
X939555Y725711D01*
X939502Y725615D01*
X939445Y725520D01*
X939384Y725427D01*
X939321Y725336D01*
X939254Y725247D01*
X939184Y725161D01*
X939111Y725078D01*
X939036Y724996D01*
X938958Y724918D01*
X938876Y724843D01*
X938793Y724770D01*
X938707Y724700D01*
X938618Y724633D01*
X938527Y724570D01*
X938434Y724509D01*
X938340Y724452D01*
X938243Y724399D01*
X938144Y724348D01*
X938043Y724301D01*
X937941Y724258D01*
X937838Y724218D01*
X937733Y724182D01*
X937627Y724150D01*
X937520Y724121D01*
X937412Y724096D01*
X937303Y724075D01*
X937194Y724058D01*
X937084Y724044D01*
X936973Y724035D01*
X936863Y724029D01*
X936752Y724027D01*
X933577Y724027D01*
X937387Y724027D02*
X939927Y718947D01*
D13*
X584200Y508000D03*
D11*
X570196Y498258D02*
X565004Y498258D01*
X564891Y498260D01*
X564778Y498266D01*
X564665Y498276D01*
X564552Y498290D01*
X564440Y498307D01*
X564329Y498329D01*
X564219Y498354D01*
X564109Y498384D01*
X564001Y498417D01*
X563894Y498454D01*
X563788Y498494D01*
X563684Y498539D01*
X563581Y498587D01*
X563480Y498638D01*
X563381Y498693D01*
X563284Y498751D01*
X563189Y498813D01*
X563096Y498878D01*
X563006Y498946D01*
X562918Y499017D01*
X562832Y499092D01*
X562749Y499169D01*
X562669Y499249D01*
X562592Y499332D01*
X562517Y499418D01*
X562446Y499506D01*
X562378Y499596D01*
X562313Y499689D01*
X562251Y499784D01*
X562193Y499881D01*
X562138Y499980D01*
X562087Y500081D01*
X562039Y500184D01*
X561994Y500288D01*
X561954Y500394D01*
X561917Y500501D01*
X561884Y500609D01*
X561854Y500719D01*
X561829Y500829D01*
X561807Y500940D01*
X561790Y501052D01*
X561776Y501165D01*
X561766Y501278D01*
X561760Y501391D01*
X561758Y501504D01*
X561760Y501617D01*
X561766Y501730D01*
X561776Y501843D01*
X561790Y501956D01*
X561807Y502068D01*
X561829Y502179D01*
X561854Y502289D01*
X561884Y502399D01*
X561917Y502507D01*
X561954Y502614D01*
X561994Y502720D01*
X562039Y502824D01*
X562087Y502927D01*
X562138Y503028D01*
X562193Y503127D01*
X562251Y503224D01*
X562313Y503319D01*
X562378Y503412D01*
X562446Y503502D01*
X562517Y503590D01*
X562592Y503676D01*
X562669Y503759D01*
X562749Y503839D01*
X562832Y503916D01*
X562918Y503991D01*
X563006Y504062D01*
X563096Y504130D01*
X563189Y504195D01*
X563284Y504257D01*
X563381Y504315D01*
X563480Y504370D01*
X563581Y504421D01*
X563684Y504469D01*
X563788Y504514D01*
X563894Y504554D01*
X564001Y504591D01*
X564109Y504624D01*
X564219Y504654D01*
X564329Y504679D01*
X564440Y504701D01*
X564552Y504718D01*
X564665Y504732D01*
X564778Y504742D01*
X564891Y504748D01*
X565004Y504750D01*
X565004Y504749D02*
X570196Y504749D01*
X570196Y504750D02*
X570309Y504748D01*
X570422Y504742D01*
X570535Y504732D01*
X570648Y504718D01*
X570760Y504701D01*
X570871Y504679D01*
X570981Y504654D01*
X571091Y504624D01*
X571199Y504591D01*
X571306Y504554D01*
X571412Y504514D01*
X571516Y504469D01*
X571619Y504421D01*
X571720Y504370D01*
X571819Y504315D01*
X571916Y504257D01*
X572011Y504195D01*
X572104Y504130D01*
X572194Y504062D01*
X572282Y503991D01*
X572368Y503916D01*
X572451Y503839D01*
X572531Y503759D01*
X572608Y503676D01*
X572683Y503590D01*
X572754Y503502D01*
X572822Y503412D01*
X572887Y503319D01*
X572949Y503224D01*
X573007Y503127D01*
X573062Y503028D01*
X573113Y502927D01*
X573161Y502824D01*
X573206Y502720D01*
X573246Y502614D01*
X573283Y502507D01*
X573316Y502399D01*
X573346Y502289D01*
X573371Y502179D01*
X573393Y502068D01*
X573410Y501956D01*
X573424Y501843D01*
X573434Y501730D01*
X573440Y501617D01*
X573442Y501504D01*
X573440Y501391D01*
X573434Y501278D01*
X573424Y501165D01*
X573410Y501052D01*
X573393Y500940D01*
X573371Y500829D01*
X573346Y500719D01*
X573316Y500609D01*
X573283Y500501D01*
X573246Y500394D01*
X573206Y500288D01*
X573161Y500184D01*
X573113Y500081D01*
X573062Y499980D01*
X573007Y499881D01*
X572949Y499784D01*
X572887Y499689D01*
X572822Y499596D01*
X572754Y499506D01*
X572683Y499418D01*
X572608Y499332D01*
X572531Y499249D01*
X572451Y499169D01*
X572368Y499092D01*
X572282Y499017D01*
X572194Y498946D01*
X572104Y498878D01*
X572011Y498813D01*
X571916Y498751D01*
X571819Y498693D01*
X571720Y498638D01*
X571619Y498587D01*
X571516Y498539D01*
X571412Y498494D01*
X571306Y498454D01*
X571199Y498417D01*
X571091Y498384D01*
X570981Y498354D01*
X570871Y498329D01*
X570760Y498307D01*
X570648Y498290D01*
X570535Y498276D01*
X570422Y498266D01*
X570309Y498260D01*
X570196Y498258D01*
X570846Y503451D02*
X573442Y506047D01*
X564354Y509402D02*
X561758Y512647D01*
X573442Y512647D01*
X573442Y509402D02*
X573442Y515893D01*
X577342Y654558D02*
X565658Y654558D01*
X565658Y657804D01*
X565660Y657917D01*
X565666Y658030D01*
X565676Y658143D01*
X565690Y658256D01*
X565707Y658368D01*
X565729Y658479D01*
X565754Y658589D01*
X565784Y658699D01*
X565817Y658807D01*
X565854Y658914D01*
X565894Y659020D01*
X565939Y659124D01*
X565987Y659227D01*
X566038Y659328D01*
X566093Y659427D01*
X566151Y659524D01*
X566213Y659619D01*
X566278Y659712D01*
X566346Y659802D01*
X566417Y659890D01*
X566492Y659976D01*
X566569Y660059D01*
X566649Y660139D01*
X566732Y660216D01*
X566818Y660291D01*
X566906Y660362D01*
X566996Y660430D01*
X567089Y660495D01*
X567184Y660557D01*
X567281Y660615D01*
X567380Y660670D01*
X567481Y660721D01*
X567584Y660769D01*
X567688Y660814D01*
X567794Y660854D01*
X567901Y660891D01*
X568009Y660924D01*
X568119Y660954D01*
X568229Y660979D01*
X568340Y661001D01*
X568452Y661018D01*
X568565Y661032D01*
X568678Y661042D01*
X568791Y661048D01*
X568904Y661050D01*
X569017Y661048D01*
X569130Y661042D01*
X569243Y661032D01*
X569356Y661018D01*
X569468Y661001D01*
X569579Y660979D01*
X569689Y660954D01*
X569799Y660924D01*
X569907Y660891D01*
X570014Y660854D01*
X570120Y660814D01*
X570224Y660769D01*
X570327Y660721D01*
X570428Y660670D01*
X570527Y660615D01*
X570624Y660557D01*
X570719Y660495D01*
X570812Y660430D01*
X570902Y660362D01*
X570990Y660291D01*
X571076Y660216D01*
X571159Y660139D01*
X571239Y660059D01*
X571316Y659976D01*
X571391Y659890D01*
X571462Y659802D01*
X571530Y659712D01*
X571595Y659619D01*
X571657Y659524D01*
X571715Y659427D01*
X571770Y659328D01*
X571821Y659227D01*
X571869Y659124D01*
X571914Y659020D01*
X571954Y658914D01*
X571991Y658807D01*
X572024Y658699D01*
X572054Y658589D01*
X572079Y658479D01*
X572101Y658368D01*
X572118Y658256D01*
X572132Y658143D01*
X572142Y658030D01*
X572148Y657917D01*
X572150Y657804D01*
X572149Y657804D02*
X572149Y654558D01*
X572149Y658453D02*
X577342Y661049D01*
X568254Y665914D02*
X565658Y669160D01*
X577342Y669160D01*
X577342Y672405D02*
X577342Y665914D01*
X399542Y559495D02*
X387858Y559495D01*
X387858Y562740D01*
X387860Y562853D01*
X387866Y562966D01*
X387876Y563079D01*
X387890Y563192D01*
X387907Y563304D01*
X387929Y563415D01*
X387954Y563525D01*
X387984Y563635D01*
X388017Y563743D01*
X388054Y563850D01*
X388094Y563956D01*
X388139Y564060D01*
X388187Y564163D01*
X388238Y564264D01*
X388293Y564363D01*
X388351Y564460D01*
X388413Y564555D01*
X388478Y564648D01*
X388546Y564738D01*
X388617Y564826D01*
X388692Y564912D01*
X388769Y564995D01*
X388849Y565075D01*
X388932Y565152D01*
X389018Y565227D01*
X389106Y565298D01*
X389196Y565366D01*
X389289Y565431D01*
X389384Y565493D01*
X389481Y565551D01*
X389580Y565606D01*
X389681Y565657D01*
X389784Y565705D01*
X389888Y565750D01*
X389994Y565790D01*
X390101Y565827D01*
X390209Y565860D01*
X390319Y565890D01*
X390429Y565915D01*
X390540Y565937D01*
X390652Y565954D01*
X390765Y565968D01*
X390878Y565978D01*
X390991Y565984D01*
X391104Y565986D01*
X391217Y565984D01*
X391330Y565978D01*
X391443Y565968D01*
X391556Y565954D01*
X391668Y565937D01*
X391779Y565915D01*
X391889Y565890D01*
X391999Y565860D01*
X392107Y565827D01*
X392214Y565790D01*
X392320Y565750D01*
X392424Y565705D01*
X392527Y565657D01*
X392628Y565606D01*
X392727Y565551D01*
X392824Y565493D01*
X392919Y565431D01*
X393012Y565366D01*
X393102Y565298D01*
X393190Y565227D01*
X393276Y565152D01*
X393359Y565075D01*
X393439Y564995D01*
X393516Y564912D01*
X393591Y564826D01*
X393662Y564738D01*
X393730Y564648D01*
X393795Y564555D01*
X393857Y564460D01*
X393915Y564363D01*
X393970Y564264D01*
X394021Y564163D01*
X394069Y564060D01*
X394114Y563956D01*
X394154Y563850D01*
X394191Y563743D01*
X394224Y563635D01*
X394254Y563525D01*
X394279Y563415D01*
X394301Y563304D01*
X394318Y563192D01*
X394332Y563079D01*
X394342Y562966D01*
X394348Y562853D01*
X394350Y562740D01*
X394349Y562740D02*
X394349Y559495D01*
X394349Y563389D02*
X399542Y565986D01*
X390779Y577342D02*
X390672Y577340D01*
X390566Y577334D01*
X390460Y577324D01*
X390354Y577311D01*
X390248Y577293D01*
X390144Y577272D01*
X390040Y577247D01*
X389937Y577218D01*
X389836Y577186D01*
X389736Y577149D01*
X389637Y577109D01*
X389539Y577066D01*
X389443Y577019D01*
X389349Y576968D01*
X389257Y576914D01*
X389167Y576857D01*
X389079Y576797D01*
X388994Y576733D01*
X388911Y576666D01*
X388830Y576596D01*
X388752Y576524D01*
X388676Y576448D01*
X388604Y576370D01*
X388534Y576289D01*
X388467Y576206D01*
X388403Y576121D01*
X388343Y576033D01*
X388286Y575943D01*
X388232Y575851D01*
X388181Y575757D01*
X388134Y575661D01*
X388091Y575563D01*
X388051Y575464D01*
X388014Y575364D01*
X387982Y575263D01*
X387953Y575160D01*
X387928Y575056D01*
X387907Y574952D01*
X387889Y574846D01*
X387876Y574740D01*
X387866Y574634D01*
X387860Y574528D01*
X387858Y574421D01*
X387860Y574300D01*
X387866Y574179D01*
X387876Y574059D01*
X387889Y573938D01*
X387907Y573819D01*
X387928Y573699D01*
X387953Y573581D01*
X387982Y573464D01*
X388015Y573347D01*
X388051Y573232D01*
X388092Y573118D01*
X388135Y573005D01*
X388183Y572893D01*
X388234Y572784D01*
X388289Y572676D01*
X388347Y572569D01*
X388408Y572465D01*
X388473Y572363D01*
X388541Y572263D01*
X388612Y572165D01*
X388686Y572069D01*
X388763Y571976D01*
X388844Y571886D01*
X388927Y571798D01*
X389013Y571713D01*
X389102Y571630D01*
X389193Y571551D01*
X389287Y571474D01*
X389383Y571401D01*
X389481Y571331D01*
X389582Y571264D01*
X389685Y571200D01*
X389790Y571140D01*
X389897Y571082D01*
X390005Y571029D01*
X390115Y570979D01*
X390227Y570933D01*
X390340Y570890D01*
X390455Y570851D01*
X393051Y576368D02*
X392973Y576447D01*
X392893Y576523D01*
X392810Y576596D01*
X392724Y576666D01*
X392637Y576733D01*
X392546Y576797D01*
X392454Y576857D01*
X392360Y576915D01*
X392263Y576969D01*
X392165Y577019D01*
X392065Y577066D01*
X391964Y577110D01*
X391861Y577150D01*
X391756Y577186D01*
X391651Y577218D01*
X391544Y577247D01*
X391437Y577272D01*
X391328Y577294D01*
X391219Y577311D01*
X391110Y577325D01*
X391000Y577334D01*
X390889Y577340D01*
X390779Y577342D01*
X393051Y576368D02*
X399542Y570851D01*
X399542Y577342D01*
X374142Y559495D02*
X362458Y559495D01*
X362458Y562740D01*
X362460Y562853D01*
X362466Y562966D01*
X362476Y563079D01*
X362490Y563192D01*
X362507Y563304D01*
X362529Y563415D01*
X362554Y563525D01*
X362584Y563635D01*
X362617Y563743D01*
X362654Y563850D01*
X362694Y563956D01*
X362739Y564060D01*
X362787Y564163D01*
X362838Y564264D01*
X362893Y564363D01*
X362951Y564460D01*
X363013Y564555D01*
X363078Y564648D01*
X363146Y564738D01*
X363217Y564826D01*
X363292Y564912D01*
X363369Y564995D01*
X363449Y565075D01*
X363532Y565152D01*
X363618Y565227D01*
X363706Y565298D01*
X363796Y565366D01*
X363889Y565431D01*
X363984Y565493D01*
X364081Y565551D01*
X364180Y565606D01*
X364281Y565657D01*
X364384Y565705D01*
X364488Y565750D01*
X364594Y565790D01*
X364701Y565827D01*
X364809Y565860D01*
X364919Y565890D01*
X365029Y565915D01*
X365140Y565937D01*
X365252Y565954D01*
X365365Y565968D01*
X365478Y565978D01*
X365591Y565984D01*
X365704Y565986D01*
X365817Y565984D01*
X365930Y565978D01*
X366043Y565968D01*
X366156Y565954D01*
X366268Y565937D01*
X366379Y565915D01*
X366489Y565890D01*
X366599Y565860D01*
X366707Y565827D01*
X366814Y565790D01*
X366920Y565750D01*
X367024Y565705D01*
X367127Y565657D01*
X367228Y565606D01*
X367327Y565551D01*
X367424Y565493D01*
X367519Y565431D01*
X367612Y565366D01*
X367702Y565298D01*
X367790Y565227D01*
X367876Y565152D01*
X367959Y565075D01*
X368039Y564995D01*
X368116Y564912D01*
X368191Y564826D01*
X368262Y564738D01*
X368330Y564648D01*
X368395Y564555D01*
X368457Y564460D01*
X368515Y564363D01*
X368570Y564264D01*
X368621Y564163D01*
X368669Y564060D01*
X368714Y563956D01*
X368754Y563850D01*
X368791Y563743D01*
X368824Y563635D01*
X368854Y563525D01*
X368879Y563415D01*
X368901Y563304D01*
X368918Y563192D01*
X368932Y563079D01*
X368942Y562966D01*
X368948Y562853D01*
X368950Y562740D01*
X368949Y562740D02*
X368949Y559495D01*
X368949Y563389D02*
X374142Y565986D01*
X374142Y570851D02*
X374142Y574096D01*
X374140Y574209D01*
X374134Y574322D01*
X374124Y574435D01*
X374110Y574548D01*
X374093Y574660D01*
X374071Y574771D01*
X374046Y574881D01*
X374016Y574991D01*
X373983Y575099D01*
X373946Y575206D01*
X373906Y575312D01*
X373861Y575416D01*
X373813Y575519D01*
X373762Y575620D01*
X373707Y575719D01*
X373649Y575816D01*
X373587Y575911D01*
X373522Y576004D01*
X373454Y576094D01*
X373383Y576182D01*
X373308Y576268D01*
X373231Y576351D01*
X373151Y576431D01*
X373068Y576508D01*
X372982Y576583D01*
X372894Y576654D01*
X372804Y576722D01*
X372711Y576787D01*
X372616Y576849D01*
X372519Y576907D01*
X372420Y576962D01*
X372319Y577013D01*
X372216Y577061D01*
X372112Y577106D01*
X372006Y577146D01*
X371899Y577183D01*
X371791Y577216D01*
X371681Y577246D01*
X371571Y577271D01*
X371460Y577293D01*
X371348Y577310D01*
X371235Y577324D01*
X371122Y577334D01*
X371009Y577340D01*
X370896Y577342D01*
X370783Y577340D01*
X370670Y577334D01*
X370557Y577324D01*
X370444Y577310D01*
X370332Y577293D01*
X370221Y577271D01*
X370111Y577246D01*
X370001Y577216D01*
X369893Y577183D01*
X369786Y577146D01*
X369680Y577106D01*
X369576Y577061D01*
X369473Y577013D01*
X369372Y576962D01*
X369273Y576907D01*
X369176Y576849D01*
X369081Y576787D01*
X368988Y576722D01*
X368898Y576654D01*
X368810Y576583D01*
X368724Y576508D01*
X368641Y576431D01*
X368561Y576351D01*
X368484Y576268D01*
X368409Y576182D01*
X368338Y576094D01*
X368270Y576004D01*
X368205Y575911D01*
X368143Y575816D01*
X368085Y575719D01*
X368030Y575620D01*
X367979Y575519D01*
X367931Y575416D01*
X367886Y575312D01*
X367846Y575206D01*
X367809Y575099D01*
X367776Y574991D01*
X367746Y574881D01*
X367721Y574771D01*
X367699Y574660D01*
X367682Y574548D01*
X367668Y574435D01*
X367658Y574322D01*
X367652Y574209D01*
X367650Y574096D01*
X362458Y574746D02*
X362458Y570851D01*
X362458Y574746D02*
X362460Y574847D01*
X362466Y574947D01*
X362476Y575047D01*
X362489Y575147D01*
X362507Y575246D01*
X362528Y575345D01*
X362553Y575442D01*
X362582Y575539D01*
X362615Y575634D01*
X362651Y575728D01*
X362691Y575820D01*
X362734Y575911D01*
X362781Y576000D01*
X362831Y576087D01*
X362885Y576173D01*
X362942Y576256D01*
X363002Y576336D01*
X363065Y576415D01*
X363132Y576491D01*
X363201Y576564D01*
X363273Y576634D01*
X363347Y576702D01*
X363424Y576767D01*
X363504Y576828D01*
X363586Y576887D01*
X363670Y576942D01*
X363756Y576994D01*
X363844Y577043D01*
X363934Y577088D01*
X364026Y577130D01*
X364119Y577168D01*
X364214Y577202D01*
X364309Y577233D01*
X364406Y577260D01*
X364504Y577283D01*
X364603Y577303D01*
X364703Y577318D01*
X364803Y577330D01*
X364903Y577338D01*
X365004Y577342D01*
X365104Y577342D01*
X365205Y577338D01*
X365305Y577330D01*
X365405Y577318D01*
X365505Y577303D01*
X365604Y577283D01*
X365702Y577260D01*
X365799Y577233D01*
X365894Y577202D01*
X365989Y577168D01*
X366082Y577130D01*
X366174Y577088D01*
X366264Y577043D01*
X366352Y576994D01*
X366438Y576942D01*
X366522Y576887D01*
X366604Y576828D01*
X366684Y576767D01*
X366761Y576702D01*
X366835Y576634D01*
X366907Y576564D01*
X366976Y576491D01*
X367043Y576415D01*
X367106Y576336D01*
X367166Y576256D01*
X367223Y576173D01*
X367277Y576087D01*
X367327Y576000D01*
X367374Y575911D01*
X367417Y575820D01*
X367457Y575728D01*
X367493Y575634D01*
X367526Y575539D01*
X367555Y575442D01*
X367580Y575345D01*
X367601Y575246D01*
X367619Y575147D01*
X367632Y575047D01*
X367642Y574947D01*
X367648Y574847D01*
X367650Y574746D01*
X367651Y574746D02*
X367651Y572149D01*
X546795Y756158D02*
X546795Y767842D01*
X550040Y767842D01*
X550153Y767840D01*
X550266Y767834D01*
X550379Y767824D01*
X550492Y767810D01*
X550604Y767793D01*
X550715Y767771D01*
X550825Y767746D01*
X550935Y767716D01*
X551043Y767683D01*
X551150Y767646D01*
X551256Y767606D01*
X551360Y767561D01*
X551463Y767513D01*
X551564Y767462D01*
X551663Y767407D01*
X551760Y767349D01*
X551855Y767287D01*
X551948Y767222D01*
X552038Y767154D01*
X552126Y767083D01*
X552212Y767008D01*
X552295Y766931D01*
X552375Y766851D01*
X552452Y766768D01*
X552527Y766682D01*
X552598Y766594D01*
X552666Y766504D01*
X552731Y766411D01*
X552793Y766316D01*
X552851Y766219D01*
X552906Y766120D01*
X552957Y766019D01*
X553005Y765916D01*
X553050Y765812D01*
X553090Y765706D01*
X553127Y765599D01*
X553160Y765491D01*
X553190Y765381D01*
X553215Y765271D01*
X553237Y765160D01*
X553254Y765048D01*
X553268Y764935D01*
X553278Y764822D01*
X553284Y764709D01*
X553286Y764596D01*
X553284Y764483D01*
X553278Y764370D01*
X553268Y764257D01*
X553254Y764144D01*
X553237Y764032D01*
X553215Y763921D01*
X553190Y763811D01*
X553160Y763701D01*
X553127Y763593D01*
X553090Y763486D01*
X553050Y763380D01*
X553005Y763276D01*
X552957Y763173D01*
X552906Y763072D01*
X552851Y762973D01*
X552793Y762876D01*
X552731Y762781D01*
X552666Y762688D01*
X552598Y762598D01*
X552527Y762510D01*
X552452Y762424D01*
X552375Y762341D01*
X552295Y762261D01*
X552212Y762184D01*
X552126Y762109D01*
X552038Y762038D01*
X551948Y761970D01*
X551855Y761905D01*
X551760Y761843D01*
X551663Y761785D01*
X551564Y761730D01*
X551463Y761679D01*
X551360Y761631D01*
X551256Y761586D01*
X551150Y761546D01*
X551043Y761509D01*
X550935Y761476D01*
X550825Y761446D01*
X550715Y761421D01*
X550604Y761399D01*
X550492Y761382D01*
X550379Y761368D01*
X550266Y761358D01*
X550153Y761352D01*
X550040Y761350D01*
X550040Y761351D02*
X546795Y761351D01*
X550689Y761351D02*
X553286Y756158D01*
X558151Y758754D02*
X560747Y767842D01*
X558151Y758754D02*
X564642Y758754D01*
X562695Y761351D02*
X562695Y756158D01*
X857758Y577342D02*
X857758Y565658D01*
X857758Y577342D02*
X861004Y577342D01*
X861117Y577340D01*
X861230Y577334D01*
X861343Y577324D01*
X861456Y577310D01*
X861568Y577293D01*
X861679Y577271D01*
X861789Y577246D01*
X861899Y577216D01*
X862007Y577183D01*
X862114Y577146D01*
X862220Y577106D01*
X862324Y577061D01*
X862427Y577013D01*
X862528Y576962D01*
X862627Y576907D01*
X862724Y576849D01*
X862819Y576787D01*
X862912Y576722D01*
X863002Y576654D01*
X863090Y576583D01*
X863176Y576508D01*
X863259Y576431D01*
X863339Y576351D01*
X863416Y576268D01*
X863491Y576182D01*
X863562Y576094D01*
X863630Y576004D01*
X863695Y575911D01*
X863757Y575816D01*
X863815Y575719D01*
X863870Y575620D01*
X863921Y575519D01*
X863969Y575416D01*
X864014Y575312D01*
X864054Y575206D01*
X864091Y575099D01*
X864124Y574991D01*
X864154Y574881D01*
X864179Y574771D01*
X864201Y574660D01*
X864218Y574548D01*
X864232Y574435D01*
X864242Y574322D01*
X864248Y574209D01*
X864250Y574096D01*
X864248Y573983D01*
X864242Y573870D01*
X864232Y573757D01*
X864218Y573644D01*
X864201Y573532D01*
X864179Y573421D01*
X864154Y573311D01*
X864124Y573201D01*
X864091Y573093D01*
X864054Y572986D01*
X864014Y572880D01*
X863969Y572776D01*
X863921Y572673D01*
X863870Y572572D01*
X863815Y572473D01*
X863757Y572376D01*
X863695Y572281D01*
X863630Y572188D01*
X863562Y572098D01*
X863491Y572010D01*
X863416Y571924D01*
X863339Y571841D01*
X863259Y571761D01*
X863176Y571684D01*
X863090Y571609D01*
X863002Y571538D01*
X862912Y571470D01*
X862819Y571405D01*
X862724Y571343D01*
X862627Y571285D01*
X862528Y571230D01*
X862427Y571179D01*
X862324Y571131D01*
X862220Y571086D01*
X862114Y571046D01*
X862007Y571009D01*
X861899Y570976D01*
X861789Y570946D01*
X861679Y570921D01*
X861568Y570899D01*
X861456Y570882D01*
X861343Y570868D01*
X861230Y570858D01*
X861117Y570852D01*
X861004Y570850D01*
X861004Y570851D02*
X857758Y570851D01*
X861653Y570851D02*
X864249Y565658D01*
X869114Y565658D02*
X873009Y565658D01*
X873108Y565660D01*
X873208Y565666D01*
X873307Y565675D01*
X873405Y565688D01*
X873503Y565705D01*
X873601Y565726D01*
X873697Y565751D01*
X873792Y565779D01*
X873886Y565811D01*
X873979Y565846D01*
X874071Y565885D01*
X874161Y565928D01*
X874249Y565973D01*
X874336Y566023D01*
X874420Y566075D01*
X874503Y566131D01*
X874583Y566189D01*
X874661Y566251D01*
X874736Y566316D01*
X874809Y566384D01*
X874879Y566454D01*
X874947Y566527D01*
X875012Y566602D01*
X875074Y566680D01*
X875132Y566760D01*
X875188Y566843D01*
X875240Y566927D01*
X875290Y567014D01*
X875335Y567102D01*
X875378Y567192D01*
X875417Y567284D01*
X875452Y567377D01*
X875484Y567471D01*
X875512Y567566D01*
X875537Y567662D01*
X875558Y567760D01*
X875575Y567858D01*
X875588Y567956D01*
X875597Y568055D01*
X875603Y568155D01*
X875605Y568254D01*
X875605Y569553D01*
X875603Y569652D01*
X875597Y569752D01*
X875588Y569851D01*
X875575Y569949D01*
X875558Y570047D01*
X875537Y570145D01*
X875512Y570241D01*
X875484Y570336D01*
X875452Y570430D01*
X875417Y570523D01*
X875378Y570615D01*
X875335Y570705D01*
X875290Y570793D01*
X875240Y570880D01*
X875188Y570964D01*
X875132Y571047D01*
X875074Y571127D01*
X875012Y571205D01*
X874947Y571280D01*
X874879Y571353D01*
X874809Y571423D01*
X874736Y571491D01*
X874661Y571556D01*
X874583Y571618D01*
X874503Y571676D01*
X874420Y571732D01*
X874336Y571784D01*
X874249Y571834D01*
X874161Y571879D01*
X874071Y571922D01*
X873979Y571961D01*
X873886Y571996D01*
X873792Y572028D01*
X873697Y572056D01*
X873601Y572081D01*
X873503Y572102D01*
X873405Y572119D01*
X873307Y572132D01*
X873208Y572141D01*
X873108Y572147D01*
X873009Y572149D01*
X869114Y572149D01*
X869114Y577342D01*
X875605Y577342D01*
X857758Y539242D02*
X857758Y527558D01*
X857758Y539242D02*
X861004Y539242D01*
X861117Y539240D01*
X861230Y539234D01*
X861343Y539224D01*
X861456Y539210D01*
X861568Y539193D01*
X861679Y539171D01*
X861789Y539146D01*
X861899Y539116D01*
X862007Y539083D01*
X862114Y539046D01*
X862220Y539006D01*
X862324Y538961D01*
X862427Y538913D01*
X862528Y538862D01*
X862627Y538807D01*
X862724Y538749D01*
X862819Y538687D01*
X862912Y538622D01*
X863002Y538554D01*
X863090Y538483D01*
X863176Y538408D01*
X863259Y538331D01*
X863339Y538251D01*
X863416Y538168D01*
X863491Y538082D01*
X863562Y537994D01*
X863630Y537904D01*
X863695Y537811D01*
X863757Y537716D01*
X863815Y537619D01*
X863870Y537520D01*
X863921Y537419D01*
X863969Y537316D01*
X864014Y537212D01*
X864054Y537106D01*
X864091Y536999D01*
X864124Y536891D01*
X864154Y536781D01*
X864179Y536671D01*
X864201Y536560D01*
X864218Y536448D01*
X864232Y536335D01*
X864242Y536222D01*
X864248Y536109D01*
X864250Y535996D01*
X864248Y535883D01*
X864242Y535770D01*
X864232Y535657D01*
X864218Y535544D01*
X864201Y535432D01*
X864179Y535321D01*
X864154Y535211D01*
X864124Y535101D01*
X864091Y534993D01*
X864054Y534886D01*
X864014Y534780D01*
X863969Y534676D01*
X863921Y534573D01*
X863870Y534472D01*
X863815Y534373D01*
X863757Y534276D01*
X863695Y534181D01*
X863630Y534088D01*
X863562Y533998D01*
X863491Y533910D01*
X863416Y533824D01*
X863339Y533741D01*
X863259Y533661D01*
X863176Y533584D01*
X863090Y533509D01*
X863002Y533438D01*
X862912Y533370D01*
X862819Y533305D01*
X862724Y533243D01*
X862627Y533185D01*
X862528Y533130D01*
X862427Y533079D01*
X862324Y533031D01*
X862220Y532986D01*
X862114Y532946D01*
X862007Y532909D01*
X861899Y532876D01*
X861789Y532846D01*
X861679Y532821D01*
X861568Y532799D01*
X861456Y532782D01*
X861343Y532768D01*
X861230Y532758D01*
X861117Y532752D01*
X861004Y532750D01*
X861004Y532751D02*
X857758Y532751D01*
X861653Y532751D02*
X864249Y527558D01*
X869114Y534049D02*
X873009Y534049D01*
X873108Y534047D01*
X873208Y534041D01*
X873307Y534032D01*
X873405Y534019D01*
X873503Y534002D01*
X873601Y533981D01*
X873697Y533956D01*
X873792Y533928D01*
X873886Y533896D01*
X873979Y533861D01*
X874071Y533822D01*
X874161Y533779D01*
X874249Y533734D01*
X874336Y533684D01*
X874420Y533632D01*
X874503Y533576D01*
X874583Y533518D01*
X874661Y533456D01*
X874736Y533391D01*
X874809Y533323D01*
X874879Y533253D01*
X874947Y533180D01*
X875012Y533105D01*
X875074Y533027D01*
X875132Y532947D01*
X875188Y532864D01*
X875240Y532780D01*
X875290Y532693D01*
X875335Y532605D01*
X875378Y532515D01*
X875417Y532423D01*
X875452Y532330D01*
X875484Y532236D01*
X875512Y532141D01*
X875537Y532045D01*
X875558Y531947D01*
X875575Y531849D01*
X875588Y531751D01*
X875597Y531652D01*
X875603Y531552D01*
X875605Y531453D01*
X875605Y530804D01*
X875606Y530804D02*
X875604Y530691D01*
X875598Y530578D01*
X875588Y530465D01*
X875574Y530352D01*
X875557Y530240D01*
X875535Y530129D01*
X875510Y530019D01*
X875480Y529909D01*
X875447Y529801D01*
X875410Y529694D01*
X875370Y529588D01*
X875325Y529484D01*
X875277Y529381D01*
X875226Y529280D01*
X875171Y529181D01*
X875113Y529084D01*
X875051Y528989D01*
X874986Y528896D01*
X874918Y528806D01*
X874847Y528718D01*
X874772Y528632D01*
X874695Y528549D01*
X874615Y528469D01*
X874532Y528392D01*
X874446Y528317D01*
X874358Y528246D01*
X874268Y528178D01*
X874175Y528113D01*
X874080Y528051D01*
X873983Y527993D01*
X873884Y527938D01*
X873783Y527887D01*
X873680Y527839D01*
X873576Y527794D01*
X873470Y527754D01*
X873363Y527717D01*
X873255Y527684D01*
X873145Y527654D01*
X873035Y527629D01*
X872924Y527607D01*
X872812Y527590D01*
X872699Y527576D01*
X872586Y527566D01*
X872473Y527560D01*
X872360Y527558D01*
X872247Y527560D01*
X872134Y527566D01*
X872021Y527576D01*
X871908Y527590D01*
X871796Y527607D01*
X871685Y527629D01*
X871575Y527654D01*
X871465Y527684D01*
X871357Y527717D01*
X871250Y527754D01*
X871144Y527794D01*
X871040Y527839D01*
X870937Y527887D01*
X870836Y527938D01*
X870737Y527993D01*
X870640Y528051D01*
X870545Y528113D01*
X870452Y528178D01*
X870362Y528246D01*
X870274Y528317D01*
X870188Y528392D01*
X870105Y528469D01*
X870025Y528549D01*
X869948Y528632D01*
X869873Y528718D01*
X869802Y528806D01*
X869734Y528896D01*
X869669Y528989D01*
X869607Y529084D01*
X869549Y529181D01*
X869494Y529280D01*
X869443Y529381D01*
X869395Y529484D01*
X869350Y529588D01*
X869310Y529694D01*
X869273Y529801D01*
X869240Y529909D01*
X869210Y530019D01*
X869185Y530129D01*
X869163Y530240D01*
X869146Y530352D01*
X869132Y530465D01*
X869122Y530578D01*
X869116Y530691D01*
X869114Y530804D01*
X869114Y534049D01*
X869116Y534192D01*
X869122Y534335D01*
X869132Y534478D01*
X869146Y534620D01*
X869163Y534762D01*
X869185Y534904D01*
X869210Y535045D01*
X869240Y535185D01*
X869273Y535324D01*
X869310Y535462D01*
X869351Y535599D01*
X869395Y535735D01*
X869444Y535870D01*
X869496Y536003D01*
X869551Y536135D01*
X869611Y536265D01*
X869674Y536394D01*
X869740Y536521D01*
X869810Y536645D01*
X869883Y536768D01*
X869960Y536889D01*
X870040Y537008D01*
X870123Y537124D01*
X870209Y537239D01*
X870298Y537350D01*
X870391Y537460D01*
X870486Y537566D01*
X870585Y537670D01*
X870686Y537771D01*
X870790Y537870D01*
X870896Y537965D01*
X871006Y538058D01*
X871117Y538147D01*
X871232Y538233D01*
X871348Y538316D01*
X871467Y538396D01*
X871588Y538473D01*
X871710Y538546D01*
X871835Y538616D01*
X871962Y538682D01*
X872091Y538745D01*
X872221Y538805D01*
X872353Y538860D01*
X872486Y538912D01*
X872621Y538961D01*
X872757Y539005D01*
X872894Y539046D01*
X873032Y539083D01*
X873171Y539116D01*
X873311Y539146D01*
X873452Y539171D01*
X873594Y539193D01*
X873736Y539210D01*
X873878Y539224D01*
X874021Y539234D01*
X874164Y539240D01*
X874307Y539242D01*
D12*
X711200Y377190D02*
X711200Y334010D01*
X736600Y377190D02*
X732790Y381000D01*
X736600Y377190D02*
X740410Y381000D01*
X758190Y381000D01*
X762000Y377190D01*
X765810Y381000D01*
X783590Y381000D01*
X787400Y377190D01*
X787400Y334010D02*
X783590Y330200D01*
X765810Y330200D01*
X762000Y334010D01*
X758190Y330200D01*
X740410Y330200D01*
X736600Y334010D01*
X732790Y330200D01*
X812800Y334010D02*
X812800Y377190D01*
X791210Y381000D02*
X787400Y377190D01*
X791210Y381000D02*
X808990Y381000D01*
X812800Y377190D01*
X787400Y334010D02*
X791210Y330200D01*
X808990Y330200D01*
X812800Y334010D01*
X715010Y381000D02*
X711200Y377190D01*
X715010Y381000D02*
X732790Y381000D01*
X711200Y334010D02*
X715010Y330200D01*
X732790Y330200D01*
D10*
X722630Y325755D02*
X719455Y323215D01*
X722630Y325755D02*
X722630Y314325D01*
X719455Y314325D02*
X725805Y314325D01*
X748348Y325756D02*
X748452Y325754D01*
X748557Y325748D01*
X748661Y325739D01*
X748764Y325726D01*
X748867Y325708D01*
X748969Y325688D01*
X749071Y325663D01*
X749171Y325635D01*
X749271Y325603D01*
X749369Y325567D01*
X749466Y325528D01*
X749561Y325486D01*
X749655Y325440D01*
X749747Y325390D01*
X749837Y325338D01*
X749925Y325282D01*
X750011Y325222D01*
X750095Y325160D01*
X750176Y325095D01*
X750255Y325027D01*
X750332Y324955D01*
X750405Y324882D01*
X750477Y324805D01*
X750545Y324726D01*
X750610Y324645D01*
X750672Y324561D01*
X750732Y324475D01*
X750788Y324387D01*
X750840Y324297D01*
X750890Y324205D01*
X750936Y324111D01*
X750978Y324016D01*
X751017Y323919D01*
X751053Y323821D01*
X751085Y323721D01*
X751113Y323621D01*
X751138Y323519D01*
X751158Y323417D01*
X751176Y323314D01*
X751189Y323211D01*
X751198Y323107D01*
X751204Y323002D01*
X751206Y322898D01*
X748348Y325755D02*
X748230Y325753D01*
X748111Y325747D01*
X747993Y325738D01*
X747876Y325725D01*
X747759Y325707D01*
X747642Y325687D01*
X747526Y325662D01*
X747411Y325634D01*
X747298Y325601D01*
X747185Y325566D01*
X747073Y325526D01*
X746963Y325484D01*
X746854Y325437D01*
X746746Y325387D01*
X746641Y325334D01*
X746537Y325277D01*
X746435Y325217D01*
X746335Y325154D01*
X746237Y325087D01*
X746141Y325018D01*
X746048Y324945D01*
X745957Y324869D01*
X745868Y324791D01*
X745782Y324709D01*
X745699Y324625D01*
X745618Y324539D01*
X745541Y324449D01*
X745466Y324358D01*
X745394Y324264D01*
X745325Y324167D01*
X745260Y324069D01*
X745197Y323968D01*
X745138Y323865D01*
X745082Y323761D01*
X745030Y323655D01*
X744981Y323547D01*
X744936Y323438D01*
X744894Y323327D01*
X744856Y323215D01*
X750253Y320676D02*
X750329Y320751D01*
X750404Y320830D01*
X750475Y320911D01*
X750544Y320995D01*
X750609Y321081D01*
X750671Y321169D01*
X750731Y321259D01*
X750787Y321351D01*
X750840Y321446D01*
X750889Y321542D01*
X750935Y321640D01*
X750978Y321739D01*
X751017Y321840D01*
X751052Y321942D01*
X751084Y322045D01*
X751112Y322149D01*
X751137Y322254D01*
X751158Y322361D01*
X751175Y322467D01*
X751188Y322574D01*
X751197Y322682D01*
X751203Y322790D01*
X751205Y322898D01*
X750253Y320675D02*
X744855Y314325D01*
X751205Y314325D01*
X770255Y314325D02*
X773430Y314325D01*
X773541Y314327D01*
X773651Y314333D01*
X773762Y314342D01*
X773872Y314356D01*
X773981Y314373D01*
X774090Y314394D01*
X774198Y314419D01*
X774305Y314448D01*
X774411Y314480D01*
X774516Y314516D01*
X774619Y314556D01*
X774721Y314599D01*
X774822Y314646D01*
X774921Y314697D01*
X775018Y314750D01*
X775112Y314807D01*
X775205Y314868D01*
X775296Y314931D01*
X775385Y314998D01*
X775471Y315068D01*
X775554Y315141D01*
X775636Y315216D01*
X775714Y315294D01*
X775789Y315376D01*
X775862Y315459D01*
X775932Y315545D01*
X775999Y315634D01*
X776062Y315725D01*
X776123Y315818D01*
X776180Y315912D01*
X776233Y316009D01*
X776284Y316108D01*
X776331Y316209D01*
X776374Y316311D01*
X776414Y316414D01*
X776450Y316519D01*
X776482Y316625D01*
X776511Y316732D01*
X776536Y316840D01*
X776557Y316949D01*
X776574Y317058D01*
X776588Y317168D01*
X776597Y317279D01*
X776603Y317389D01*
X776605Y317500D01*
X776603Y317611D01*
X776597Y317721D01*
X776588Y317832D01*
X776574Y317942D01*
X776557Y318051D01*
X776536Y318160D01*
X776511Y318268D01*
X776482Y318375D01*
X776450Y318481D01*
X776414Y318586D01*
X776374Y318689D01*
X776331Y318791D01*
X776284Y318892D01*
X776233Y318991D01*
X776180Y319087D01*
X776123Y319182D01*
X776062Y319275D01*
X775999Y319366D01*
X775932Y319455D01*
X775862Y319541D01*
X775789Y319624D01*
X775714Y319706D01*
X775636Y319784D01*
X775554Y319859D01*
X775471Y319932D01*
X775385Y320002D01*
X775296Y320069D01*
X775205Y320132D01*
X775112Y320193D01*
X775018Y320250D01*
X774921Y320303D01*
X774822Y320354D01*
X774721Y320401D01*
X774619Y320444D01*
X774516Y320484D01*
X774411Y320520D01*
X774305Y320552D01*
X774198Y320581D01*
X774090Y320606D01*
X773981Y320627D01*
X773872Y320644D01*
X773762Y320658D01*
X773651Y320667D01*
X773541Y320673D01*
X773430Y320675D01*
X774065Y325755D02*
X770255Y325755D01*
X774065Y325755D02*
X774165Y325753D01*
X774264Y325747D01*
X774364Y325737D01*
X774462Y325724D01*
X774561Y325706D01*
X774658Y325685D01*
X774754Y325660D01*
X774850Y325631D01*
X774944Y325598D01*
X775037Y325562D01*
X775128Y325522D01*
X775218Y325478D01*
X775306Y325431D01*
X775392Y325381D01*
X775476Y325327D01*
X775558Y325270D01*
X775637Y325210D01*
X775715Y325146D01*
X775789Y325080D01*
X775861Y325011D01*
X775930Y324939D01*
X775996Y324865D01*
X776060Y324787D01*
X776120Y324708D01*
X776177Y324626D01*
X776231Y324542D01*
X776281Y324456D01*
X776328Y324368D01*
X776372Y324278D01*
X776412Y324187D01*
X776448Y324094D01*
X776481Y324000D01*
X776510Y323904D01*
X776535Y323808D01*
X776556Y323711D01*
X776574Y323612D01*
X776587Y323514D01*
X776597Y323414D01*
X776603Y323315D01*
X776605Y323215D01*
X776603Y323115D01*
X776597Y323016D01*
X776587Y322916D01*
X776574Y322818D01*
X776556Y322719D01*
X776535Y322622D01*
X776510Y322526D01*
X776481Y322430D01*
X776448Y322336D01*
X776412Y322243D01*
X776372Y322152D01*
X776328Y322062D01*
X776281Y321974D01*
X776231Y321888D01*
X776177Y321804D01*
X776120Y321722D01*
X776060Y321643D01*
X775996Y321565D01*
X775930Y321491D01*
X775861Y321419D01*
X775789Y321350D01*
X775715Y321284D01*
X775637Y321220D01*
X775558Y321160D01*
X775476Y321103D01*
X775392Y321049D01*
X775306Y320999D01*
X775218Y320952D01*
X775128Y320908D01*
X775037Y320868D01*
X774944Y320832D01*
X774850Y320799D01*
X774754Y320770D01*
X774658Y320745D01*
X774561Y320724D01*
X774462Y320706D01*
X774364Y320693D01*
X774264Y320683D01*
X774165Y320677D01*
X774065Y320675D01*
X771525Y320675D01*
X711835Y386715D02*
X711835Y398145D01*
X715010Y398145D01*
X715121Y398143D01*
X715231Y398137D01*
X715342Y398128D01*
X715452Y398114D01*
X715561Y398097D01*
X715670Y398076D01*
X715778Y398051D01*
X715885Y398022D01*
X715991Y397990D01*
X716096Y397954D01*
X716199Y397914D01*
X716301Y397871D01*
X716402Y397824D01*
X716501Y397773D01*
X716598Y397720D01*
X716692Y397663D01*
X716785Y397602D01*
X716876Y397539D01*
X716965Y397472D01*
X717051Y397402D01*
X717134Y397329D01*
X717216Y397254D01*
X717294Y397176D01*
X717369Y397094D01*
X717442Y397011D01*
X717512Y396925D01*
X717579Y396836D01*
X717642Y396745D01*
X717703Y396652D01*
X717760Y396557D01*
X717813Y396461D01*
X717864Y396362D01*
X717911Y396261D01*
X717954Y396159D01*
X717994Y396056D01*
X718030Y395951D01*
X718062Y395845D01*
X718091Y395738D01*
X718116Y395630D01*
X718137Y395521D01*
X718154Y395412D01*
X718168Y395302D01*
X718177Y395191D01*
X718183Y395081D01*
X718185Y394970D01*
X718183Y394859D01*
X718177Y394749D01*
X718168Y394638D01*
X718154Y394528D01*
X718137Y394419D01*
X718116Y394310D01*
X718091Y394202D01*
X718062Y394095D01*
X718030Y393989D01*
X717994Y393884D01*
X717954Y393781D01*
X717911Y393679D01*
X717864Y393578D01*
X717813Y393479D01*
X717760Y393382D01*
X717703Y393288D01*
X717642Y393195D01*
X717579Y393104D01*
X717512Y393015D01*
X717442Y392929D01*
X717369Y392846D01*
X717294Y392764D01*
X717216Y392686D01*
X717134Y392611D01*
X717051Y392538D01*
X716965Y392468D01*
X716876Y392401D01*
X716785Y392338D01*
X716692Y392277D01*
X716598Y392220D01*
X716501Y392167D01*
X716402Y392116D01*
X716301Y392069D01*
X716199Y392026D01*
X716096Y391986D01*
X715991Y391950D01*
X715885Y391918D01*
X715778Y391889D01*
X715670Y391864D01*
X715561Y391843D01*
X715452Y391826D01*
X715342Y391812D01*
X715231Y391803D01*
X715121Y391797D01*
X715010Y391795D01*
X711835Y391795D01*
X715645Y391795D02*
X718185Y386715D01*
X723589Y386715D02*
X723589Y398145D01*
X728669Y398145D01*
X728669Y393065D02*
X723589Y393065D01*
X736581Y398146D02*
X736685Y398144D01*
X736790Y398138D01*
X736894Y398129D01*
X736997Y398116D01*
X737100Y398098D01*
X737202Y398078D01*
X737304Y398053D01*
X737404Y398025D01*
X737504Y397993D01*
X737602Y397957D01*
X737699Y397918D01*
X737794Y397876D01*
X737888Y397830D01*
X737980Y397780D01*
X738070Y397728D01*
X738158Y397672D01*
X738244Y397612D01*
X738328Y397550D01*
X738409Y397485D01*
X738488Y397417D01*
X738565Y397345D01*
X738638Y397272D01*
X738710Y397195D01*
X738778Y397116D01*
X738843Y397035D01*
X738905Y396951D01*
X738965Y396865D01*
X739021Y396777D01*
X739073Y396687D01*
X739123Y396595D01*
X739169Y396501D01*
X739211Y396406D01*
X739250Y396309D01*
X739286Y396211D01*
X739318Y396111D01*
X739346Y396011D01*
X739371Y395909D01*
X739391Y395807D01*
X739409Y395704D01*
X739422Y395601D01*
X739431Y395497D01*
X739437Y395392D01*
X739439Y395288D01*
X736581Y398145D02*
X736463Y398143D01*
X736344Y398137D01*
X736226Y398128D01*
X736109Y398115D01*
X735992Y398097D01*
X735875Y398077D01*
X735759Y398052D01*
X735644Y398024D01*
X735531Y397991D01*
X735418Y397956D01*
X735306Y397916D01*
X735196Y397874D01*
X735087Y397827D01*
X734979Y397777D01*
X734874Y397724D01*
X734770Y397667D01*
X734668Y397607D01*
X734568Y397544D01*
X734470Y397477D01*
X734374Y397408D01*
X734281Y397335D01*
X734190Y397259D01*
X734101Y397181D01*
X734015Y397099D01*
X733932Y397015D01*
X733851Y396929D01*
X733774Y396839D01*
X733699Y396748D01*
X733627Y396654D01*
X733558Y396557D01*
X733493Y396459D01*
X733430Y396358D01*
X733371Y396255D01*
X733315Y396151D01*
X733263Y396045D01*
X733214Y395937D01*
X733169Y395828D01*
X733127Y395717D01*
X733089Y395605D01*
X738486Y393066D02*
X738562Y393141D01*
X738637Y393220D01*
X738708Y393301D01*
X738777Y393385D01*
X738842Y393471D01*
X738904Y393559D01*
X738964Y393649D01*
X739020Y393741D01*
X739073Y393836D01*
X739122Y393932D01*
X739168Y394030D01*
X739211Y394129D01*
X739250Y394230D01*
X739285Y394332D01*
X739317Y394435D01*
X739345Y394539D01*
X739370Y394644D01*
X739391Y394751D01*
X739408Y394857D01*
X739421Y394964D01*
X739430Y395072D01*
X739436Y395180D01*
X739438Y395288D01*
X738486Y393065D02*
X733088Y386715D01*
X739438Y386715D01*
X744518Y389255D02*
X747058Y398145D01*
X744518Y389255D02*
X750868Y389255D01*
X748963Y391795D02*
X748963Y386715D01*
X755440Y385445D02*
X760520Y385445D01*
X767595Y386715D02*
X770135Y386715D01*
X767595Y386715D02*
X767495Y386717D01*
X767396Y386723D01*
X767296Y386733D01*
X767198Y386746D01*
X767099Y386764D01*
X767002Y386785D01*
X766906Y386810D01*
X766810Y386839D01*
X766716Y386872D01*
X766623Y386908D01*
X766532Y386948D01*
X766442Y386992D01*
X766354Y387039D01*
X766268Y387089D01*
X766184Y387143D01*
X766102Y387200D01*
X766023Y387260D01*
X765945Y387324D01*
X765871Y387390D01*
X765799Y387459D01*
X765730Y387531D01*
X765664Y387605D01*
X765600Y387683D01*
X765540Y387762D01*
X765483Y387844D01*
X765429Y387928D01*
X765379Y388014D01*
X765332Y388102D01*
X765288Y388192D01*
X765248Y388283D01*
X765212Y388376D01*
X765179Y388470D01*
X765150Y388566D01*
X765125Y388662D01*
X765104Y388759D01*
X765086Y388858D01*
X765073Y388956D01*
X765063Y389056D01*
X765057Y389155D01*
X765055Y389255D01*
X765055Y395605D01*
X765057Y395705D01*
X765063Y395804D01*
X765073Y395904D01*
X765086Y396002D01*
X765104Y396101D01*
X765125Y396198D01*
X765150Y396294D01*
X765179Y396390D01*
X765212Y396484D01*
X765248Y396577D01*
X765288Y396668D01*
X765332Y396758D01*
X765379Y396846D01*
X765429Y396932D01*
X765483Y397016D01*
X765540Y397098D01*
X765600Y397177D01*
X765664Y397255D01*
X765730Y397329D01*
X765799Y397401D01*
X765871Y397470D01*
X765945Y397536D01*
X766023Y397600D01*
X766102Y397660D01*
X766184Y397717D01*
X766268Y397771D01*
X766354Y397821D01*
X766442Y397868D01*
X766532Y397912D01*
X766623Y397952D01*
X766716Y397988D01*
X766810Y398021D01*
X766906Y398050D01*
X767002Y398075D01*
X767099Y398096D01*
X767198Y398114D01*
X767296Y398127D01*
X767396Y398137D01*
X767495Y398143D01*
X767595Y398145D01*
X770135Y398145D01*
X774617Y394970D02*
X774617Y389890D01*
X774617Y394970D02*
X774619Y395081D01*
X774625Y395191D01*
X774634Y395302D01*
X774648Y395412D01*
X774665Y395521D01*
X774686Y395630D01*
X774711Y395738D01*
X774740Y395845D01*
X774772Y395951D01*
X774808Y396056D01*
X774848Y396159D01*
X774891Y396261D01*
X774938Y396362D01*
X774989Y396461D01*
X775042Y396558D01*
X775099Y396652D01*
X775160Y396745D01*
X775223Y396836D01*
X775290Y396925D01*
X775360Y397011D01*
X775433Y397094D01*
X775508Y397176D01*
X775586Y397254D01*
X775668Y397329D01*
X775751Y397402D01*
X775837Y397472D01*
X775926Y397539D01*
X776017Y397602D01*
X776110Y397663D01*
X776205Y397720D01*
X776301Y397773D01*
X776400Y397824D01*
X776501Y397871D01*
X776603Y397914D01*
X776706Y397954D01*
X776811Y397990D01*
X776917Y398022D01*
X777024Y398051D01*
X777132Y398076D01*
X777241Y398097D01*
X777350Y398114D01*
X777460Y398128D01*
X777571Y398137D01*
X777681Y398143D01*
X777792Y398145D01*
X777903Y398143D01*
X778013Y398137D01*
X778124Y398128D01*
X778234Y398114D01*
X778343Y398097D01*
X778452Y398076D01*
X778560Y398051D01*
X778667Y398022D01*
X778773Y397990D01*
X778878Y397954D01*
X778981Y397914D01*
X779083Y397871D01*
X779184Y397824D01*
X779283Y397773D01*
X779380Y397720D01*
X779474Y397663D01*
X779567Y397602D01*
X779658Y397539D01*
X779747Y397472D01*
X779833Y397402D01*
X779916Y397329D01*
X779998Y397254D01*
X780076Y397176D01*
X780151Y397094D01*
X780224Y397011D01*
X780294Y396925D01*
X780361Y396836D01*
X780424Y396745D01*
X780485Y396652D01*
X780542Y396558D01*
X780595Y396461D01*
X780646Y396362D01*
X780693Y396261D01*
X780736Y396159D01*
X780776Y396056D01*
X780812Y395951D01*
X780844Y395845D01*
X780873Y395738D01*
X780898Y395630D01*
X780919Y395521D01*
X780936Y395412D01*
X780950Y395302D01*
X780959Y395191D01*
X780965Y395081D01*
X780967Y394970D01*
X780967Y389890D01*
X780965Y389779D01*
X780959Y389669D01*
X780950Y389558D01*
X780936Y389448D01*
X780919Y389339D01*
X780898Y389230D01*
X780873Y389122D01*
X780844Y389015D01*
X780812Y388909D01*
X780776Y388804D01*
X780736Y388701D01*
X780693Y388599D01*
X780646Y388498D01*
X780595Y388399D01*
X780542Y388302D01*
X780485Y388208D01*
X780424Y388115D01*
X780361Y388024D01*
X780294Y387935D01*
X780224Y387849D01*
X780151Y387766D01*
X780076Y387684D01*
X779998Y387606D01*
X779916Y387531D01*
X779833Y387458D01*
X779747Y387388D01*
X779658Y387321D01*
X779567Y387258D01*
X779474Y387197D01*
X779380Y387140D01*
X779283Y387087D01*
X779184Y387036D01*
X779083Y386989D01*
X778981Y386946D01*
X778878Y386906D01*
X778773Y386870D01*
X778667Y386838D01*
X778560Y386809D01*
X778452Y386784D01*
X778343Y386763D01*
X778234Y386746D01*
X778124Y386732D01*
X778013Y386723D01*
X777903Y386717D01*
X777792Y386715D01*
X777681Y386717D01*
X777571Y386723D01*
X777460Y386732D01*
X777350Y386746D01*
X777241Y386763D01*
X777132Y386784D01*
X777024Y386809D01*
X776917Y386838D01*
X776811Y386870D01*
X776706Y386906D01*
X776603Y386946D01*
X776501Y386989D01*
X776400Y387036D01*
X776301Y387087D01*
X776205Y387140D01*
X776110Y387197D01*
X776017Y387258D01*
X775926Y387321D01*
X775837Y387388D01*
X775751Y387458D01*
X775668Y387531D01*
X775586Y387606D01*
X775508Y387684D01*
X775433Y387766D01*
X775360Y387849D01*
X775290Y387935D01*
X775223Y388024D01*
X775160Y388115D01*
X775099Y388208D01*
X775042Y388303D01*
X774989Y388399D01*
X774938Y388498D01*
X774891Y388599D01*
X774848Y388701D01*
X774808Y388804D01*
X774772Y388909D01*
X774740Y389015D01*
X774711Y389122D01*
X774686Y389230D01*
X774665Y389339D01*
X774648Y389448D01*
X774634Y389558D01*
X774625Y389669D01*
X774619Y389779D01*
X774617Y389890D01*
X786428Y386715D02*
X786428Y398145D01*
X792778Y386715D01*
X792778Y398145D01*
X798620Y398145D02*
X798620Y386715D01*
X804970Y386715D02*
X798620Y398145D01*
X804970Y398145D02*
X804970Y386715D01*
X798195Y325755D02*
X795655Y316865D01*
X802005Y316865D01*
X800100Y319405D02*
X800100Y314325D01*
D12*
X680720Y652780D02*
X678180Y652780D01*
X680720Y652780D02*
X680720Y668020D01*
X678180Y668020D01*
X617220Y668020D02*
X614680Y668020D01*
X614680Y652780D01*
X617220Y652780D01*
D14*
X635000Y688340D02*
X635000Y690880D01*
X635000Y688340D02*
X660400Y688340D01*
X660400Y690880D01*
X659130Y632460D02*
X635000Y632460D01*
X659130Y632460D02*
X659130Y629920D01*
X635000Y629920D02*
X635000Y632460D01*
D12*
X635000Y629920D02*
X626110Y629920D01*
X660400Y690880D02*
X669290Y690880D01*
X660400Y690880D02*
X635000Y690880D01*
X626110Y690880D01*
X635000Y629920D02*
X659130Y629920D01*
X669290Y629920D01*
X678180Y650240D02*
X678180Y652780D01*
X678180Y668020D02*
X678180Y670560D01*
X617220Y652780D02*
X617220Y650240D01*
X617220Y668020D02*
X617220Y670560D01*
X629920Y660400D02*
X629925Y660836D01*
X629941Y661272D01*
X629968Y661708D01*
X630006Y662143D01*
X630054Y662576D01*
X630112Y663009D01*
X630182Y663440D01*
X630262Y663869D01*
X630352Y664296D01*
X630453Y664720D01*
X630564Y665142D01*
X630686Y665561D01*
X630817Y665977D01*
X630959Y666390D01*
X631111Y666799D01*
X631273Y667204D01*
X631445Y667605D01*
X631627Y668002D01*
X631818Y668394D01*
X632019Y668781D01*
X632230Y669164D01*
X632450Y669541D01*
X632679Y669912D01*
X632916Y670278D01*
X633163Y670638D01*
X633419Y670992D01*
X633683Y671339D01*
X633956Y671680D01*
X634237Y672013D01*
X634526Y672340D01*
X634823Y672660D01*
X635128Y672972D01*
X635440Y673277D01*
X635760Y673574D01*
X636087Y673863D01*
X636420Y674144D01*
X636761Y674417D01*
X637108Y674681D01*
X637462Y674937D01*
X637822Y675184D01*
X638188Y675421D01*
X638559Y675650D01*
X638936Y675870D01*
X639319Y676081D01*
X639706Y676282D01*
X640098Y676473D01*
X640495Y676655D01*
X640896Y676827D01*
X641301Y676989D01*
X641710Y677141D01*
X642123Y677283D01*
X642539Y677414D01*
X642958Y677536D01*
X643380Y677647D01*
X643804Y677748D01*
X644231Y677838D01*
X644660Y677918D01*
X645091Y677988D01*
X645524Y678046D01*
X645957Y678094D01*
X646392Y678132D01*
X646828Y678159D01*
X647264Y678175D01*
X647700Y678180D01*
X648136Y678175D01*
X648572Y678159D01*
X649008Y678132D01*
X649443Y678094D01*
X649876Y678046D01*
X650309Y677988D01*
X650740Y677918D01*
X651169Y677838D01*
X651596Y677748D01*
X652020Y677647D01*
X652442Y677536D01*
X652861Y677414D01*
X653277Y677283D01*
X653690Y677141D01*
X654099Y676989D01*
X654504Y676827D01*
X654905Y676655D01*
X655302Y676473D01*
X655694Y676282D01*
X656081Y676081D01*
X656464Y675870D01*
X656841Y675650D01*
X657212Y675421D01*
X657578Y675184D01*
X657938Y674937D01*
X658292Y674681D01*
X658639Y674417D01*
X658980Y674144D01*
X659313Y673863D01*
X659640Y673574D01*
X659960Y673277D01*
X660272Y672972D01*
X660577Y672660D01*
X660874Y672340D01*
X661163Y672013D01*
X661444Y671680D01*
X661717Y671339D01*
X661981Y670992D01*
X662237Y670638D01*
X662484Y670278D01*
X662721Y669912D01*
X662950Y669541D01*
X663170Y669164D01*
X663381Y668781D01*
X663582Y668394D01*
X663773Y668002D01*
X663955Y667605D01*
X664127Y667204D01*
X664289Y666799D01*
X664441Y666390D01*
X664583Y665977D01*
X664714Y665561D01*
X664836Y665142D01*
X664947Y664720D01*
X665048Y664296D01*
X665138Y663869D01*
X665218Y663440D01*
X665288Y663009D01*
X665346Y662576D01*
X665394Y662143D01*
X665432Y661708D01*
X665459Y661272D01*
X665475Y660836D01*
X665480Y660400D01*
X665475Y659964D01*
X665459Y659528D01*
X665432Y659092D01*
X665394Y658657D01*
X665346Y658224D01*
X665288Y657791D01*
X665218Y657360D01*
X665138Y656931D01*
X665048Y656504D01*
X664947Y656080D01*
X664836Y655658D01*
X664714Y655239D01*
X664583Y654823D01*
X664441Y654410D01*
X664289Y654001D01*
X664127Y653596D01*
X663955Y653195D01*
X663773Y652798D01*
X663582Y652406D01*
X663381Y652019D01*
X663170Y651636D01*
X662950Y651259D01*
X662721Y650888D01*
X662484Y650522D01*
X662237Y650162D01*
X661981Y649808D01*
X661717Y649461D01*
X661444Y649120D01*
X661163Y648787D01*
X660874Y648460D01*
X660577Y648140D01*
X660272Y647828D01*
X659960Y647523D01*
X659640Y647226D01*
X659313Y646937D01*
X658980Y646656D01*
X658639Y646383D01*
X658292Y646119D01*
X657938Y645863D01*
X657578Y645616D01*
X657212Y645379D01*
X656841Y645150D01*
X656464Y644930D01*
X656081Y644719D01*
X655694Y644518D01*
X655302Y644327D01*
X654905Y644145D01*
X654504Y643973D01*
X654099Y643811D01*
X653690Y643659D01*
X653277Y643517D01*
X652861Y643386D01*
X652442Y643264D01*
X652020Y643153D01*
X651596Y643052D01*
X651169Y642962D01*
X650740Y642882D01*
X650309Y642812D01*
X649876Y642754D01*
X649443Y642706D01*
X649008Y642668D01*
X648572Y642641D01*
X648136Y642625D01*
X647700Y642620D01*
X647264Y642625D01*
X646828Y642641D01*
X646392Y642668D01*
X645957Y642706D01*
X645524Y642754D01*
X645091Y642812D01*
X644660Y642882D01*
X644231Y642962D01*
X643804Y643052D01*
X643380Y643153D01*
X642958Y643264D01*
X642539Y643386D01*
X642123Y643517D01*
X641710Y643659D01*
X641301Y643811D01*
X640896Y643973D01*
X640495Y644145D01*
X640098Y644327D01*
X639706Y644518D01*
X639319Y644719D01*
X638936Y644930D01*
X638559Y645150D01*
X638188Y645379D01*
X637822Y645616D01*
X637462Y645863D01*
X637108Y646119D01*
X636761Y646383D01*
X636420Y646656D01*
X636087Y646937D01*
X635760Y647226D01*
X635440Y647523D01*
X635128Y647828D01*
X634823Y648140D01*
X634526Y648460D01*
X634237Y648787D01*
X633956Y649120D01*
X633683Y649461D01*
X633419Y649808D01*
X633163Y650162D01*
X632916Y650522D01*
X632679Y650888D01*
X632450Y651259D01*
X632230Y651636D01*
X632019Y652019D01*
X631818Y652406D01*
X631627Y652798D01*
X631445Y653195D01*
X631273Y653596D01*
X631111Y654001D01*
X630959Y654410D01*
X630817Y654823D01*
X630686Y655239D01*
X630564Y655658D01*
X630453Y656080D01*
X630352Y656504D01*
X630262Y656931D01*
X630182Y657360D01*
X630112Y657791D01*
X630054Y658224D01*
X630006Y658657D01*
X629968Y659092D01*
X629941Y659528D01*
X629925Y659964D01*
X629920Y660400D01*
X645160Y660400D02*
X645162Y660500D01*
X645168Y660601D01*
X645178Y660700D01*
X645192Y660800D01*
X645209Y660899D01*
X645231Y660997D01*
X645257Y661094D01*
X645286Y661190D01*
X645319Y661284D01*
X645356Y661378D01*
X645396Y661470D01*
X645440Y661560D01*
X645488Y661648D01*
X645539Y661735D01*
X645593Y661819D01*
X645651Y661901D01*
X645712Y661981D01*
X645776Y662058D01*
X645843Y662133D01*
X645913Y662205D01*
X645986Y662274D01*
X646061Y662340D01*
X646139Y662404D01*
X646219Y662464D01*
X646302Y662521D01*
X646387Y662574D01*
X646474Y662624D01*
X646563Y662671D01*
X646653Y662714D01*
X646745Y662754D01*
X646839Y662790D01*
X646934Y662822D01*
X647030Y662850D01*
X647128Y662875D01*
X647226Y662895D01*
X647325Y662912D01*
X647425Y662925D01*
X647524Y662934D01*
X647625Y662939D01*
X647725Y662940D01*
X647825Y662937D01*
X647926Y662930D01*
X648025Y662919D01*
X648125Y662904D01*
X648223Y662886D01*
X648321Y662863D01*
X648418Y662836D01*
X648513Y662806D01*
X648608Y662772D01*
X648701Y662734D01*
X648792Y662693D01*
X648882Y662648D01*
X648970Y662600D01*
X649056Y662548D01*
X649140Y662493D01*
X649221Y662434D01*
X649300Y662372D01*
X649377Y662308D01*
X649451Y662240D01*
X649522Y662169D01*
X649591Y662096D01*
X649656Y662020D01*
X649719Y661941D01*
X649778Y661860D01*
X649834Y661777D01*
X649887Y661692D01*
X649936Y661604D01*
X649982Y661515D01*
X650024Y661424D01*
X650063Y661331D01*
X650098Y661237D01*
X650129Y661142D01*
X650157Y661045D01*
X650180Y660948D01*
X650200Y660849D01*
X650216Y660750D01*
X650228Y660651D01*
X650236Y660550D01*
X650240Y660450D01*
X650240Y660350D01*
X650236Y660250D01*
X650228Y660149D01*
X650216Y660050D01*
X650200Y659951D01*
X650180Y659852D01*
X650157Y659755D01*
X650129Y659658D01*
X650098Y659563D01*
X650063Y659469D01*
X650024Y659376D01*
X649982Y659285D01*
X649936Y659196D01*
X649887Y659108D01*
X649834Y659023D01*
X649778Y658940D01*
X649719Y658859D01*
X649656Y658780D01*
X649591Y658704D01*
X649522Y658631D01*
X649451Y658560D01*
X649377Y658492D01*
X649300Y658428D01*
X649221Y658366D01*
X649140Y658307D01*
X649056Y658252D01*
X648970Y658200D01*
X648882Y658152D01*
X648792Y658107D01*
X648701Y658066D01*
X648608Y658028D01*
X648513Y657994D01*
X648418Y657964D01*
X648321Y657937D01*
X648223Y657914D01*
X648125Y657896D01*
X648025Y657881D01*
X647926Y657870D01*
X647825Y657863D01*
X647725Y657860D01*
X647625Y657861D01*
X647524Y657866D01*
X647425Y657875D01*
X647325Y657888D01*
X647226Y657905D01*
X647128Y657925D01*
X647030Y657950D01*
X646934Y657978D01*
X646839Y658010D01*
X646745Y658046D01*
X646653Y658086D01*
X646563Y658129D01*
X646474Y658176D01*
X646387Y658226D01*
X646302Y658279D01*
X646219Y658336D01*
X646139Y658396D01*
X646061Y658460D01*
X645986Y658526D01*
X645913Y658595D01*
X645843Y658667D01*
X645776Y658742D01*
X645712Y658819D01*
X645651Y658899D01*
X645593Y658981D01*
X645539Y659065D01*
X645488Y659152D01*
X645440Y659240D01*
X645396Y659330D01*
X645356Y659422D01*
X645319Y659516D01*
X645286Y659610D01*
X645257Y659706D01*
X645231Y659803D01*
X645209Y659901D01*
X645192Y660000D01*
X645178Y660100D01*
X645168Y660199D01*
X645162Y660300D01*
X645160Y660400D01*
D10*
X621665Y697865D02*
X621765Y697867D01*
X621864Y697873D01*
X621964Y697883D01*
X622062Y697896D01*
X622161Y697914D01*
X622258Y697935D01*
X622354Y697960D01*
X622450Y697989D01*
X622544Y698022D01*
X622637Y698058D01*
X622728Y698098D01*
X622818Y698142D01*
X622906Y698189D01*
X622992Y698239D01*
X623076Y698293D01*
X623158Y698350D01*
X623237Y698410D01*
X623315Y698474D01*
X623389Y698540D01*
X623461Y698609D01*
X623530Y698681D01*
X623596Y698755D01*
X623660Y698833D01*
X623720Y698912D01*
X623777Y698994D01*
X623831Y699078D01*
X623881Y699164D01*
X623928Y699252D01*
X623972Y699342D01*
X624012Y699433D01*
X624048Y699526D01*
X624081Y699620D01*
X624110Y699716D01*
X624135Y699812D01*
X624156Y699909D01*
X624174Y700008D01*
X624187Y700106D01*
X624197Y700206D01*
X624203Y700305D01*
X624205Y700405D01*
X621665Y697865D02*
X621524Y697867D01*
X621383Y697872D01*
X621242Y697882D01*
X621101Y697895D01*
X620961Y697911D01*
X620821Y697932D01*
X620682Y697956D01*
X620543Y697984D01*
X620406Y698015D01*
X620269Y698050D01*
X620133Y698088D01*
X619998Y698130D01*
X619865Y698176D01*
X619732Y698225D01*
X619601Y698278D01*
X619472Y698334D01*
X619343Y698393D01*
X619217Y698456D01*
X619092Y698522D01*
X618969Y698591D01*
X618848Y698664D01*
X618729Y698740D01*
X618611Y698819D01*
X618496Y698900D01*
X618384Y698985D01*
X618273Y699073D01*
X618165Y699164D01*
X618059Y699257D01*
X617956Y699354D01*
X617855Y699453D01*
X618173Y706755D02*
X618175Y706855D01*
X618181Y706954D01*
X618191Y707054D01*
X618204Y707152D01*
X618222Y707251D01*
X618243Y707348D01*
X618268Y707444D01*
X618297Y707540D01*
X618330Y707634D01*
X618366Y707727D01*
X618406Y707818D01*
X618450Y707908D01*
X618497Y707996D01*
X618547Y708082D01*
X618601Y708166D01*
X618658Y708248D01*
X618718Y708327D01*
X618782Y708405D01*
X618848Y708479D01*
X618917Y708551D01*
X618989Y708620D01*
X619063Y708686D01*
X619141Y708750D01*
X619220Y708810D01*
X619302Y708867D01*
X619386Y708921D01*
X619472Y708971D01*
X619560Y709018D01*
X619650Y709062D01*
X619741Y709102D01*
X619834Y709138D01*
X619928Y709171D01*
X620024Y709200D01*
X620120Y709225D01*
X620217Y709246D01*
X620316Y709264D01*
X620414Y709277D01*
X620514Y709287D01*
X620613Y709293D01*
X620713Y709295D01*
X620713Y709296D02*
X620846Y709294D01*
X620979Y709289D01*
X621112Y709279D01*
X621245Y709266D01*
X621377Y709249D01*
X621509Y709229D01*
X621640Y709205D01*
X621770Y709177D01*
X621900Y709146D01*
X622028Y709111D01*
X622156Y709072D01*
X622282Y709030D01*
X622407Y708984D01*
X622531Y708935D01*
X622654Y708883D01*
X622775Y708827D01*
X622894Y708767D01*
X623012Y708705D01*
X623127Y708639D01*
X623241Y708570D01*
X623353Y708497D01*
X623463Y708422D01*
X623571Y708343D01*
X619442Y704532D02*
X619358Y704584D01*
X619275Y704639D01*
X619195Y704698D01*
X619117Y704759D01*
X619042Y704823D01*
X618969Y704891D01*
X618898Y704961D01*
X618831Y705033D01*
X618766Y705108D01*
X618704Y705186D01*
X618645Y705266D01*
X618589Y705348D01*
X618537Y705432D01*
X618488Y705518D01*
X618442Y705606D01*
X618399Y705696D01*
X618360Y705787D01*
X618325Y705880D01*
X618293Y705974D01*
X618265Y706069D01*
X618240Y706165D01*
X618220Y706262D01*
X618202Y706360D01*
X618189Y706458D01*
X618180Y706557D01*
X618174Y706656D01*
X618172Y706755D01*
X622935Y702628D02*
X623019Y702576D01*
X623102Y702521D01*
X623182Y702462D01*
X623260Y702401D01*
X623335Y702337D01*
X623408Y702269D01*
X623479Y702199D01*
X623546Y702127D01*
X623611Y702052D01*
X623673Y701974D01*
X623732Y701894D01*
X623788Y701812D01*
X623840Y701728D01*
X623889Y701642D01*
X623935Y701554D01*
X623978Y701464D01*
X624017Y701373D01*
X624052Y701280D01*
X624084Y701186D01*
X624112Y701091D01*
X624137Y700995D01*
X624157Y700898D01*
X624175Y700800D01*
X624188Y700702D01*
X624197Y700603D01*
X624203Y700504D01*
X624205Y700405D01*
X622935Y702628D02*
X619443Y704533D01*
X628904Y706755D02*
X632079Y709295D01*
X632079Y697865D01*
X628904Y697865D02*
X635254Y697865D01*
D15*
X861800Y690600D02*
X861800Y669100D01*
X861800Y690600D02*
X867800Y690600D01*
X890800Y690600D02*
X890800Y669100D01*
X890800Y690600D02*
X884800Y690600D01*
D11*
X856742Y657804D02*
X845058Y657804D01*
X845058Y661049D02*
X845058Y654558D01*
X845058Y665720D02*
X856742Y665720D01*
X851549Y669615D02*
X845058Y665720D01*
X851549Y669615D02*
X845058Y673509D01*
X856742Y673509D01*
X847654Y678942D02*
X845058Y682188D01*
X856742Y682188D01*
X856742Y685433D02*
X856742Y678942D01*
D10*
X105300Y619200D02*
X105300Y587400D01*
X105300Y619200D02*
X125620Y619200D01*
X155500Y647540D01*
X155500Y725600D01*
X127160Y752400D01*
X104300Y752400D01*
X104300Y784200D01*
X72500Y784200D01*
X72500Y752400D01*
X22380Y752400D01*
X22380Y744220D01*
X44860Y722820D01*
X44860Y655320D01*
X22380Y632460D01*
X22380Y619200D01*
X72500Y619200D01*
X72500Y587400D01*
X105300Y587400D01*
X79742Y603260D02*
X79745Y603485D01*
X79753Y603709D01*
X79767Y603934D01*
X79786Y604158D01*
X79811Y604381D01*
X79841Y604604D01*
X79877Y604826D01*
X79918Y605047D01*
X79965Y605267D01*
X80016Y605485D01*
X80074Y605703D01*
X80136Y605918D01*
X80204Y606133D01*
X80277Y606345D01*
X80356Y606556D01*
X80439Y606765D01*
X80528Y606971D01*
X80621Y607176D01*
X80720Y607378D01*
X80823Y607577D01*
X80932Y607774D01*
X81045Y607968D01*
X81163Y608160D01*
X81285Y608348D01*
X81413Y608533D01*
X81544Y608715D01*
X81680Y608894D01*
X81821Y609070D01*
X81965Y609242D01*
X82114Y609410D01*
X82267Y609575D01*
X82424Y609736D01*
X82585Y609893D01*
X82750Y610046D01*
X82918Y610195D01*
X83090Y610339D01*
X83266Y610480D01*
X83445Y610616D01*
X83627Y610747D01*
X83812Y610875D01*
X84000Y610997D01*
X84192Y611115D01*
X84386Y611228D01*
X84583Y611337D01*
X84782Y611440D01*
X84984Y611539D01*
X85189Y611632D01*
X85395Y611721D01*
X85604Y611804D01*
X85815Y611883D01*
X86027Y611956D01*
X86242Y612024D01*
X86457Y612086D01*
X86675Y612144D01*
X86893Y612195D01*
X87113Y612242D01*
X87334Y612283D01*
X87556Y612319D01*
X87779Y612349D01*
X88002Y612374D01*
X88226Y612393D01*
X88451Y612407D01*
X88675Y612415D01*
X88900Y612418D01*
X89125Y612415D01*
X89349Y612407D01*
X89574Y612393D01*
X89798Y612374D01*
X90021Y612349D01*
X90244Y612319D01*
X90466Y612283D01*
X90687Y612242D01*
X90907Y612195D01*
X91125Y612144D01*
X91343Y612086D01*
X91558Y612024D01*
X91773Y611956D01*
X91985Y611883D01*
X92196Y611804D01*
X92405Y611721D01*
X92611Y611632D01*
X92816Y611539D01*
X93018Y611440D01*
X93217Y611337D01*
X93414Y611228D01*
X93608Y611115D01*
X93800Y610997D01*
X93988Y610875D01*
X94173Y610747D01*
X94355Y610616D01*
X94534Y610480D01*
X94710Y610339D01*
X94882Y610195D01*
X95050Y610046D01*
X95215Y609893D01*
X95376Y609736D01*
X95533Y609575D01*
X95686Y609410D01*
X95835Y609242D01*
X95979Y609070D01*
X96120Y608894D01*
X96256Y608715D01*
X96387Y608533D01*
X96515Y608348D01*
X96637Y608160D01*
X96755Y607968D01*
X96868Y607774D01*
X96977Y607577D01*
X97080Y607378D01*
X97179Y607176D01*
X97272Y606971D01*
X97361Y606765D01*
X97444Y606556D01*
X97523Y606345D01*
X97596Y606133D01*
X97664Y605918D01*
X97726Y605703D01*
X97784Y605485D01*
X97835Y605267D01*
X97882Y605047D01*
X97923Y604826D01*
X97959Y604604D01*
X97989Y604381D01*
X98014Y604158D01*
X98033Y603934D01*
X98047Y603709D01*
X98055Y603485D01*
X98058Y603260D01*
X98055Y603035D01*
X98047Y602811D01*
X98033Y602586D01*
X98014Y602362D01*
X97989Y602139D01*
X97959Y601916D01*
X97923Y601694D01*
X97882Y601473D01*
X97835Y601253D01*
X97784Y601035D01*
X97726Y600817D01*
X97664Y600602D01*
X97596Y600387D01*
X97523Y600175D01*
X97444Y599964D01*
X97361Y599755D01*
X97272Y599549D01*
X97179Y599344D01*
X97080Y599142D01*
X96977Y598943D01*
X96868Y598746D01*
X96755Y598552D01*
X96637Y598360D01*
X96515Y598172D01*
X96387Y597987D01*
X96256Y597805D01*
X96120Y597626D01*
X95979Y597450D01*
X95835Y597278D01*
X95686Y597110D01*
X95533Y596945D01*
X95376Y596784D01*
X95215Y596627D01*
X95050Y596474D01*
X94882Y596325D01*
X94710Y596181D01*
X94534Y596040D01*
X94355Y595904D01*
X94173Y595773D01*
X93988Y595645D01*
X93800Y595523D01*
X93608Y595405D01*
X93414Y595292D01*
X93217Y595183D01*
X93018Y595080D01*
X92816Y594981D01*
X92611Y594888D01*
X92405Y594799D01*
X92196Y594716D01*
X91985Y594637D01*
X91773Y594564D01*
X91558Y594496D01*
X91343Y594434D01*
X91125Y594376D01*
X90907Y594325D01*
X90687Y594278D01*
X90466Y594237D01*
X90244Y594201D01*
X90021Y594171D01*
X89798Y594146D01*
X89574Y594127D01*
X89349Y594113D01*
X89125Y594105D01*
X88900Y594102D01*
X88675Y594105D01*
X88451Y594113D01*
X88226Y594127D01*
X88002Y594146D01*
X87779Y594171D01*
X87556Y594201D01*
X87334Y594237D01*
X87113Y594278D01*
X86893Y594325D01*
X86675Y594376D01*
X86457Y594434D01*
X86242Y594496D01*
X86027Y594564D01*
X85815Y594637D01*
X85604Y594716D01*
X85395Y594799D01*
X85189Y594888D01*
X84984Y594981D01*
X84782Y595080D01*
X84583Y595183D01*
X84386Y595292D01*
X84192Y595405D01*
X84000Y595523D01*
X83812Y595645D01*
X83627Y595773D01*
X83445Y595904D01*
X83266Y596040D01*
X83090Y596181D01*
X82918Y596325D01*
X82750Y596474D01*
X82585Y596627D01*
X82424Y596784D01*
X82267Y596945D01*
X82114Y597110D01*
X81965Y597278D01*
X81821Y597450D01*
X81680Y597626D01*
X81544Y597805D01*
X81413Y597987D01*
X81285Y598172D01*
X81163Y598360D01*
X81045Y598552D01*
X80932Y598746D01*
X80823Y598943D01*
X80720Y599142D01*
X80621Y599344D01*
X80528Y599549D01*
X80439Y599755D01*
X80356Y599964D01*
X80277Y600175D01*
X80204Y600387D01*
X80136Y600602D01*
X80074Y600817D01*
X80016Y601035D01*
X79965Y601253D01*
X79918Y601473D01*
X79877Y601694D01*
X79841Y601916D01*
X79811Y602139D01*
X79786Y602362D01*
X79767Y602586D01*
X79753Y602811D01*
X79745Y603035D01*
X79742Y603260D01*
X78202Y769800D02*
X78205Y770025D01*
X78213Y770249D01*
X78227Y770474D01*
X78246Y770698D01*
X78271Y770921D01*
X78301Y771144D01*
X78337Y771366D01*
X78378Y771587D01*
X78425Y771807D01*
X78476Y772025D01*
X78534Y772243D01*
X78596Y772458D01*
X78664Y772673D01*
X78737Y772885D01*
X78816Y773096D01*
X78899Y773305D01*
X78988Y773511D01*
X79081Y773716D01*
X79180Y773918D01*
X79283Y774117D01*
X79392Y774314D01*
X79505Y774508D01*
X79623Y774700D01*
X79745Y774888D01*
X79873Y775073D01*
X80004Y775255D01*
X80140Y775434D01*
X80281Y775610D01*
X80425Y775782D01*
X80574Y775950D01*
X80727Y776115D01*
X80884Y776276D01*
X81045Y776433D01*
X81210Y776586D01*
X81378Y776735D01*
X81550Y776879D01*
X81726Y777020D01*
X81905Y777156D01*
X82087Y777287D01*
X82272Y777415D01*
X82460Y777537D01*
X82652Y777655D01*
X82846Y777768D01*
X83043Y777877D01*
X83242Y777980D01*
X83444Y778079D01*
X83649Y778172D01*
X83855Y778261D01*
X84064Y778344D01*
X84275Y778423D01*
X84487Y778496D01*
X84702Y778564D01*
X84917Y778626D01*
X85135Y778684D01*
X85353Y778735D01*
X85573Y778782D01*
X85794Y778823D01*
X86016Y778859D01*
X86239Y778889D01*
X86462Y778914D01*
X86686Y778933D01*
X86911Y778947D01*
X87135Y778955D01*
X87360Y778958D01*
X87585Y778955D01*
X87809Y778947D01*
X88034Y778933D01*
X88258Y778914D01*
X88481Y778889D01*
X88704Y778859D01*
X88926Y778823D01*
X89147Y778782D01*
X89367Y778735D01*
X89585Y778684D01*
X89803Y778626D01*
X90018Y778564D01*
X90233Y778496D01*
X90445Y778423D01*
X90656Y778344D01*
X90865Y778261D01*
X91071Y778172D01*
X91276Y778079D01*
X91478Y777980D01*
X91677Y777877D01*
X91874Y777768D01*
X92068Y777655D01*
X92260Y777537D01*
X92448Y777415D01*
X92633Y777287D01*
X92815Y777156D01*
X92994Y777020D01*
X93170Y776879D01*
X93342Y776735D01*
X93510Y776586D01*
X93675Y776433D01*
X93836Y776276D01*
X93993Y776115D01*
X94146Y775950D01*
X94295Y775782D01*
X94439Y775610D01*
X94580Y775434D01*
X94716Y775255D01*
X94847Y775073D01*
X94975Y774888D01*
X95097Y774700D01*
X95215Y774508D01*
X95328Y774314D01*
X95437Y774117D01*
X95540Y773918D01*
X95639Y773716D01*
X95732Y773511D01*
X95821Y773305D01*
X95904Y773096D01*
X95983Y772885D01*
X96056Y772673D01*
X96124Y772458D01*
X96186Y772243D01*
X96244Y772025D01*
X96295Y771807D01*
X96342Y771587D01*
X96383Y771366D01*
X96419Y771144D01*
X96449Y770921D01*
X96474Y770698D01*
X96493Y770474D01*
X96507Y770249D01*
X96515Y770025D01*
X96518Y769800D01*
X96515Y769575D01*
X96507Y769351D01*
X96493Y769126D01*
X96474Y768902D01*
X96449Y768679D01*
X96419Y768456D01*
X96383Y768234D01*
X96342Y768013D01*
X96295Y767793D01*
X96244Y767575D01*
X96186Y767357D01*
X96124Y767142D01*
X96056Y766927D01*
X95983Y766715D01*
X95904Y766504D01*
X95821Y766295D01*
X95732Y766089D01*
X95639Y765884D01*
X95540Y765682D01*
X95437Y765483D01*
X95328Y765286D01*
X95215Y765092D01*
X95097Y764900D01*
X94975Y764712D01*
X94847Y764527D01*
X94716Y764345D01*
X94580Y764166D01*
X94439Y763990D01*
X94295Y763818D01*
X94146Y763650D01*
X93993Y763485D01*
X93836Y763324D01*
X93675Y763167D01*
X93510Y763014D01*
X93342Y762865D01*
X93170Y762721D01*
X92994Y762580D01*
X92815Y762444D01*
X92633Y762313D01*
X92448Y762185D01*
X92260Y762063D01*
X92068Y761945D01*
X91874Y761832D01*
X91677Y761723D01*
X91478Y761620D01*
X91276Y761521D01*
X91071Y761428D01*
X90865Y761339D01*
X90656Y761256D01*
X90445Y761177D01*
X90233Y761104D01*
X90018Y761036D01*
X89803Y760974D01*
X89585Y760916D01*
X89367Y760865D01*
X89147Y760818D01*
X88926Y760777D01*
X88704Y760741D01*
X88481Y760711D01*
X88258Y760686D01*
X88034Y760667D01*
X87809Y760653D01*
X87585Y760645D01*
X87360Y760642D01*
X87135Y760645D01*
X86911Y760653D01*
X86686Y760667D01*
X86462Y760686D01*
X86239Y760711D01*
X86016Y760741D01*
X85794Y760777D01*
X85573Y760818D01*
X85353Y760865D01*
X85135Y760916D01*
X84917Y760974D01*
X84702Y761036D01*
X84487Y761104D01*
X84275Y761177D01*
X84064Y761256D01*
X83855Y761339D01*
X83649Y761428D01*
X83444Y761521D01*
X83242Y761620D01*
X83043Y761723D01*
X82846Y761832D01*
X82652Y761945D01*
X82460Y762063D01*
X82272Y762185D01*
X82087Y762313D01*
X81905Y762444D01*
X81726Y762580D01*
X81550Y762721D01*
X81378Y762865D01*
X81210Y763014D01*
X81045Y763167D01*
X80884Y763324D01*
X80727Y763485D01*
X80574Y763650D01*
X80425Y763818D01*
X80281Y763990D01*
X80140Y764166D01*
X80004Y764345D01*
X79873Y764527D01*
X79745Y764712D01*
X79623Y764900D01*
X79505Y765092D01*
X79392Y765286D01*
X79283Y765483D01*
X79180Y765682D01*
X79081Y765884D01*
X78988Y766089D01*
X78899Y766295D01*
X78816Y766504D01*
X78737Y766715D01*
X78664Y766927D01*
X78596Y767142D01*
X78534Y767357D01*
X78476Y767575D01*
X78425Y767793D01*
X78378Y768013D01*
X78337Y768234D01*
X78301Y768456D01*
X78271Y768679D01*
X78246Y768902D01*
X78227Y769126D01*
X78213Y769351D01*
X78205Y769575D01*
X78202Y769800D01*
X27941Y650875D02*
X16751Y650875D01*
X27941Y650875D02*
X28071Y650877D01*
X28201Y650883D01*
X28331Y650893D01*
X28460Y650906D01*
X28589Y650924D01*
X28717Y650945D01*
X28844Y650971D01*
X28971Y651000D01*
X29097Y651033D01*
X29221Y651070D01*
X29345Y651110D01*
X29467Y651155D01*
X29588Y651203D01*
X29707Y651254D01*
X29825Y651309D01*
X29941Y651368D01*
X30055Y651430D01*
X30168Y651496D01*
X30278Y651565D01*
X30386Y651637D01*
X30492Y651712D01*
X30595Y651791D01*
X30696Y651873D01*
X30795Y651957D01*
X30891Y652045D01*
X30984Y652136D01*
X31075Y652229D01*
X31163Y652325D01*
X31247Y652424D01*
X31329Y652525D01*
X31408Y652628D01*
X31483Y652734D01*
X31555Y652842D01*
X31624Y652952D01*
X31690Y653065D01*
X31752Y653179D01*
X31811Y653295D01*
X31866Y653413D01*
X31917Y653532D01*
X31965Y653653D01*
X32010Y653775D01*
X32050Y653899D01*
X32087Y654023D01*
X32120Y654149D01*
X32149Y654276D01*
X32175Y654403D01*
X32196Y654531D01*
X32214Y654660D01*
X32227Y654789D01*
X32237Y654919D01*
X32243Y655049D01*
X32245Y655179D01*
X32243Y655309D01*
X32237Y655439D01*
X32227Y655569D01*
X32214Y655698D01*
X32196Y655827D01*
X32175Y655955D01*
X32149Y656082D01*
X32120Y656209D01*
X32087Y656335D01*
X32050Y656459D01*
X32010Y656583D01*
X31965Y656705D01*
X31917Y656826D01*
X31866Y656945D01*
X31811Y657063D01*
X31752Y657179D01*
X31690Y657293D01*
X31624Y657406D01*
X31555Y657516D01*
X31483Y657624D01*
X31408Y657730D01*
X31329Y657833D01*
X31247Y657934D01*
X31163Y658033D01*
X31075Y658129D01*
X30984Y658222D01*
X30891Y658313D01*
X30795Y658401D01*
X30696Y658485D01*
X30595Y658567D01*
X30492Y658646D01*
X30386Y658721D01*
X30278Y658793D01*
X30168Y658862D01*
X30055Y658928D01*
X29941Y658990D01*
X29825Y659049D01*
X29707Y659104D01*
X29588Y659155D01*
X29467Y659203D01*
X29345Y659248D01*
X29221Y659288D01*
X29097Y659325D01*
X28971Y659358D01*
X28844Y659387D01*
X28717Y659413D01*
X28589Y659434D01*
X28460Y659452D01*
X28331Y659465D01*
X28201Y659475D01*
X28071Y659481D01*
X27941Y659483D01*
X16751Y659483D01*
X16751Y669549D02*
X32245Y669549D01*
X24498Y669549D02*
X23207Y667397D01*
X23153Y667312D01*
X23097Y667229D01*
X23037Y667149D01*
X22974Y667070D01*
X22908Y666995D01*
X22839Y666922D01*
X22768Y666851D01*
X22694Y666784D01*
X22617Y666719D01*
X22537Y666658D01*
X22456Y666599D01*
X22372Y666544D01*
X22286Y666493D01*
X22198Y666444D01*
X22108Y666399D01*
X22017Y666358D01*
X21924Y666320D01*
X21829Y666286D01*
X21734Y666255D01*
X21637Y666229D01*
X21539Y666206D01*
X21441Y666187D01*
X21342Y666172D01*
X21242Y666160D01*
X21142Y666153D01*
X21041Y666149D01*
X20941Y666150D01*
X20841Y666154D01*
X20741Y666162D01*
X20641Y666174D01*
X20542Y666190D01*
X20444Y666210D01*
X20346Y666234D01*
X20250Y666262D01*
X20154Y666293D01*
X20060Y666328D01*
X19968Y666366D01*
X19876Y666408D01*
X19787Y666454D01*
X19700Y666503D01*
X19614Y666556D01*
X19531Y666612D01*
X19449Y666671D01*
X19371Y666733D01*
X19294Y666798D01*
X19221Y666866D01*
X19150Y666937D01*
X19081Y667011D01*
X19016Y667087D01*
X18954Y667166D01*
X18895Y667247D01*
X18839Y667330D01*
X18786Y667416D01*
X18737Y667503D01*
X18691Y667592D01*
X18649Y667684D01*
X18611Y667776D01*
X18576Y667870D01*
X18544Y667966D01*
X18517Y668062D01*
X18493Y668160D01*
X18473Y668258D01*
X18472Y668258D02*
X18445Y668420D01*
X18421Y668582D01*
X18401Y668745D01*
X18385Y668908D01*
X18373Y669071D01*
X18366Y669235D01*
X18362Y669399D01*
X18361Y669563D01*
X18365Y669727D01*
X18373Y669891D01*
X18385Y670054D01*
X18401Y670217D01*
X18420Y670380D01*
X18444Y670542D01*
X18471Y670704D01*
X18502Y670865D01*
X18537Y671025D01*
X18576Y671184D01*
X18619Y671343D01*
X18666Y671500D01*
X18716Y671656D01*
X18770Y671811D01*
X18828Y671964D01*
X18889Y672116D01*
X18954Y672266D01*
X19023Y672415D01*
X19095Y672562D01*
X19171Y672708D01*
X19250Y672851D01*
X19333Y672993D01*
X24498Y669549D02*
X25789Y671701D01*
X25843Y671786D01*
X25899Y671869D01*
X25959Y671949D01*
X26022Y672028D01*
X26088Y672103D01*
X26157Y672176D01*
X26228Y672247D01*
X26302Y672314D01*
X26379Y672379D01*
X26459Y672440D01*
X26540Y672499D01*
X26624Y672554D01*
X26710Y672606D01*
X26798Y672654D01*
X26888Y672699D01*
X26979Y672740D01*
X27072Y672778D01*
X27167Y672812D01*
X27262Y672843D01*
X27359Y672869D01*
X27457Y672892D01*
X27555Y672911D01*
X27654Y672926D01*
X27754Y672938D01*
X27854Y672945D01*
X27955Y672949D01*
X28055Y672948D01*
X28155Y672944D01*
X28255Y672936D01*
X28355Y672924D01*
X28454Y672908D01*
X28552Y672888D01*
X28650Y672864D01*
X28746Y672836D01*
X28842Y672805D01*
X28936Y672770D01*
X29028Y672732D01*
X29120Y672690D01*
X29209Y672644D01*
X29296Y672595D01*
X29382Y672542D01*
X29465Y672486D01*
X29547Y672427D01*
X29625Y672365D01*
X29702Y672300D01*
X29775Y672232D01*
X29846Y672161D01*
X29915Y672087D01*
X29980Y672011D01*
X30042Y671932D01*
X30101Y671851D01*
X30157Y671768D01*
X30210Y671682D01*
X30259Y671595D01*
X30305Y671506D01*
X30347Y671414D01*
X30385Y671322D01*
X30420Y671228D01*
X30452Y671132D01*
X30479Y671036D01*
X30503Y670938D01*
X30523Y670840D01*
X30523Y670841D02*
X30550Y670679D01*
X30574Y670517D01*
X30594Y670354D01*
X30610Y670191D01*
X30622Y670027D01*
X30629Y669864D01*
X30633Y669700D01*
X30634Y669536D01*
X30630Y669372D01*
X30622Y669208D01*
X30610Y669045D01*
X30594Y668882D01*
X30575Y668719D01*
X30551Y668557D01*
X30524Y668395D01*
X30493Y668234D01*
X30458Y668074D01*
X30419Y667915D01*
X30376Y667757D01*
X30329Y667600D01*
X30279Y667444D01*
X30225Y667289D01*
X30167Y667135D01*
X30106Y666983D01*
X30041Y666833D01*
X29972Y666684D01*
X29900Y666537D01*
X29824Y666392D01*
X29745Y666248D01*
X29662Y666107D01*
X16751Y683854D02*
X16753Y683976D01*
X16759Y684097D01*
X16768Y684219D01*
X16782Y684340D01*
X16799Y684460D01*
X16820Y684580D01*
X16844Y684699D01*
X16873Y684817D01*
X16905Y684935D01*
X16941Y685051D01*
X16980Y685166D01*
X17023Y685280D01*
X17070Y685393D01*
X17120Y685503D01*
X17173Y685613D01*
X17230Y685720D01*
X17290Y685826D01*
X17354Y685930D01*
X17421Y686032D01*
X17491Y686131D01*
X17564Y686228D01*
X17640Y686323D01*
X17719Y686416D01*
X17801Y686506D01*
X17886Y686593D01*
X17973Y686678D01*
X18063Y686760D01*
X18156Y686839D01*
X18251Y686915D01*
X18348Y686988D01*
X18447Y687058D01*
X18549Y687125D01*
X18653Y687189D01*
X18759Y687249D01*
X18866Y687306D01*
X18976Y687359D01*
X19086Y687409D01*
X19199Y687456D01*
X19313Y687499D01*
X19428Y687538D01*
X19544Y687574D01*
X19662Y687606D01*
X19780Y687635D01*
X19899Y687659D01*
X20019Y687680D01*
X20139Y687697D01*
X20260Y687711D01*
X20382Y687720D01*
X20503Y687726D01*
X20625Y687728D01*
X16751Y683854D02*
X16753Y683715D01*
X16759Y683576D01*
X16768Y683437D01*
X16782Y683299D01*
X16800Y683161D01*
X16821Y683024D01*
X16846Y682887D01*
X16875Y682751D01*
X16908Y682616D01*
X16944Y682481D01*
X16984Y682348D01*
X17028Y682216D01*
X17076Y682086D01*
X17127Y681956D01*
X17182Y681829D01*
X17240Y681702D01*
X17302Y681578D01*
X17367Y681455D01*
X17436Y681334D01*
X17508Y681215D01*
X17584Y681098D01*
X17662Y680984D01*
X17744Y680871D01*
X17829Y680761D01*
X17917Y680653D01*
X18008Y680548D01*
X18102Y680446D01*
X18198Y680346D01*
X18298Y680248D01*
X18400Y680154D01*
X18504Y680062D01*
X18612Y679974D01*
X18721Y679888D01*
X18833Y679806D01*
X18948Y679727D01*
X19064Y679651D01*
X19182Y679578D01*
X19303Y679508D01*
X19425Y679442D01*
X19550Y679380D01*
X19675Y679321D01*
X19803Y679265D01*
X19932Y679213D01*
X20062Y679165D01*
X20194Y679120D01*
X23638Y686437D02*
X23551Y686526D01*
X23461Y686612D01*
X23368Y686696D01*
X23273Y686777D01*
X23176Y686855D01*
X23076Y686930D01*
X22974Y687002D01*
X22870Y687071D01*
X22764Y687136D01*
X22656Y687199D01*
X22546Y687258D01*
X22434Y687314D01*
X22321Y687367D01*
X22207Y687416D01*
X22090Y687461D01*
X21973Y687504D01*
X21854Y687542D01*
X21735Y687577D01*
X21614Y687609D01*
X21492Y687637D01*
X21370Y687661D01*
X21247Y687681D01*
X21123Y687698D01*
X20999Y687711D01*
X20874Y687721D01*
X20750Y687726D01*
X20625Y687728D01*
X23637Y686437D02*
X32245Y679120D01*
X32245Y687728D01*
D12*
X653034Y481584D02*
X653034Y471424D01*
X661162Y585216D02*
X661162Y595630D01*
X724916Y529590D02*
X735076Y529590D01*
X646430Y564134D02*
X642366Y560070D01*
D16*
X616423Y567888D02*
X616423Y571867D01*
X616423Y567888D02*
X618744Y564903D01*
X616423Y567888D02*
X614101Y564903D01*
X616423Y567888D02*
X620070Y569214D01*
X616423Y567888D02*
X612775Y569214D01*
X616423Y567888D02*
X616423Y571867D01*
X616423Y567888D02*
X618744Y564903D01*
X616423Y567888D02*
X614101Y564903D01*
X616423Y567888D02*
X620070Y569214D01*
X616423Y567888D02*
X612775Y569214D01*
D17*
X619252Y473456D02*
X619252Y459881D01*
X619254Y459738D01*
X619260Y459596D01*
X619270Y459454D01*
X619283Y459312D01*
X619301Y459170D01*
X619322Y459029D01*
X619347Y458889D01*
X619376Y458749D01*
X619409Y458610D01*
X619446Y458472D01*
X619486Y458336D01*
X619530Y458200D01*
X619578Y458066D01*
X619629Y457933D01*
X619684Y457801D01*
X619743Y457671D01*
X619805Y457543D01*
X619871Y457416D01*
X619940Y457291D01*
X620012Y457168D01*
X620088Y457047D01*
X620167Y456929D01*
X620249Y456812D01*
X620335Y456698D01*
X620423Y456586D01*
X620515Y456477D01*
X620609Y456370D01*
X620706Y456266D01*
X620806Y456164D01*
X620909Y456065D01*
X621015Y455969D01*
X621123Y455876D01*
X621234Y455786D01*
X621347Y455699D01*
X621462Y455616D01*
X621580Y455535D01*
X621700Y455458D01*
X621821Y455383D01*
X621945Y455313D01*
X622071Y455245D01*
X622199Y455181D01*
X622328Y455121D01*
X622459Y455064D01*
X622591Y455011D01*
X622725Y454961D01*
X622860Y454916D01*
X622996Y454873D01*
X623133Y454835D01*
X623272Y454800D01*
X623411Y454769D01*
X623551Y454742D01*
X623691Y454719D01*
X623833Y454699D01*
X623975Y454684D01*
X624117Y454672D01*
X624259Y454664D01*
X624402Y454660D01*
X624544Y454660D01*
X624687Y454664D01*
X624829Y454672D01*
X624971Y454684D01*
X625113Y454699D01*
X625255Y454719D01*
X625395Y454742D01*
X625535Y454769D01*
X625674Y454800D01*
X625813Y454835D01*
X625950Y454873D01*
X626086Y454916D01*
X626221Y454961D01*
X626355Y455011D01*
X626487Y455064D01*
X626618Y455121D01*
X626747Y455181D01*
X626875Y455245D01*
X627001Y455313D01*
X627125Y455383D01*
X627246Y455458D01*
X627366Y455535D01*
X627484Y455616D01*
X627599Y455699D01*
X627712Y455786D01*
X627823Y455876D01*
X627931Y455969D01*
X628037Y456065D01*
X628140Y456164D01*
X628240Y456266D01*
X628337Y456370D01*
X628431Y456477D01*
X628523Y456586D01*
X628611Y456698D01*
X628697Y456812D01*
X628779Y456929D01*
X628858Y457047D01*
X628934Y457168D01*
X629006Y457291D01*
X629075Y457416D01*
X629141Y457543D01*
X629203Y457671D01*
X629262Y457801D01*
X629317Y457933D01*
X629368Y458066D01*
X629416Y458200D01*
X629460Y458336D01*
X629500Y458472D01*
X629537Y458610D01*
X629570Y458749D01*
X629599Y458889D01*
X629624Y459029D01*
X629645Y459170D01*
X629663Y459312D01*
X629676Y459454D01*
X629686Y459596D01*
X629692Y459738D01*
X629694Y459881D01*
X629694Y473456D01*
X637681Y469279D02*
X642902Y473456D01*
X642902Y454660D01*
X637681Y454660D02*
X648124Y454660D01*
D12*
X337312Y678688D02*
X326390Y678942D01*
X304800Y761746D02*
X304800Y763778D01*
X228600Y660654D02*
X228600Y658622D01*
X304800Y658622D01*
X304800Y660654D01*
X304800Y763778D02*
X269748Y763778D01*
X263652Y763778D01*
X228600Y763778D01*
X228600Y761746D01*
X263652Y763778D02*
X263654Y763669D01*
X263660Y763561D01*
X263669Y763452D01*
X263683Y763344D01*
X263700Y763237D01*
X263722Y763130D01*
X263747Y763024D01*
X263775Y762919D01*
X263808Y762815D01*
X263844Y762713D01*
X263884Y762612D01*
X263927Y762512D01*
X263974Y762414D01*
X264025Y762317D01*
X264079Y762223D01*
X264136Y762130D01*
X264196Y762040D01*
X264260Y761951D01*
X264327Y761865D01*
X264396Y761782D01*
X264469Y761701D01*
X264545Y761623D01*
X264623Y761547D01*
X264704Y761474D01*
X264787Y761405D01*
X264873Y761338D01*
X264962Y761274D01*
X265052Y761214D01*
X265145Y761157D01*
X265239Y761103D01*
X265336Y761052D01*
X265434Y761005D01*
X265534Y760962D01*
X265635Y760922D01*
X265737Y760886D01*
X265841Y760853D01*
X265946Y760825D01*
X266052Y760800D01*
X266159Y760778D01*
X266266Y760761D01*
X266374Y760747D01*
X266483Y760738D01*
X266591Y760732D01*
X266700Y760730D01*
X266809Y760732D01*
X266917Y760738D01*
X267026Y760747D01*
X267134Y760761D01*
X267241Y760778D01*
X267348Y760800D01*
X267454Y760825D01*
X267559Y760853D01*
X267663Y760886D01*
X267765Y760922D01*
X267866Y760962D01*
X267966Y761005D01*
X268064Y761052D01*
X268161Y761103D01*
X268255Y761157D01*
X268348Y761214D01*
X268438Y761274D01*
X268527Y761338D01*
X268613Y761405D01*
X268696Y761474D01*
X268777Y761547D01*
X268855Y761623D01*
X268931Y761701D01*
X269004Y761782D01*
X269073Y761865D01*
X269140Y761951D01*
X269204Y762040D01*
X269264Y762130D01*
X269321Y762223D01*
X269375Y762317D01*
X269426Y762414D01*
X269473Y762512D01*
X269516Y762612D01*
X269556Y762713D01*
X269592Y762815D01*
X269625Y762919D01*
X269653Y763024D01*
X269678Y763130D01*
X269700Y763237D01*
X269717Y763344D01*
X269731Y763452D01*
X269740Y763561D01*
X269746Y763669D01*
X269748Y763778D01*
D16*
X215611Y764738D02*
X215611Y768717D01*
X215611Y764738D02*
X217932Y761753D01*
X215611Y764738D02*
X213289Y761753D01*
X215611Y764738D02*
X219258Y766064D01*
X215611Y764738D02*
X211963Y766064D01*
D17*
X233172Y787287D02*
X233172Y800862D01*
X233172Y787287D02*
X233174Y787144D01*
X233180Y787002D01*
X233190Y786860D01*
X233203Y786718D01*
X233221Y786576D01*
X233242Y786435D01*
X233267Y786295D01*
X233296Y786155D01*
X233329Y786016D01*
X233366Y785878D01*
X233406Y785742D01*
X233450Y785606D01*
X233498Y785472D01*
X233549Y785339D01*
X233604Y785207D01*
X233663Y785077D01*
X233725Y784949D01*
X233791Y784822D01*
X233860Y784697D01*
X233932Y784574D01*
X234008Y784453D01*
X234087Y784335D01*
X234169Y784218D01*
X234255Y784104D01*
X234343Y783992D01*
X234435Y783883D01*
X234529Y783776D01*
X234626Y783672D01*
X234726Y783570D01*
X234829Y783471D01*
X234935Y783375D01*
X235043Y783282D01*
X235154Y783192D01*
X235267Y783105D01*
X235382Y783022D01*
X235500Y782941D01*
X235620Y782864D01*
X235741Y782789D01*
X235865Y782719D01*
X235991Y782651D01*
X236119Y782587D01*
X236248Y782527D01*
X236379Y782470D01*
X236511Y782417D01*
X236645Y782367D01*
X236780Y782322D01*
X236916Y782279D01*
X237053Y782241D01*
X237192Y782206D01*
X237331Y782175D01*
X237471Y782148D01*
X237611Y782125D01*
X237753Y782105D01*
X237895Y782090D01*
X238037Y782078D01*
X238179Y782070D01*
X238322Y782066D01*
X238464Y782066D01*
X238607Y782070D01*
X238749Y782078D01*
X238891Y782090D01*
X239033Y782105D01*
X239175Y782125D01*
X239315Y782148D01*
X239455Y782175D01*
X239594Y782206D01*
X239733Y782241D01*
X239870Y782279D01*
X240006Y782322D01*
X240141Y782367D01*
X240275Y782417D01*
X240407Y782470D01*
X240538Y782527D01*
X240667Y782587D01*
X240795Y782651D01*
X240921Y782719D01*
X241045Y782789D01*
X241166Y782864D01*
X241286Y782941D01*
X241404Y783022D01*
X241519Y783105D01*
X241632Y783192D01*
X241743Y783282D01*
X241851Y783375D01*
X241957Y783471D01*
X242060Y783570D01*
X242160Y783672D01*
X242257Y783776D01*
X242351Y783883D01*
X242443Y783992D01*
X242531Y784104D01*
X242617Y784218D01*
X242699Y784335D01*
X242778Y784453D01*
X242854Y784574D01*
X242926Y784697D01*
X242995Y784822D01*
X243061Y784949D01*
X243123Y785077D01*
X243182Y785207D01*
X243237Y785339D01*
X243288Y785472D01*
X243336Y785606D01*
X243380Y785742D01*
X243420Y785878D01*
X243457Y786016D01*
X243490Y786155D01*
X243519Y786295D01*
X243544Y786435D01*
X243565Y786576D01*
X243583Y786718D01*
X243596Y786860D01*
X243606Y787002D01*
X243612Y787144D01*
X243614Y787287D01*
X243614Y800862D01*
X257345Y800862D02*
X257479Y800860D01*
X257613Y800854D01*
X257747Y800845D01*
X257881Y800831D01*
X258014Y800814D01*
X258146Y800793D01*
X258278Y800768D01*
X258409Y800740D01*
X258540Y800708D01*
X258669Y800672D01*
X258797Y800632D01*
X258924Y800589D01*
X259050Y800542D01*
X259174Y800491D01*
X259297Y800437D01*
X259418Y800380D01*
X259538Y800319D01*
X259656Y800255D01*
X259772Y800187D01*
X259885Y800116D01*
X259997Y800042D01*
X260107Y799965D01*
X260214Y799884D01*
X260320Y799801D01*
X260422Y799714D01*
X260522Y799625D01*
X260620Y799533D01*
X260715Y799438D01*
X260807Y799340D01*
X260896Y799240D01*
X260983Y799138D01*
X261066Y799032D01*
X261147Y798925D01*
X261224Y798815D01*
X261298Y798703D01*
X261369Y798590D01*
X261437Y798474D01*
X261501Y798356D01*
X261562Y798236D01*
X261619Y798115D01*
X261673Y797992D01*
X261724Y797868D01*
X261771Y797742D01*
X261814Y797615D01*
X261854Y797487D01*
X261890Y797358D01*
X261922Y797227D01*
X261950Y797096D01*
X261975Y796964D01*
X261996Y796832D01*
X262013Y796699D01*
X262027Y796565D01*
X262036Y796431D01*
X262042Y796297D01*
X262044Y796163D01*
X257345Y800862D02*
X257193Y800860D01*
X257041Y800854D01*
X256890Y800845D01*
X256739Y800831D01*
X256588Y800814D01*
X256437Y800793D01*
X256288Y800769D01*
X256138Y800740D01*
X255990Y800708D01*
X255843Y800672D01*
X255696Y800632D01*
X255550Y800589D01*
X255406Y800542D01*
X255263Y800492D01*
X255121Y800437D01*
X254981Y800380D01*
X254842Y800318D01*
X254704Y800254D01*
X254569Y800186D01*
X254435Y800114D01*
X254303Y800039D01*
X254172Y799961D01*
X254044Y799880D01*
X253918Y799795D01*
X253794Y799707D01*
X253673Y799616D01*
X253553Y799523D01*
X253436Y799426D01*
X253322Y799326D01*
X253210Y799223D01*
X253101Y799118D01*
X252994Y799010D01*
X252890Y798899D01*
X252789Y798786D01*
X252691Y798670D01*
X252596Y798552D01*
X252503Y798431D01*
X252414Y798308D01*
X252328Y798183D01*
X252245Y798056D01*
X252166Y797927D01*
X252089Y797795D01*
X252016Y797662D01*
X251947Y797527D01*
X251880Y797391D01*
X251818Y797252D01*
X251758Y797113D01*
X251702Y796971D01*
X251650Y796829D01*
X251602Y796685D01*
X260477Y792508D02*
X260577Y792607D01*
X260675Y792708D01*
X260770Y792812D01*
X260862Y792919D01*
X260951Y793028D01*
X261037Y793140D01*
X261120Y793254D01*
X261200Y793370D01*
X261276Y793489D01*
X261349Y793609D01*
X261419Y793732D01*
X261485Y793856D01*
X261548Y793982D01*
X261607Y794110D01*
X261662Y794240D01*
X261714Y794371D01*
X261762Y794503D01*
X261807Y794637D01*
X261848Y794772D01*
X261884Y794908D01*
X261918Y795045D01*
X261947Y795183D01*
X261972Y795321D01*
X261994Y795461D01*
X262012Y795600D01*
X262025Y795741D01*
X262035Y795881D01*
X262041Y796022D01*
X262043Y796163D01*
X260477Y792508D02*
X251601Y782066D01*
X262044Y782066D01*
D12*
X786892Y267716D02*
X786892Y240284D01*
X737108Y257048D02*
X737108Y267716D01*
X737108Y257048D02*
X737108Y250952D01*
X737108Y240284D01*
X737108Y250952D02*
X737217Y250954D01*
X737325Y250960D01*
X737434Y250969D01*
X737542Y250983D01*
X737649Y251000D01*
X737756Y251022D01*
X737862Y251047D01*
X737967Y251075D01*
X738071Y251108D01*
X738173Y251144D01*
X738274Y251184D01*
X738374Y251227D01*
X738472Y251274D01*
X738569Y251325D01*
X738663Y251379D01*
X738756Y251436D01*
X738846Y251496D01*
X738935Y251560D01*
X739021Y251627D01*
X739104Y251696D01*
X739185Y251769D01*
X739263Y251845D01*
X739339Y251923D01*
X739412Y252004D01*
X739481Y252087D01*
X739548Y252173D01*
X739612Y252262D01*
X739672Y252352D01*
X739729Y252445D01*
X739783Y252539D01*
X739834Y252636D01*
X739881Y252734D01*
X739924Y252834D01*
X739964Y252935D01*
X740000Y253037D01*
X740033Y253141D01*
X740061Y253246D01*
X740086Y253352D01*
X740108Y253459D01*
X740125Y253566D01*
X740139Y253674D01*
X740148Y253783D01*
X740154Y253891D01*
X740156Y254000D01*
X740154Y254109D01*
X740148Y254217D01*
X740139Y254326D01*
X740125Y254434D01*
X740108Y254541D01*
X740086Y254648D01*
X740061Y254754D01*
X740033Y254859D01*
X740000Y254963D01*
X739964Y255065D01*
X739924Y255166D01*
X739881Y255266D01*
X739834Y255364D01*
X739783Y255461D01*
X739729Y255555D01*
X739672Y255648D01*
X739612Y255738D01*
X739548Y255827D01*
X739481Y255913D01*
X739412Y255996D01*
X739339Y256077D01*
X739263Y256155D01*
X739185Y256231D01*
X739104Y256304D01*
X739021Y256373D01*
X738935Y256440D01*
X738846Y256504D01*
X738756Y256564D01*
X738663Y256621D01*
X738569Y256675D01*
X738472Y256726D01*
X738374Y256773D01*
X738274Y256816D01*
X738173Y256856D01*
X738071Y256892D01*
X737967Y256925D01*
X737862Y256953D01*
X737756Y256978D01*
X737649Y257000D01*
X737542Y257017D01*
X737434Y257031D01*
X737325Y257040D01*
X737217Y257046D01*
X737108Y257048D01*
D16*
X733608Y225009D02*
X729629Y225009D01*
X733608Y225009D02*
X736593Y227330D01*
X733608Y225009D02*
X736593Y222687D01*
X733608Y225009D02*
X732282Y228656D01*
X733608Y225009D02*
X732282Y221361D01*
D17*
X797306Y207518D02*
X810881Y207518D01*
X811024Y207520D01*
X811166Y207526D01*
X811308Y207536D01*
X811450Y207549D01*
X811592Y207567D01*
X811733Y207588D01*
X811873Y207613D01*
X812013Y207642D01*
X812152Y207675D01*
X812290Y207712D01*
X812426Y207752D01*
X812562Y207796D01*
X812696Y207844D01*
X812829Y207895D01*
X812961Y207950D01*
X813091Y208009D01*
X813219Y208071D01*
X813346Y208137D01*
X813471Y208206D01*
X813594Y208278D01*
X813715Y208354D01*
X813833Y208433D01*
X813950Y208515D01*
X814064Y208601D01*
X814176Y208689D01*
X814285Y208781D01*
X814392Y208875D01*
X814496Y208972D01*
X814598Y209072D01*
X814697Y209175D01*
X814793Y209281D01*
X814886Y209389D01*
X814976Y209500D01*
X815063Y209613D01*
X815146Y209728D01*
X815227Y209846D01*
X815304Y209966D01*
X815379Y210087D01*
X815449Y210211D01*
X815517Y210337D01*
X815581Y210465D01*
X815641Y210594D01*
X815698Y210725D01*
X815751Y210857D01*
X815801Y210991D01*
X815846Y211126D01*
X815889Y211262D01*
X815927Y211399D01*
X815962Y211538D01*
X815993Y211677D01*
X816020Y211817D01*
X816043Y211957D01*
X816063Y212099D01*
X816078Y212241D01*
X816090Y212383D01*
X816098Y212525D01*
X816102Y212668D01*
X816102Y212810D01*
X816098Y212953D01*
X816090Y213095D01*
X816078Y213237D01*
X816063Y213379D01*
X816043Y213521D01*
X816020Y213661D01*
X815993Y213801D01*
X815962Y213940D01*
X815927Y214079D01*
X815889Y214216D01*
X815846Y214352D01*
X815801Y214487D01*
X815751Y214621D01*
X815698Y214753D01*
X815641Y214884D01*
X815581Y215013D01*
X815517Y215141D01*
X815449Y215267D01*
X815379Y215391D01*
X815304Y215512D01*
X815227Y215632D01*
X815146Y215750D01*
X815063Y215865D01*
X814976Y215978D01*
X814886Y216089D01*
X814793Y216197D01*
X814697Y216303D01*
X814598Y216406D01*
X814496Y216506D01*
X814392Y216603D01*
X814285Y216697D01*
X814176Y216789D01*
X814064Y216877D01*
X813950Y216963D01*
X813833Y217045D01*
X813715Y217124D01*
X813594Y217200D01*
X813471Y217272D01*
X813346Y217341D01*
X813219Y217407D01*
X813091Y217469D01*
X812961Y217528D01*
X812829Y217583D01*
X812696Y217634D01*
X812562Y217682D01*
X812426Y217726D01*
X812290Y217766D01*
X812152Y217803D01*
X812013Y217836D01*
X811873Y217865D01*
X811733Y217890D01*
X811592Y217911D01*
X811450Y217929D01*
X811308Y217942D01*
X811166Y217952D01*
X811024Y217958D01*
X810881Y217960D01*
X797306Y217960D01*
X816102Y225947D02*
X816102Y231168D01*
X816100Y231311D01*
X816094Y231453D01*
X816084Y231595D01*
X816071Y231737D01*
X816053Y231879D01*
X816032Y232020D01*
X816007Y232160D01*
X815978Y232300D01*
X815945Y232439D01*
X815908Y232577D01*
X815868Y232713D01*
X815824Y232849D01*
X815776Y232983D01*
X815725Y233116D01*
X815670Y233248D01*
X815611Y233378D01*
X815549Y233506D01*
X815483Y233633D01*
X815414Y233758D01*
X815342Y233881D01*
X815266Y234002D01*
X815187Y234120D01*
X815105Y234237D01*
X815019Y234351D01*
X814931Y234463D01*
X814839Y234572D01*
X814745Y234679D01*
X814648Y234783D01*
X814548Y234885D01*
X814445Y234984D01*
X814339Y235080D01*
X814231Y235173D01*
X814120Y235263D01*
X814007Y235350D01*
X813892Y235433D01*
X813774Y235514D01*
X813654Y235591D01*
X813533Y235666D01*
X813409Y235736D01*
X813283Y235804D01*
X813155Y235868D01*
X813026Y235928D01*
X812895Y235985D01*
X812763Y236038D01*
X812629Y236088D01*
X812494Y236133D01*
X812358Y236176D01*
X812221Y236214D01*
X812082Y236249D01*
X811943Y236280D01*
X811803Y236307D01*
X811663Y236330D01*
X811521Y236350D01*
X811379Y236365D01*
X811237Y236377D01*
X811095Y236385D01*
X810952Y236389D01*
X810810Y236389D01*
X810667Y236385D01*
X810525Y236377D01*
X810383Y236365D01*
X810241Y236350D01*
X810099Y236330D01*
X809959Y236307D01*
X809819Y236280D01*
X809680Y236249D01*
X809541Y236214D01*
X809404Y236176D01*
X809268Y236133D01*
X809133Y236088D01*
X808999Y236038D01*
X808867Y235985D01*
X808736Y235928D01*
X808607Y235868D01*
X808479Y235804D01*
X808353Y235736D01*
X808229Y235666D01*
X808108Y235591D01*
X807988Y235514D01*
X807870Y235433D01*
X807755Y235350D01*
X807642Y235263D01*
X807531Y235173D01*
X807423Y235080D01*
X807317Y234984D01*
X807214Y234885D01*
X807114Y234783D01*
X807017Y234679D01*
X806923Y234572D01*
X806831Y234463D01*
X806743Y234351D01*
X806657Y234237D01*
X806575Y234120D01*
X806496Y234002D01*
X806420Y233881D01*
X806348Y233758D01*
X806279Y233633D01*
X806213Y233506D01*
X806151Y233378D01*
X806092Y233248D01*
X806037Y233116D01*
X805986Y232983D01*
X805938Y232849D01*
X805894Y232713D01*
X805854Y232577D01*
X805817Y232439D01*
X805784Y232300D01*
X805755Y232160D01*
X805730Y232020D01*
X805709Y231879D01*
X805691Y231737D01*
X805678Y231595D01*
X805668Y231453D01*
X805662Y231311D01*
X805660Y231168D01*
X797306Y232213D02*
X797306Y225947D01*
X797306Y232213D02*
X797308Y232340D01*
X797314Y232468D01*
X797323Y232595D01*
X797337Y232721D01*
X797354Y232848D01*
X797376Y232973D01*
X797401Y233098D01*
X797430Y233222D01*
X797462Y233345D01*
X797499Y233467D01*
X797539Y233588D01*
X797583Y233708D01*
X797630Y233826D01*
X797681Y233943D01*
X797736Y234058D01*
X797794Y234171D01*
X797855Y234283D01*
X797920Y234393D01*
X797988Y234500D01*
X798059Y234606D01*
X798134Y234709D01*
X798212Y234810D01*
X798292Y234909D01*
X798376Y235005D01*
X798463Y235098D01*
X798552Y235189D01*
X798644Y235277D01*
X798739Y235362D01*
X798836Y235444D01*
X798936Y235524D01*
X799038Y235600D01*
X799143Y235673D01*
X799249Y235742D01*
X799358Y235809D01*
X799468Y235872D01*
X799581Y235932D01*
X799695Y235988D01*
X799811Y236041D01*
X799929Y236090D01*
X800048Y236136D01*
X800168Y236178D01*
X800290Y236216D01*
X800412Y236250D01*
X800536Y236281D01*
X800660Y236308D01*
X800786Y236331D01*
X800911Y236351D01*
X801038Y236366D01*
X801165Y236378D01*
X801292Y236386D01*
X801419Y236390D01*
X801547Y236390D01*
X801674Y236386D01*
X801801Y236378D01*
X801928Y236366D01*
X802055Y236351D01*
X802180Y236331D01*
X802306Y236308D01*
X802430Y236281D01*
X802554Y236250D01*
X802676Y236216D01*
X802798Y236178D01*
X802918Y236136D01*
X803037Y236090D01*
X803155Y236041D01*
X803271Y235988D01*
X803385Y235932D01*
X803498Y235872D01*
X803608Y235809D01*
X803717Y235742D01*
X803823Y235673D01*
X803928Y235600D01*
X804030Y235524D01*
X804130Y235444D01*
X804227Y235362D01*
X804322Y235277D01*
X804414Y235189D01*
X804503Y235098D01*
X804590Y235005D01*
X804674Y234909D01*
X804754Y234810D01*
X804832Y234709D01*
X804907Y234606D01*
X804978Y234500D01*
X805046Y234393D01*
X805111Y234283D01*
X805172Y234171D01*
X805230Y234058D01*
X805285Y233943D01*
X805336Y233826D01*
X805383Y233708D01*
X805427Y233588D01*
X805467Y233467D01*
X805504Y233345D01*
X805536Y233222D01*
X805565Y233098D01*
X805590Y232973D01*
X805612Y232848D01*
X805629Y232721D01*
X805643Y232595D01*
X805652Y232468D01*
X805658Y232340D01*
X805660Y232213D01*
X805660Y228036D01*
D12*
X400050Y762000D02*
X387350Y762000D01*
X400050Y762000D02*
X406400Y755650D01*
X406400Y742950D01*
X400050Y736600D01*
X406400Y755650D02*
X412750Y762000D01*
X425450Y762000D01*
X431800Y755650D01*
X431800Y742950D01*
X425450Y736600D01*
X412750Y736600D01*
X406400Y742950D01*
X381000Y742950D02*
X381000Y755650D01*
X387350Y762000D01*
X381000Y742950D02*
X387350Y736600D01*
X400050Y736600D01*
X431800Y755650D02*
X438150Y762000D01*
X450850Y762000D01*
X457200Y755650D01*
X457200Y742950D01*
X450850Y736600D01*
X438150Y736600D01*
X431800Y742950D01*
D10*
X380873Y768223D02*
X380873Y779653D01*
X385953Y779653D01*
X385953Y774573D02*
X380873Y774573D01*
X392786Y779653D02*
X392786Y768223D01*
X389611Y779653D02*
X395961Y779653D01*
X400660Y779653D02*
X400660Y768223D01*
X400660Y779653D02*
X403835Y779653D01*
X403946Y779651D01*
X404056Y779645D01*
X404167Y779636D01*
X404277Y779622D01*
X404386Y779605D01*
X404495Y779584D01*
X404603Y779559D01*
X404710Y779530D01*
X404816Y779498D01*
X404921Y779462D01*
X405024Y779422D01*
X405126Y779379D01*
X405227Y779332D01*
X405326Y779281D01*
X405423Y779228D01*
X405517Y779171D01*
X405610Y779110D01*
X405701Y779047D01*
X405790Y778980D01*
X405876Y778910D01*
X405959Y778837D01*
X406041Y778762D01*
X406119Y778684D01*
X406194Y778602D01*
X406267Y778519D01*
X406337Y778433D01*
X406404Y778344D01*
X406467Y778253D01*
X406528Y778160D01*
X406585Y778066D01*
X406638Y777969D01*
X406689Y777870D01*
X406736Y777769D01*
X406779Y777667D01*
X406819Y777564D01*
X406855Y777459D01*
X406887Y777353D01*
X406916Y777246D01*
X406941Y777138D01*
X406962Y777029D01*
X406979Y776920D01*
X406993Y776810D01*
X407002Y776699D01*
X407008Y776589D01*
X407010Y776478D01*
X407010Y771398D01*
X407008Y771287D01*
X407002Y771177D01*
X406993Y771066D01*
X406979Y770956D01*
X406962Y770847D01*
X406941Y770738D01*
X406916Y770630D01*
X406887Y770523D01*
X406855Y770417D01*
X406819Y770312D01*
X406779Y770209D01*
X406736Y770107D01*
X406689Y770006D01*
X406638Y769907D01*
X406585Y769811D01*
X406528Y769716D01*
X406467Y769623D01*
X406404Y769532D01*
X406337Y769443D01*
X406267Y769357D01*
X406194Y769274D01*
X406119Y769192D01*
X406041Y769114D01*
X405959Y769039D01*
X405876Y768966D01*
X405790Y768896D01*
X405701Y768829D01*
X405610Y768766D01*
X405517Y768705D01*
X405423Y768648D01*
X405326Y768595D01*
X405227Y768544D01*
X405126Y768497D01*
X405024Y768454D01*
X404921Y768414D01*
X404816Y768378D01*
X404710Y768346D01*
X404603Y768317D01*
X404495Y768292D01*
X404386Y768271D01*
X404277Y768254D01*
X404167Y768240D01*
X404056Y768231D01*
X403946Y768225D01*
X403835Y768223D01*
X400660Y768223D01*
X413360Y768223D02*
X413360Y779653D01*
X412090Y768223D02*
X414630Y768223D01*
X414630Y779653D02*
X412090Y779653D01*
X418821Y766953D02*
X423901Y766953D01*
X428854Y768223D02*
X428854Y779653D01*
X428854Y774573D02*
X435204Y774573D01*
X435204Y779653D02*
X435204Y768223D01*
X441071Y768223D02*
X446151Y768223D01*
X441071Y768223D02*
X441071Y779653D01*
X446151Y779653D01*
X444881Y774573D02*
X441071Y774573D01*
X449936Y768223D02*
X453746Y779653D01*
X457556Y768223D01*
X456603Y771081D02*
X450888Y771081D01*
X462382Y768223D02*
X462382Y779653D01*
X465557Y779653D01*
X465668Y779651D01*
X465778Y779645D01*
X465889Y779636D01*
X465999Y779622D01*
X466108Y779605D01*
X466217Y779584D01*
X466325Y779559D01*
X466432Y779530D01*
X466538Y779498D01*
X466643Y779462D01*
X466746Y779422D01*
X466848Y779379D01*
X466949Y779332D01*
X467048Y779281D01*
X467145Y779228D01*
X467239Y779171D01*
X467332Y779110D01*
X467423Y779047D01*
X467512Y778980D01*
X467598Y778910D01*
X467681Y778837D01*
X467763Y778762D01*
X467841Y778684D01*
X467916Y778602D01*
X467989Y778519D01*
X468059Y778433D01*
X468126Y778344D01*
X468189Y778253D01*
X468250Y778160D01*
X468307Y778066D01*
X468360Y777969D01*
X468411Y777870D01*
X468458Y777769D01*
X468501Y777667D01*
X468541Y777564D01*
X468577Y777459D01*
X468609Y777353D01*
X468638Y777246D01*
X468663Y777138D01*
X468684Y777029D01*
X468701Y776920D01*
X468715Y776810D01*
X468724Y776699D01*
X468730Y776589D01*
X468732Y776478D01*
X468732Y771398D01*
X468730Y771287D01*
X468724Y771177D01*
X468715Y771066D01*
X468701Y770956D01*
X468684Y770847D01*
X468663Y770738D01*
X468638Y770630D01*
X468609Y770523D01*
X468577Y770417D01*
X468541Y770312D01*
X468501Y770209D01*
X468458Y770107D01*
X468411Y770006D01*
X468360Y769907D01*
X468307Y769811D01*
X468250Y769716D01*
X468189Y769623D01*
X468126Y769532D01*
X468059Y769443D01*
X467989Y769357D01*
X467916Y769274D01*
X467841Y769192D01*
X467763Y769114D01*
X467681Y769039D01*
X467598Y768966D01*
X467512Y768896D01*
X467423Y768829D01*
X467332Y768766D01*
X467239Y768705D01*
X467145Y768648D01*
X467048Y768595D01*
X466949Y768544D01*
X466848Y768497D01*
X466746Y768454D01*
X466643Y768414D01*
X466538Y768378D01*
X466432Y768346D01*
X466325Y768317D01*
X466217Y768292D01*
X466108Y768271D01*
X465999Y768254D01*
X465889Y768240D01*
X465778Y768231D01*
X465668Y768225D01*
X465557Y768223D01*
X462382Y768223D01*
X474599Y768223D02*
X479679Y768223D01*
X474599Y768223D02*
X474599Y779653D01*
X479679Y779653D01*
X478409Y774573D02*
X474599Y774573D01*
X484562Y779653D02*
X484562Y768223D01*
X484562Y779653D02*
X487737Y779653D01*
X487848Y779651D01*
X487958Y779645D01*
X488069Y779636D01*
X488179Y779622D01*
X488288Y779605D01*
X488397Y779584D01*
X488505Y779559D01*
X488612Y779530D01*
X488718Y779498D01*
X488823Y779462D01*
X488926Y779422D01*
X489028Y779379D01*
X489129Y779332D01*
X489228Y779281D01*
X489325Y779228D01*
X489419Y779171D01*
X489512Y779110D01*
X489603Y779047D01*
X489692Y778980D01*
X489778Y778910D01*
X489861Y778837D01*
X489943Y778762D01*
X490021Y778684D01*
X490096Y778602D01*
X490169Y778519D01*
X490239Y778433D01*
X490306Y778344D01*
X490369Y778253D01*
X490430Y778160D01*
X490487Y778065D01*
X490540Y777969D01*
X490591Y777870D01*
X490638Y777769D01*
X490681Y777667D01*
X490721Y777564D01*
X490757Y777459D01*
X490789Y777353D01*
X490818Y777246D01*
X490843Y777138D01*
X490864Y777029D01*
X490881Y776920D01*
X490895Y776810D01*
X490904Y776699D01*
X490910Y776589D01*
X490912Y776478D01*
X490910Y776367D01*
X490904Y776257D01*
X490895Y776146D01*
X490881Y776036D01*
X490864Y775927D01*
X490843Y775818D01*
X490818Y775710D01*
X490789Y775603D01*
X490757Y775497D01*
X490721Y775392D01*
X490681Y775289D01*
X490638Y775187D01*
X490591Y775086D01*
X490540Y774987D01*
X490487Y774891D01*
X490430Y774796D01*
X490369Y774703D01*
X490306Y774612D01*
X490239Y774523D01*
X490169Y774437D01*
X490096Y774354D01*
X490021Y774272D01*
X489943Y774194D01*
X489861Y774119D01*
X489778Y774046D01*
X489692Y773976D01*
X489603Y773909D01*
X489512Y773846D01*
X489419Y773785D01*
X489325Y773728D01*
X489228Y773675D01*
X489129Y773624D01*
X489028Y773577D01*
X488926Y773534D01*
X488823Y773494D01*
X488718Y773458D01*
X488612Y773426D01*
X488505Y773397D01*
X488397Y773372D01*
X488288Y773351D01*
X488179Y773334D01*
X488069Y773320D01*
X487958Y773311D01*
X487848Y773305D01*
X487737Y773303D01*
X484562Y773303D01*
X488372Y773303D02*
X490912Y768223D01*
D12*
X310642Y420068D02*
X134112Y420068D01*
X310642Y420068D02*
X310642Y494332D01*
X134112Y494332D01*
X134112Y420068D01*
X138176Y425704D02*
X138178Y425850D01*
X138184Y425995D01*
X138194Y426141D01*
X138208Y426286D01*
X138226Y426430D01*
X138247Y426574D01*
X138273Y426718D01*
X138303Y426860D01*
X138336Y427002D01*
X138374Y427143D01*
X138415Y427283D01*
X138460Y427421D01*
X138509Y427559D01*
X138561Y427695D01*
X138618Y427829D01*
X138677Y427962D01*
X138741Y428093D01*
X138808Y428222D01*
X138879Y428350D01*
X138953Y428475D01*
X139030Y428599D01*
X139111Y428720D01*
X139195Y428839D01*
X139282Y428956D01*
X139372Y429070D01*
X139466Y429182D01*
X139562Y429291D01*
X139662Y429398D01*
X139764Y429501D01*
X139869Y429602D01*
X139977Y429700D01*
X140088Y429795D01*
X140201Y429887D01*
X140316Y429976D01*
X140434Y430062D01*
X140554Y430144D01*
X140677Y430223D01*
X140801Y430299D01*
X140928Y430371D01*
X141056Y430440D01*
X141186Y430505D01*
X141318Y430567D01*
X141452Y430625D01*
X141587Y430679D01*
X141724Y430730D01*
X141862Y430777D01*
X142001Y430820D01*
X142141Y430859D01*
X142283Y430895D01*
X142425Y430926D01*
X142568Y430954D01*
X142712Y430978D01*
X142856Y430998D01*
X143001Y431014D01*
X143146Y431026D01*
X143291Y431034D01*
X143437Y431038D01*
X143583Y431038D01*
X143729Y431034D01*
X143874Y431026D01*
X144019Y431014D01*
X144164Y430998D01*
X144308Y430978D01*
X144452Y430954D01*
X144595Y430926D01*
X144737Y430895D01*
X144879Y430859D01*
X145019Y430820D01*
X145158Y430777D01*
X145296Y430730D01*
X145433Y430679D01*
X145568Y430625D01*
X145702Y430567D01*
X145834Y430505D01*
X145964Y430440D01*
X146092Y430371D01*
X146219Y430299D01*
X146343Y430223D01*
X146466Y430144D01*
X146586Y430062D01*
X146704Y429976D01*
X146819Y429887D01*
X146932Y429795D01*
X147043Y429700D01*
X147151Y429602D01*
X147256Y429501D01*
X147358Y429398D01*
X147458Y429291D01*
X147554Y429182D01*
X147648Y429070D01*
X147738Y428956D01*
X147825Y428839D01*
X147909Y428720D01*
X147990Y428599D01*
X148067Y428475D01*
X148141Y428350D01*
X148212Y428222D01*
X148279Y428093D01*
X148343Y427962D01*
X148402Y427829D01*
X148459Y427695D01*
X148511Y427559D01*
X148560Y427421D01*
X148605Y427283D01*
X148646Y427143D01*
X148684Y427002D01*
X148717Y426860D01*
X148747Y426718D01*
X148773Y426574D01*
X148794Y426430D01*
X148812Y426286D01*
X148826Y426141D01*
X148836Y425995D01*
X148842Y425850D01*
X148844Y425704D01*
X148842Y425558D01*
X148836Y425413D01*
X148826Y425267D01*
X148812Y425122D01*
X148794Y424978D01*
X148773Y424834D01*
X148747Y424690D01*
X148717Y424548D01*
X148684Y424406D01*
X148646Y424265D01*
X148605Y424125D01*
X148560Y423987D01*
X148511Y423849D01*
X148459Y423713D01*
X148402Y423579D01*
X148343Y423446D01*
X148279Y423315D01*
X148212Y423186D01*
X148141Y423058D01*
X148067Y422933D01*
X147990Y422809D01*
X147909Y422688D01*
X147825Y422569D01*
X147738Y422452D01*
X147648Y422338D01*
X147554Y422226D01*
X147458Y422117D01*
X147358Y422010D01*
X147256Y421907D01*
X147151Y421806D01*
X147043Y421708D01*
X146932Y421613D01*
X146819Y421521D01*
X146704Y421432D01*
X146586Y421346D01*
X146466Y421264D01*
X146343Y421185D01*
X146219Y421109D01*
X146092Y421037D01*
X145964Y420968D01*
X145834Y420903D01*
X145702Y420841D01*
X145568Y420783D01*
X145433Y420729D01*
X145296Y420678D01*
X145158Y420631D01*
X145019Y420588D01*
X144879Y420549D01*
X144737Y420513D01*
X144595Y420482D01*
X144452Y420454D01*
X144308Y420430D01*
X144164Y420410D01*
X144019Y420394D01*
X143874Y420382D01*
X143729Y420374D01*
X143583Y420370D01*
X143437Y420370D01*
X143291Y420374D01*
X143146Y420382D01*
X143001Y420394D01*
X142856Y420410D01*
X142712Y420430D01*
X142568Y420454D01*
X142425Y420482D01*
X142283Y420513D01*
X142141Y420549D01*
X142001Y420588D01*
X141862Y420631D01*
X141724Y420678D01*
X141587Y420729D01*
X141452Y420783D01*
X141318Y420841D01*
X141186Y420903D01*
X141056Y420968D01*
X140928Y421037D01*
X140801Y421109D01*
X140677Y421185D01*
X140554Y421264D01*
X140434Y421346D01*
X140316Y421432D01*
X140201Y421521D01*
X140088Y421613D01*
X139977Y421708D01*
X139869Y421806D01*
X139764Y421907D01*
X139662Y422010D01*
X139562Y422117D01*
X139466Y422226D01*
X139372Y422338D01*
X139282Y422452D01*
X139195Y422569D01*
X139111Y422688D01*
X139030Y422809D01*
X138953Y422933D01*
X138879Y423058D01*
X138808Y423186D01*
X138741Y423315D01*
X138677Y423446D01*
X138618Y423579D01*
X138561Y423713D01*
X138509Y423849D01*
X138460Y423987D01*
X138415Y424125D01*
X138374Y424265D01*
X138336Y424406D01*
X138303Y424548D01*
X138273Y424690D01*
X138247Y424834D01*
X138226Y424978D01*
X138208Y425122D01*
X138194Y425267D01*
X138184Y425413D01*
X138178Y425558D01*
X138176Y425704D01*
D18*
X129921Y419227D02*
X113919Y419227D01*
X129921Y417449D02*
X129921Y421005D01*
X113919Y421005D02*
X113919Y417449D01*
X129921Y430799D02*
X129921Y434355D01*
X129921Y430799D02*
X129919Y430683D01*
X129913Y430566D01*
X129904Y430450D01*
X129891Y430335D01*
X129874Y430220D01*
X129853Y430105D01*
X129828Y429992D01*
X129800Y429879D01*
X129768Y429767D01*
X129732Y429656D01*
X129693Y429546D01*
X129650Y429438D01*
X129604Y429331D01*
X129554Y429226D01*
X129501Y429123D01*
X129445Y429021D01*
X129385Y428921D01*
X129322Y428823D01*
X129255Y428728D01*
X129186Y428634D01*
X129114Y428543D01*
X129039Y428454D01*
X128960Y428368D01*
X128879Y428285D01*
X128796Y428204D01*
X128710Y428125D01*
X128621Y428050D01*
X128530Y427978D01*
X128436Y427909D01*
X128341Y427842D01*
X128243Y427779D01*
X128143Y427719D01*
X128041Y427663D01*
X127938Y427610D01*
X127833Y427560D01*
X127726Y427514D01*
X127618Y427471D01*
X127508Y427432D01*
X127397Y427396D01*
X127285Y427364D01*
X127172Y427336D01*
X127059Y427311D01*
X126944Y427290D01*
X126829Y427273D01*
X126714Y427260D01*
X126598Y427251D01*
X126481Y427245D01*
X126365Y427243D01*
X117475Y427243D01*
X117359Y427245D01*
X117242Y427251D01*
X117126Y427260D01*
X117011Y427273D01*
X116896Y427290D01*
X116781Y427311D01*
X116668Y427336D01*
X116555Y427364D01*
X116443Y427396D01*
X116332Y427432D01*
X116222Y427471D01*
X116114Y427514D01*
X116007Y427560D01*
X115902Y427610D01*
X115799Y427663D01*
X115697Y427719D01*
X115597Y427779D01*
X115499Y427842D01*
X115404Y427909D01*
X115310Y427978D01*
X115219Y428050D01*
X115130Y428125D01*
X115044Y428204D01*
X114961Y428285D01*
X114880Y428368D01*
X114801Y428454D01*
X114726Y428543D01*
X114654Y428634D01*
X114585Y428728D01*
X114518Y428823D01*
X114455Y428921D01*
X114395Y429021D01*
X114339Y429123D01*
X114286Y429226D01*
X114236Y429331D01*
X114190Y429438D01*
X114147Y429546D01*
X114108Y429656D01*
X114072Y429767D01*
X114040Y429879D01*
X114012Y429992D01*
X113987Y430105D01*
X113966Y430220D01*
X113949Y430335D01*
X113936Y430450D01*
X113927Y430566D01*
X113921Y430683D01*
X113919Y430799D01*
X113919Y434355D01*
X113919Y445203D02*
X113921Y445329D01*
X113927Y445454D01*
X113937Y445580D01*
X113951Y445704D01*
X113968Y445829D01*
X113990Y445953D01*
X114015Y446076D01*
X114045Y446198D01*
X114078Y446319D01*
X114115Y446439D01*
X114156Y446558D01*
X114200Y446676D01*
X114248Y446792D01*
X114300Y446907D01*
X114355Y447019D01*
X114414Y447130D01*
X114476Y447240D01*
X114542Y447347D01*
X114611Y447452D01*
X114683Y447555D01*
X114759Y447655D01*
X114837Y447753D01*
X114919Y447849D01*
X115003Y447942D01*
X115091Y448032D01*
X115181Y448120D01*
X115274Y448204D01*
X115370Y448286D01*
X115468Y448364D01*
X115568Y448440D01*
X115671Y448512D01*
X115776Y448581D01*
X115883Y448647D01*
X115993Y448709D01*
X116104Y448768D01*
X116216Y448823D01*
X116331Y448875D01*
X116447Y448923D01*
X116565Y448967D01*
X116684Y449008D01*
X116804Y449045D01*
X116925Y449078D01*
X117047Y449108D01*
X117170Y449133D01*
X117294Y449155D01*
X117419Y449172D01*
X117543Y449186D01*
X117669Y449196D01*
X117794Y449202D01*
X117920Y449204D01*
X113919Y445203D02*
X113921Y445062D01*
X113927Y444922D01*
X113936Y444782D01*
X113950Y444642D01*
X113967Y444503D01*
X113988Y444364D01*
X114013Y444225D01*
X114041Y444088D01*
X114074Y443951D01*
X114110Y443815D01*
X114150Y443680D01*
X114193Y443547D01*
X114240Y443414D01*
X114291Y443283D01*
X114345Y443154D01*
X114403Y443026D01*
X114464Y442899D01*
X114529Y442774D01*
X114597Y442652D01*
X114668Y442531D01*
X114743Y442411D01*
X114821Y442295D01*
X114902Y442180D01*
X114986Y442067D01*
X115074Y441957D01*
X115164Y441849D01*
X115257Y441744D01*
X115353Y441642D01*
X115452Y441542D01*
X115553Y441444D01*
X115657Y441350D01*
X115764Y441258D01*
X115873Y441170D01*
X115984Y441084D01*
X116098Y441002D01*
X116214Y440922D01*
X116332Y440846D01*
X116452Y440773D01*
X116574Y440704D01*
X116698Y440637D01*
X116824Y440574D01*
X116951Y440515D01*
X117080Y440459D01*
X117210Y440407D01*
X117342Y440358D01*
X117475Y440313D01*
X121032Y447869D02*
X120941Y447961D01*
X120848Y448051D01*
X120753Y448137D01*
X120655Y448221D01*
X120554Y448301D01*
X120451Y448379D01*
X120346Y448453D01*
X120238Y448524D01*
X120129Y448592D01*
X120017Y448656D01*
X119904Y448718D01*
X119789Y448775D01*
X119672Y448830D01*
X119553Y448881D01*
X119433Y448928D01*
X119312Y448971D01*
X119190Y449011D01*
X119066Y449047D01*
X118941Y449080D01*
X118816Y449109D01*
X118689Y449134D01*
X118562Y449155D01*
X118434Y449172D01*
X118306Y449186D01*
X118178Y449195D01*
X118049Y449201D01*
X117920Y449203D01*
X121031Y447870D02*
X129921Y440313D01*
X129921Y449203D01*
D19*
X149800Y192100D02*
X205800Y192100D01*
X149800Y192100D02*
X149800Y265100D01*
X205800Y265100D01*
X205800Y192100D01*
X192972Y201600D02*
X192974Y201706D01*
X192980Y201811D01*
X192990Y201917D01*
X193004Y202021D01*
X193021Y202126D01*
X193043Y202229D01*
X193068Y202332D01*
X193098Y202434D01*
X193131Y202534D01*
X193167Y202633D01*
X193208Y202731D01*
X193252Y202827D01*
X193300Y202921D01*
X193351Y203014D01*
X193405Y203105D01*
X193463Y203193D01*
X193525Y203279D01*
X193589Y203363D01*
X193656Y203445D01*
X193727Y203524D01*
X193800Y203600D01*
X193876Y203673D01*
X193955Y203744D01*
X194037Y203811D01*
X194121Y203875D01*
X194207Y203937D01*
X194295Y203995D01*
X194386Y204049D01*
X194479Y204100D01*
X194573Y204148D01*
X194669Y204192D01*
X194767Y204233D01*
X194866Y204269D01*
X194966Y204302D01*
X195068Y204332D01*
X195171Y204357D01*
X195274Y204379D01*
X195379Y204396D01*
X195483Y204410D01*
X195589Y204420D01*
X195694Y204426D01*
X195800Y204428D01*
X195906Y204426D01*
X196011Y204420D01*
X196117Y204410D01*
X196221Y204396D01*
X196326Y204379D01*
X196429Y204357D01*
X196532Y204332D01*
X196634Y204302D01*
X196734Y204269D01*
X196833Y204233D01*
X196931Y204192D01*
X197027Y204148D01*
X197121Y204100D01*
X197214Y204049D01*
X197305Y203995D01*
X197393Y203937D01*
X197479Y203875D01*
X197563Y203811D01*
X197645Y203744D01*
X197724Y203673D01*
X197800Y203600D01*
X197873Y203524D01*
X197944Y203445D01*
X198011Y203363D01*
X198075Y203279D01*
X198137Y203193D01*
X198195Y203105D01*
X198249Y203014D01*
X198300Y202921D01*
X198348Y202827D01*
X198392Y202731D01*
X198433Y202633D01*
X198469Y202534D01*
X198502Y202434D01*
X198532Y202332D01*
X198557Y202229D01*
X198579Y202126D01*
X198596Y202021D01*
X198610Y201917D01*
X198620Y201811D01*
X198626Y201706D01*
X198628Y201600D01*
X198626Y201494D01*
X198620Y201389D01*
X198610Y201283D01*
X198596Y201179D01*
X198579Y201074D01*
X198557Y200971D01*
X198532Y200868D01*
X198502Y200766D01*
X198469Y200666D01*
X198433Y200567D01*
X198392Y200469D01*
X198348Y200373D01*
X198300Y200279D01*
X198249Y200186D01*
X198195Y200095D01*
X198137Y200007D01*
X198075Y199921D01*
X198011Y199837D01*
X197944Y199755D01*
X197873Y199676D01*
X197800Y199600D01*
X197724Y199527D01*
X197645Y199456D01*
X197563Y199389D01*
X197479Y199325D01*
X197393Y199263D01*
X197305Y199205D01*
X197214Y199151D01*
X197121Y199100D01*
X197027Y199052D01*
X196931Y199008D01*
X196833Y198967D01*
X196734Y198931D01*
X196634Y198898D01*
X196532Y198868D01*
X196429Y198843D01*
X196326Y198821D01*
X196221Y198804D01*
X196117Y198790D01*
X196011Y198780D01*
X195906Y198774D01*
X195800Y198772D01*
X195694Y198774D01*
X195589Y198780D01*
X195483Y198790D01*
X195379Y198804D01*
X195274Y198821D01*
X195171Y198843D01*
X195068Y198868D01*
X194966Y198898D01*
X194866Y198931D01*
X194767Y198967D01*
X194669Y199008D01*
X194573Y199052D01*
X194479Y199100D01*
X194386Y199151D01*
X194295Y199205D01*
X194207Y199263D01*
X194121Y199325D01*
X194037Y199389D01*
X193955Y199456D01*
X193876Y199527D01*
X193800Y199600D01*
X193727Y199676D01*
X193656Y199755D01*
X193589Y199837D01*
X193525Y199921D01*
X193463Y200007D01*
X193405Y200095D01*
X193351Y200186D01*
X193300Y200279D01*
X193252Y200373D01*
X193208Y200469D01*
X193167Y200567D01*
X193131Y200666D01*
X193098Y200766D01*
X193068Y200868D01*
X193043Y200971D01*
X193021Y201074D01*
X193004Y201179D01*
X192990Y201283D01*
X192980Y201389D01*
X192974Y201494D01*
X192972Y201600D01*
X195800Y199600D02*
X197800Y202600D01*
X195800Y199600D02*
X193800Y201600D01*
X194800Y203600D01*
X197800Y202600D01*
X195800Y201600D01*
X214800Y190600D02*
X214802Y190663D01*
X214808Y190725D01*
X214818Y190787D01*
X214831Y190849D01*
X214849Y190909D01*
X214870Y190968D01*
X214895Y191026D01*
X214924Y191082D01*
X214956Y191136D01*
X214991Y191188D01*
X215029Y191237D01*
X215071Y191285D01*
X215115Y191329D01*
X215163Y191371D01*
X215212Y191409D01*
X215264Y191444D01*
X215318Y191476D01*
X215374Y191505D01*
X215432Y191530D01*
X215491Y191551D01*
X215551Y191569D01*
X215613Y191582D01*
X215675Y191592D01*
X215737Y191598D01*
X215800Y191600D01*
X215863Y191598D01*
X215925Y191592D01*
X215987Y191582D01*
X216049Y191569D01*
X216109Y191551D01*
X216168Y191530D01*
X216226Y191505D01*
X216282Y191476D01*
X216336Y191444D01*
X216388Y191409D01*
X216437Y191371D01*
X216485Y191329D01*
X216529Y191285D01*
X216571Y191237D01*
X216609Y191188D01*
X216644Y191136D01*
X216676Y191082D01*
X216705Y191026D01*
X216730Y190968D01*
X216751Y190909D01*
X216769Y190849D01*
X216782Y190787D01*
X216792Y190725D01*
X216798Y190663D01*
X216800Y190600D01*
X216798Y190537D01*
X216792Y190475D01*
X216782Y190413D01*
X216769Y190351D01*
X216751Y190291D01*
X216730Y190232D01*
X216705Y190174D01*
X216676Y190118D01*
X216644Y190064D01*
X216609Y190012D01*
X216571Y189963D01*
X216529Y189915D01*
X216485Y189871D01*
X216437Y189829D01*
X216388Y189791D01*
X216336Y189756D01*
X216282Y189724D01*
X216226Y189695D01*
X216168Y189670D01*
X216109Y189649D01*
X216049Y189631D01*
X215987Y189618D01*
X215925Y189608D01*
X215863Y189602D01*
X215800Y189600D01*
X215737Y189602D01*
X215675Y189608D01*
X215613Y189618D01*
X215551Y189631D01*
X215491Y189649D01*
X215432Y189670D01*
X215374Y189695D01*
X215318Y189724D01*
X215264Y189756D01*
X215212Y189791D01*
X215163Y189829D01*
X215115Y189871D01*
X215071Y189915D01*
X215029Y189963D01*
X214991Y190012D01*
X214956Y190064D01*
X214924Y190118D01*
X214895Y190174D01*
X214870Y190232D01*
X214849Y190291D01*
X214831Y190351D01*
X214818Y190413D01*
X214808Y190475D01*
X214802Y190537D01*
X214800Y190600D01*
D11*
X187002Y187037D02*
X187002Y178586D01*
X187003Y178586D02*
X187005Y178474D01*
X187011Y178362D01*
X187020Y178250D01*
X187034Y178139D01*
X187051Y178028D01*
X187072Y177918D01*
X187097Y177808D01*
X187126Y177700D01*
X187159Y177592D01*
X187195Y177486D01*
X187235Y177381D01*
X187278Y177278D01*
X187325Y177176D01*
X187375Y177076D01*
X187429Y176977D01*
X187486Y176881D01*
X187547Y176786D01*
X187611Y176694D01*
X187677Y176604D01*
X187747Y176516D01*
X187820Y176431D01*
X187896Y176348D01*
X187975Y176268D01*
X188056Y176191D01*
X188140Y176117D01*
X188227Y176045D01*
X188316Y175977D01*
X188407Y175911D01*
X188500Y175849D01*
X188596Y175790D01*
X188693Y175735D01*
X188793Y175683D01*
X188894Y175634D01*
X188996Y175589D01*
X189101Y175547D01*
X189206Y175509D01*
X189313Y175475D01*
X189421Y175444D01*
X189530Y175417D01*
X189640Y175394D01*
X189750Y175375D01*
X189861Y175360D01*
X189973Y175348D01*
X190085Y175340D01*
X190197Y175336D01*
X190309Y175336D01*
X190421Y175340D01*
X190533Y175348D01*
X190645Y175360D01*
X190756Y175375D01*
X190866Y175394D01*
X190976Y175417D01*
X191085Y175444D01*
X191193Y175475D01*
X191300Y175509D01*
X191405Y175547D01*
X191510Y175589D01*
X191612Y175634D01*
X191713Y175683D01*
X191813Y175735D01*
X191910Y175790D01*
X192006Y175849D01*
X192099Y175911D01*
X192190Y175977D01*
X192279Y176045D01*
X192366Y176117D01*
X192450Y176191D01*
X192531Y176268D01*
X192610Y176348D01*
X192686Y176431D01*
X192759Y176516D01*
X192829Y176604D01*
X192895Y176694D01*
X192959Y176786D01*
X193020Y176881D01*
X193077Y176977D01*
X193131Y177076D01*
X193181Y177176D01*
X193228Y177278D01*
X193271Y177381D01*
X193311Y177486D01*
X193347Y177592D01*
X193380Y177700D01*
X193409Y177808D01*
X193434Y177918D01*
X193455Y178028D01*
X193472Y178139D01*
X193486Y178250D01*
X193495Y178362D01*
X193501Y178474D01*
X193503Y178586D01*
X193503Y187037D01*
X201429Y187037D02*
X198829Y177936D01*
X205330Y177936D01*
X203380Y180536D02*
X203380Y175336D01*
D19*
X454600Y192100D02*
X510600Y192100D01*
X454600Y192100D02*
X454600Y265100D01*
X510600Y265100D01*
X510600Y192100D01*
X497772Y201600D02*
X497774Y201706D01*
X497780Y201811D01*
X497790Y201917D01*
X497804Y202021D01*
X497821Y202126D01*
X497843Y202229D01*
X497868Y202332D01*
X497898Y202434D01*
X497931Y202534D01*
X497967Y202633D01*
X498008Y202731D01*
X498052Y202827D01*
X498100Y202921D01*
X498151Y203014D01*
X498205Y203105D01*
X498263Y203193D01*
X498325Y203279D01*
X498389Y203363D01*
X498456Y203445D01*
X498527Y203524D01*
X498600Y203600D01*
X498676Y203673D01*
X498755Y203744D01*
X498837Y203811D01*
X498921Y203875D01*
X499007Y203937D01*
X499095Y203995D01*
X499186Y204049D01*
X499279Y204100D01*
X499373Y204148D01*
X499469Y204192D01*
X499567Y204233D01*
X499666Y204269D01*
X499766Y204302D01*
X499868Y204332D01*
X499971Y204357D01*
X500074Y204379D01*
X500179Y204396D01*
X500283Y204410D01*
X500389Y204420D01*
X500494Y204426D01*
X500600Y204428D01*
X500706Y204426D01*
X500811Y204420D01*
X500917Y204410D01*
X501021Y204396D01*
X501126Y204379D01*
X501229Y204357D01*
X501332Y204332D01*
X501434Y204302D01*
X501534Y204269D01*
X501633Y204233D01*
X501731Y204192D01*
X501827Y204148D01*
X501921Y204100D01*
X502014Y204049D01*
X502105Y203995D01*
X502193Y203937D01*
X502279Y203875D01*
X502363Y203811D01*
X502445Y203744D01*
X502524Y203673D01*
X502600Y203600D01*
X502673Y203524D01*
X502744Y203445D01*
X502811Y203363D01*
X502875Y203279D01*
X502937Y203193D01*
X502995Y203105D01*
X503049Y203014D01*
X503100Y202921D01*
X503148Y202827D01*
X503192Y202731D01*
X503233Y202633D01*
X503269Y202534D01*
X503302Y202434D01*
X503332Y202332D01*
X503357Y202229D01*
X503379Y202126D01*
X503396Y202021D01*
X503410Y201917D01*
X503420Y201811D01*
X503426Y201706D01*
X503428Y201600D01*
X503426Y201494D01*
X503420Y201389D01*
X503410Y201283D01*
X503396Y201179D01*
X503379Y201074D01*
X503357Y200971D01*
X503332Y200868D01*
X503302Y200766D01*
X503269Y200666D01*
X503233Y200567D01*
X503192Y200469D01*
X503148Y200373D01*
X503100Y200279D01*
X503049Y200186D01*
X502995Y200095D01*
X502937Y200007D01*
X502875Y199921D01*
X502811Y199837D01*
X502744Y199755D01*
X502673Y199676D01*
X502600Y199600D01*
X502524Y199527D01*
X502445Y199456D01*
X502363Y199389D01*
X502279Y199325D01*
X502193Y199263D01*
X502105Y199205D01*
X502014Y199151D01*
X501921Y199100D01*
X501827Y199052D01*
X501731Y199008D01*
X501633Y198967D01*
X501534Y198931D01*
X501434Y198898D01*
X501332Y198868D01*
X501229Y198843D01*
X501126Y198821D01*
X501021Y198804D01*
X500917Y198790D01*
X500811Y198780D01*
X500706Y198774D01*
X500600Y198772D01*
X500494Y198774D01*
X500389Y198780D01*
X500283Y198790D01*
X500179Y198804D01*
X500074Y198821D01*
X499971Y198843D01*
X499868Y198868D01*
X499766Y198898D01*
X499666Y198931D01*
X499567Y198967D01*
X499469Y199008D01*
X499373Y199052D01*
X499279Y199100D01*
X499186Y199151D01*
X499095Y199205D01*
X499007Y199263D01*
X498921Y199325D01*
X498837Y199389D01*
X498755Y199456D01*
X498676Y199527D01*
X498600Y199600D01*
X498527Y199676D01*
X498456Y199755D01*
X498389Y199837D01*
X498325Y199921D01*
X498263Y200007D01*
X498205Y200095D01*
X498151Y200186D01*
X498100Y200279D01*
X498052Y200373D01*
X498008Y200469D01*
X497967Y200567D01*
X497931Y200666D01*
X497898Y200766D01*
X497868Y200868D01*
X497843Y200971D01*
X497821Y201074D01*
X497804Y201179D01*
X497790Y201283D01*
X497780Y201389D01*
X497774Y201494D01*
X497772Y201600D01*
X500600Y199600D02*
X502600Y202600D01*
X500600Y199600D02*
X498600Y201600D01*
X499600Y203600D01*
X502600Y202600D01*
X500600Y201600D01*
X519600Y190600D02*
X519602Y190663D01*
X519608Y190725D01*
X519618Y190787D01*
X519631Y190849D01*
X519649Y190909D01*
X519670Y190968D01*
X519695Y191026D01*
X519724Y191082D01*
X519756Y191136D01*
X519791Y191188D01*
X519829Y191237D01*
X519871Y191285D01*
X519915Y191329D01*
X519963Y191371D01*
X520012Y191409D01*
X520064Y191444D01*
X520118Y191476D01*
X520174Y191505D01*
X520232Y191530D01*
X520291Y191551D01*
X520351Y191569D01*
X520413Y191582D01*
X520475Y191592D01*
X520537Y191598D01*
X520600Y191600D01*
X520663Y191598D01*
X520725Y191592D01*
X520787Y191582D01*
X520849Y191569D01*
X520909Y191551D01*
X520968Y191530D01*
X521026Y191505D01*
X521082Y191476D01*
X521136Y191444D01*
X521188Y191409D01*
X521237Y191371D01*
X521285Y191329D01*
X521329Y191285D01*
X521371Y191237D01*
X521409Y191188D01*
X521444Y191136D01*
X521476Y191082D01*
X521505Y191026D01*
X521530Y190968D01*
X521551Y190909D01*
X521569Y190849D01*
X521582Y190787D01*
X521592Y190725D01*
X521598Y190663D01*
X521600Y190600D01*
X521598Y190537D01*
X521592Y190475D01*
X521582Y190413D01*
X521569Y190351D01*
X521551Y190291D01*
X521530Y190232D01*
X521505Y190174D01*
X521476Y190118D01*
X521444Y190064D01*
X521409Y190012D01*
X521371Y189963D01*
X521329Y189915D01*
X521285Y189871D01*
X521237Y189829D01*
X521188Y189791D01*
X521136Y189756D01*
X521082Y189724D01*
X521026Y189695D01*
X520968Y189670D01*
X520909Y189649D01*
X520849Y189631D01*
X520787Y189618D01*
X520725Y189608D01*
X520663Y189602D01*
X520600Y189600D01*
X520537Y189602D01*
X520475Y189608D01*
X520413Y189618D01*
X520351Y189631D01*
X520291Y189649D01*
X520232Y189670D01*
X520174Y189695D01*
X520118Y189724D01*
X520064Y189756D01*
X520012Y189791D01*
X519963Y189829D01*
X519915Y189871D01*
X519871Y189915D01*
X519829Y189963D01*
X519791Y190012D01*
X519756Y190064D01*
X519724Y190118D01*
X519695Y190174D01*
X519670Y190232D01*
X519649Y190291D01*
X519631Y190351D01*
X519618Y190413D01*
X519608Y190475D01*
X519602Y190537D01*
X519600Y190600D01*
D11*
X491802Y187037D02*
X491802Y178586D01*
X491803Y178586D02*
X491805Y178474D01*
X491811Y178362D01*
X491820Y178250D01*
X491834Y178139D01*
X491851Y178028D01*
X491872Y177918D01*
X491897Y177808D01*
X491926Y177700D01*
X491959Y177592D01*
X491995Y177486D01*
X492035Y177381D01*
X492078Y177278D01*
X492125Y177176D01*
X492175Y177076D01*
X492229Y176977D01*
X492286Y176881D01*
X492347Y176786D01*
X492411Y176694D01*
X492477Y176604D01*
X492547Y176516D01*
X492620Y176431D01*
X492696Y176348D01*
X492775Y176268D01*
X492856Y176191D01*
X492940Y176117D01*
X493027Y176045D01*
X493116Y175977D01*
X493207Y175911D01*
X493300Y175849D01*
X493396Y175790D01*
X493493Y175735D01*
X493593Y175683D01*
X493694Y175634D01*
X493796Y175589D01*
X493901Y175547D01*
X494006Y175509D01*
X494113Y175475D01*
X494221Y175444D01*
X494330Y175417D01*
X494440Y175394D01*
X494550Y175375D01*
X494661Y175360D01*
X494773Y175348D01*
X494885Y175340D01*
X494997Y175336D01*
X495109Y175336D01*
X495221Y175340D01*
X495333Y175348D01*
X495445Y175360D01*
X495556Y175375D01*
X495666Y175394D01*
X495776Y175417D01*
X495885Y175444D01*
X495993Y175475D01*
X496100Y175509D01*
X496205Y175547D01*
X496310Y175589D01*
X496412Y175634D01*
X496513Y175683D01*
X496613Y175735D01*
X496710Y175790D01*
X496806Y175849D01*
X496899Y175911D01*
X496990Y175977D01*
X497079Y176045D01*
X497166Y176117D01*
X497250Y176191D01*
X497331Y176268D01*
X497410Y176348D01*
X497486Y176431D01*
X497559Y176516D01*
X497629Y176604D01*
X497695Y176694D01*
X497759Y176786D01*
X497820Y176881D01*
X497877Y176977D01*
X497931Y177076D01*
X497981Y177176D01*
X498028Y177278D01*
X498071Y177381D01*
X498111Y177486D01*
X498147Y177592D01*
X498180Y177700D01*
X498209Y177808D01*
X498234Y177918D01*
X498255Y178028D01*
X498272Y178139D01*
X498286Y178250D01*
X498295Y178362D01*
X498301Y178474D01*
X498303Y178586D01*
X498303Y187037D01*
X503629Y175336D02*
X507530Y175336D01*
X507630Y175338D01*
X507729Y175344D01*
X507828Y175353D01*
X507927Y175366D01*
X508025Y175384D01*
X508122Y175404D01*
X508219Y175429D01*
X508314Y175457D01*
X508409Y175489D01*
X508502Y175524D01*
X508594Y175563D01*
X508684Y175606D01*
X508772Y175652D01*
X508859Y175701D01*
X508943Y175754D01*
X509026Y175809D01*
X509106Y175868D01*
X509184Y175930D01*
X509260Y175995D01*
X509333Y176063D01*
X509403Y176133D01*
X509471Y176206D01*
X509536Y176282D01*
X509598Y176360D01*
X509657Y176440D01*
X509712Y176523D01*
X509765Y176607D01*
X509814Y176694D01*
X509860Y176782D01*
X509903Y176872D01*
X509941Y176964D01*
X509977Y177057D01*
X510009Y177152D01*
X510037Y177247D01*
X510062Y177344D01*
X510082Y177441D01*
X510100Y177539D01*
X510113Y177638D01*
X510122Y177737D01*
X510128Y177836D01*
X510130Y177936D01*
X510130Y179236D01*
X510128Y179336D01*
X510122Y179435D01*
X510113Y179534D01*
X510100Y179633D01*
X510082Y179731D01*
X510062Y179828D01*
X510037Y179925D01*
X510009Y180020D01*
X509977Y180115D01*
X509942Y180208D01*
X509903Y180300D01*
X509860Y180390D01*
X509814Y180478D01*
X509765Y180565D01*
X509712Y180649D01*
X509657Y180732D01*
X509598Y180812D01*
X509536Y180890D01*
X509471Y180966D01*
X509403Y181039D01*
X509333Y181109D01*
X509260Y181177D01*
X509184Y181242D01*
X509106Y181304D01*
X509026Y181363D01*
X508943Y181418D01*
X508859Y181471D01*
X508772Y181520D01*
X508684Y181566D01*
X508594Y181609D01*
X508502Y181648D01*
X508409Y181683D01*
X508314Y181715D01*
X508219Y181743D01*
X508122Y181768D01*
X508025Y181788D01*
X507927Y181806D01*
X507828Y181819D01*
X507729Y181828D01*
X507630Y181834D01*
X507530Y181836D01*
X503629Y181836D01*
X503629Y187037D01*
X510130Y187037D01*
X259842Y229295D02*
X248158Y229295D01*
X248158Y232540D01*
X248160Y232653D01*
X248166Y232766D01*
X248176Y232879D01*
X248190Y232992D01*
X248207Y233104D01*
X248229Y233215D01*
X248254Y233325D01*
X248284Y233435D01*
X248317Y233543D01*
X248354Y233650D01*
X248394Y233756D01*
X248439Y233860D01*
X248487Y233963D01*
X248538Y234064D01*
X248593Y234163D01*
X248651Y234260D01*
X248713Y234355D01*
X248778Y234448D01*
X248846Y234538D01*
X248917Y234626D01*
X248992Y234712D01*
X249069Y234795D01*
X249149Y234875D01*
X249232Y234952D01*
X249318Y235027D01*
X249406Y235098D01*
X249496Y235166D01*
X249589Y235231D01*
X249684Y235293D01*
X249781Y235351D01*
X249880Y235406D01*
X249981Y235457D01*
X250084Y235505D01*
X250188Y235550D01*
X250294Y235590D01*
X250401Y235627D01*
X250509Y235660D01*
X250619Y235690D01*
X250729Y235715D01*
X250840Y235737D01*
X250952Y235754D01*
X251065Y235768D01*
X251178Y235778D01*
X251291Y235784D01*
X251404Y235786D01*
X251517Y235784D01*
X251630Y235778D01*
X251743Y235768D01*
X251856Y235754D01*
X251968Y235737D01*
X252079Y235715D01*
X252189Y235690D01*
X252299Y235660D01*
X252407Y235627D01*
X252514Y235590D01*
X252620Y235550D01*
X252724Y235505D01*
X252827Y235457D01*
X252928Y235406D01*
X253027Y235351D01*
X253124Y235293D01*
X253219Y235231D01*
X253312Y235166D01*
X253402Y235098D01*
X253490Y235027D01*
X253576Y234952D01*
X253659Y234875D01*
X253739Y234795D01*
X253816Y234712D01*
X253891Y234626D01*
X253962Y234538D01*
X254030Y234448D01*
X254095Y234355D01*
X254157Y234260D01*
X254215Y234163D01*
X254270Y234064D01*
X254321Y233963D01*
X254369Y233860D01*
X254414Y233756D01*
X254454Y233650D01*
X254491Y233543D01*
X254524Y233435D01*
X254554Y233325D01*
X254579Y233215D01*
X254601Y233104D01*
X254618Y232992D01*
X254632Y232879D01*
X254642Y232766D01*
X254648Y232653D01*
X254650Y232540D01*
X254649Y232540D02*
X254649Y229295D01*
X254649Y233189D02*
X259842Y235786D01*
X249456Y240651D02*
X248158Y240651D01*
X248158Y247142D01*
X259842Y243896D01*
X552958Y229295D02*
X564642Y229295D01*
X552958Y229295D02*
X552958Y232540D01*
X552960Y232653D01*
X552966Y232766D01*
X552976Y232879D01*
X552990Y232992D01*
X553007Y233104D01*
X553029Y233215D01*
X553054Y233325D01*
X553084Y233435D01*
X553117Y233543D01*
X553154Y233650D01*
X553194Y233756D01*
X553239Y233860D01*
X553287Y233963D01*
X553338Y234064D01*
X553393Y234163D01*
X553451Y234260D01*
X553513Y234355D01*
X553578Y234448D01*
X553646Y234538D01*
X553717Y234626D01*
X553792Y234712D01*
X553869Y234795D01*
X553949Y234875D01*
X554032Y234952D01*
X554118Y235027D01*
X554206Y235098D01*
X554296Y235166D01*
X554389Y235231D01*
X554484Y235293D01*
X554581Y235351D01*
X554680Y235406D01*
X554781Y235457D01*
X554884Y235505D01*
X554988Y235550D01*
X555094Y235590D01*
X555201Y235627D01*
X555309Y235660D01*
X555419Y235690D01*
X555529Y235715D01*
X555640Y235737D01*
X555752Y235754D01*
X555865Y235768D01*
X555978Y235778D01*
X556091Y235784D01*
X556204Y235786D01*
X556317Y235784D01*
X556430Y235778D01*
X556543Y235768D01*
X556656Y235754D01*
X556768Y235737D01*
X556879Y235715D01*
X556989Y235690D01*
X557099Y235660D01*
X557207Y235627D01*
X557314Y235590D01*
X557420Y235550D01*
X557524Y235505D01*
X557627Y235457D01*
X557728Y235406D01*
X557827Y235351D01*
X557924Y235293D01*
X558019Y235231D01*
X558112Y235166D01*
X558202Y235098D01*
X558290Y235027D01*
X558376Y234952D01*
X558459Y234875D01*
X558539Y234795D01*
X558616Y234712D01*
X558691Y234626D01*
X558762Y234538D01*
X558830Y234448D01*
X558895Y234355D01*
X558957Y234260D01*
X559015Y234163D01*
X559070Y234064D01*
X559121Y233963D01*
X559169Y233860D01*
X559214Y233756D01*
X559254Y233650D01*
X559291Y233543D01*
X559324Y233435D01*
X559354Y233325D01*
X559379Y233215D01*
X559401Y233104D01*
X559418Y232992D01*
X559432Y232879D01*
X559442Y232766D01*
X559448Y232653D01*
X559450Y232540D01*
X559449Y232540D02*
X559449Y229295D01*
X559449Y233189D02*
X564642Y235786D01*
X561396Y240650D02*
X561283Y240652D01*
X561170Y240658D01*
X561057Y240668D01*
X560944Y240682D01*
X560832Y240699D01*
X560721Y240721D01*
X560611Y240746D01*
X560501Y240776D01*
X560393Y240809D01*
X560286Y240846D01*
X560180Y240886D01*
X560076Y240931D01*
X559973Y240979D01*
X559872Y241030D01*
X559773Y241085D01*
X559676Y241143D01*
X559581Y241205D01*
X559488Y241270D01*
X559398Y241338D01*
X559310Y241409D01*
X559224Y241484D01*
X559141Y241561D01*
X559061Y241641D01*
X558984Y241724D01*
X558909Y241810D01*
X558838Y241898D01*
X558770Y241988D01*
X558705Y242081D01*
X558643Y242176D01*
X558585Y242273D01*
X558530Y242372D01*
X558479Y242473D01*
X558431Y242576D01*
X558386Y242680D01*
X558346Y242786D01*
X558309Y242893D01*
X558276Y243001D01*
X558246Y243111D01*
X558221Y243221D01*
X558199Y243332D01*
X558182Y243444D01*
X558168Y243557D01*
X558158Y243670D01*
X558152Y243783D01*
X558150Y243896D01*
X558152Y244009D01*
X558158Y244122D01*
X558168Y244235D01*
X558182Y244348D01*
X558199Y244460D01*
X558221Y244571D01*
X558246Y244681D01*
X558276Y244791D01*
X558309Y244899D01*
X558346Y245006D01*
X558386Y245112D01*
X558431Y245216D01*
X558479Y245319D01*
X558530Y245420D01*
X558585Y245519D01*
X558643Y245616D01*
X558705Y245711D01*
X558770Y245804D01*
X558838Y245894D01*
X558909Y245982D01*
X558984Y246068D01*
X559061Y246151D01*
X559141Y246231D01*
X559224Y246308D01*
X559310Y246383D01*
X559398Y246454D01*
X559488Y246522D01*
X559581Y246587D01*
X559676Y246649D01*
X559773Y246707D01*
X559872Y246762D01*
X559973Y246813D01*
X560076Y246861D01*
X560180Y246906D01*
X560286Y246946D01*
X560393Y246983D01*
X560501Y247016D01*
X560611Y247046D01*
X560721Y247071D01*
X560832Y247093D01*
X560944Y247110D01*
X561057Y247124D01*
X561170Y247134D01*
X561283Y247140D01*
X561396Y247142D01*
X561509Y247140D01*
X561622Y247134D01*
X561735Y247124D01*
X561848Y247110D01*
X561960Y247093D01*
X562071Y247071D01*
X562181Y247046D01*
X562291Y247016D01*
X562399Y246983D01*
X562506Y246946D01*
X562612Y246906D01*
X562716Y246861D01*
X562819Y246813D01*
X562920Y246762D01*
X563019Y246707D01*
X563116Y246649D01*
X563211Y246587D01*
X563304Y246522D01*
X563394Y246454D01*
X563482Y246383D01*
X563568Y246308D01*
X563651Y246231D01*
X563731Y246151D01*
X563808Y246068D01*
X563883Y245982D01*
X563954Y245894D01*
X564022Y245804D01*
X564087Y245711D01*
X564149Y245616D01*
X564207Y245519D01*
X564262Y245420D01*
X564313Y245319D01*
X564361Y245216D01*
X564406Y245112D01*
X564446Y245006D01*
X564483Y244899D01*
X564516Y244791D01*
X564546Y244681D01*
X564571Y244571D01*
X564593Y244460D01*
X564610Y244348D01*
X564624Y244235D01*
X564634Y244122D01*
X564640Y244009D01*
X564642Y243896D01*
X564640Y243783D01*
X564634Y243670D01*
X564624Y243557D01*
X564610Y243444D01*
X564593Y243332D01*
X564571Y243221D01*
X564546Y243111D01*
X564516Y243001D01*
X564483Y242893D01*
X564446Y242786D01*
X564406Y242680D01*
X564361Y242576D01*
X564313Y242473D01*
X564262Y242372D01*
X564207Y242273D01*
X564149Y242176D01*
X564087Y242081D01*
X564022Y241988D01*
X563954Y241898D01*
X563883Y241810D01*
X563808Y241724D01*
X563731Y241641D01*
X563651Y241561D01*
X563568Y241484D01*
X563482Y241409D01*
X563394Y241338D01*
X563304Y241270D01*
X563211Y241205D01*
X563116Y241143D01*
X563019Y241085D01*
X562920Y241030D01*
X562819Y240979D01*
X562716Y240931D01*
X562612Y240886D01*
X562506Y240846D01*
X562399Y240809D01*
X562291Y240776D01*
X562181Y240746D01*
X562071Y240721D01*
X561960Y240699D01*
X561848Y240682D01*
X561735Y240668D01*
X561622Y240658D01*
X561509Y240652D01*
X561396Y240650D01*
X555554Y241300D02*
X555453Y241302D01*
X555353Y241308D01*
X555253Y241318D01*
X555153Y241331D01*
X555054Y241349D01*
X554955Y241370D01*
X554858Y241395D01*
X554761Y241424D01*
X554666Y241457D01*
X554572Y241493D01*
X554480Y241533D01*
X554389Y241576D01*
X554300Y241623D01*
X554213Y241673D01*
X554127Y241727D01*
X554044Y241784D01*
X553964Y241844D01*
X553885Y241907D01*
X553809Y241974D01*
X553736Y242043D01*
X553666Y242115D01*
X553598Y242189D01*
X553533Y242266D01*
X553472Y242346D01*
X553413Y242428D01*
X553358Y242512D01*
X553306Y242598D01*
X553257Y242686D01*
X553212Y242776D01*
X553170Y242868D01*
X553132Y242961D01*
X553098Y243056D01*
X553067Y243151D01*
X553040Y243248D01*
X553017Y243346D01*
X552997Y243445D01*
X552982Y243545D01*
X552970Y243645D01*
X552962Y243745D01*
X552958Y243846D01*
X552958Y243946D01*
X552962Y244047D01*
X552970Y244147D01*
X552982Y244247D01*
X552997Y244347D01*
X553017Y244446D01*
X553040Y244544D01*
X553067Y244641D01*
X553098Y244736D01*
X553132Y244831D01*
X553170Y244924D01*
X553212Y245016D01*
X553257Y245106D01*
X553306Y245194D01*
X553358Y245280D01*
X553413Y245364D01*
X553472Y245446D01*
X553533Y245526D01*
X553598Y245603D01*
X553666Y245677D01*
X553736Y245749D01*
X553809Y245818D01*
X553885Y245885D01*
X553964Y245948D01*
X554044Y246008D01*
X554127Y246065D01*
X554213Y246119D01*
X554300Y246169D01*
X554389Y246216D01*
X554480Y246259D01*
X554572Y246299D01*
X554666Y246335D01*
X554761Y246368D01*
X554858Y246397D01*
X554955Y246422D01*
X555054Y246443D01*
X555153Y246461D01*
X555253Y246474D01*
X555353Y246484D01*
X555453Y246490D01*
X555554Y246492D01*
X555655Y246490D01*
X555755Y246484D01*
X555855Y246474D01*
X555955Y246461D01*
X556054Y246443D01*
X556153Y246422D01*
X556250Y246397D01*
X556347Y246368D01*
X556442Y246335D01*
X556536Y246299D01*
X556628Y246259D01*
X556719Y246216D01*
X556808Y246169D01*
X556895Y246119D01*
X556981Y246065D01*
X557064Y246008D01*
X557144Y245948D01*
X557223Y245885D01*
X557299Y245818D01*
X557372Y245749D01*
X557442Y245677D01*
X557510Y245603D01*
X557575Y245526D01*
X557636Y245446D01*
X557695Y245364D01*
X557750Y245280D01*
X557802Y245194D01*
X557851Y245106D01*
X557896Y245016D01*
X557938Y244924D01*
X557976Y244831D01*
X558010Y244736D01*
X558041Y244641D01*
X558068Y244544D01*
X558091Y244446D01*
X558111Y244347D01*
X558126Y244247D01*
X558138Y244147D01*
X558146Y244047D01*
X558150Y243946D01*
X558150Y243846D01*
X558146Y243745D01*
X558138Y243645D01*
X558126Y243545D01*
X558111Y243445D01*
X558091Y243346D01*
X558068Y243248D01*
X558041Y243151D01*
X558010Y243056D01*
X557976Y242961D01*
X557938Y242868D01*
X557896Y242776D01*
X557851Y242686D01*
X557802Y242598D01*
X557750Y242512D01*
X557695Y242428D01*
X557636Y242346D01*
X557575Y242266D01*
X557510Y242189D01*
X557442Y242115D01*
X557372Y242043D01*
X557299Y241974D01*
X557223Y241907D01*
X557144Y241844D01*
X557064Y241784D01*
X556981Y241727D01*
X556895Y241673D01*
X556808Y241623D01*
X556719Y241576D01*
X556628Y241533D01*
X556536Y241493D01*
X556442Y241457D01*
X556347Y241424D01*
X556250Y241395D01*
X556153Y241370D01*
X556054Y241349D01*
X555955Y241331D01*
X555855Y241318D01*
X555755Y241308D01*
X555655Y241302D01*
X555554Y241300D01*
D19*
X358200Y192100D02*
X302200Y192100D01*
X302200Y265100D01*
X358200Y265100D01*
X358200Y192100D01*
X345372Y201600D02*
X345374Y201706D01*
X345380Y201811D01*
X345390Y201917D01*
X345404Y202021D01*
X345421Y202126D01*
X345443Y202229D01*
X345468Y202332D01*
X345498Y202434D01*
X345531Y202534D01*
X345567Y202633D01*
X345608Y202731D01*
X345652Y202827D01*
X345700Y202921D01*
X345751Y203014D01*
X345805Y203105D01*
X345863Y203193D01*
X345925Y203279D01*
X345989Y203363D01*
X346056Y203445D01*
X346127Y203524D01*
X346200Y203600D01*
X346276Y203673D01*
X346355Y203744D01*
X346437Y203811D01*
X346521Y203875D01*
X346607Y203937D01*
X346695Y203995D01*
X346786Y204049D01*
X346879Y204100D01*
X346973Y204148D01*
X347069Y204192D01*
X347167Y204233D01*
X347266Y204269D01*
X347366Y204302D01*
X347468Y204332D01*
X347571Y204357D01*
X347674Y204379D01*
X347779Y204396D01*
X347883Y204410D01*
X347989Y204420D01*
X348094Y204426D01*
X348200Y204428D01*
X348306Y204426D01*
X348411Y204420D01*
X348517Y204410D01*
X348621Y204396D01*
X348726Y204379D01*
X348829Y204357D01*
X348932Y204332D01*
X349034Y204302D01*
X349134Y204269D01*
X349233Y204233D01*
X349331Y204192D01*
X349427Y204148D01*
X349521Y204100D01*
X349614Y204049D01*
X349705Y203995D01*
X349793Y203937D01*
X349879Y203875D01*
X349963Y203811D01*
X350045Y203744D01*
X350124Y203673D01*
X350200Y203600D01*
X350273Y203524D01*
X350344Y203445D01*
X350411Y203363D01*
X350475Y203279D01*
X350537Y203193D01*
X350595Y203105D01*
X350649Y203014D01*
X350700Y202921D01*
X350748Y202827D01*
X350792Y202731D01*
X350833Y202633D01*
X350869Y202534D01*
X350902Y202434D01*
X350932Y202332D01*
X350957Y202229D01*
X350979Y202126D01*
X350996Y202021D01*
X351010Y201917D01*
X351020Y201811D01*
X351026Y201706D01*
X351028Y201600D01*
X351026Y201494D01*
X351020Y201389D01*
X351010Y201283D01*
X350996Y201179D01*
X350979Y201074D01*
X350957Y200971D01*
X350932Y200868D01*
X350902Y200766D01*
X350869Y200666D01*
X350833Y200567D01*
X350792Y200469D01*
X350748Y200373D01*
X350700Y200279D01*
X350649Y200186D01*
X350595Y200095D01*
X350537Y200007D01*
X350475Y199921D01*
X350411Y199837D01*
X350344Y199755D01*
X350273Y199676D01*
X350200Y199600D01*
X350124Y199527D01*
X350045Y199456D01*
X349963Y199389D01*
X349879Y199325D01*
X349793Y199263D01*
X349705Y199205D01*
X349614Y199151D01*
X349521Y199100D01*
X349427Y199052D01*
X349331Y199008D01*
X349233Y198967D01*
X349134Y198931D01*
X349034Y198898D01*
X348932Y198868D01*
X348829Y198843D01*
X348726Y198821D01*
X348621Y198804D01*
X348517Y198790D01*
X348411Y198780D01*
X348306Y198774D01*
X348200Y198772D01*
X348094Y198774D01*
X347989Y198780D01*
X347883Y198790D01*
X347779Y198804D01*
X347674Y198821D01*
X347571Y198843D01*
X347468Y198868D01*
X347366Y198898D01*
X347266Y198931D01*
X347167Y198967D01*
X347069Y199008D01*
X346973Y199052D01*
X346879Y199100D01*
X346786Y199151D01*
X346695Y199205D01*
X346607Y199263D01*
X346521Y199325D01*
X346437Y199389D01*
X346355Y199456D01*
X346276Y199527D01*
X346200Y199600D01*
X346127Y199676D01*
X346056Y199755D01*
X345989Y199837D01*
X345925Y199921D01*
X345863Y200007D01*
X345805Y200095D01*
X345751Y200186D01*
X345700Y200279D01*
X345652Y200373D01*
X345608Y200469D01*
X345567Y200567D01*
X345531Y200666D01*
X345498Y200766D01*
X345468Y200868D01*
X345443Y200971D01*
X345421Y201074D01*
X345404Y201179D01*
X345390Y201283D01*
X345380Y201389D01*
X345374Y201494D01*
X345372Y201600D01*
X348200Y199600D02*
X350200Y202600D01*
X348200Y199600D02*
X346200Y201600D01*
X347200Y203600D01*
X350200Y202600D01*
X348200Y201600D01*
X367200Y190600D02*
X367202Y190663D01*
X367208Y190725D01*
X367218Y190787D01*
X367231Y190849D01*
X367249Y190909D01*
X367270Y190968D01*
X367295Y191026D01*
X367324Y191082D01*
X367356Y191136D01*
X367391Y191188D01*
X367429Y191237D01*
X367471Y191285D01*
X367515Y191329D01*
X367563Y191371D01*
X367612Y191409D01*
X367664Y191444D01*
X367718Y191476D01*
X367774Y191505D01*
X367832Y191530D01*
X367891Y191551D01*
X367951Y191569D01*
X368013Y191582D01*
X368075Y191592D01*
X368137Y191598D01*
X368200Y191600D01*
X368263Y191598D01*
X368325Y191592D01*
X368387Y191582D01*
X368449Y191569D01*
X368509Y191551D01*
X368568Y191530D01*
X368626Y191505D01*
X368682Y191476D01*
X368736Y191444D01*
X368788Y191409D01*
X368837Y191371D01*
X368885Y191329D01*
X368929Y191285D01*
X368971Y191237D01*
X369009Y191188D01*
X369044Y191136D01*
X369076Y191082D01*
X369105Y191026D01*
X369130Y190968D01*
X369151Y190909D01*
X369169Y190849D01*
X369182Y190787D01*
X369192Y190725D01*
X369198Y190663D01*
X369200Y190600D01*
X369198Y190537D01*
X369192Y190475D01*
X369182Y190413D01*
X369169Y190351D01*
X369151Y190291D01*
X369130Y190232D01*
X369105Y190174D01*
X369076Y190118D01*
X369044Y190064D01*
X369009Y190012D01*
X368971Y189963D01*
X368929Y189915D01*
X368885Y189871D01*
X368837Y189829D01*
X368788Y189791D01*
X368736Y189756D01*
X368682Y189724D01*
X368626Y189695D01*
X368568Y189670D01*
X368509Y189649D01*
X368449Y189631D01*
X368387Y189618D01*
X368325Y189608D01*
X368263Y189602D01*
X368200Y189600D01*
X368137Y189602D01*
X368075Y189608D01*
X368013Y189618D01*
X367951Y189631D01*
X367891Y189649D01*
X367832Y189670D01*
X367774Y189695D01*
X367718Y189724D01*
X367664Y189756D01*
X367612Y189791D01*
X367563Y189829D01*
X367515Y189871D01*
X367471Y189915D01*
X367429Y189963D01*
X367391Y190012D01*
X367356Y190064D01*
X367324Y190118D01*
X367295Y190174D01*
X367270Y190232D01*
X367249Y190291D01*
X367231Y190351D01*
X367218Y190413D01*
X367208Y190475D01*
X367202Y190537D01*
X367200Y190600D01*
D11*
X339402Y187037D02*
X339402Y178586D01*
X339403Y178586D02*
X339405Y178474D01*
X339411Y178362D01*
X339420Y178250D01*
X339434Y178139D01*
X339451Y178028D01*
X339472Y177918D01*
X339497Y177808D01*
X339526Y177700D01*
X339559Y177592D01*
X339595Y177486D01*
X339635Y177381D01*
X339678Y177278D01*
X339725Y177176D01*
X339775Y177076D01*
X339829Y176977D01*
X339886Y176881D01*
X339947Y176786D01*
X340011Y176694D01*
X340077Y176604D01*
X340147Y176516D01*
X340220Y176431D01*
X340296Y176348D01*
X340375Y176268D01*
X340456Y176191D01*
X340540Y176117D01*
X340627Y176045D01*
X340716Y175977D01*
X340807Y175911D01*
X340900Y175849D01*
X340996Y175790D01*
X341093Y175735D01*
X341193Y175683D01*
X341294Y175634D01*
X341396Y175589D01*
X341501Y175547D01*
X341606Y175509D01*
X341713Y175475D01*
X341821Y175444D01*
X341930Y175417D01*
X342040Y175394D01*
X342150Y175375D01*
X342261Y175360D01*
X342373Y175348D01*
X342485Y175340D01*
X342597Y175336D01*
X342709Y175336D01*
X342821Y175340D01*
X342933Y175348D01*
X343045Y175360D01*
X343156Y175375D01*
X343266Y175394D01*
X343376Y175417D01*
X343485Y175444D01*
X343593Y175475D01*
X343700Y175509D01*
X343805Y175547D01*
X343910Y175589D01*
X344012Y175634D01*
X344113Y175683D01*
X344213Y175735D01*
X344310Y175790D01*
X344406Y175849D01*
X344499Y175911D01*
X344590Y175977D01*
X344679Y176045D01*
X344766Y176117D01*
X344850Y176191D01*
X344931Y176268D01*
X345010Y176348D01*
X345086Y176431D01*
X345159Y176516D01*
X345229Y176604D01*
X345295Y176694D01*
X345359Y176786D01*
X345420Y176881D01*
X345477Y176977D01*
X345531Y177076D01*
X345581Y177176D01*
X345628Y177278D01*
X345671Y177381D01*
X345711Y177486D01*
X345747Y177592D01*
X345780Y177700D01*
X345809Y177808D01*
X345834Y177918D01*
X345855Y178028D01*
X345872Y178139D01*
X345886Y178250D01*
X345895Y178362D01*
X345901Y178474D01*
X345903Y178586D01*
X345903Y187037D01*
X351229Y181836D02*
X355130Y181836D01*
X355230Y181834D01*
X355329Y181828D01*
X355428Y181819D01*
X355527Y181806D01*
X355625Y181788D01*
X355722Y181768D01*
X355819Y181743D01*
X355914Y181715D01*
X356009Y181683D01*
X356102Y181648D01*
X356194Y181609D01*
X356284Y181566D01*
X356372Y181520D01*
X356459Y181471D01*
X356543Y181418D01*
X356626Y181363D01*
X356706Y181304D01*
X356784Y181242D01*
X356860Y181177D01*
X356933Y181109D01*
X357003Y181039D01*
X357071Y180966D01*
X357136Y180890D01*
X357198Y180812D01*
X357257Y180732D01*
X357312Y180649D01*
X357365Y180565D01*
X357414Y180478D01*
X357460Y180390D01*
X357503Y180300D01*
X357542Y180208D01*
X357577Y180115D01*
X357609Y180020D01*
X357637Y179925D01*
X357662Y179828D01*
X357682Y179731D01*
X357700Y179633D01*
X357713Y179534D01*
X357722Y179435D01*
X357728Y179336D01*
X357730Y179236D01*
X357730Y178586D01*
X357728Y178474D01*
X357722Y178362D01*
X357713Y178250D01*
X357699Y178139D01*
X357682Y178028D01*
X357661Y177918D01*
X357636Y177808D01*
X357607Y177700D01*
X357574Y177592D01*
X357538Y177486D01*
X357498Y177381D01*
X357455Y177278D01*
X357408Y177176D01*
X357358Y177076D01*
X357304Y176977D01*
X357247Y176881D01*
X357186Y176786D01*
X357122Y176694D01*
X357056Y176604D01*
X356986Y176516D01*
X356913Y176431D01*
X356837Y176348D01*
X356758Y176268D01*
X356677Y176191D01*
X356593Y176117D01*
X356506Y176045D01*
X356417Y175977D01*
X356326Y175911D01*
X356233Y175849D01*
X356137Y175790D01*
X356040Y175735D01*
X355940Y175683D01*
X355839Y175634D01*
X355737Y175589D01*
X355632Y175547D01*
X355527Y175509D01*
X355420Y175475D01*
X355312Y175444D01*
X355203Y175417D01*
X355093Y175394D01*
X354983Y175375D01*
X354872Y175360D01*
X354760Y175348D01*
X354648Y175340D01*
X354536Y175336D01*
X354424Y175336D01*
X354312Y175340D01*
X354200Y175348D01*
X354088Y175360D01*
X353977Y175375D01*
X353867Y175394D01*
X353757Y175417D01*
X353648Y175444D01*
X353540Y175475D01*
X353433Y175509D01*
X353328Y175547D01*
X353223Y175589D01*
X353121Y175634D01*
X353020Y175683D01*
X352920Y175735D01*
X352823Y175790D01*
X352727Y175849D01*
X352634Y175911D01*
X352543Y175977D01*
X352454Y176045D01*
X352367Y176117D01*
X352283Y176191D01*
X352202Y176268D01*
X352123Y176348D01*
X352047Y176431D01*
X351974Y176516D01*
X351904Y176604D01*
X351838Y176694D01*
X351774Y176786D01*
X351713Y176881D01*
X351656Y176977D01*
X351602Y177076D01*
X351552Y177176D01*
X351505Y177278D01*
X351462Y177381D01*
X351422Y177486D01*
X351386Y177592D01*
X351353Y177700D01*
X351324Y177808D01*
X351299Y177918D01*
X351278Y178028D01*
X351261Y178139D01*
X351247Y178250D01*
X351238Y178362D01*
X351232Y178474D01*
X351230Y178586D01*
X351229Y178586D02*
X351229Y181836D01*
X351231Y181979D01*
X351237Y182123D01*
X351247Y182265D01*
X351261Y182408D01*
X351278Y182550D01*
X351300Y182692D01*
X351325Y182833D01*
X351355Y182973D01*
X351388Y183113D01*
X351425Y183251D01*
X351466Y183389D01*
X351511Y183525D01*
X351559Y183660D01*
X351611Y183793D01*
X351667Y183925D01*
X351726Y184056D01*
X351789Y184184D01*
X351856Y184311D01*
X351926Y184436D01*
X351999Y184560D01*
X352076Y184681D01*
X352156Y184800D01*
X352239Y184916D01*
X352326Y185031D01*
X352415Y185142D01*
X352508Y185252D01*
X352603Y185359D01*
X352702Y185463D01*
X352803Y185564D01*
X352907Y185662D01*
X353014Y185758D01*
X353124Y185851D01*
X353235Y185940D01*
X353350Y186027D01*
X353466Y186110D01*
X353585Y186190D01*
X353706Y186267D01*
X353829Y186340D01*
X353955Y186410D01*
X354082Y186477D01*
X354210Y186540D01*
X354341Y186599D01*
X354473Y186655D01*
X354606Y186707D01*
X354741Y186755D01*
X354877Y186800D01*
X355015Y186841D01*
X355153Y186878D01*
X355293Y186911D01*
X355433Y186941D01*
X355574Y186966D01*
X355716Y186988D01*
X355858Y187005D01*
X356000Y187019D01*
X356143Y187029D01*
X356287Y187035D01*
X356430Y187037D01*
X400558Y229295D02*
X412242Y229295D01*
X400558Y229295D02*
X400558Y232540D01*
X400560Y232653D01*
X400566Y232766D01*
X400576Y232879D01*
X400590Y232992D01*
X400607Y233104D01*
X400629Y233215D01*
X400654Y233325D01*
X400684Y233435D01*
X400717Y233543D01*
X400754Y233650D01*
X400794Y233756D01*
X400839Y233860D01*
X400887Y233963D01*
X400938Y234064D01*
X400993Y234163D01*
X401051Y234260D01*
X401113Y234355D01*
X401178Y234448D01*
X401246Y234538D01*
X401317Y234626D01*
X401392Y234712D01*
X401469Y234795D01*
X401549Y234875D01*
X401632Y234952D01*
X401718Y235027D01*
X401806Y235098D01*
X401896Y235166D01*
X401989Y235231D01*
X402084Y235293D01*
X402181Y235351D01*
X402280Y235406D01*
X402381Y235457D01*
X402484Y235505D01*
X402588Y235550D01*
X402694Y235590D01*
X402801Y235627D01*
X402909Y235660D01*
X403019Y235690D01*
X403129Y235715D01*
X403240Y235737D01*
X403352Y235754D01*
X403465Y235768D01*
X403578Y235778D01*
X403691Y235784D01*
X403804Y235786D01*
X403917Y235784D01*
X404030Y235778D01*
X404143Y235768D01*
X404256Y235754D01*
X404368Y235737D01*
X404479Y235715D01*
X404589Y235690D01*
X404699Y235660D01*
X404807Y235627D01*
X404914Y235590D01*
X405020Y235550D01*
X405124Y235505D01*
X405227Y235457D01*
X405328Y235406D01*
X405427Y235351D01*
X405524Y235293D01*
X405619Y235231D01*
X405712Y235166D01*
X405802Y235098D01*
X405890Y235027D01*
X405976Y234952D01*
X406059Y234875D01*
X406139Y234795D01*
X406216Y234712D01*
X406291Y234626D01*
X406362Y234538D01*
X406430Y234448D01*
X406495Y234355D01*
X406557Y234260D01*
X406615Y234163D01*
X406670Y234064D01*
X406721Y233963D01*
X406769Y233860D01*
X406814Y233756D01*
X406854Y233650D01*
X406891Y233543D01*
X406924Y233435D01*
X406954Y233325D01*
X406979Y233215D01*
X407001Y233104D01*
X407018Y232992D01*
X407032Y232879D01*
X407042Y232766D01*
X407048Y232653D01*
X407050Y232540D01*
X407049Y232540D02*
X407049Y229295D01*
X407049Y233189D02*
X412242Y235786D01*
X407049Y243247D02*
X407049Y247142D01*
X407049Y243247D02*
X407047Y243148D01*
X407041Y243048D01*
X407032Y242949D01*
X407019Y242851D01*
X407002Y242753D01*
X406981Y242655D01*
X406956Y242559D01*
X406928Y242464D01*
X406896Y242370D01*
X406861Y242277D01*
X406822Y242185D01*
X406779Y242095D01*
X406734Y242007D01*
X406684Y241920D01*
X406632Y241836D01*
X406576Y241753D01*
X406518Y241673D01*
X406456Y241595D01*
X406391Y241520D01*
X406323Y241447D01*
X406253Y241377D01*
X406180Y241309D01*
X406105Y241244D01*
X406027Y241182D01*
X405947Y241124D01*
X405864Y241068D01*
X405780Y241016D01*
X405693Y240966D01*
X405605Y240921D01*
X405515Y240878D01*
X405423Y240839D01*
X405330Y240804D01*
X405236Y240772D01*
X405141Y240744D01*
X405045Y240719D01*
X404947Y240698D01*
X404849Y240681D01*
X404751Y240668D01*
X404652Y240659D01*
X404552Y240653D01*
X404453Y240651D01*
X403804Y240651D01*
X403804Y240650D02*
X403691Y240652D01*
X403578Y240658D01*
X403465Y240668D01*
X403352Y240682D01*
X403240Y240699D01*
X403129Y240721D01*
X403019Y240746D01*
X402909Y240776D01*
X402801Y240809D01*
X402694Y240846D01*
X402588Y240886D01*
X402484Y240931D01*
X402381Y240979D01*
X402280Y241030D01*
X402181Y241085D01*
X402084Y241143D01*
X401989Y241205D01*
X401896Y241270D01*
X401806Y241338D01*
X401718Y241409D01*
X401632Y241484D01*
X401549Y241561D01*
X401469Y241641D01*
X401392Y241724D01*
X401317Y241810D01*
X401246Y241898D01*
X401178Y241988D01*
X401113Y242081D01*
X401051Y242176D01*
X400993Y242273D01*
X400938Y242372D01*
X400887Y242473D01*
X400839Y242576D01*
X400794Y242680D01*
X400754Y242786D01*
X400717Y242893D01*
X400684Y243001D01*
X400654Y243111D01*
X400629Y243221D01*
X400607Y243332D01*
X400590Y243444D01*
X400576Y243557D01*
X400566Y243670D01*
X400560Y243783D01*
X400558Y243896D01*
X400560Y244009D01*
X400566Y244122D01*
X400576Y244235D01*
X400590Y244348D01*
X400607Y244460D01*
X400629Y244571D01*
X400654Y244681D01*
X400684Y244791D01*
X400717Y244899D01*
X400754Y245006D01*
X400794Y245112D01*
X400839Y245216D01*
X400887Y245319D01*
X400938Y245420D01*
X400993Y245519D01*
X401051Y245616D01*
X401113Y245711D01*
X401178Y245804D01*
X401246Y245894D01*
X401317Y245982D01*
X401392Y246068D01*
X401469Y246151D01*
X401549Y246231D01*
X401632Y246308D01*
X401718Y246383D01*
X401806Y246454D01*
X401896Y246522D01*
X401989Y246587D01*
X402084Y246649D01*
X402181Y246707D01*
X402280Y246762D01*
X402381Y246813D01*
X402484Y246861D01*
X402588Y246906D01*
X402694Y246946D01*
X402801Y246983D01*
X402909Y247016D01*
X403019Y247046D01*
X403129Y247071D01*
X403240Y247093D01*
X403352Y247110D01*
X403465Y247124D01*
X403578Y247134D01*
X403691Y247140D01*
X403804Y247142D01*
X407049Y247142D01*
X407192Y247140D01*
X407335Y247134D01*
X407478Y247124D01*
X407620Y247110D01*
X407762Y247093D01*
X407904Y247071D01*
X408045Y247046D01*
X408185Y247016D01*
X408324Y246983D01*
X408462Y246946D01*
X408599Y246905D01*
X408735Y246861D01*
X408870Y246812D01*
X409003Y246760D01*
X409135Y246705D01*
X409265Y246645D01*
X409394Y246582D01*
X409521Y246516D01*
X409646Y246446D01*
X409768Y246373D01*
X409889Y246296D01*
X410008Y246216D01*
X410124Y246133D01*
X410239Y246047D01*
X410350Y245958D01*
X410460Y245865D01*
X410566Y245770D01*
X410670Y245671D01*
X410771Y245570D01*
X410870Y245466D01*
X410965Y245360D01*
X411058Y245250D01*
X411147Y245139D01*
X411233Y245024D01*
X411316Y244908D01*
X411396Y244789D01*
X411473Y244668D01*
X411546Y244546D01*
X411616Y244421D01*
X411682Y244294D01*
X411745Y244165D01*
X411805Y244035D01*
X411860Y243903D01*
X411912Y243770D01*
X411961Y243635D01*
X412005Y243499D01*
X412046Y243362D01*
X412083Y243224D01*
X412116Y243085D01*
X412146Y242945D01*
X412171Y242804D01*
X412193Y242662D01*
X412210Y242520D01*
X412224Y242378D01*
X412234Y242235D01*
X412240Y242092D01*
X412242Y241949D01*
D12*
X50800Y184150D02*
X50800Y171450D01*
X50800Y184150D02*
X57150Y190500D01*
X69850Y190500D02*
X76200Y184150D01*
X57150Y190500D02*
X50800Y196850D01*
X50800Y209550D01*
X57150Y215900D01*
X69850Y215900D02*
X76200Y209550D01*
X76200Y196850D01*
X69850Y190500D01*
X69850Y165100D02*
X57150Y165100D01*
X50800Y171450D01*
X69850Y165100D02*
X76200Y171450D01*
X76200Y184150D01*
X57150Y215900D02*
X50800Y222250D01*
X50800Y234950D01*
X57150Y241300D01*
X69850Y241300D02*
X76200Y234950D01*
X76200Y222250D01*
X69850Y215900D01*
X50800Y247650D02*
X50800Y260350D01*
X57150Y266700D01*
X69850Y266700D01*
X76200Y260350D01*
X57150Y241300D02*
X50800Y247650D01*
X69850Y241300D02*
X76200Y247650D01*
X76200Y260350D01*
D10*
X46355Y165735D02*
X34925Y169545D01*
X46355Y173355D01*
X43498Y172403D02*
X43498Y166688D01*
X46355Y180303D02*
X46355Y182843D01*
X46355Y180303D02*
X46353Y180203D01*
X46347Y180104D01*
X46337Y180004D01*
X46324Y179906D01*
X46306Y179807D01*
X46285Y179710D01*
X46260Y179614D01*
X46231Y179518D01*
X46198Y179424D01*
X46162Y179331D01*
X46122Y179240D01*
X46078Y179150D01*
X46031Y179062D01*
X45981Y178976D01*
X45927Y178892D01*
X45870Y178810D01*
X45810Y178731D01*
X45746Y178653D01*
X45680Y178579D01*
X45611Y178507D01*
X45539Y178438D01*
X45465Y178372D01*
X45387Y178308D01*
X45308Y178248D01*
X45226Y178191D01*
X45142Y178137D01*
X45056Y178087D01*
X44968Y178040D01*
X44878Y177996D01*
X44787Y177956D01*
X44694Y177920D01*
X44600Y177887D01*
X44504Y177858D01*
X44408Y177833D01*
X44311Y177812D01*
X44212Y177794D01*
X44114Y177781D01*
X44014Y177771D01*
X43915Y177765D01*
X43815Y177763D01*
X37465Y177763D01*
X37365Y177765D01*
X37266Y177771D01*
X37166Y177781D01*
X37068Y177794D01*
X36969Y177812D01*
X36872Y177833D01*
X36776Y177858D01*
X36680Y177887D01*
X36586Y177920D01*
X36493Y177956D01*
X36402Y177996D01*
X36312Y178040D01*
X36224Y178087D01*
X36138Y178137D01*
X36054Y178191D01*
X35972Y178248D01*
X35893Y178308D01*
X35815Y178372D01*
X35741Y178438D01*
X35669Y178507D01*
X35600Y178579D01*
X35534Y178653D01*
X35470Y178731D01*
X35410Y178810D01*
X35353Y178892D01*
X35299Y178976D01*
X35249Y179062D01*
X35202Y179150D01*
X35158Y179240D01*
X35118Y179331D01*
X35082Y179424D01*
X35049Y179518D01*
X35020Y179614D01*
X34995Y179710D01*
X34974Y179807D01*
X34956Y179906D01*
X34943Y180004D01*
X34933Y180104D01*
X34927Y180203D01*
X34925Y180303D01*
X34925Y182843D01*
X47625Y186817D02*
X47625Y191897D01*
X46355Y196850D02*
X34925Y196850D01*
X40005Y196850D02*
X40005Y203200D01*
X34925Y203200D02*
X46355Y203200D01*
X46355Y209067D02*
X46355Y214147D01*
X46355Y209067D02*
X34925Y209067D01*
X34925Y214147D01*
X40005Y212877D02*
X40005Y209067D01*
X46355Y217932D02*
X34925Y221742D01*
X46355Y225552D01*
X43498Y224599D02*
X43498Y218884D01*
X46355Y230378D02*
X34925Y230378D01*
X34925Y233553D01*
X34927Y233664D01*
X34933Y233774D01*
X34942Y233885D01*
X34956Y233995D01*
X34973Y234104D01*
X34994Y234213D01*
X35019Y234321D01*
X35048Y234428D01*
X35080Y234534D01*
X35116Y234639D01*
X35156Y234742D01*
X35199Y234844D01*
X35246Y234945D01*
X35297Y235044D01*
X35350Y235141D01*
X35407Y235235D01*
X35468Y235328D01*
X35531Y235419D01*
X35598Y235508D01*
X35668Y235594D01*
X35741Y235677D01*
X35816Y235759D01*
X35894Y235837D01*
X35976Y235912D01*
X36059Y235985D01*
X36145Y236055D01*
X36234Y236122D01*
X36325Y236185D01*
X36418Y236246D01*
X36513Y236303D01*
X36609Y236356D01*
X36708Y236407D01*
X36809Y236454D01*
X36911Y236497D01*
X37014Y236537D01*
X37119Y236573D01*
X37225Y236605D01*
X37332Y236634D01*
X37440Y236659D01*
X37549Y236680D01*
X37658Y236697D01*
X37768Y236711D01*
X37879Y236720D01*
X37989Y236726D01*
X38100Y236728D01*
X43180Y236728D01*
X43291Y236726D01*
X43401Y236720D01*
X43512Y236711D01*
X43622Y236697D01*
X43731Y236680D01*
X43840Y236659D01*
X43948Y236634D01*
X44055Y236605D01*
X44161Y236573D01*
X44266Y236537D01*
X44369Y236497D01*
X44471Y236454D01*
X44572Y236407D01*
X44671Y236356D01*
X44768Y236303D01*
X44862Y236246D01*
X44955Y236185D01*
X45046Y236122D01*
X45135Y236055D01*
X45221Y235985D01*
X45304Y235912D01*
X45386Y235837D01*
X45464Y235759D01*
X45539Y235677D01*
X45612Y235594D01*
X45682Y235508D01*
X45749Y235419D01*
X45812Y235328D01*
X45873Y235235D01*
X45930Y235141D01*
X45983Y235044D01*
X46034Y234945D01*
X46081Y234844D01*
X46124Y234742D01*
X46164Y234639D01*
X46200Y234534D01*
X46232Y234428D01*
X46261Y234321D01*
X46286Y234213D01*
X46307Y234104D01*
X46324Y233995D01*
X46338Y233885D01*
X46347Y233774D01*
X46353Y233664D01*
X46355Y233553D01*
X46355Y230378D01*
X46355Y242595D02*
X46355Y247675D01*
X46355Y242595D02*
X34925Y242595D01*
X34925Y247675D01*
X40005Y246405D02*
X40005Y242595D01*
X34925Y252559D02*
X46355Y252559D01*
X34925Y252559D02*
X34925Y255734D01*
X34927Y255845D01*
X34933Y255955D01*
X34942Y256066D01*
X34956Y256176D01*
X34973Y256285D01*
X34994Y256394D01*
X35019Y256502D01*
X35048Y256609D01*
X35080Y256715D01*
X35116Y256820D01*
X35156Y256923D01*
X35199Y257025D01*
X35246Y257126D01*
X35297Y257225D01*
X35350Y257322D01*
X35407Y257416D01*
X35468Y257509D01*
X35531Y257600D01*
X35598Y257689D01*
X35668Y257775D01*
X35741Y257858D01*
X35816Y257940D01*
X35894Y258018D01*
X35976Y258093D01*
X36059Y258166D01*
X36145Y258236D01*
X36234Y258303D01*
X36325Y258366D01*
X36418Y258427D01*
X36512Y258484D01*
X36609Y258537D01*
X36708Y258588D01*
X36809Y258635D01*
X36911Y258678D01*
X37014Y258718D01*
X37119Y258754D01*
X37225Y258786D01*
X37332Y258815D01*
X37440Y258840D01*
X37549Y258861D01*
X37658Y258878D01*
X37768Y258892D01*
X37879Y258901D01*
X37989Y258907D01*
X38100Y258909D01*
X38211Y258907D01*
X38321Y258901D01*
X38432Y258892D01*
X38542Y258878D01*
X38651Y258861D01*
X38760Y258840D01*
X38868Y258815D01*
X38975Y258786D01*
X39081Y258754D01*
X39186Y258718D01*
X39289Y258678D01*
X39391Y258635D01*
X39492Y258588D01*
X39591Y258537D01*
X39688Y258484D01*
X39782Y258427D01*
X39875Y258366D01*
X39966Y258303D01*
X40055Y258236D01*
X40141Y258166D01*
X40224Y258093D01*
X40306Y258018D01*
X40384Y257940D01*
X40459Y257858D01*
X40532Y257775D01*
X40602Y257689D01*
X40669Y257600D01*
X40732Y257509D01*
X40793Y257416D01*
X40850Y257322D01*
X40903Y257225D01*
X40954Y257126D01*
X41001Y257025D01*
X41044Y256923D01*
X41084Y256820D01*
X41120Y256715D01*
X41152Y256609D01*
X41181Y256502D01*
X41206Y256394D01*
X41227Y256285D01*
X41244Y256176D01*
X41258Y256066D01*
X41267Y255955D01*
X41273Y255845D01*
X41275Y255734D01*
X41275Y252559D01*
X41275Y256369D02*
X46355Y258909D01*
X57785Y157480D02*
X60325Y154305D01*
X57785Y157480D02*
X69215Y157480D01*
X69215Y154305D02*
X69215Y160655D01*
X66675Y269875D02*
X57785Y272415D01*
X66675Y269875D02*
X66675Y276225D01*
X64135Y274320D02*
X69215Y274320D01*
X29337Y397383D02*
X20447Y397383D01*
X29337Y397383D02*
X29437Y397381D01*
X29536Y397375D01*
X29636Y397365D01*
X29734Y397352D01*
X29833Y397334D01*
X29930Y397313D01*
X30026Y397288D01*
X30122Y397259D01*
X30216Y397226D01*
X30309Y397190D01*
X30400Y397150D01*
X30490Y397106D01*
X30578Y397059D01*
X30664Y397009D01*
X30748Y396955D01*
X30830Y396898D01*
X30909Y396838D01*
X30987Y396774D01*
X31061Y396708D01*
X31133Y396639D01*
X31202Y396567D01*
X31268Y396493D01*
X31332Y396415D01*
X31392Y396336D01*
X31449Y396254D01*
X31503Y396170D01*
X31553Y396084D01*
X31600Y395996D01*
X31644Y395906D01*
X31684Y395815D01*
X31720Y395722D01*
X31753Y395628D01*
X31782Y395532D01*
X31807Y395436D01*
X31828Y395339D01*
X31846Y395240D01*
X31859Y395142D01*
X31869Y395042D01*
X31875Y394943D01*
X31877Y394843D01*
X31877Y393573D01*
X31877Y403363D02*
X20447Y403363D01*
X20447Y406538D01*
X20449Y406649D01*
X20455Y406759D01*
X20464Y406870D01*
X20478Y406980D01*
X20495Y407089D01*
X20516Y407198D01*
X20541Y407306D01*
X20570Y407413D01*
X20602Y407519D01*
X20638Y407624D01*
X20678Y407727D01*
X20721Y407829D01*
X20768Y407930D01*
X20819Y408029D01*
X20872Y408126D01*
X20929Y408220D01*
X20990Y408313D01*
X21053Y408404D01*
X21120Y408493D01*
X21190Y408579D01*
X21263Y408662D01*
X21338Y408744D01*
X21416Y408822D01*
X21498Y408897D01*
X21581Y408970D01*
X21667Y409040D01*
X21756Y409107D01*
X21847Y409170D01*
X21940Y409231D01*
X22034Y409288D01*
X22131Y409341D01*
X22230Y409392D01*
X22331Y409439D01*
X22433Y409482D01*
X22536Y409522D01*
X22641Y409558D01*
X22747Y409590D01*
X22854Y409619D01*
X22962Y409644D01*
X23071Y409665D01*
X23180Y409682D01*
X23290Y409696D01*
X23401Y409705D01*
X23511Y409711D01*
X23622Y409713D01*
X23733Y409711D01*
X23843Y409705D01*
X23954Y409696D01*
X24064Y409682D01*
X24173Y409665D01*
X24282Y409644D01*
X24390Y409619D01*
X24497Y409590D01*
X24603Y409558D01*
X24708Y409522D01*
X24811Y409482D01*
X24913Y409439D01*
X25014Y409392D01*
X25113Y409341D01*
X25210Y409288D01*
X25304Y409231D01*
X25397Y409170D01*
X25488Y409107D01*
X25577Y409040D01*
X25663Y408970D01*
X25746Y408897D01*
X25828Y408822D01*
X25906Y408744D01*
X25981Y408662D01*
X26054Y408579D01*
X26124Y408493D01*
X26191Y408404D01*
X26254Y408313D01*
X26315Y408220D01*
X26372Y408126D01*
X26425Y408029D01*
X26476Y407930D01*
X26523Y407829D01*
X26566Y407727D01*
X26606Y407624D01*
X26642Y407519D01*
X26674Y407413D01*
X26703Y407306D01*
X26728Y407198D01*
X26749Y407089D01*
X26766Y406980D01*
X26780Y406870D01*
X26789Y406759D01*
X26795Y406649D01*
X26797Y406538D01*
X26797Y403363D01*
X20447Y417714D02*
X20449Y417818D01*
X20455Y417923D01*
X20464Y418027D01*
X20477Y418130D01*
X20495Y418233D01*
X20515Y418335D01*
X20540Y418437D01*
X20568Y418537D01*
X20600Y418637D01*
X20636Y418735D01*
X20675Y418832D01*
X20717Y418927D01*
X20763Y419021D01*
X20813Y419113D01*
X20865Y419203D01*
X20921Y419291D01*
X20981Y419377D01*
X21043Y419461D01*
X21108Y419542D01*
X21176Y419621D01*
X21248Y419698D01*
X21321Y419771D01*
X21398Y419843D01*
X21477Y419911D01*
X21558Y419976D01*
X21642Y420038D01*
X21728Y420098D01*
X21816Y420154D01*
X21906Y420206D01*
X21998Y420256D01*
X22092Y420302D01*
X22187Y420344D01*
X22284Y420383D01*
X22382Y420419D01*
X22482Y420451D01*
X22582Y420479D01*
X22684Y420504D01*
X22786Y420524D01*
X22889Y420542D01*
X22992Y420555D01*
X23096Y420564D01*
X23201Y420570D01*
X23305Y420572D01*
X20447Y417714D02*
X20449Y417596D01*
X20455Y417477D01*
X20464Y417359D01*
X20477Y417242D01*
X20495Y417125D01*
X20515Y417008D01*
X20540Y416892D01*
X20568Y416777D01*
X20601Y416664D01*
X20636Y416551D01*
X20676Y416439D01*
X20718Y416329D01*
X20765Y416220D01*
X20815Y416112D01*
X20868Y416007D01*
X20925Y415903D01*
X20985Y415801D01*
X21048Y415701D01*
X21115Y415603D01*
X21184Y415507D01*
X21257Y415414D01*
X21333Y415323D01*
X21411Y415234D01*
X21493Y415148D01*
X21577Y415065D01*
X21663Y414984D01*
X21753Y414907D01*
X21844Y414832D01*
X21938Y414760D01*
X22035Y414691D01*
X22133Y414626D01*
X22234Y414563D01*
X22337Y414504D01*
X22441Y414448D01*
X22547Y414396D01*
X22655Y414347D01*
X22764Y414302D01*
X22875Y414260D01*
X22987Y414222D01*
X25527Y419620D02*
X25452Y419696D01*
X25373Y419771D01*
X25292Y419842D01*
X25208Y419911D01*
X25122Y419976D01*
X25034Y420038D01*
X24944Y420098D01*
X24852Y420154D01*
X24757Y420207D01*
X24661Y420256D01*
X24563Y420302D01*
X24464Y420345D01*
X24363Y420384D01*
X24261Y420419D01*
X24158Y420451D01*
X24054Y420479D01*
X23949Y420504D01*
X23842Y420525D01*
X23736Y420542D01*
X23629Y420555D01*
X23521Y420564D01*
X23413Y420570D01*
X23305Y420572D01*
X25527Y419619D02*
X31877Y414222D01*
X31877Y420572D01*
M02*
