G04 EAGLE Gerber X2 export*
%TF.Part,Single*%
%TF.FileFunction,Soldermask,Top,1*%
%TF.FilePolarity,Negative*%
%TF.GenerationSoftware,Autodesk,EAGLE,9.0.0*%
%TF.CreationDate,2019-07-04T23:27:38Z*%
G75*
%MOMM*%
%FSLAX34Y34*%
%LPD*%
%AMOC8*
5,1,8,0,0,1.08239X$1,22.5*%
G01*
%ADD10P,2.144431X8X292.500000*%
%ADD11R,1.103200X0.903200*%
%ADD12R,1.603200X1.203200*%
%ADD13C,1.727200*%
%ADD14C,1.727200*%
%ADD15R,1.603200X0.903200*%
%ADD16R,0.903200X1.103200*%
%ADD17P,1.759533X8X22.500000*%
%ADD18R,1.703200X1.803200*%
%ADD19R,1.403200X1.403200*%
%ADD20R,4.103200X4.103200*%
%ADD21R,3.403200X3.403200*%
%ADD22R,1.676400X0.711200*%
%ADD23R,0.711200X1.676400*%
%ADD24R,2.184400X0.736600*%
%ADD25R,0.762000X2.184400*%
%ADD26R,0.853200X1.903200*%
%ADD27R,1.611200X1.611200*%
%ADD28C,1.611200*%
%ADD29C,1.879600*%


D10*
X279400Y558800D03*
X254000Y558800D03*
X228600Y558800D03*
X203200Y558800D03*
X177800Y558800D03*
X152400Y558800D03*
X127000Y558800D03*
X101600Y558800D03*
D11*
X571500Y526900D03*
X571500Y539900D03*
X571500Y489100D03*
X571500Y476100D03*
D12*
X900000Y406400D03*
X878000Y396900D03*
X878000Y415900D03*
D13*
X927100Y584200D03*
X927100Y558800D03*
X927100Y533400D03*
D14*
X927100Y741680D02*
X927100Y756920D01*
X901700Y756920D02*
X901700Y741680D01*
X876300Y741680D02*
X876300Y756920D01*
X850900Y756920D02*
X850900Y741680D01*
X825500Y741680D02*
X825500Y756920D01*
X800100Y756920D02*
X800100Y741680D01*
X774700Y741680D02*
X774700Y756920D01*
X749300Y756920D02*
X749300Y741680D01*
X723900Y741680D02*
X723900Y756920D01*
X698500Y756920D02*
X698500Y741680D01*
X673100Y741680D02*
X673100Y756920D01*
X647700Y756920D02*
X647700Y741680D01*
X622300Y741680D02*
X622300Y756920D01*
X596900Y756920D02*
X596900Y741680D01*
X571500Y741680D02*
X571500Y756920D01*
X546100Y756920D02*
X546100Y741680D01*
D15*
X584200Y499500D03*
X584200Y516500D03*
D11*
X584200Y653900D03*
X584200Y666900D03*
X381000Y578000D03*
X381000Y565000D03*
X355600Y578000D03*
X355600Y565000D03*
D16*
X565300Y774700D03*
X552300Y774700D03*
X857100Y558800D03*
X870100Y558800D03*
X857100Y520700D03*
X870100Y520700D03*
D17*
X723900Y342900D03*
X723900Y368300D03*
X749300Y342900D03*
X749300Y368300D03*
X774700Y342900D03*
X774700Y368300D03*
X800100Y368300D03*
X800100Y342900D03*
D14*
X622808Y683006D02*
X607568Y683006D01*
X607568Y637794D02*
X622808Y637794D01*
X672592Y683006D02*
X687832Y683006D01*
X687832Y637794D02*
X672592Y637794D01*
D18*
X876300Y688100D03*
D19*
X866300Y654850D03*
X886300Y654850D03*
D20*
X88900Y685800D03*
D21*
X88900Y603800D03*
X88900Y767800D03*
D22*
X631952Y561340D03*
X631952Y553466D03*
X631952Y545338D03*
X631952Y537464D03*
X631952Y529336D03*
X631952Y521462D03*
X631952Y513334D03*
X631952Y505460D03*
D23*
X645160Y492252D03*
X653034Y492252D03*
X661162Y492252D03*
X669036Y492252D03*
X677164Y492252D03*
X685038Y492252D03*
X693166Y492252D03*
X701040Y492252D03*
D22*
X714248Y505460D03*
X714248Y513334D03*
X714248Y521462D03*
X714248Y529336D03*
X714248Y537464D03*
X714248Y545338D03*
X714248Y553466D03*
X714248Y561340D03*
D23*
X701040Y574548D03*
X693166Y574548D03*
X685038Y574548D03*
X677164Y574548D03*
X669036Y574548D03*
X661162Y574548D03*
X653034Y574548D03*
X645160Y574548D03*
D24*
X219710Y755650D03*
X219710Y742950D03*
X219710Y730250D03*
X219710Y717550D03*
X219710Y704850D03*
X219710Y692150D03*
X219710Y679450D03*
X219710Y666750D03*
X313690Y666750D03*
X313690Y679450D03*
X313690Y692150D03*
X313690Y704850D03*
X313690Y717550D03*
X313690Y730250D03*
X313690Y742950D03*
X313690Y755650D03*
D25*
X742950Y229362D03*
X755650Y229362D03*
X768350Y229362D03*
X781050Y229362D03*
X781050Y278638D03*
X768350Y278638D03*
X755650Y278638D03*
X742950Y278638D03*
D13*
X393700Y749300D03*
X419100Y749300D03*
X444500Y749300D03*
D26*
X139700Y409400D03*
X152400Y409400D03*
X165100Y409400D03*
X177800Y409400D03*
X190500Y409400D03*
X203200Y409400D03*
X215900Y409400D03*
X228600Y409400D03*
X241300Y409400D03*
X254000Y409400D03*
X241300Y505000D03*
X254000Y505000D03*
X266700Y505000D03*
X279400Y505000D03*
X292100Y505000D03*
X304800Y505000D03*
X304800Y409400D03*
X292100Y409400D03*
X279400Y409400D03*
X266700Y409400D03*
X228600Y505000D03*
X215900Y505000D03*
X203200Y505000D03*
X190500Y505000D03*
X177800Y505000D03*
X165100Y505000D03*
X152400Y505000D03*
X139700Y505000D03*
D27*
X215900Y203200D03*
D28*
X215900Y228600D03*
X215900Y254000D03*
X139700Y254000D03*
X139700Y228600D03*
X139700Y203200D03*
D27*
X520700Y203200D03*
D28*
X520700Y228600D03*
X520700Y254000D03*
X444500Y254000D03*
X444500Y228600D03*
X444500Y203200D03*
D11*
X241300Y247800D03*
X241300Y234800D03*
X546100Y247800D03*
X546100Y234800D03*
D27*
X368300Y203200D03*
D28*
X368300Y228600D03*
X368300Y254000D03*
X292100Y254000D03*
X292100Y228600D03*
X292100Y203200D03*
D11*
X393700Y247800D03*
X393700Y234800D03*
D14*
X71120Y177800D02*
X55880Y177800D01*
X55880Y203200D02*
X71120Y203200D01*
X71120Y228600D02*
X55880Y228600D01*
X55880Y254000D02*
X71120Y254000D01*
D29*
X50800Y406400D03*
X50800Y431800D03*
X50800Y457200D03*
M02*
