G04 EAGLE Gerber X2 export*
%TF.Part,Single*%
%TF.FileFunction,Paste,Top*%
%TF.FilePolarity,Positive*%
%TF.GenerationSoftware,Autodesk,EAGLE,9.0.0*%
%TF.CreationDate,2019-07-04T23:27:38Z*%
G75*
%MOMM*%
%FSLAX34Y34*%
%LPD*%
%AMOC8*
5,1,8,0,0,1.08239X$1,22.5*%
G01*
%ADD10R,0.900000X0.700000*%
%ADD11R,1.400000X1.000000*%
%ADD12R,1.400000X0.700000*%
%ADD13R,0.700000X0.900000*%
%ADD14R,1.500000X1.600000*%
%ADD15R,1.200000X1.200000*%
%ADD16R,3.900000X3.900000*%
%ADD17R,3.200000X3.200000*%
%ADD18R,1.473200X0.508000*%
%ADD19R,0.508000X1.473200*%
%ADD20R,1.981200X0.533400*%
%ADD21R,0.558800X1.981200*%
%ADD22R,0.650000X1.700000*%


D10*
X571500Y526900D03*
X571500Y539900D03*
X571500Y489100D03*
X571500Y476100D03*
D11*
X900000Y406400D03*
X878000Y396900D03*
X878000Y415900D03*
D12*
X584200Y499500D03*
X584200Y516500D03*
D10*
X584200Y653900D03*
X584200Y666900D03*
X381000Y578000D03*
X381000Y565000D03*
X355600Y578000D03*
X355600Y565000D03*
D13*
X565300Y774700D03*
X552300Y774700D03*
X857100Y558800D03*
X870100Y558800D03*
X857100Y520700D03*
X870100Y520700D03*
D14*
X876300Y688100D03*
D15*
X866300Y654850D03*
X886300Y654850D03*
D16*
X88900Y685800D03*
D17*
X88900Y603800D03*
X88900Y767800D03*
D18*
X631952Y561340D03*
X631952Y553466D03*
X631952Y545338D03*
X631952Y537464D03*
X631952Y529336D03*
X631952Y521462D03*
X631952Y513334D03*
X631952Y505460D03*
D19*
X645160Y492252D03*
X653034Y492252D03*
X661162Y492252D03*
X669036Y492252D03*
X677164Y492252D03*
X685038Y492252D03*
X693166Y492252D03*
X701040Y492252D03*
D18*
X714248Y505460D03*
X714248Y513334D03*
X714248Y521462D03*
X714248Y529336D03*
X714248Y537464D03*
X714248Y545338D03*
X714248Y553466D03*
X714248Y561340D03*
D19*
X701040Y574548D03*
X693166Y574548D03*
X685038Y574548D03*
X677164Y574548D03*
X669036Y574548D03*
X661162Y574548D03*
X653034Y574548D03*
X645160Y574548D03*
D20*
X219710Y755650D03*
X219710Y742950D03*
X219710Y730250D03*
X219710Y717550D03*
X219710Y704850D03*
X219710Y692150D03*
X219710Y679450D03*
X219710Y666750D03*
X313690Y666750D03*
X313690Y679450D03*
X313690Y692150D03*
X313690Y704850D03*
X313690Y717550D03*
X313690Y730250D03*
X313690Y742950D03*
X313690Y755650D03*
D21*
X742950Y229362D03*
X755650Y229362D03*
X768350Y229362D03*
X781050Y229362D03*
X781050Y278638D03*
X768350Y278638D03*
X755650Y278638D03*
X742950Y278638D03*
D22*
X139700Y409400D03*
X152400Y409400D03*
X165100Y409400D03*
X177800Y409400D03*
X190500Y409400D03*
X203200Y409400D03*
X215900Y409400D03*
X228600Y409400D03*
X241300Y409400D03*
X254000Y409400D03*
X241300Y505000D03*
X254000Y505000D03*
X266700Y505000D03*
X279400Y505000D03*
X292100Y505000D03*
X304800Y505000D03*
X304800Y409400D03*
X292100Y409400D03*
X279400Y409400D03*
X266700Y409400D03*
X228600Y505000D03*
X215900Y505000D03*
X203200Y505000D03*
X190500Y505000D03*
X177800Y505000D03*
X165100Y505000D03*
X152400Y505000D03*
X139700Y505000D03*
D10*
X241300Y247800D03*
X241300Y234800D03*
X546100Y247800D03*
X546100Y234800D03*
X393700Y247800D03*
X393700Y234800D03*
M02*
