G04 #@! TF.GenerationSoftware,KiCad,Pcbnew,(5.1.2)-2*
G04 #@! TF.CreationDate,2019-10-30T22:04:38-04:00*
G04 #@! TF.ProjectId,Button_Board,42757474-6f6e-45f4-926f-6172642e6b69,rev?*
G04 #@! TF.SameCoordinates,Original*
G04 #@! TF.FileFunction,Paste,Top*
G04 #@! TF.FilePolarity,Positive*
%FSLAX46Y46*%
G04 Gerber Fmt 4.6, Leading zero omitted, Abs format (unit mm)*
G04 Created by KiCad (PCBNEW (5.1.2)-2) date 2019-10-30 22:04:38*
%MOMM*%
%LPD*%
G04 APERTURE LIST*
%ADD10C,1.899920*%
%ADD11C,0.100000*%
%ADD12C,1.099820*%
%ADD13R,1.450000X2.200000*%
G04 APERTURE END LIST*
D10*
X124618583Y-42418583D03*
D11*
G36*
X124653606Y-43797052D02*
G01*
X123240114Y-42383560D01*
X124583560Y-41040114D01*
X125997052Y-42453606D01*
X124653606Y-43797052D01*
X124653606Y-43797052D01*
G37*
D10*
X118781417Y-36581417D03*
D11*
G36*
X118816440Y-37959886D02*
G01*
X117402948Y-36546394D01*
X118746394Y-35202948D01*
X120159886Y-36616440D01*
X118816440Y-37959886D01*
X118816440Y-37959886D01*
G37*
D12*
X124051031Y-37148969D03*
D11*
G36*
X123786113Y-38191577D02*
G01*
X123008423Y-37413887D01*
X124315949Y-36106361D01*
X125093639Y-36884051D01*
X123786113Y-38191577D01*
X123786113Y-38191577D01*
G37*
D12*
X125040655Y-38138593D03*
D11*
G36*
X124775737Y-39181201D02*
G01*
X123998047Y-38403511D01*
X125305573Y-37095985D01*
X126083263Y-37873675D01*
X124775737Y-39181201D01*
X124775737Y-39181201D01*
G37*
D12*
X119348969Y-41851031D03*
D11*
G36*
X119084051Y-42893639D02*
G01*
X118306361Y-42115949D01*
X119613887Y-40808423D01*
X120391577Y-41586113D01*
X119084051Y-42893639D01*
X119084051Y-42893639D01*
G37*
D12*
X120338593Y-42840655D03*
D11*
G36*
X120073675Y-43883263D02*
G01*
X119295985Y-43105573D01*
X120603511Y-41798047D01*
X121381201Y-42575737D01*
X120073675Y-43883263D01*
X120073675Y-43883263D01*
G37*
D12*
X123061407Y-36159345D03*
D11*
G36*
X122796489Y-37201953D02*
G01*
X122018799Y-36424263D01*
X123326325Y-35116737D01*
X124104015Y-35894427D01*
X122796489Y-37201953D01*
X122796489Y-37201953D01*
G37*
D12*
X118359345Y-40861407D03*
D11*
G36*
X118094427Y-41904015D02*
G01*
X117316737Y-41126325D01*
X118624263Y-39818799D01*
X119401953Y-40596489D01*
X118094427Y-41904015D01*
X118094427Y-41904015D01*
G37*
D13*
X137600000Y-37700000D03*
X130400000Y-41300000D03*
X134000000Y-41300000D03*
X134000000Y-37700000D03*
X137600000Y-41300000D03*
X130400000Y-37700000D03*
M02*
