G04 #@! TF.GenerationSoftware,KiCad,Pcbnew,(5.1.2)-2*
G04 #@! TF.CreationDate,2019-10-30T22:04:38-04:00*
G04 #@! TF.ProjectId,Button_Board,42757474-6f6e-45f4-926f-6172642e6b69,rev?*
G04 #@! TF.SameCoordinates,Original*
G04 #@! TF.FileFunction,Copper,L1,Top*
G04 #@! TF.FilePolarity,Positive*
%FSLAX46Y46*%
G04 Gerber Fmt 4.6, Leading zero omitted, Abs format (unit mm)*
G04 Created by KiCad (PCBNEW (5.1.2)-2) date 2019-10-30 22:04:38*
%MOMM*%
%LPD*%
G04 APERTURE LIST*
%ADD10C,1.899920*%
%ADD11C,0.100000*%
%ADD12C,1.099820*%
%ADD13C,3.500000*%
%ADD14R,1.450000X2.200000*%
%ADD15C,0.800000*%
%ADD16C,0.250000*%
%ADD17C,0.254000*%
G04 APERTURE END LIST*
D10*
X124618583Y-42418583D03*
D11*
G36*
X124653606Y-43797052D02*
G01*
X123240114Y-42383560D01*
X124583560Y-41040114D01*
X125997052Y-42453606D01*
X124653606Y-43797052D01*
X124653606Y-43797052D01*
G37*
D10*
X118781417Y-36581417D03*
D11*
G36*
X118816440Y-37959886D02*
G01*
X117402948Y-36546394D01*
X118746394Y-35202948D01*
X120159886Y-36616440D01*
X118816440Y-37959886D01*
X118816440Y-37959886D01*
G37*
D12*
X124051031Y-37148969D03*
D11*
G36*
X123786113Y-38191577D02*
G01*
X123008423Y-37413887D01*
X124315949Y-36106361D01*
X125093639Y-36884051D01*
X123786113Y-38191577D01*
X123786113Y-38191577D01*
G37*
D12*
X125040655Y-38138593D03*
D11*
G36*
X124775737Y-39181201D02*
G01*
X123998047Y-38403511D01*
X125305573Y-37095985D01*
X126083263Y-37873675D01*
X124775737Y-39181201D01*
X124775737Y-39181201D01*
G37*
D12*
X119348969Y-41851031D03*
D11*
G36*
X119084051Y-42893639D02*
G01*
X118306361Y-42115949D01*
X119613887Y-40808423D01*
X120391577Y-41586113D01*
X119084051Y-42893639D01*
X119084051Y-42893639D01*
G37*
D12*
X120338593Y-42840655D03*
D11*
G36*
X120073675Y-43883263D02*
G01*
X119295985Y-43105573D01*
X120603511Y-41798047D01*
X121381201Y-42575737D01*
X120073675Y-43883263D01*
X120073675Y-43883263D01*
G37*
D12*
X123061407Y-36159345D03*
D11*
G36*
X122796489Y-37201953D02*
G01*
X122018799Y-36424263D01*
X123326325Y-35116737D01*
X124104015Y-35894427D01*
X122796489Y-37201953D01*
X122796489Y-37201953D01*
G37*
D12*
X118359345Y-40861407D03*
D11*
G36*
X118094427Y-41904015D02*
G01*
X117316737Y-41126325D01*
X118624263Y-39818799D01*
X119401953Y-40596489D01*
X118094427Y-41904015D01*
X118094427Y-41904015D01*
G37*
D13*
X113100000Y-39500000D03*
X143300000Y-39500000D03*
D14*
X137600000Y-37700000D03*
X130400000Y-41300000D03*
X134000000Y-41300000D03*
X134000000Y-37700000D03*
X137600000Y-41300000D03*
X130400000Y-37700000D03*
D15*
X138947000Y-37700000D03*
X132363100Y-41720200D03*
X129049800Y-42127200D03*
X122632000Y-42539700D03*
X124196300Y-35104300D03*
X119300000Y-43990200D03*
X121724900Y-35238600D03*
X118003100Y-38600000D03*
X135362000Y-42038600D03*
D16*
X124051100Y-37148900D02*
X124934900Y-36265100D01*
X130400000Y-37700000D02*
X129349700Y-37700000D01*
X129349700Y-37700000D02*
X128414600Y-36764900D01*
X128414600Y-36764900D02*
X125434600Y-36764900D01*
X125434600Y-36764900D02*
X124934900Y-36265100D01*
X134000000Y-37700000D02*
X130400000Y-37700000D01*
X138650300Y-37700000D02*
X138947000Y-37700000D01*
X137600000Y-37700000D02*
X138650300Y-37700000D01*
X134000000Y-37700000D02*
X137600000Y-37700000D01*
X134000000Y-41300000D02*
X132783300Y-41300000D01*
X132783300Y-41300000D02*
X132363100Y-41720200D01*
X130400000Y-41300000D02*
X129349700Y-41300000D01*
X129349700Y-41300000D02*
X129349700Y-41827300D01*
X129349700Y-41827300D02*
X129049800Y-42127200D01*
X120232800Y-40967200D02*
X120706300Y-41440800D01*
X120706300Y-41440800D02*
X120910800Y-41440800D01*
X120910800Y-41440800D02*
X122009700Y-42539700D01*
X122009700Y-42539700D02*
X122632000Y-42539700D01*
X119348900Y-41851100D02*
X120232800Y-40967200D01*
X123945300Y-35275500D02*
X124116500Y-35104300D01*
X124116500Y-35104300D02*
X124196300Y-35104300D01*
X123061500Y-36159300D02*
X123945300Y-35275500D01*
X119300000Y-43990200D02*
X119454800Y-43835400D01*
X119454800Y-43835400D02*
X119454800Y-43724500D01*
X119454800Y-43724500D02*
X119454800Y-43724400D01*
X120338500Y-42840700D02*
X119454800Y-43724400D01*
X121724900Y-35238600D02*
X121688700Y-35274800D01*
X121688700Y-35274800D02*
X121688700Y-36566500D01*
X121688700Y-36566500D02*
X123640700Y-38518500D01*
X123640700Y-38518500D02*
X123653000Y-38518500D01*
X123653000Y-38518500D02*
X124156900Y-39022300D01*
X125040700Y-38138500D02*
X124156900Y-39022300D01*
X119243200Y-39977600D02*
X118003100Y-38737600D01*
X118003100Y-38737600D02*
X118003100Y-38600000D01*
X118359300Y-40861500D02*
X119243200Y-39977600D01*
X136549700Y-41300000D02*
X135811100Y-42038600D01*
X135811100Y-42038600D02*
X135362000Y-42038600D01*
X137600000Y-41300000D02*
X136549700Y-41300000D01*
D17*
G36*
X120807695Y-34748344D02*
G01*
X120729674Y-34936702D01*
X120689900Y-35136661D01*
X120689900Y-35340539D01*
X120729674Y-35540498D01*
X120807695Y-35728856D01*
X120920963Y-35898374D01*
X120928700Y-35906111D01*
X120928701Y-36529168D01*
X120925024Y-36566500D01*
X120928701Y-36603833D01*
X120939698Y-36715486D01*
X120947414Y-36740922D01*
X120983154Y-36858746D01*
X121053726Y-36990776D01*
X121110039Y-37059393D01*
X121148700Y-37106501D01*
X121177698Y-37130299D01*
X123076901Y-39029503D01*
X123100699Y-39058501D01*
X123129697Y-39082299D01*
X123198391Y-39138675D01*
X123593121Y-39533328D01*
X123616899Y-39562301D01*
X123645931Y-39586127D01*
X123645954Y-39586150D01*
X123672117Y-39607617D01*
X123732624Y-39657274D01*
X123732658Y-39657292D01*
X123732687Y-39657316D01*
X123800514Y-39693562D01*
X123864654Y-39727846D01*
X123864688Y-39727856D01*
X123864723Y-39727875D01*
X123940718Y-39750919D01*
X124007915Y-39771302D01*
X124007950Y-39771305D01*
X124007988Y-39771317D01*
X124089384Y-39779326D01*
X124156900Y-39785976D01*
X124156933Y-39785973D01*
X124156976Y-39785977D01*
X124240706Y-39777722D01*
X124305885Y-39771302D01*
X124305917Y-39771292D01*
X124305960Y-39771288D01*
X124381853Y-39748258D01*
X124449146Y-39727846D01*
X124449180Y-39727828D01*
X124449216Y-39727817D01*
X124450270Y-39727253D01*
X124531557Y-39770703D01*
X124651255Y-39807013D01*
X124775737Y-39819273D01*
X124900219Y-39807013D01*
X125019917Y-39770703D01*
X125130231Y-39711738D01*
X125226922Y-39632386D01*
X126059308Y-38800000D01*
X129036928Y-38800000D01*
X129049188Y-38924482D01*
X129085498Y-39044180D01*
X129144463Y-39154494D01*
X129223815Y-39251185D01*
X129320506Y-39330537D01*
X129430820Y-39389502D01*
X129550518Y-39425812D01*
X129675000Y-39438072D01*
X130114250Y-39435000D01*
X130273000Y-39276250D01*
X130273000Y-37827000D01*
X130527000Y-37827000D01*
X130527000Y-39276250D01*
X130685750Y-39435000D01*
X131125000Y-39438072D01*
X131249482Y-39425812D01*
X131369180Y-39389502D01*
X131479494Y-39330537D01*
X131576185Y-39251185D01*
X131655537Y-39154494D01*
X131714502Y-39044180D01*
X131750812Y-38924482D01*
X131763072Y-38800000D01*
X132636928Y-38800000D01*
X132649188Y-38924482D01*
X132685498Y-39044180D01*
X132744463Y-39154494D01*
X132823815Y-39251185D01*
X132920506Y-39330537D01*
X133030820Y-39389502D01*
X133150518Y-39425812D01*
X133275000Y-39438072D01*
X133714250Y-39435000D01*
X133873000Y-39276250D01*
X133873000Y-37827000D01*
X134127000Y-37827000D01*
X134127000Y-39276250D01*
X134285750Y-39435000D01*
X134725000Y-39438072D01*
X134849482Y-39425812D01*
X134969180Y-39389502D01*
X135079494Y-39330537D01*
X135176185Y-39251185D01*
X135255537Y-39154494D01*
X135314502Y-39044180D01*
X135350812Y-38924482D01*
X135363072Y-38800000D01*
X136236928Y-38800000D01*
X136249188Y-38924482D01*
X136285498Y-39044180D01*
X136344463Y-39154494D01*
X136423815Y-39251185D01*
X136520506Y-39330537D01*
X136630820Y-39389502D01*
X136750518Y-39425812D01*
X136875000Y-39438072D01*
X137314250Y-39435000D01*
X137473000Y-39276250D01*
X137473000Y-37827000D01*
X137727000Y-37827000D01*
X137727000Y-39276250D01*
X137885750Y-39435000D01*
X138325000Y-39438072D01*
X138449482Y-39425812D01*
X138569180Y-39389502D01*
X138679494Y-39330537D01*
X138776185Y-39251185D01*
X138855537Y-39154494D01*
X138914502Y-39044180D01*
X138950812Y-38924482D01*
X138963072Y-38800000D01*
X138960000Y-37985750D01*
X138801250Y-37827000D01*
X137727000Y-37827000D01*
X137473000Y-37827000D01*
X136398750Y-37827000D01*
X136240000Y-37985750D01*
X136236928Y-38800000D01*
X135363072Y-38800000D01*
X135360000Y-37985750D01*
X135201250Y-37827000D01*
X134127000Y-37827000D01*
X133873000Y-37827000D01*
X132798750Y-37827000D01*
X132640000Y-37985750D01*
X132636928Y-38800000D01*
X131763072Y-38800000D01*
X131760000Y-37985750D01*
X131601250Y-37827000D01*
X130527000Y-37827000D01*
X130273000Y-37827000D01*
X129198750Y-37827000D01*
X129040000Y-37985750D01*
X129036928Y-38800000D01*
X126059308Y-38800000D01*
X126534448Y-38324860D01*
X126613800Y-38228169D01*
X126672765Y-38117855D01*
X126709075Y-37998157D01*
X126721335Y-37873675D01*
X126709075Y-37749193D01*
X126672765Y-37629495D01*
X126613800Y-37519181D01*
X126534448Y-37422490D01*
X125756758Y-36644800D01*
X125702169Y-36600000D01*
X129036928Y-36600000D01*
X129040000Y-37414250D01*
X129198750Y-37573000D01*
X130273000Y-37573000D01*
X130273000Y-36123750D01*
X130527000Y-36123750D01*
X130527000Y-37573000D01*
X131601250Y-37573000D01*
X131760000Y-37414250D01*
X131763072Y-36600000D01*
X132636928Y-36600000D01*
X132640000Y-37414250D01*
X132798750Y-37573000D01*
X133873000Y-37573000D01*
X133873000Y-36123750D01*
X134127000Y-36123750D01*
X134127000Y-37573000D01*
X135201250Y-37573000D01*
X135360000Y-37414250D01*
X135363072Y-36600000D01*
X136236928Y-36600000D01*
X136240000Y-37414250D01*
X136398750Y-37573000D01*
X137473000Y-37573000D01*
X137473000Y-36123750D01*
X137727000Y-36123750D01*
X137727000Y-37573000D01*
X138801250Y-37573000D01*
X138960000Y-37414250D01*
X138963072Y-36600000D01*
X138950812Y-36475518D01*
X138914502Y-36355820D01*
X138855537Y-36245506D01*
X138776185Y-36148815D01*
X138679494Y-36069463D01*
X138569180Y-36010498D01*
X138449482Y-35974188D01*
X138325000Y-35961928D01*
X137885750Y-35965000D01*
X137727000Y-36123750D01*
X137473000Y-36123750D01*
X137314250Y-35965000D01*
X136875000Y-35961928D01*
X136750518Y-35974188D01*
X136630820Y-36010498D01*
X136520506Y-36069463D01*
X136423815Y-36148815D01*
X136344463Y-36245506D01*
X136285498Y-36355820D01*
X136249188Y-36475518D01*
X136236928Y-36600000D01*
X135363072Y-36600000D01*
X135350812Y-36475518D01*
X135314502Y-36355820D01*
X135255537Y-36245506D01*
X135176185Y-36148815D01*
X135079494Y-36069463D01*
X134969180Y-36010498D01*
X134849482Y-35974188D01*
X134725000Y-35961928D01*
X134285750Y-35965000D01*
X134127000Y-36123750D01*
X133873000Y-36123750D01*
X133714250Y-35965000D01*
X133275000Y-35961928D01*
X133150518Y-35974188D01*
X133030820Y-36010498D01*
X132920506Y-36069463D01*
X132823815Y-36148815D01*
X132744463Y-36245506D01*
X132685498Y-36355820D01*
X132649188Y-36475518D01*
X132636928Y-36600000D01*
X131763072Y-36600000D01*
X131750812Y-36475518D01*
X131714502Y-36355820D01*
X131655537Y-36245506D01*
X131576185Y-36148815D01*
X131479494Y-36069463D01*
X131369180Y-36010498D01*
X131249482Y-35974188D01*
X131125000Y-35961928D01*
X130685750Y-35965000D01*
X130527000Y-36123750D01*
X130273000Y-36123750D01*
X130114250Y-35965000D01*
X129675000Y-35961928D01*
X129550518Y-35974188D01*
X129430820Y-36010498D01*
X129320506Y-36069463D01*
X129223815Y-36148815D01*
X129144463Y-36245506D01*
X129085498Y-36355820D01*
X129049188Y-36475518D01*
X129036928Y-36600000D01*
X125702169Y-36600000D01*
X125660067Y-36565448D01*
X125636678Y-36552946D01*
X125624177Y-36529558D01*
X125544824Y-36432866D01*
X125355862Y-36248249D01*
X125131356Y-36248249D01*
X124230636Y-37148969D01*
X124244779Y-37163112D01*
X124065174Y-37342717D01*
X124051031Y-37328574D01*
X124036889Y-37342717D01*
X123857284Y-37163112D01*
X123871426Y-37148969D01*
X123857284Y-37134827D01*
X124036889Y-36955222D01*
X124051031Y-36969364D01*
X124951751Y-36068644D01*
X124951751Y-35844138D01*
X124936146Y-35828165D01*
X125000237Y-35764074D01*
X125113505Y-35594556D01*
X125191526Y-35406198D01*
X125231300Y-35206239D01*
X125231300Y-35002361D01*
X125191526Y-34802402D01*
X125132541Y-34660000D01*
X145340001Y-34660000D01*
X145340001Y-38260190D01*
X145152550Y-37979651D01*
X144820349Y-37647450D01*
X144429721Y-37386440D01*
X143995679Y-37206654D01*
X143534902Y-37115000D01*
X143065098Y-37115000D01*
X142604321Y-37206654D01*
X142170279Y-37386440D01*
X141779651Y-37647450D01*
X141447450Y-37979651D01*
X141186440Y-38370279D01*
X141006654Y-38804321D01*
X140915000Y-39265098D01*
X140915000Y-39734902D01*
X141006654Y-40195679D01*
X141186440Y-40629721D01*
X141447450Y-41020349D01*
X141779651Y-41352550D01*
X142170279Y-41613560D01*
X142604321Y-41793346D01*
X143065098Y-41885000D01*
X143534902Y-41885000D01*
X143995679Y-41793346D01*
X144429721Y-41613560D01*
X144820349Y-41352550D01*
X145152550Y-41020349D01*
X145340000Y-40739810D01*
X145340000Y-44340000D01*
X124984881Y-44340000D01*
X125008100Y-44327589D01*
X125104791Y-44248237D01*
X126448237Y-42904791D01*
X126527589Y-42808100D01*
X126586554Y-42697786D01*
X126622864Y-42578088D01*
X126635124Y-42453606D01*
X126622864Y-42329124D01*
X126586554Y-42209426D01*
X126527589Y-42099112D01*
X126466982Y-42025261D01*
X128014800Y-42025261D01*
X128014800Y-42229139D01*
X128054574Y-42429098D01*
X128132595Y-42617456D01*
X128245863Y-42786974D01*
X128390026Y-42931137D01*
X128559544Y-43044405D01*
X128747902Y-43122426D01*
X128947861Y-43162200D01*
X129151739Y-43162200D01*
X129351698Y-43122426D01*
X129540056Y-43044405D01*
X129565652Y-43027302D01*
X129675000Y-43038072D01*
X131125000Y-43038072D01*
X131249482Y-43025812D01*
X131369180Y-42989502D01*
X131479494Y-42930537D01*
X131576185Y-42851185D01*
X131655537Y-42754494D01*
X131714502Y-42644180D01*
X131742896Y-42550577D01*
X131872844Y-42637405D01*
X132061202Y-42715426D01*
X132261161Y-42755200D01*
X132465039Y-42755200D01*
X132664998Y-42715426D01*
X132712961Y-42695559D01*
X132744463Y-42754494D01*
X132823815Y-42851185D01*
X132920506Y-42930537D01*
X133030820Y-42989502D01*
X133150518Y-43025812D01*
X133275000Y-43038072D01*
X134725000Y-43038072D01*
X134849482Y-43025812D01*
X134959895Y-42992319D01*
X135060102Y-43033826D01*
X135260061Y-43073600D01*
X135463939Y-43073600D01*
X135663898Y-43033826D01*
X135852256Y-42955805D01*
X136021774Y-42842537D01*
X136139477Y-42724834D01*
X136235376Y-42673574D01*
X136282647Y-42634780D01*
X136285498Y-42644180D01*
X136344463Y-42754494D01*
X136423815Y-42851185D01*
X136520506Y-42930537D01*
X136630820Y-42989502D01*
X136750518Y-43025812D01*
X136875000Y-43038072D01*
X138325000Y-43038072D01*
X138449482Y-43025812D01*
X138569180Y-42989502D01*
X138679494Y-42930537D01*
X138776185Y-42851185D01*
X138855537Y-42754494D01*
X138914502Y-42644180D01*
X138950812Y-42524482D01*
X138963072Y-42400000D01*
X138963072Y-40200000D01*
X138950812Y-40075518D01*
X138914502Y-39955820D01*
X138855537Y-39845506D01*
X138776185Y-39748815D01*
X138679494Y-39669463D01*
X138569180Y-39610498D01*
X138449482Y-39574188D01*
X138325000Y-39561928D01*
X136875000Y-39561928D01*
X136750518Y-39574188D01*
X136630820Y-39610498D01*
X136520506Y-39669463D01*
X136423815Y-39748815D01*
X136344463Y-39845506D01*
X136285498Y-39955820D01*
X136249188Y-40075518D01*
X136236928Y-40200000D01*
X136236928Y-40605425D01*
X136125423Y-40665026D01*
X136092803Y-40691797D01*
X136009699Y-40759999D01*
X135985901Y-40788998D01*
X135711717Y-41063181D01*
X135663898Y-41043374D01*
X135463939Y-41003600D01*
X135363072Y-41003600D01*
X135363072Y-40200000D01*
X135350812Y-40075518D01*
X135314502Y-39955820D01*
X135255537Y-39845506D01*
X135176185Y-39748815D01*
X135079494Y-39669463D01*
X134969180Y-39610498D01*
X134849482Y-39574188D01*
X134725000Y-39561928D01*
X133275000Y-39561928D01*
X133150518Y-39574188D01*
X133030820Y-39610498D01*
X132920506Y-39669463D01*
X132823815Y-39748815D01*
X132744463Y-39845506D01*
X132685498Y-39955820D01*
X132649188Y-40075518D01*
X132636928Y-40200000D01*
X132636928Y-40550740D01*
X132634314Y-40550997D01*
X132491053Y-40594454D01*
X132359024Y-40665026D01*
X132334442Y-40685200D01*
X132261161Y-40685200D01*
X132061202Y-40724974D01*
X131872844Y-40802995D01*
X131763072Y-40876342D01*
X131763072Y-40200000D01*
X131750812Y-40075518D01*
X131714502Y-39955820D01*
X131655537Y-39845506D01*
X131576185Y-39748815D01*
X131479494Y-39669463D01*
X131369180Y-39610498D01*
X131249482Y-39574188D01*
X131125000Y-39561928D01*
X129675000Y-39561928D01*
X129550518Y-39574188D01*
X129430820Y-39610498D01*
X129320506Y-39669463D01*
X129223815Y-39748815D01*
X129144463Y-39845506D01*
X129085498Y-39955820D01*
X129049188Y-40075518D01*
X129036928Y-40200000D01*
X129036928Y-40605425D01*
X128925424Y-40665026D01*
X128809699Y-40759999D01*
X128714726Y-40875724D01*
X128644154Y-41007753D01*
X128600697Y-41151014D01*
X128596391Y-41194732D01*
X128559544Y-41209995D01*
X128390026Y-41323263D01*
X128245863Y-41467426D01*
X128132595Y-41636944D01*
X128054574Y-41825302D01*
X128014800Y-42025261D01*
X126466982Y-42025261D01*
X126448237Y-42002421D01*
X125034745Y-40588929D01*
X124938054Y-40509577D01*
X124827740Y-40450612D01*
X124708042Y-40414302D01*
X124583560Y-40402042D01*
X124459078Y-40414302D01*
X124339380Y-40450612D01*
X124229066Y-40509577D01*
X124169057Y-40558825D01*
X124158396Y-40505230D01*
X124070990Y-40294212D01*
X123944096Y-40104302D01*
X123782590Y-39942796D01*
X123592680Y-39815902D01*
X123381662Y-39728496D01*
X123157648Y-39683936D01*
X122929244Y-39683936D01*
X122705230Y-39728496D01*
X122494212Y-39815902D01*
X122304302Y-39942796D01*
X122142796Y-40104302D01*
X122015902Y-40294212D01*
X121928496Y-40505230D01*
X121883936Y-40729244D01*
X121883936Y-40957648D01*
X121928496Y-41181662D01*
X122015902Y-41392680D01*
X122142796Y-41582590D01*
X122170705Y-41610499D01*
X122159812Y-41615011D01*
X121474604Y-40929802D01*
X121450801Y-40900799D01*
X121335076Y-40805826D01*
X121203047Y-40735254D01*
X121059786Y-40691797D01*
X121029124Y-40688777D01*
X120796617Y-40456221D01*
X120772800Y-40427200D01*
X120722790Y-40386158D01*
X120657143Y-40332271D01*
X120657102Y-40332249D01*
X120657075Y-40332227D01*
X120600196Y-40301824D01*
X120525121Y-40261685D01*
X120525077Y-40261672D01*
X120525046Y-40261655D01*
X120460235Y-40241995D01*
X120381865Y-40218213D01*
X120381820Y-40218209D01*
X120381785Y-40218198D01*
X120311602Y-40211286D01*
X120232880Y-40203524D01*
X120232839Y-40203528D01*
X120232799Y-40203524D01*
X120158593Y-40210833D01*
X120083894Y-40218182D01*
X120083855Y-40218194D01*
X120083813Y-40218198D01*
X120014988Y-40239076D01*
X119952319Y-40258078D01*
X119978926Y-40170351D01*
X119992202Y-40126587D01*
X119992203Y-40126575D01*
X119992209Y-40126556D01*
X120001702Y-40030137D01*
X120006876Y-39977601D01*
X120006875Y-39977590D01*
X120006877Y-39977569D01*
X119996883Y-39876142D01*
X119992202Y-39828615D01*
X119992199Y-39828606D01*
X119992197Y-39828584D01*
X119961643Y-39727875D01*
X119948745Y-39685354D01*
X119948740Y-39685344D01*
X119948734Y-39685325D01*
X119895691Y-39586099D01*
X119878173Y-39553325D01*
X119878169Y-39553320D01*
X119878157Y-39553298D01*
X119806979Y-39466574D01*
X119806975Y-39466570D01*
X119783200Y-39437600D01*
X119754206Y-39413805D01*
X119038100Y-38697757D01*
X119038100Y-38556219D01*
X119060620Y-38549388D01*
X119170934Y-38490423D01*
X119267625Y-38411071D01*
X119359480Y-38319216D01*
X119385705Y-38451058D01*
X119461814Y-38634802D01*
X119572308Y-38800168D01*
X119712940Y-38940800D01*
X119878306Y-39051294D01*
X120062050Y-39127403D01*
X120257112Y-39166204D01*
X120455996Y-39166204D01*
X120651058Y-39127403D01*
X120834802Y-39051294D01*
X121000168Y-38940800D01*
X121140800Y-38800168D01*
X121251294Y-38634802D01*
X121327403Y-38451058D01*
X121366204Y-38255996D01*
X121366204Y-38057112D01*
X121327403Y-37862050D01*
X121251294Y-37678306D01*
X121140800Y-37512940D01*
X121000168Y-37372308D01*
X120834802Y-37261814D01*
X120651058Y-37185705D01*
X120519216Y-37159480D01*
X120611071Y-37067625D01*
X120690423Y-36970934D01*
X120749388Y-36860620D01*
X120785698Y-36740922D01*
X120797958Y-36616440D01*
X120785698Y-36491958D01*
X120749388Y-36372260D01*
X120690423Y-36261946D01*
X120611071Y-36165255D01*
X119197579Y-34751763D01*
X119100888Y-34672411D01*
X119077669Y-34660000D01*
X120866724Y-34660000D01*
X120807695Y-34748344D01*
X120807695Y-34748344D01*
G37*
X120807695Y-34748344D02*
X120729674Y-34936702D01*
X120689900Y-35136661D01*
X120689900Y-35340539D01*
X120729674Y-35540498D01*
X120807695Y-35728856D01*
X120920963Y-35898374D01*
X120928700Y-35906111D01*
X120928701Y-36529168D01*
X120925024Y-36566500D01*
X120928701Y-36603833D01*
X120939698Y-36715486D01*
X120947414Y-36740922D01*
X120983154Y-36858746D01*
X121053726Y-36990776D01*
X121110039Y-37059393D01*
X121148700Y-37106501D01*
X121177698Y-37130299D01*
X123076901Y-39029503D01*
X123100699Y-39058501D01*
X123129697Y-39082299D01*
X123198391Y-39138675D01*
X123593121Y-39533328D01*
X123616899Y-39562301D01*
X123645931Y-39586127D01*
X123645954Y-39586150D01*
X123672117Y-39607617D01*
X123732624Y-39657274D01*
X123732658Y-39657292D01*
X123732687Y-39657316D01*
X123800514Y-39693562D01*
X123864654Y-39727846D01*
X123864688Y-39727856D01*
X123864723Y-39727875D01*
X123940718Y-39750919D01*
X124007915Y-39771302D01*
X124007950Y-39771305D01*
X124007988Y-39771317D01*
X124089384Y-39779326D01*
X124156900Y-39785976D01*
X124156933Y-39785973D01*
X124156976Y-39785977D01*
X124240706Y-39777722D01*
X124305885Y-39771302D01*
X124305917Y-39771292D01*
X124305960Y-39771288D01*
X124381853Y-39748258D01*
X124449146Y-39727846D01*
X124449180Y-39727828D01*
X124449216Y-39727817D01*
X124450270Y-39727253D01*
X124531557Y-39770703D01*
X124651255Y-39807013D01*
X124775737Y-39819273D01*
X124900219Y-39807013D01*
X125019917Y-39770703D01*
X125130231Y-39711738D01*
X125226922Y-39632386D01*
X126059308Y-38800000D01*
X129036928Y-38800000D01*
X129049188Y-38924482D01*
X129085498Y-39044180D01*
X129144463Y-39154494D01*
X129223815Y-39251185D01*
X129320506Y-39330537D01*
X129430820Y-39389502D01*
X129550518Y-39425812D01*
X129675000Y-39438072D01*
X130114250Y-39435000D01*
X130273000Y-39276250D01*
X130273000Y-37827000D01*
X130527000Y-37827000D01*
X130527000Y-39276250D01*
X130685750Y-39435000D01*
X131125000Y-39438072D01*
X131249482Y-39425812D01*
X131369180Y-39389502D01*
X131479494Y-39330537D01*
X131576185Y-39251185D01*
X131655537Y-39154494D01*
X131714502Y-39044180D01*
X131750812Y-38924482D01*
X131763072Y-38800000D01*
X132636928Y-38800000D01*
X132649188Y-38924482D01*
X132685498Y-39044180D01*
X132744463Y-39154494D01*
X132823815Y-39251185D01*
X132920506Y-39330537D01*
X133030820Y-39389502D01*
X133150518Y-39425812D01*
X133275000Y-39438072D01*
X133714250Y-39435000D01*
X133873000Y-39276250D01*
X133873000Y-37827000D01*
X134127000Y-37827000D01*
X134127000Y-39276250D01*
X134285750Y-39435000D01*
X134725000Y-39438072D01*
X134849482Y-39425812D01*
X134969180Y-39389502D01*
X135079494Y-39330537D01*
X135176185Y-39251185D01*
X135255537Y-39154494D01*
X135314502Y-39044180D01*
X135350812Y-38924482D01*
X135363072Y-38800000D01*
X136236928Y-38800000D01*
X136249188Y-38924482D01*
X136285498Y-39044180D01*
X136344463Y-39154494D01*
X136423815Y-39251185D01*
X136520506Y-39330537D01*
X136630820Y-39389502D01*
X136750518Y-39425812D01*
X136875000Y-39438072D01*
X137314250Y-39435000D01*
X137473000Y-39276250D01*
X137473000Y-37827000D01*
X137727000Y-37827000D01*
X137727000Y-39276250D01*
X137885750Y-39435000D01*
X138325000Y-39438072D01*
X138449482Y-39425812D01*
X138569180Y-39389502D01*
X138679494Y-39330537D01*
X138776185Y-39251185D01*
X138855537Y-39154494D01*
X138914502Y-39044180D01*
X138950812Y-38924482D01*
X138963072Y-38800000D01*
X138960000Y-37985750D01*
X138801250Y-37827000D01*
X137727000Y-37827000D01*
X137473000Y-37827000D01*
X136398750Y-37827000D01*
X136240000Y-37985750D01*
X136236928Y-38800000D01*
X135363072Y-38800000D01*
X135360000Y-37985750D01*
X135201250Y-37827000D01*
X134127000Y-37827000D01*
X133873000Y-37827000D01*
X132798750Y-37827000D01*
X132640000Y-37985750D01*
X132636928Y-38800000D01*
X131763072Y-38800000D01*
X131760000Y-37985750D01*
X131601250Y-37827000D01*
X130527000Y-37827000D01*
X130273000Y-37827000D01*
X129198750Y-37827000D01*
X129040000Y-37985750D01*
X129036928Y-38800000D01*
X126059308Y-38800000D01*
X126534448Y-38324860D01*
X126613800Y-38228169D01*
X126672765Y-38117855D01*
X126709075Y-37998157D01*
X126721335Y-37873675D01*
X126709075Y-37749193D01*
X126672765Y-37629495D01*
X126613800Y-37519181D01*
X126534448Y-37422490D01*
X125756758Y-36644800D01*
X125702169Y-36600000D01*
X129036928Y-36600000D01*
X129040000Y-37414250D01*
X129198750Y-37573000D01*
X130273000Y-37573000D01*
X130273000Y-36123750D01*
X130527000Y-36123750D01*
X130527000Y-37573000D01*
X131601250Y-37573000D01*
X131760000Y-37414250D01*
X131763072Y-36600000D01*
X132636928Y-36600000D01*
X132640000Y-37414250D01*
X132798750Y-37573000D01*
X133873000Y-37573000D01*
X133873000Y-36123750D01*
X134127000Y-36123750D01*
X134127000Y-37573000D01*
X135201250Y-37573000D01*
X135360000Y-37414250D01*
X135363072Y-36600000D01*
X136236928Y-36600000D01*
X136240000Y-37414250D01*
X136398750Y-37573000D01*
X137473000Y-37573000D01*
X137473000Y-36123750D01*
X137727000Y-36123750D01*
X137727000Y-37573000D01*
X138801250Y-37573000D01*
X138960000Y-37414250D01*
X138963072Y-36600000D01*
X138950812Y-36475518D01*
X138914502Y-36355820D01*
X138855537Y-36245506D01*
X138776185Y-36148815D01*
X138679494Y-36069463D01*
X138569180Y-36010498D01*
X138449482Y-35974188D01*
X138325000Y-35961928D01*
X137885750Y-35965000D01*
X137727000Y-36123750D01*
X137473000Y-36123750D01*
X137314250Y-35965000D01*
X136875000Y-35961928D01*
X136750518Y-35974188D01*
X136630820Y-36010498D01*
X136520506Y-36069463D01*
X136423815Y-36148815D01*
X136344463Y-36245506D01*
X136285498Y-36355820D01*
X136249188Y-36475518D01*
X136236928Y-36600000D01*
X135363072Y-36600000D01*
X135350812Y-36475518D01*
X135314502Y-36355820D01*
X135255537Y-36245506D01*
X135176185Y-36148815D01*
X135079494Y-36069463D01*
X134969180Y-36010498D01*
X134849482Y-35974188D01*
X134725000Y-35961928D01*
X134285750Y-35965000D01*
X134127000Y-36123750D01*
X133873000Y-36123750D01*
X133714250Y-35965000D01*
X133275000Y-35961928D01*
X133150518Y-35974188D01*
X133030820Y-36010498D01*
X132920506Y-36069463D01*
X132823815Y-36148815D01*
X132744463Y-36245506D01*
X132685498Y-36355820D01*
X132649188Y-36475518D01*
X132636928Y-36600000D01*
X131763072Y-36600000D01*
X131750812Y-36475518D01*
X131714502Y-36355820D01*
X131655537Y-36245506D01*
X131576185Y-36148815D01*
X131479494Y-36069463D01*
X131369180Y-36010498D01*
X131249482Y-35974188D01*
X131125000Y-35961928D01*
X130685750Y-35965000D01*
X130527000Y-36123750D01*
X130273000Y-36123750D01*
X130114250Y-35965000D01*
X129675000Y-35961928D01*
X129550518Y-35974188D01*
X129430820Y-36010498D01*
X129320506Y-36069463D01*
X129223815Y-36148815D01*
X129144463Y-36245506D01*
X129085498Y-36355820D01*
X129049188Y-36475518D01*
X129036928Y-36600000D01*
X125702169Y-36600000D01*
X125660067Y-36565448D01*
X125636678Y-36552946D01*
X125624177Y-36529558D01*
X125544824Y-36432866D01*
X125355862Y-36248249D01*
X125131356Y-36248249D01*
X124230636Y-37148969D01*
X124244779Y-37163112D01*
X124065174Y-37342717D01*
X124051031Y-37328574D01*
X124036889Y-37342717D01*
X123857284Y-37163112D01*
X123871426Y-37148969D01*
X123857284Y-37134827D01*
X124036889Y-36955222D01*
X124051031Y-36969364D01*
X124951751Y-36068644D01*
X124951751Y-35844138D01*
X124936146Y-35828165D01*
X125000237Y-35764074D01*
X125113505Y-35594556D01*
X125191526Y-35406198D01*
X125231300Y-35206239D01*
X125231300Y-35002361D01*
X125191526Y-34802402D01*
X125132541Y-34660000D01*
X145340001Y-34660000D01*
X145340001Y-38260190D01*
X145152550Y-37979651D01*
X144820349Y-37647450D01*
X144429721Y-37386440D01*
X143995679Y-37206654D01*
X143534902Y-37115000D01*
X143065098Y-37115000D01*
X142604321Y-37206654D01*
X142170279Y-37386440D01*
X141779651Y-37647450D01*
X141447450Y-37979651D01*
X141186440Y-38370279D01*
X141006654Y-38804321D01*
X140915000Y-39265098D01*
X140915000Y-39734902D01*
X141006654Y-40195679D01*
X141186440Y-40629721D01*
X141447450Y-41020349D01*
X141779651Y-41352550D01*
X142170279Y-41613560D01*
X142604321Y-41793346D01*
X143065098Y-41885000D01*
X143534902Y-41885000D01*
X143995679Y-41793346D01*
X144429721Y-41613560D01*
X144820349Y-41352550D01*
X145152550Y-41020349D01*
X145340000Y-40739810D01*
X145340000Y-44340000D01*
X124984881Y-44340000D01*
X125008100Y-44327589D01*
X125104791Y-44248237D01*
X126448237Y-42904791D01*
X126527589Y-42808100D01*
X126586554Y-42697786D01*
X126622864Y-42578088D01*
X126635124Y-42453606D01*
X126622864Y-42329124D01*
X126586554Y-42209426D01*
X126527589Y-42099112D01*
X126466982Y-42025261D01*
X128014800Y-42025261D01*
X128014800Y-42229139D01*
X128054574Y-42429098D01*
X128132595Y-42617456D01*
X128245863Y-42786974D01*
X128390026Y-42931137D01*
X128559544Y-43044405D01*
X128747902Y-43122426D01*
X128947861Y-43162200D01*
X129151739Y-43162200D01*
X129351698Y-43122426D01*
X129540056Y-43044405D01*
X129565652Y-43027302D01*
X129675000Y-43038072D01*
X131125000Y-43038072D01*
X131249482Y-43025812D01*
X131369180Y-42989502D01*
X131479494Y-42930537D01*
X131576185Y-42851185D01*
X131655537Y-42754494D01*
X131714502Y-42644180D01*
X131742896Y-42550577D01*
X131872844Y-42637405D01*
X132061202Y-42715426D01*
X132261161Y-42755200D01*
X132465039Y-42755200D01*
X132664998Y-42715426D01*
X132712961Y-42695559D01*
X132744463Y-42754494D01*
X132823815Y-42851185D01*
X132920506Y-42930537D01*
X133030820Y-42989502D01*
X133150518Y-43025812D01*
X133275000Y-43038072D01*
X134725000Y-43038072D01*
X134849482Y-43025812D01*
X134959895Y-42992319D01*
X135060102Y-43033826D01*
X135260061Y-43073600D01*
X135463939Y-43073600D01*
X135663898Y-43033826D01*
X135852256Y-42955805D01*
X136021774Y-42842537D01*
X136139477Y-42724834D01*
X136235376Y-42673574D01*
X136282647Y-42634780D01*
X136285498Y-42644180D01*
X136344463Y-42754494D01*
X136423815Y-42851185D01*
X136520506Y-42930537D01*
X136630820Y-42989502D01*
X136750518Y-43025812D01*
X136875000Y-43038072D01*
X138325000Y-43038072D01*
X138449482Y-43025812D01*
X138569180Y-42989502D01*
X138679494Y-42930537D01*
X138776185Y-42851185D01*
X138855537Y-42754494D01*
X138914502Y-42644180D01*
X138950812Y-42524482D01*
X138963072Y-42400000D01*
X138963072Y-40200000D01*
X138950812Y-40075518D01*
X138914502Y-39955820D01*
X138855537Y-39845506D01*
X138776185Y-39748815D01*
X138679494Y-39669463D01*
X138569180Y-39610498D01*
X138449482Y-39574188D01*
X138325000Y-39561928D01*
X136875000Y-39561928D01*
X136750518Y-39574188D01*
X136630820Y-39610498D01*
X136520506Y-39669463D01*
X136423815Y-39748815D01*
X136344463Y-39845506D01*
X136285498Y-39955820D01*
X136249188Y-40075518D01*
X136236928Y-40200000D01*
X136236928Y-40605425D01*
X136125423Y-40665026D01*
X136092803Y-40691797D01*
X136009699Y-40759999D01*
X135985901Y-40788998D01*
X135711717Y-41063181D01*
X135663898Y-41043374D01*
X135463939Y-41003600D01*
X135363072Y-41003600D01*
X135363072Y-40200000D01*
X135350812Y-40075518D01*
X135314502Y-39955820D01*
X135255537Y-39845506D01*
X135176185Y-39748815D01*
X135079494Y-39669463D01*
X134969180Y-39610498D01*
X134849482Y-39574188D01*
X134725000Y-39561928D01*
X133275000Y-39561928D01*
X133150518Y-39574188D01*
X133030820Y-39610498D01*
X132920506Y-39669463D01*
X132823815Y-39748815D01*
X132744463Y-39845506D01*
X132685498Y-39955820D01*
X132649188Y-40075518D01*
X132636928Y-40200000D01*
X132636928Y-40550740D01*
X132634314Y-40550997D01*
X132491053Y-40594454D01*
X132359024Y-40665026D01*
X132334442Y-40685200D01*
X132261161Y-40685200D01*
X132061202Y-40724974D01*
X131872844Y-40802995D01*
X131763072Y-40876342D01*
X131763072Y-40200000D01*
X131750812Y-40075518D01*
X131714502Y-39955820D01*
X131655537Y-39845506D01*
X131576185Y-39748815D01*
X131479494Y-39669463D01*
X131369180Y-39610498D01*
X131249482Y-39574188D01*
X131125000Y-39561928D01*
X129675000Y-39561928D01*
X129550518Y-39574188D01*
X129430820Y-39610498D01*
X129320506Y-39669463D01*
X129223815Y-39748815D01*
X129144463Y-39845506D01*
X129085498Y-39955820D01*
X129049188Y-40075518D01*
X129036928Y-40200000D01*
X129036928Y-40605425D01*
X128925424Y-40665026D01*
X128809699Y-40759999D01*
X128714726Y-40875724D01*
X128644154Y-41007753D01*
X128600697Y-41151014D01*
X128596391Y-41194732D01*
X128559544Y-41209995D01*
X128390026Y-41323263D01*
X128245863Y-41467426D01*
X128132595Y-41636944D01*
X128054574Y-41825302D01*
X128014800Y-42025261D01*
X126466982Y-42025261D01*
X126448237Y-42002421D01*
X125034745Y-40588929D01*
X124938054Y-40509577D01*
X124827740Y-40450612D01*
X124708042Y-40414302D01*
X124583560Y-40402042D01*
X124459078Y-40414302D01*
X124339380Y-40450612D01*
X124229066Y-40509577D01*
X124169057Y-40558825D01*
X124158396Y-40505230D01*
X124070990Y-40294212D01*
X123944096Y-40104302D01*
X123782590Y-39942796D01*
X123592680Y-39815902D01*
X123381662Y-39728496D01*
X123157648Y-39683936D01*
X122929244Y-39683936D01*
X122705230Y-39728496D01*
X122494212Y-39815902D01*
X122304302Y-39942796D01*
X122142796Y-40104302D01*
X122015902Y-40294212D01*
X121928496Y-40505230D01*
X121883936Y-40729244D01*
X121883936Y-40957648D01*
X121928496Y-41181662D01*
X122015902Y-41392680D01*
X122142796Y-41582590D01*
X122170705Y-41610499D01*
X122159812Y-41615011D01*
X121474604Y-40929802D01*
X121450801Y-40900799D01*
X121335076Y-40805826D01*
X121203047Y-40735254D01*
X121059786Y-40691797D01*
X121029124Y-40688777D01*
X120796617Y-40456221D01*
X120772800Y-40427200D01*
X120722790Y-40386158D01*
X120657143Y-40332271D01*
X120657102Y-40332249D01*
X120657075Y-40332227D01*
X120600196Y-40301824D01*
X120525121Y-40261685D01*
X120525077Y-40261672D01*
X120525046Y-40261655D01*
X120460235Y-40241995D01*
X120381865Y-40218213D01*
X120381820Y-40218209D01*
X120381785Y-40218198D01*
X120311602Y-40211286D01*
X120232880Y-40203524D01*
X120232839Y-40203528D01*
X120232799Y-40203524D01*
X120158593Y-40210833D01*
X120083894Y-40218182D01*
X120083855Y-40218194D01*
X120083813Y-40218198D01*
X120014988Y-40239076D01*
X119952319Y-40258078D01*
X119978926Y-40170351D01*
X119992202Y-40126587D01*
X119992203Y-40126575D01*
X119992209Y-40126556D01*
X120001702Y-40030137D01*
X120006876Y-39977601D01*
X120006875Y-39977590D01*
X120006877Y-39977569D01*
X119996883Y-39876142D01*
X119992202Y-39828615D01*
X119992199Y-39828606D01*
X119992197Y-39828584D01*
X119961643Y-39727875D01*
X119948745Y-39685354D01*
X119948740Y-39685344D01*
X119948734Y-39685325D01*
X119895691Y-39586099D01*
X119878173Y-39553325D01*
X119878169Y-39553320D01*
X119878157Y-39553298D01*
X119806979Y-39466574D01*
X119806975Y-39466570D01*
X119783200Y-39437600D01*
X119754206Y-39413805D01*
X119038100Y-38697757D01*
X119038100Y-38556219D01*
X119060620Y-38549388D01*
X119170934Y-38490423D01*
X119267625Y-38411071D01*
X119359480Y-38319216D01*
X119385705Y-38451058D01*
X119461814Y-38634802D01*
X119572308Y-38800168D01*
X119712940Y-38940800D01*
X119878306Y-39051294D01*
X120062050Y-39127403D01*
X120257112Y-39166204D01*
X120455996Y-39166204D01*
X120651058Y-39127403D01*
X120834802Y-39051294D01*
X121000168Y-38940800D01*
X121140800Y-38800168D01*
X121251294Y-38634802D01*
X121327403Y-38451058D01*
X121366204Y-38255996D01*
X121366204Y-38057112D01*
X121327403Y-37862050D01*
X121251294Y-37678306D01*
X121140800Y-37512940D01*
X121000168Y-37372308D01*
X120834802Y-37261814D01*
X120651058Y-37185705D01*
X120519216Y-37159480D01*
X120611071Y-37067625D01*
X120690423Y-36970934D01*
X120749388Y-36860620D01*
X120785698Y-36740922D01*
X120797958Y-36616440D01*
X120785698Y-36491958D01*
X120749388Y-36372260D01*
X120690423Y-36261946D01*
X120611071Y-36165255D01*
X119197579Y-34751763D01*
X119100888Y-34672411D01*
X119077669Y-34660000D01*
X120866724Y-34660000D01*
X120807695Y-34748344D01*
M02*
