G04 #@! TF.GenerationSoftware,KiCad,Pcbnew,(5.1.2)-2*
G04 #@! TF.CreationDate,2019-10-30T22:04:38-04:00*
G04 #@! TF.ProjectId,Button_Board,42757474-6f6e-45f4-926f-6172642e6b69,rev?*
G04 #@! TF.SameCoordinates,Original*
G04 #@! TF.FileFunction,Legend,Top*
G04 #@! TF.FilePolarity,Positive*
%FSLAX46Y46*%
G04 Gerber Fmt 4.6, Leading zero omitted, Abs format (unit mm)*
G04 Created by KiCad (PCBNEW (5.1.2)-2) date 2019-10-30 22:04:38*
%MOMM*%
%LPD*%
G04 APERTURE LIST*
%ADD10C,0.203200*%
%ADD11C,0.100000*%
%ADD12C,0.127000*%
%ADD13C,0.150000*%
G04 APERTURE END LIST*
D10*
X120712172Y-39988526D02*
G75*
G03X121211474Y-40487828I499302J0D01*
G01*
X121211474Y-38512172D02*
G75*
G03X120712172Y-39011474I0J-499302D01*
G01*
X122687828Y-39011474D02*
G75*
G03X122188526Y-38512172I-499302J0D01*
G01*
X122188526Y-40487828D02*
G75*
G03X122687828Y-39988526I0J499302D01*
G01*
X123198600Y-39500000D02*
G75*
G03X123198600Y-39500000I-1498600J0D01*
G01*
X126136247Y-40189684D02*
X125058616Y-41267314D01*
X123467314Y-42858616D02*
X122389684Y-43936247D01*
X122603414Y-35061957D02*
X122817144Y-35275688D01*
X125924312Y-38382856D02*
X126138043Y-38596586D01*
X117475688Y-40617144D02*
X117261957Y-40403414D01*
X120796586Y-43938043D02*
X120582856Y-43724312D01*
X118589239Y-39500000D02*
X119014903Y-39925664D01*
X118589239Y-39500000D02*
X119014903Y-39074336D01*
X119864436Y-39500000D02*
X118589239Y-39500000D01*
X120712172Y-39011474D02*
X120712172Y-39988526D01*
X122188526Y-38512172D02*
X121211474Y-38512172D01*
X122687828Y-39988526D02*
X122687828Y-39011474D01*
X121211474Y-40487828D02*
X122188526Y-40487828D01*
X126138043Y-38596586D02*
X126136247Y-40189684D01*
X121010316Y-35063753D02*
X122603414Y-35061957D01*
X119932686Y-36141384D02*
X121010316Y-35063753D01*
X117263753Y-38810316D02*
X118341384Y-37732686D01*
X117261957Y-40403414D02*
X117263753Y-38810316D01*
X122389684Y-43936247D02*
X120796586Y-43938043D01*
D11*
X136800000Y-36500000D02*
X136800000Y-37000000D01*
X136800000Y-36500000D02*
X137300000Y-36500000D01*
X136800000Y-38900000D02*
X136800000Y-38400000D01*
X136800000Y-38900000D02*
X137300000Y-38900000D01*
X138400000Y-38900000D02*
X138400000Y-38400000D01*
X137900000Y-38900000D02*
X138400000Y-38900000D01*
X138400000Y-36500000D02*
X138400000Y-37000000D01*
X138400000Y-36500000D02*
X137900000Y-36500000D01*
X129600000Y-40100000D02*
X129600000Y-40600000D01*
X129600000Y-40100000D02*
X130100000Y-40100000D01*
X129600000Y-42500000D02*
X129600000Y-42000000D01*
X129600000Y-42500000D02*
X130100000Y-42500000D01*
X131200000Y-42500000D02*
X131200000Y-42000000D01*
X130700000Y-42500000D02*
X131200000Y-42500000D01*
X131200000Y-40100000D02*
X131200000Y-40600000D01*
X131200000Y-40100000D02*
X130700000Y-40100000D01*
X133200000Y-40100000D02*
X133200000Y-40600000D01*
X133200000Y-40100000D02*
X133700000Y-40100000D01*
X133200000Y-42500000D02*
X133200000Y-42000000D01*
X133200000Y-42500000D02*
X133700000Y-42500000D01*
X134800000Y-42500000D02*
X134800000Y-42000000D01*
X134300000Y-42500000D02*
X134800000Y-42500000D01*
X134800000Y-40100000D02*
X134800000Y-40600000D01*
X134800000Y-40100000D02*
X134300000Y-40100000D01*
X133200000Y-36500000D02*
X133200000Y-37000000D01*
X133200000Y-36500000D02*
X133700000Y-36500000D01*
X133200000Y-38900000D02*
X133200000Y-38400000D01*
X133200000Y-38900000D02*
X133700000Y-38900000D01*
X134800000Y-38900000D02*
X134800000Y-38400000D01*
X134300000Y-38900000D02*
X134800000Y-38900000D01*
X134800000Y-36500000D02*
X134800000Y-37000000D01*
X134800000Y-36500000D02*
X134300000Y-36500000D01*
X136800000Y-40100000D02*
X136800000Y-40600000D01*
X136800000Y-40100000D02*
X137300000Y-40100000D01*
X136800000Y-42500000D02*
X136800000Y-42000000D01*
X136800000Y-42500000D02*
X137300000Y-42500000D01*
X138400000Y-42500000D02*
X138400000Y-42000000D01*
X137900000Y-42500000D02*
X138400000Y-42500000D01*
X138400000Y-40100000D02*
X138400000Y-40600000D01*
X138400000Y-40100000D02*
X137900000Y-40100000D01*
X129600000Y-36500000D02*
X129600000Y-37000000D01*
X129600000Y-36500000D02*
X130100000Y-36500000D01*
X129600000Y-38900000D02*
X129600000Y-38400000D01*
X129600000Y-38900000D02*
X130100000Y-38900000D01*
X131200000Y-38900000D02*
X131200000Y-38400000D01*
X130700000Y-38900000D02*
X131200000Y-38900000D01*
X131200000Y-36500000D02*
X131200000Y-37000000D01*
X131200000Y-36500000D02*
X130700000Y-36500000D01*
D12*
X116917799Y-40144062D02*
X116946828Y-40056976D01*
X116946828Y-39911833D01*
X116917799Y-39853776D01*
X116888771Y-39824747D01*
X116830714Y-39795719D01*
X116772657Y-39795719D01*
X116714599Y-39824747D01*
X116685571Y-39853776D01*
X116656542Y-39911833D01*
X116627514Y-40027947D01*
X116598485Y-40086005D01*
X116569457Y-40115033D01*
X116511399Y-40144062D01*
X116453342Y-40144062D01*
X116395285Y-40115033D01*
X116366257Y-40086005D01*
X116337228Y-40027947D01*
X116337228Y-39882805D01*
X116366257Y-39795719D01*
X116946828Y-39215147D02*
X116946828Y-39563490D01*
X116946828Y-39389319D02*
X116337228Y-39389319D01*
X116424314Y-39447376D01*
X116482371Y-39505433D01*
X116511399Y-39563490D01*
X126574720Y-42460914D02*
X127010149Y-42460914D01*
X127097234Y-42489942D01*
X127155291Y-42548000D01*
X127184320Y-42635085D01*
X127184320Y-42693142D01*
X126574720Y-42054514D02*
X126574720Y-41938400D01*
X126603749Y-41880342D01*
X126661806Y-41822285D01*
X126777920Y-41793257D01*
X126981120Y-41793257D01*
X127097234Y-41822285D01*
X127155291Y-41880342D01*
X127184320Y-41938400D01*
X127184320Y-42054514D01*
X127155291Y-42112571D01*
X127097234Y-42170628D01*
X126981120Y-42199657D01*
X126777920Y-42199657D01*
X126661806Y-42170628D01*
X126603749Y-42112571D01*
X126574720Y-42054514D01*
X126894034Y-41415885D02*
X127184320Y-41415885D01*
X126574720Y-41619085D02*
X126894034Y-41415885D01*
X126574720Y-41212685D01*
X127155291Y-41038514D02*
X127184320Y-40951428D01*
X127184320Y-40806285D01*
X127155291Y-40748228D01*
X127126263Y-40719200D01*
X127068206Y-40690171D01*
X127010149Y-40690171D01*
X126952091Y-40719200D01*
X126923063Y-40748228D01*
X126894034Y-40806285D01*
X126865006Y-40922400D01*
X126835977Y-40980457D01*
X126806949Y-41009485D01*
X126748891Y-41038514D01*
X126690834Y-41038514D01*
X126632777Y-41009485D01*
X126603749Y-40980457D01*
X126574720Y-40922400D01*
X126574720Y-40777257D01*
X126603749Y-40690171D01*
X126574720Y-40516000D02*
X126574720Y-40167657D01*
X127184320Y-40341828D02*
X126574720Y-40341828D01*
X127184320Y-39964457D02*
X126574720Y-39964457D01*
X127126263Y-39325828D02*
X127155291Y-39354857D01*
X127184320Y-39441942D01*
X127184320Y-39500000D01*
X127155291Y-39587085D01*
X127097234Y-39645142D01*
X127039177Y-39674171D01*
X126923063Y-39703200D01*
X126835977Y-39703200D01*
X126719863Y-39674171D01*
X126661806Y-39645142D01*
X126603749Y-39587085D01*
X126574720Y-39500000D01*
X126574720Y-39441942D01*
X126603749Y-39354857D01*
X126632777Y-39325828D01*
X127184320Y-39064571D02*
X126574720Y-39064571D01*
X127184320Y-38716228D02*
X126835977Y-38977485D01*
X126574720Y-38716228D02*
X126923063Y-39064571D01*
X127242377Y-38600114D02*
X127242377Y-38135657D01*
X127184320Y-37990514D02*
X126574720Y-37990514D01*
X127010149Y-37787314D01*
X126574720Y-37584114D01*
X127184320Y-37584114D01*
X127184320Y-37293828D02*
X126574720Y-37293828D01*
X127184320Y-37003542D02*
X126574720Y-37003542D01*
X127184320Y-36655200D01*
X126574720Y-36655200D01*
X127184320Y-36364914D02*
X126574720Y-36364914D01*
X117802568Y-38794408D02*
X118151515Y-39143355D01*
X118213094Y-39163881D01*
X118254147Y-39163881D01*
X118315726Y-39143355D01*
X118397831Y-39061250D01*
X118418357Y-38999671D01*
X118418357Y-38958618D01*
X118397831Y-38897039D01*
X118048884Y-38548092D01*
X118685199Y-38773882D02*
X118254147Y-38342829D01*
X118418357Y-38178619D01*
X118479936Y-38158093D01*
X118520989Y-38158093D01*
X118582567Y-38178619D01*
X118644146Y-38240198D01*
X118664673Y-38301777D01*
X118664673Y-38342829D01*
X118644146Y-38404408D01*
X118479936Y-38568619D01*
D13*
X112338095Y-37152380D02*
X112338095Y-36152380D01*
X112338095Y-36628571D02*
X112909523Y-36628571D01*
X112909523Y-37152380D02*
X112909523Y-36152380D01*
X113338095Y-36247619D02*
X113385714Y-36200000D01*
X113480952Y-36152380D01*
X113719047Y-36152380D01*
X113814285Y-36200000D01*
X113861904Y-36247619D01*
X113909523Y-36342857D01*
X113909523Y-36438095D01*
X113861904Y-36580952D01*
X113290476Y-37152380D01*
X113909523Y-37152380D01*
X142538095Y-37152380D02*
X142538095Y-36152380D01*
X142538095Y-36628571D02*
X143109523Y-36628571D01*
X143109523Y-37152380D02*
X143109523Y-36152380D01*
X144109523Y-37152380D02*
X143538095Y-37152380D01*
X143823809Y-37152380D02*
X143823809Y-36152380D01*
X143728571Y-36295238D01*
X143633333Y-36390476D01*
X143538095Y-36438095D01*
X135192380Y-38961904D02*
X135192380Y-38390476D01*
X136192380Y-38676190D02*
X135192380Y-38676190D01*
X136192380Y-38057142D02*
X135192380Y-38057142D01*
X135192380Y-37676190D01*
X135240000Y-37580952D01*
X135287619Y-37533333D01*
X135382857Y-37485714D01*
X135525714Y-37485714D01*
X135620952Y-37533333D01*
X135668571Y-37580952D01*
X135716190Y-37676190D01*
X135716190Y-38057142D01*
X135192380Y-36628571D02*
X135192380Y-36819047D01*
X135240000Y-36914285D01*
X135287619Y-36961904D01*
X135430476Y-37057142D01*
X135620952Y-37104761D01*
X136001904Y-37104761D01*
X136097142Y-37057142D01*
X136144761Y-37009523D01*
X136192380Y-36914285D01*
X136192380Y-36723809D01*
X136144761Y-36628571D01*
X136097142Y-36580952D01*
X136001904Y-36533333D01*
X135763809Y-36533333D01*
X135668571Y-36580952D01*
X135620952Y-36628571D01*
X135573333Y-36723809D01*
X135573333Y-36914285D01*
X135620952Y-37009523D01*
X135668571Y-37057142D01*
X135763809Y-37104761D01*
X127992380Y-42561904D02*
X127992380Y-41990476D01*
X128992380Y-42276190D02*
X127992380Y-42276190D01*
X128992380Y-41657142D02*
X127992380Y-41657142D01*
X127992380Y-41276190D01*
X128040000Y-41180952D01*
X128087619Y-41133333D01*
X128182857Y-41085714D01*
X128325714Y-41085714D01*
X128420952Y-41133333D01*
X128468571Y-41180952D01*
X128516190Y-41276190D01*
X128516190Y-41657142D01*
X127992380Y-40180952D02*
X127992380Y-40657142D01*
X128468571Y-40704761D01*
X128420952Y-40657142D01*
X128373333Y-40561904D01*
X128373333Y-40323809D01*
X128420952Y-40228571D01*
X128468571Y-40180952D01*
X128563809Y-40133333D01*
X128801904Y-40133333D01*
X128897142Y-40180952D01*
X128944761Y-40228571D01*
X128992380Y-40323809D01*
X128992380Y-40561904D01*
X128944761Y-40657142D01*
X128897142Y-40704761D01*
X131592380Y-42561904D02*
X131592380Y-41990476D01*
X132592380Y-42276190D02*
X131592380Y-42276190D01*
X132592380Y-41657142D02*
X131592380Y-41657142D01*
X131592380Y-41276190D01*
X131640000Y-41180952D01*
X131687619Y-41133333D01*
X131782857Y-41085714D01*
X131925714Y-41085714D01*
X132020952Y-41133333D01*
X132068571Y-41180952D01*
X132116190Y-41276190D01*
X132116190Y-41657142D01*
X131925714Y-40228571D02*
X132592380Y-40228571D01*
X131544761Y-40466666D02*
X132259047Y-40704761D01*
X132259047Y-40085714D01*
X131592380Y-38961904D02*
X131592380Y-38390476D01*
X132592380Y-38676190D02*
X131592380Y-38676190D01*
X132592380Y-38057142D02*
X131592380Y-38057142D01*
X131592380Y-37676190D01*
X131640000Y-37580952D01*
X131687619Y-37533333D01*
X131782857Y-37485714D01*
X131925714Y-37485714D01*
X132020952Y-37533333D01*
X132068571Y-37580952D01*
X132116190Y-37676190D01*
X132116190Y-38057142D01*
X131592380Y-37152380D02*
X131592380Y-36533333D01*
X131973333Y-36866666D01*
X131973333Y-36723809D01*
X132020952Y-36628571D01*
X132068571Y-36580952D01*
X132163809Y-36533333D01*
X132401904Y-36533333D01*
X132497142Y-36580952D01*
X132544761Y-36628571D01*
X132592380Y-36723809D01*
X132592380Y-37009523D01*
X132544761Y-37104761D01*
X132497142Y-37152380D01*
X135192380Y-42561904D02*
X135192380Y-41990476D01*
X136192380Y-42276190D02*
X135192380Y-42276190D01*
X136192380Y-41657142D02*
X135192380Y-41657142D01*
X135192380Y-41276190D01*
X135240000Y-41180952D01*
X135287619Y-41133333D01*
X135382857Y-41085714D01*
X135525714Y-41085714D01*
X135620952Y-41133333D01*
X135668571Y-41180952D01*
X135716190Y-41276190D01*
X135716190Y-41657142D01*
X135287619Y-40704761D02*
X135240000Y-40657142D01*
X135192380Y-40561904D01*
X135192380Y-40323809D01*
X135240000Y-40228571D01*
X135287619Y-40180952D01*
X135382857Y-40133333D01*
X135478095Y-40133333D01*
X135620952Y-40180952D01*
X136192380Y-40752380D01*
X136192380Y-40133333D01*
X127992380Y-38961904D02*
X127992380Y-38390476D01*
X128992380Y-38676190D02*
X127992380Y-38676190D01*
X128992380Y-38057142D02*
X127992380Y-38057142D01*
X127992380Y-37676190D01*
X128040000Y-37580952D01*
X128087619Y-37533333D01*
X128182857Y-37485714D01*
X128325714Y-37485714D01*
X128420952Y-37533333D01*
X128468571Y-37580952D01*
X128516190Y-37676190D01*
X128516190Y-38057142D01*
X128992380Y-36533333D02*
X128992380Y-37104761D01*
X128992380Y-36819047D02*
X127992380Y-36819047D01*
X128135238Y-36914285D01*
X128230476Y-37009523D01*
X128278095Y-37104761D01*
M02*
