M48
; DRILL file {KiCad (5.1.2)-2} date 10/30/2019 8:43:40 PM
; FORMAT={3:3/ absolute / metric / suppress leading zeros}
; #@! TF.CreationDate,2019-10-30T20:43:40-04:00
; #@! TF.GenerationSoftware,Kicad,Pcbnew,(5.1.2)-2
FMAT,2
METRIC,TZ
T1C0.400
T2C0.800
T3C0.950
T4C1.000
T5C1.100
T6C2.200
T7C0.848
%
G90
G05
T1
X129849Y-83793
X137807Y-85377
X138618Y-84641
X138669Y-82646
X138916Y-100115
X139562Y-84169
X140387Y-104662
X144006Y-80599
X144153Y-83293
X146283Y-113165
X147645Y-76187
X149125Y-75414
X151834Y-99646
X152328Y-73456
X155804Y-80029
X156842Y-97900
X156935Y-82808
X160750Y-73468
X161194Y-68501
X163669Y-86105
X164330Y-96850
X165151Y-100626
X165241Y-98625
X168038Y-98901
X168590Y-70915
X169150Y-102640
X169537Y-108325
X169777Y-87313
X170455Y-86527
X170623Y-101600
X172000Y-102625
X172131Y-94238
X173121Y-88631
X173600Y-99646
X173762Y-74619
X173995Y-92899
X178412Y-95021
X179048Y-85036
X179325Y-94498
T2
X120300Y-94900
X120300Y-97440
X120300Y-99980
X127920Y-94900
X127920Y-97440
X127920Y-99980
X120300Y-84200
X120300Y-86740
X120300Y-89280
X127920Y-84200
X127920Y-86740
X127920Y-89280
X120400Y-105300
X120400Y-107840
X120400Y-110380
X128020Y-105300
X128020Y-107840
X128020Y-110380
T3
X160600Y-76900
X160600Y-79400
X160600Y-81900
X151800Y-76900
X151800Y-79400
X151800Y-81900
X151800Y-89400
X151800Y-91900
X151800Y-94400
X160500Y-89400
X160500Y-91900
X160500Y-94400
T4
X118600Y-70400
X121140Y-70400
X123680Y-70400
X126220Y-70400
X128760Y-70400
X131300Y-70400
X133840Y-70400
X136380Y-70400
X138920Y-70400
X141460Y-70400
X144000Y-70400
X146540Y-70400
X149080Y-70400
X151620Y-70400
X154160Y-70400
X156700Y-70400
X158720Y-115400
X161260Y-115400
X163800Y-115400
T5
X120300Y-117400
X122840Y-117400
X125380Y-117400
X127920Y-117400
T6
X179000Y-107200
X120300Y-76800
X156100Y-102700
T7
X143401Y-101100
X146399Y-101100
T0
M30
