G04 #@! TF.GenerationSoftware,KiCad,Pcbnew,(5.1.2)-2*
G04 #@! TF.CreationDate,2019-10-30T20:43:34-04:00*
G04 #@! TF.ProjectId,Thermostat_Layout,54686572-6d6f-4737-9461-745f4c61796f,rev?*
G04 #@! TF.SameCoordinates,Original*
G04 #@! TF.FileFunction,Paste,Top*
G04 #@! TF.FilePolarity,Positive*
%FSLAX46Y46*%
G04 Gerber Fmt 4.6, Leading zero omitted, Abs format (unit mm)*
G04 Created by KiCad (PCBNEW (5.1.2)-2) date 2019-10-30 20:43:34*
%MOMM*%
%LPD*%
G04 APERTURE LIST*
%ADD10R,1.143000X0.558800*%
%ADD11C,0.100000*%
%ADD12C,1.500000*%
%ADD13C,1.000000*%
%ADD14R,0.998220X1.148080*%
%ADD15R,1.700000X1.000000*%
%ADD16C,0.590000*%
%ADD17R,0.848360X0.899160*%
%ADD18R,1.600000X1.500000*%
%ADD19R,1.200000X1.200000*%
%ADD20R,3.500000X3.300000*%
G04 APERTURE END LIST*
D10*
X182968400Y-98700000D03*
X180631600Y-99665200D03*
X180631600Y-97734800D03*
D11*
G36*
X183574504Y-113301204D02*
G01*
X183598773Y-113304804D01*
X183622571Y-113310765D01*
X183645671Y-113319030D01*
X183667849Y-113329520D01*
X183688893Y-113342133D01*
X183708598Y-113356747D01*
X183726777Y-113373223D01*
X183743253Y-113391402D01*
X183757867Y-113411107D01*
X183770480Y-113432151D01*
X183780970Y-113454329D01*
X183789235Y-113477429D01*
X183795196Y-113501227D01*
X183798796Y-113525496D01*
X183800000Y-113550000D01*
X183800000Y-114550000D01*
X183798796Y-114574504D01*
X183795196Y-114598773D01*
X183789235Y-114622571D01*
X183780970Y-114645671D01*
X183770480Y-114667849D01*
X183757867Y-114688893D01*
X183743253Y-114708598D01*
X183726777Y-114726777D01*
X183708598Y-114743253D01*
X183688893Y-114757867D01*
X183667849Y-114770480D01*
X183645671Y-114780970D01*
X183622571Y-114789235D01*
X183598773Y-114795196D01*
X183574504Y-114798796D01*
X183550000Y-114800000D01*
X180650000Y-114800000D01*
X180625496Y-114798796D01*
X180601227Y-114795196D01*
X180577429Y-114789235D01*
X180554329Y-114780970D01*
X180532151Y-114770480D01*
X180511107Y-114757867D01*
X180491402Y-114743253D01*
X180473223Y-114726777D01*
X180456747Y-114708598D01*
X180442133Y-114688893D01*
X180429520Y-114667849D01*
X180419030Y-114645671D01*
X180410765Y-114622571D01*
X180404804Y-114598773D01*
X180401204Y-114574504D01*
X180400000Y-114550000D01*
X180400000Y-113550000D01*
X180401204Y-113525496D01*
X180404804Y-113501227D01*
X180410765Y-113477429D01*
X180419030Y-113454329D01*
X180429520Y-113432151D01*
X180442133Y-113411107D01*
X180456747Y-113391402D01*
X180473223Y-113373223D01*
X180491402Y-113356747D01*
X180511107Y-113342133D01*
X180532151Y-113329520D01*
X180554329Y-113319030D01*
X180577429Y-113310765D01*
X180601227Y-113304804D01*
X180625496Y-113301204D01*
X180650000Y-113300000D01*
X183550000Y-113300000D01*
X183574504Y-113301204D01*
X183574504Y-113301204D01*
G37*
D12*
X182100000Y-114050000D03*
D11*
G36*
X183574504Y-120001204D02*
G01*
X183598773Y-120004804D01*
X183622571Y-120010765D01*
X183645671Y-120019030D01*
X183667849Y-120029520D01*
X183688893Y-120042133D01*
X183708598Y-120056747D01*
X183726777Y-120073223D01*
X183743253Y-120091402D01*
X183757867Y-120111107D01*
X183770480Y-120132151D01*
X183780970Y-120154329D01*
X183789235Y-120177429D01*
X183795196Y-120201227D01*
X183798796Y-120225496D01*
X183800000Y-120250000D01*
X183800000Y-121250000D01*
X183798796Y-121274504D01*
X183795196Y-121298773D01*
X183789235Y-121322571D01*
X183780970Y-121345671D01*
X183770480Y-121367849D01*
X183757867Y-121388893D01*
X183743253Y-121408598D01*
X183726777Y-121426777D01*
X183708598Y-121443253D01*
X183688893Y-121457867D01*
X183667849Y-121470480D01*
X183645671Y-121480970D01*
X183622571Y-121489235D01*
X183598773Y-121495196D01*
X183574504Y-121498796D01*
X183550000Y-121500000D01*
X180650000Y-121500000D01*
X180625496Y-121498796D01*
X180601227Y-121495196D01*
X180577429Y-121489235D01*
X180554329Y-121480970D01*
X180532151Y-121470480D01*
X180511107Y-121457867D01*
X180491402Y-121443253D01*
X180473223Y-121426777D01*
X180456747Y-121408598D01*
X180442133Y-121388893D01*
X180429520Y-121367849D01*
X180419030Y-121345671D01*
X180410765Y-121322571D01*
X180404804Y-121298773D01*
X180401204Y-121274504D01*
X180400000Y-121250000D01*
X180400000Y-120250000D01*
X180401204Y-120225496D01*
X180404804Y-120201227D01*
X180410765Y-120177429D01*
X180419030Y-120154329D01*
X180429520Y-120132151D01*
X180442133Y-120111107D01*
X180456747Y-120091402D01*
X180473223Y-120073223D01*
X180491402Y-120056747D01*
X180511107Y-120042133D01*
X180532151Y-120029520D01*
X180554329Y-120019030D01*
X180577429Y-120010765D01*
X180601227Y-120004804D01*
X180625496Y-120001204D01*
X180650000Y-120000000D01*
X183550000Y-120000000D01*
X183574504Y-120001204D01*
X183574504Y-120001204D01*
G37*
D12*
X182100000Y-120750000D03*
D11*
G36*
X177874504Y-115901204D02*
G01*
X177898773Y-115904804D01*
X177922571Y-115910765D01*
X177945671Y-115919030D01*
X177967849Y-115929520D01*
X177988893Y-115942133D01*
X178008598Y-115956747D01*
X178026777Y-115973223D01*
X178043253Y-115991402D01*
X178057867Y-116011107D01*
X178070480Y-116032151D01*
X178080970Y-116054329D01*
X178089235Y-116077429D01*
X178095196Y-116101227D01*
X178098796Y-116125496D01*
X178100000Y-116150000D01*
X178100000Y-116650000D01*
X178098796Y-116674504D01*
X178095196Y-116698773D01*
X178089235Y-116722571D01*
X178080970Y-116745671D01*
X178070480Y-116767849D01*
X178057867Y-116788893D01*
X178043253Y-116808598D01*
X178026777Y-116826777D01*
X178008598Y-116843253D01*
X177988893Y-116857867D01*
X177967849Y-116870480D01*
X177945671Y-116880970D01*
X177922571Y-116889235D01*
X177898773Y-116895196D01*
X177874504Y-116898796D01*
X177850000Y-116900000D01*
X174850000Y-116900000D01*
X174825496Y-116898796D01*
X174801227Y-116895196D01*
X174777429Y-116889235D01*
X174754329Y-116880970D01*
X174732151Y-116870480D01*
X174711107Y-116857867D01*
X174691402Y-116843253D01*
X174673223Y-116826777D01*
X174656747Y-116808598D01*
X174642133Y-116788893D01*
X174629520Y-116767849D01*
X174619030Y-116745671D01*
X174610765Y-116722571D01*
X174604804Y-116698773D01*
X174601204Y-116674504D01*
X174600000Y-116650000D01*
X174600000Y-116150000D01*
X174601204Y-116125496D01*
X174604804Y-116101227D01*
X174610765Y-116077429D01*
X174619030Y-116054329D01*
X174629520Y-116032151D01*
X174642133Y-116011107D01*
X174656747Y-115991402D01*
X174673223Y-115973223D01*
X174691402Y-115956747D01*
X174711107Y-115942133D01*
X174732151Y-115929520D01*
X174754329Y-115919030D01*
X174777429Y-115910765D01*
X174801227Y-115904804D01*
X174825496Y-115901204D01*
X174850000Y-115900000D01*
X177850000Y-115900000D01*
X177874504Y-115901204D01*
X177874504Y-115901204D01*
G37*
D13*
X176350000Y-116400000D03*
D11*
G36*
X177874504Y-117901204D02*
G01*
X177898773Y-117904804D01*
X177922571Y-117910765D01*
X177945671Y-117919030D01*
X177967849Y-117929520D01*
X177988893Y-117942133D01*
X178008598Y-117956747D01*
X178026777Y-117973223D01*
X178043253Y-117991402D01*
X178057867Y-118011107D01*
X178070480Y-118032151D01*
X178080970Y-118054329D01*
X178089235Y-118077429D01*
X178095196Y-118101227D01*
X178098796Y-118125496D01*
X178100000Y-118150000D01*
X178100000Y-118650000D01*
X178098796Y-118674504D01*
X178095196Y-118698773D01*
X178089235Y-118722571D01*
X178080970Y-118745671D01*
X178070480Y-118767849D01*
X178057867Y-118788893D01*
X178043253Y-118808598D01*
X178026777Y-118826777D01*
X178008598Y-118843253D01*
X177988893Y-118857867D01*
X177967849Y-118870480D01*
X177945671Y-118880970D01*
X177922571Y-118889235D01*
X177898773Y-118895196D01*
X177874504Y-118898796D01*
X177850000Y-118900000D01*
X174850000Y-118900000D01*
X174825496Y-118898796D01*
X174801227Y-118895196D01*
X174777429Y-118889235D01*
X174754329Y-118880970D01*
X174732151Y-118870480D01*
X174711107Y-118857867D01*
X174691402Y-118843253D01*
X174673223Y-118826777D01*
X174656747Y-118808598D01*
X174642133Y-118788893D01*
X174629520Y-118767849D01*
X174619030Y-118745671D01*
X174610765Y-118722571D01*
X174604804Y-118698773D01*
X174601204Y-118674504D01*
X174600000Y-118650000D01*
X174600000Y-118150000D01*
X174601204Y-118125496D01*
X174604804Y-118101227D01*
X174610765Y-118077429D01*
X174619030Y-118054329D01*
X174629520Y-118032151D01*
X174642133Y-118011107D01*
X174656747Y-117991402D01*
X174673223Y-117973223D01*
X174691402Y-117956747D01*
X174711107Y-117942133D01*
X174732151Y-117929520D01*
X174754329Y-117919030D01*
X174777429Y-117910765D01*
X174801227Y-117904804D01*
X174825496Y-117901204D01*
X174850000Y-117900000D01*
X177850000Y-117900000D01*
X177874504Y-117901204D01*
X177874504Y-117901204D01*
G37*
D13*
X176350000Y-118400000D03*
D11*
G36*
X183374504Y-69101204D02*
G01*
X183398773Y-69104804D01*
X183422571Y-69110765D01*
X183445671Y-69119030D01*
X183467849Y-69129520D01*
X183488893Y-69142133D01*
X183508598Y-69156747D01*
X183526777Y-69173223D01*
X183543253Y-69191402D01*
X183557867Y-69211107D01*
X183570480Y-69232151D01*
X183580970Y-69254329D01*
X183589235Y-69277429D01*
X183595196Y-69301227D01*
X183598796Y-69325496D01*
X183600000Y-69350000D01*
X183600000Y-70350000D01*
X183598796Y-70374504D01*
X183595196Y-70398773D01*
X183589235Y-70422571D01*
X183580970Y-70445671D01*
X183570480Y-70467849D01*
X183557867Y-70488893D01*
X183543253Y-70508598D01*
X183526777Y-70526777D01*
X183508598Y-70543253D01*
X183488893Y-70557867D01*
X183467849Y-70570480D01*
X183445671Y-70580970D01*
X183422571Y-70589235D01*
X183398773Y-70595196D01*
X183374504Y-70598796D01*
X183350000Y-70600000D01*
X180450000Y-70600000D01*
X180425496Y-70598796D01*
X180401227Y-70595196D01*
X180377429Y-70589235D01*
X180354329Y-70580970D01*
X180332151Y-70570480D01*
X180311107Y-70557867D01*
X180291402Y-70543253D01*
X180273223Y-70526777D01*
X180256747Y-70508598D01*
X180242133Y-70488893D01*
X180229520Y-70467849D01*
X180219030Y-70445671D01*
X180210765Y-70422571D01*
X180204804Y-70398773D01*
X180201204Y-70374504D01*
X180200000Y-70350000D01*
X180200000Y-69350000D01*
X180201204Y-69325496D01*
X180204804Y-69301227D01*
X180210765Y-69277429D01*
X180219030Y-69254329D01*
X180229520Y-69232151D01*
X180242133Y-69211107D01*
X180256747Y-69191402D01*
X180273223Y-69173223D01*
X180291402Y-69156747D01*
X180311107Y-69142133D01*
X180332151Y-69129520D01*
X180354329Y-69119030D01*
X180377429Y-69110765D01*
X180401227Y-69104804D01*
X180425496Y-69101204D01*
X180450000Y-69100000D01*
X183350000Y-69100000D01*
X183374504Y-69101204D01*
X183374504Y-69101204D01*
G37*
D12*
X181900000Y-69850000D03*
D11*
G36*
X183374504Y-91801204D02*
G01*
X183398773Y-91804804D01*
X183422571Y-91810765D01*
X183445671Y-91819030D01*
X183467849Y-91829520D01*
X183488893Y-91842133D01*
X183508598Y-91856747D01*
X183526777Y-91873223D01*
X183543253Y-91891402D01*
X183557867Y-91911107D01*
X183570480Y-91932151D01*
X183580970Y-91954329D01*
X183589235Y-91977429D01*
X183595196Y-92001227D01*
X183598796Y-92025496D01*
X183600000Y-92050000D01*
X183600000Y-93050000D01*
X183598796Y-93074504D01*
X183595196Y-93098773D01*
X183589235Y-93122571D01*
X183580970Y-93145671D01*
X183570480Y-93167849D01*
X183557867Y-93188893D01*
X183543253Y-93208598D01*
X183526777Y-93226777D01*
X183508598Y-93243253D01*
X183488893Y-93257867D01*
X183467849Y-93270480D01*
X183445671Y-93280970D01*
X183422571Y-93289235D01*
X183398773Y-93295196D01*
X183374504Y-93298796D01*
X183350000Y-93300000D01*
X180450000Y-93300000D01*
X180425496Y-93298796D01*
X180401227Y-93295196D01*
X180377429Y-93289235D01*
X180354329Y-93280970D01*
X180332151Y-93270480D01*
X180311107Y-93257867D01*
X180291402Y-93243253D01*
X180273223Y-93226777D01*
X180256747Y-93208598D01*
X180242133Y-93188893D01*
X180229520Y-93167849D01*
X180219030Y-93145671D01*
X180210765Y-93122571D01*
X180204804Y-93098773D01*
X180201204Y-93074504D01*
X180200000Y-93050000D01*
X180200000Y-92050000D01*
X180201204Y-92025496D01*
X180204804Y-92001227D01*
X180210765Y-91977429D01*
X180219030Y-91954329D01*
X180229520Y-91932151D01*
X180242133Y-91911107D01*
X180256747Y-91891402D01*
X180273223Y-91873223D01*
X180291402Y-91856747D01*
X180311107Y-91842133D01*
X180332151Y-91829520D01*
X180354329Y-91819030D01*
X180377429Y-91810765D01*
X180401227Y-91804804D01*
X180425496Y-91801204D01*
X180450000Y-91800000D01*
X183350000Y-91800000D01*
X183374504Y-91801204D01*
X183374504Y-91801204D01*
G37*
D12*
X181900000Y-92550000D03*
D11*
G36*
X177674504Y-71701204D02*
G01*
X177698773Y-71704804D01*
X177722571Y-71710765D01*
X177745671Y-71719030D01*
X177767849Y-71729520D01*
X177788893Y-71742133D01*
X177808598Y-71756747D01*
X177826777Y-71773223D01*
X177843253Y-71791402D01*
X177857867Y-71811107D01*
X177870480Y-71832151D01*
X177880970Y-71854329D01*
X177889235Y-71877429D01*
X177895196Y-71901227D01*
X177898796Y-71925496D01*
X177900000Y-71950000D01*
X177900000Y-72450000D01*
X177898796Y-72474504D01*
X177895196Y-72498773D01*
X177889235Y-72522571D01*
X177880970Y-72545671D01*
X177870480Y-72567849D01*
X177857867Y-72588893D01*
X177843253Y-72608598D01*
X177826777Y-72626777D01*
X177808598Y-72643253D01*
X177788893Y-72657867D01*
X177767849Y-72670480D01*
X177745671Y-72680970D01*
X177722571Y-72689235D01*
X177698773Y-72695196D01*
X177674504Y-72698796D01*
X177650000Y-72700000D01*
X174650000Y-72700000D01*
X174625496Y-72698796D01*
X174601227Y-72695196D01*
X174577429Y-72689235D01*
X174554329Y-72680970D01*
X174532151Y-72670480D01*
X174511107Y-72657867D01*
X174491402Y-72643253D01*
X174473223Y-72626777D01*
X174456747Y-72608598D01*
X174442133Y-72588893D01*
X174429520Y-72567849D01*
X174419030Y-72545671D01*
X174410765Y-72522571D01*
X174404804Y-72498773D01*
X174401204Y-72474504D01*
X174400000Y-72450000D01*
X174400000Y-71950000D01*
X174401204Y-71925496D01*
X174404804Y-71901227D01*
X174410765Y-71877429D01*
X174419030Y-71854329D01*
X174429520Y-71832151D01*
X174442133Y-71811107D01*
X174456747Y-71791402D01*
X174473223Y-71773223D01*
X174491402Y-71756747D01*
X174511107Y-71742133D01*
X174532151Y-71729520D01*
X174554329Y-71719030D01*
X174577429Y-71710765D01*
X174601227Y-71704804D01*
X174625496Y-71701204D01*
X174650000Y-71700000D01*
X177650000Y-71700000D01*
X177674504Y-71701204D01*
X177674504Y-71701204D01*
G37*
D13*
X176150000Y-72200000D03*
D11*
G36*
X177674504Y-73701204D02*
G01*
X177698773Y-73704804D01*
X177722571Y-73710765D01*
X177745671Y-73719030D01*
X177767849Y-73729520D01*
X177788893Y-73742133D01*
X177808598Y-73756747D01*
X177826777Y-73773223D01*
X177843253Y-73791402D01*
X177857867Y-73811107D01*
X177870480Y-73832151D01*
X177880970Y-73854329D01*
X177889235Y-73877429D01*
X177895196Y-73901227D01*
X177898796Y-73925496D01*
X177900000Y-73950000D01*
X177900000Y-74450000D01*
X177898796Y-74474504D01*
X177895196Y-74498773D01*
X177889235Y-74522571D01*
X177880970Y-74545671D01*
X177870480Y-74567849D01*
X177857867Y-74588893D01*
X177843253Y-74608598D01*
X177826777Y-74626777D01*
X177808598Y-74643253D01*
X177788893Y-74657867D01*
X177767849Y-74670480D01*
X177745671Y-74680970D01*
X177722571Y-74689235D01*
X177698773Y-74695196D01*
X177674504Y-74698796D01*
X177650000Y-74700000D01*
X174650000Y-74700000D01*
X174625496Y-74698796D01*
X174601227Y-74695196D01*
X174577429Y-74689235D01*
X174554329Y-74680970D01*
X174532151Y-74670480D01*
X174511107Y-74657867D01*
X174491402Y-74643253D01*
X174473223Y-74626777D01*
X174456747Y-74608598D01*
X174442133Y-74588893D01*
X174429520Y-74567849D01*
X174419030Y-74545671D01*
X174410765Y-74522571D01*
X174404804Y-74498773D01*
X174401204Y-74474504D01*
X174400000Y-74450000D01*
X174400000Y-73950000D01*
X174401204Y-73925496D01*
X174404804Y-73901227D01*
X174410765Y-73877429D01*
X174419030Y-73854329D01*
X174429520Y-73832151D01*
X174442133Y-73811107D01*
X174456747Y-73791402D01*
X174473223Y-73773223D01*
X174491402Y-73756747D01*
X174511107Y-73742133D01*
X174532151Y-73729520D01*
X174554329Y-73719030D01*
X174577429Y-73710765D01*
X174601227Y-73704804D01*
X174625496Y-73701204D01*
X174650000Y-73700000D01*
X177650000Y-73700000D01*
X177674504Y-73701204D01*
X177674504Y-73701204D01*
G37*
D13*
X176150000Y-74200000D03*
D11*
G36*
X177674504Y-75701204D02*
G01*
X177698773Y-75704804D01*
X177722571Y-75710765D01*
X177745671Y-75719030D01*
X177767849Y-75729520D01*
X177788893Y-75742133D01*
X177808598Y-75756747D01*
X177826777Y-75773223D01*
X177843253Y-75791402D01*
X177857867Y-75811107D01*
X177870480Y-75832151D01*
X177880970Y-75854329D01*
X177889235Y-75877429D01*
X177895196Y-75901227D01*
X177898796Y-75925496D01*
X177900000Y-75950000D01*
X177900000Y-76450000D01*
X177898796Y-76474504D01*
X177895196Y-76498773D01*
X177889235Y-76522571D01*
X177880970Y-76545671D01*
X177870480Y-76567849D01*
X177857867Y-76588893D01*
X177843253Y-76608598D01*
X177826777Y-76626777D01*
X177808598Y-76643253D01*
X177788893Y-76657867D01*
X177767849Y-76670480D01*
X177745671Y-76680970D01*
X177722571Y-76689235D01*
X177698773Y-76695196D01*
X177674504Y-76698796D01*
X177650000Y-76700000D01*
X174650000Y-76700000D01*
X174625496Y-76698796D01*
X174601227Y-76695196D01*
X174577429Y-76689235D01*
X174554329Y-76680970D01*
X174532151Y-76670480D01*
X174511107Y-76657867D01*
X174491402Y-76643253D01*
X174473223Y-76626777D01*
X174456747Y-76608598D01*
X174442133Y-76588893D01*
X174429520Y-76567849D01*
X174419030Y-76545671D01*
X174410765Y-76522571D01*
X174404804Y-76498773D01*
X174401204Y-76474504D01*
X174400000Y-76450000D01*
X174400000Y-75950000D01*
X174401204Y-75925496D01*
X174404804Y-75901227D01*
X174410765Y-75877429D01*
X174419030Y-75854329D01*
X174429520Y-75832151D01*
X174442133Y-75811107D01*
X174456747Y-75791402D01*
X174473223Y-75773223D01*
X174491402Y-75756747D01*
X174511107Y-75742133D01*
X174532151Y-75729520D01*
X174554329Y-75719030D01*
X174577429Y-75710765D01*
X174601227Y-75704804D01*
X174625496Y-75701204D01*
X174650000Y-75700000D01*
X177650000Y-75700000D01*
X177674504Y-75701204D01*
X177674504Y-75701204D01*
G37*
D13*
X176150000Y-76200000D03*
D11*
G36*
X177674504Y-77701204D02*
G01*
X177698773Y-77704804D01*
X177722571Y-77710765D01*
X177745671Y-77719030D01*
X177767849Y-77729520D01*
X177788893Y-77742133D01*
X177808598Y-77756747D01*
X177826777Y-77773223D01*
X177843253Y-77791402D01*
X177857867Y-77811107D01*
X177870480Y-77832151D01*
X177880970Y-77854329D01*
X177889235Y-77877429D01*
X177895196Y-77901227D01*
X177898796Y-77925496D01*
X177900000Y-77950000D01*
X177900000Y-78450000D01*
X177898796Y-78474504D01*
X177895196Y-78498773D01*
X177889235Y-78522571D01*
X177880970Y-78545671D01*
X177870480Y-78567849D01*
X177857867Y-78588893D01*
X177843253Y-78608598D01*
X177826777Y-78626777D01*
X177808598Y-78643253D01*
X177788893Y-78657867D01*
X177767849Y-78670480D01*
X177745671Y-78680970D01*
X177722571Y-78689235D01*
X177698773Y-78695196D01*
X177674504Y-78698796D01*
X177650000Y-78700000D01*
X174650000Y-78700000D01*
X174625496Y-78698796D01*
X174601227Y-78695196D01*
X174577429Y-78689235D01*
X174554329Y-78680970D01*
X174532151Y-78670480D01*
X174511107Y-78657867D01*
X174491402Y-78643253D01*
X174473223Y-78626777D01*
X174456747Y-78608598D01*
X174442133Y-78588893D01*
X174429520Y-78567849D01*
X174419030Y-78545671D01*
X174410765Y-78522571D01*
X174404804Y-78498773D01*
X174401204Y-78474504D01*
X174400000Y-78450000D01*
X174400000Y-77950000D01*
X174401204Y-77925496D01*
X174404804Y-77901227D01*
X174410765Y-77877429D01*
X174419030Y-77854329D01*
X174429520Y-77832151D01*
X174442133Y-77811107D01*
X174456747Y-77791402D01*
X174473223Y-77773223D01*
X174491402Y-77756747D01*
X174511107Y-77742133D01*
X174532151Y-77729520D01*
X174554329Y-77719030D01*
X174577429Y-77710765D01*
X174601227Y-77704804D01*
X174625496Y-77701204D01*
X174650000Y-77700000D01*
X177650000Y-77700000D01*
X177674504Y-77701204D01*
X177674504Y-77701204D01*
G37*
D13*
X176150000Y-78200000D03*
D11*
G36*
X177674504Y-79701204D02*
G01*
X177698773Y-79704804D01*
X177722571Y-79710765D01*
X177745671Y-79719030D01*
X177767849Y-79729520D01*
X177788893Y-79742133D01*
X177808598Y-79756747D01*
X177826777Y-79773223D01*
X177843253Y-79791402D01*
X177857867Y-79811107D01*
X177870480Y-79832151D01*
X177880970Y-79854329D01*
X177889235Y-79877429D01*
X177895196Y-79901227D01*
X177898796Y-79925496D01*
X177900000Y-79950000D01*
X177900000Y-80450000D01*
X177898796Y-80474504D01*
X177895196Y-80498773D01*
X177889235Y-80522571D01*
X177880970Y-80545671D01*
X177870480Y-80567849D01*
X177857867Y-80588893D01*
X177843253Y-80608598D01*
X177826777Y-80626777D01*
X177808598Y-80643253D01*
X177788893Y-80657867D01*
X177767849Y-80670480D01*
X177745671Y-80680970D01*
X177722571Y-80689235D01*
X177698773Y-80695196D01*
X177674504Y-80698796D01*
X177650000Y-80700000D01*
X174650000Y-80700000D01*
X174625496Y-80698796D01*
X174601227Y-80695196D01*
X174577429Y-80689235D01*
X174554329Y-80680970D01*
X174532151Y-80670480D01*
X174511107Y-80657867D01*
X174491402Y-80643253D01*
X174473223Y-80626777D01*
X174456747Y-80608598D01*
X174442133Y-80588893D01*
X174429520Y-80567849D01*
X174419030Y-80545671D01*
X174410765Y-80522571D01*
X174404804Y-80498773D01*
X174401204Y-80474504D01*
X174400000Y-80450000D01*
X174400000Y-79950000D01*
X174401204Y-79925496D01*
X174404804Y-79901227D01*
X174410765Y-79877429D01*
X174419030Y-79854329D01*
X174429520Y-79832151D01*
X174442133Y-79811107D01*
X174456747Y-79791402D01*
X174473223Y-79773223D01*
X174491402Y-79756747D01*
X174511107Y-79742133D01*
X174532151Y-79729520D01*
X174554329Y-79719030D01*
X174577429Y-79710765D01*
X174601227Y-79704804D01*
X174625496Y-79701204D01*
X174650000Y-79700000D01*
X177650000Y-79700000D01*
X177674504Y-79701204D01*
X177674504Y-79701204D01*
G37*
D13*
X176150000Y-80200000D03*
D11*
G36*
X177674504Y-81701204D02*
G01*
X177698773Y-81704804D01*
X177722571Y-81710765D01*
X177745671Y-81719030D01*
X177767849Y-81729520D01*
X177788893Y-81742133D01*
X177808598Y-81756747D01*
X177826777Y-81773223D01*
X177843253Y-81791402D01*
X177857867Y-81811107D01*
X177870480Y-81832151D01*
X177880970Y-81854329D01*
X177889235Y-81877429D01*
X177895196Y-81901227D01*
X177898796Y-81925496D01*
X177900000Y-81950000D01*
X177900000Y-82450000D01*
X177898796Y-82474504D01*
X177895196Y-82498773D01*
X177889235Y-82522571D01*
X177880970Y-82545671D01*
X177870480Y-82567849D01*
X177857867Y-82588893D01*
X177843253Y-82608598D01*
X177826777Y-82626777D01*
X177808598Y-82643253D01*
X177788893Y-82657867D01*
X177767849Y-82670480D01*
X177745671Y-82680970D01*
X177722571Y-82689235D01*
X177698773Y-82695196D01*
X177674504Y-82698796D01*
X177650000Y-82700000D01*
X174650000Y-82700000D01*
X174625496Y-82698796D01*
X174601227Y-82695196D01*
X174577429Y-82689235D01*
X174554329Y-82680970D01*
X174532151Y-82670480D01*
X174511107Y-82657867D01*
X174491402Y-82643253D01*
X174473223Y-82626777D01*
X174456747Y-82608598D01*
X174442133Y-82588893D01*
X174429520Y-82567849D01*
X174419030Y-82545671D01*
X174410765Y-82522571D01*
X174404804Y-82498773D01*
X174401204Y-82474504D01*
X174400000Y-82450000D01*
X174400000Y-81950000D01*
X174401204Y-81925496D01*
X174404804Y-81901227D01*
X174410765Y-81877429D01*
X174419030Y-81854329D01*
X174429520Y-81832151D01*
X174442133Y-81811107D01*
X174456747Y-81791402D01*
X174473223Y-81773223D01*
X174491402Y-81756747D01*
X174511107Y-81742133D01*
X174532151Y-81729520D01*
X174554329Y-81719030D01*
X174577429Y-81710765D01*
X174601227Y-81704804D01*
X174625496Y-81701204D01*
X174650000Y-81700000D01*
X177650000Y-81700000D01*
X177674504Y-81701204D01*
X177674504Y-81701204D01*
G37*
D13*
X176150000Y-82200000D03*
D11*
G36*
X177674504Y-83701204D02*
G01*
X177698773Y-83704804D01*
X177722571Y-83710765D01*
X177745671Y-83719030D01*
X177767849Y-83729520D01*
X177788893Y-83742133D01*
X177808598Y-83756747D01*
X177826777Y-83773223D01*
X177843253Y-83791402D01*
X177857867Y-83811107D01*
X177870480Y-83832151D01*
X177880970Y-83854329D01*
X177889235Y-83877429D01*
X177895196Y-83901227D01*
X177898796Y-83925496D01*
X177900000Y-83950000D01*
X177900000Y-84450000D01*
X177898796Y-84474504D01*
X177895196Y-84498773D01*
X177889235Y-84522571D01*
X177880970Y-84545671D01*
X177870480Y-84567849D01*
X177857867Y-84588893D01*
X177843253Y-84608598D01*
X177826777Y-84626777D01*
X177808598Y-84643253D01*
X177788893Y-84657867D01*
X177767849Y-84670480D01*
X177745671Y-84680970D01*
X177722571Y-84689235D01*
X177698773Y-84695196D01*
X177674504Y-84698796D01*
X177650000Y-84700000D01*
X174650000Y-84700000D01*
X174625496Y-84698796D01*
X174601227Y-84695196D01*
X174577429Y-84689235D01*
X174554329Y-84680970D01*
X174532151Y-84670480D01*
X174511107Y-84657867D01*
X174491402Y-84643253D01*
X174473223Y-84626777D01*
X174456747Y-84608598D01*
X174442133Y-84588893D01*
X174429520Y-84567849D01*
X174419030Y-84545671D01*
X174410765Y-84522571D01*
X174404804Y-84498773D01*
X174401204Y-84474504D01*
X174400000Y-84450000D01*
X174400000Y-83950000D01*
X174401204Y-83925496D01*
X174404804Y-83901227D01*
X174410765Y-83877429D01*
X174419030Y-83854329D01*
X174429520Y-83832151D01*
X174442133Y-83811107D01*
X174456747Y-83791402D01*
X174473223Y-83773223D01*
X174491402Y-83756747D01*
X174511107Y-83742133D01*
X174532151Y-83729520D01*
X174554329Y-83719030D01*
X174577429Y-83710765D01*
X174601227Y-83704804D01*
X174625496Y-83701204D01*
X174650000Y-83700000D01*
X177650000Y-83700000D01*
X177674504Y-83701204D01*
X177674504Y-83701204D01*
G37*
D13*
X176150000Y-84200000D03*
D11*
G36*
X177674504Y-85701204D02*
G01*
X177698773Y-85704804D01*
X177722571Y-85710765D01*
X177745671Y-85719030D01*
X177767849Y-85729520D01*
X177788893Y-85742133D01*
X177808598Y-85756747D01*
X177826777Y-85773223D01*
X177843253Y-85791402D01*
X177857867Y-85811107D01*
X177870480Y-85832151D01*
X177880970Y-85854329D01*
X177889235Y-85877429D01*
X177895196Y-85901227D01*
X177898796Y-85925496D01*
X177900000Y-85950000D01*
X177900000Y-86450000D01*
X177898796Y-86474504D01*
X177895196Y-86498773D01*
X177889235Y-86522571D01*
X177880970Y-86545671D01*
X177870480Y-86567849D01*
X177857867Y-86588893D01*
X177843253Y-86608598D01*
X177826777Y-86626777D01*
X177808598Y-86643253D01*
X177788893Y-86657867D01*
X177767849Y-86670480D01*
X177745671Y-86680970D01*
X177722571Y-86689235D01*
X177698773Y-86695196D01*
X177674504Y-86698796D01*
X177650000Y-86700000D01*
X174650000Y-86700000D01*
X174625496Y-86698796D01*
X174601227Y-86695196D01*
X174577429Y-86689235D01*
X174554329Y-86680970D01*
X174532151Y-86670480D01*
X174511107Y-86657867D01*
X174491402Y-86643253D01*
X174473223Y-86626777D01*
X174456747Y-86608598D01*
X174442133Y-86588893D01*
X174429520Y-86567849D01*
X174419030Y-86545671D01*
X174410765Y-86522571D01*
X174404804Y-86498773D01*
X174401204Y-86474504D01*
X174400000Y-86450000D01*
X174400000Y-85950000D01*
X174401204Y-85925496D01*
X174404804Y-85901227D01*
X174410765Y-85877429D01*
X174419030Y-85854329D01*
X174429520Y-85832151D01*
X174442133Y-85811107D01*
X174456747Y-85791402D01*
X174473223Y-85773223D01*
X174491402Y-85756747D01*
X174511107Y-85742133D01*
X174532151Y-85729520D01*
X174554329Y-85719030D01*
X174577429Y-85710765D01*
X174601227Y-85704804D01*
X174625496Y-85701204D01*
X174650000Y-85700000D01*
X177650000Y-85700000D01*
X177674504Y-85701204D01*
X177674504Y-85701204D01*
G37*
D13*
X176150000Y-86200000D03*
D11*
G36*
X177674504Y-87701204D02*
G01*
X177698773Y-87704804D01*
X177722571Y-87710765D01*
X177745671Y-87719030D01*
X177767849Y-87729520D01*
X177788893Y-87742133D01*
X177808598Y-87756747D01*
X177826777Y-87773223D01*
X177843253Y-87791402D01*
X177857867Y-87811107D01*
X177870480Y-87832151D01*
X177880970Y-87854329D01*
X177889235Y-87877429D01*
X177895196Y-87901227D01*
X177898796Y-87925496D01*
X177900000Y-87950000D01*
X177900000Y-88450000D01*
X177898796Y-88474504D01*
X177895196Y-88498773D01*
X177889235Y-88522571D01*
X177880970Y-88545671D01*
X177870480Y-88567849D01*
X177857867Y-88588893D01*
X177843253Y-88608598D01*
X177826777Y-88626777D01*
X177808598Y-88643253D01*
X177788893Y-88657867D01*
X177767849Y-88670480D01*
X177745671Y-88680970D01*
X177722571Y-88689235D01*
X177698773Y-88695196D01*
X177674504Y-88698796D01*
X177650000Y-88700000D01*
X174650000Y-88700000D01*
X174625496Y-88698796D01*
X174601227Y-88695196D01*
X174577429Y-88689235D01*
X174554329Y-88680970D01*
X174532151Y-88670480D01*
X174511107Y-88657867D01*
X174491402Y-88643253D01*
X174473223Y-88626777D01*
X174456747Y-88608598D01*
X174442133Y-88588893D01*
X174429520Y-88567849D01*
X174419030Y-88545671D01*
X174410765Y-88522571D01*
X174404804Y-88498773D01*
X174401204Y-88474504D01*
X174400000Y-88450000D01*
X174400000Y-87950000D01*
X174401204Y-87925496D01*
X174404804Y-87901227D01*
X174410765Y-87877429D01*
X174419030Y-87854329D01*
X174429520Y-87832151D01*
X174442133Y-87811107D01*
X174456747Y-87791402D01*
X174473223Y-87773223D01*
X174491402Y-87756747D01*
X174511107Y-87742133D01*
X174532151Y-87729520D01*
X174554329Y-87719030D01*
X174577429Y-87710765D01*
X174601227Y-87704804D01*
X174625496Y-87701204D01*
X174650000Y-87700000D01*
X177650000Y-87700000D01*
X177674504Y-87701204D01*
X177674504Y-87701204D01*
G37*
D13*
X176150000Y-88200000D03*
D11*
G36*
X177674504Y-89701204D02*
G01*
X177698773Y-89704804D01*
X177722571Y-89710765D01*
X177745671Y-89719030D01*
X177767849Y-89729520D01*
X177788893Y-89742133D01*
X177808598Y-89756747D01*
X177826777Y-89773223D01*
X177843253Y-89791402D01*
X177857867Y-89811107D01*
X177870480Y-89832151D01*
X177880970Y-89854329D01*
X177889235Y-89877429D01*
X177895196Y-89901227D01*
X177898796Y-89925496D01*
X177900000Y-89950000D01*
X177900000Y-90450000D01*
X177898796Y-90474504D01*
X177895196Y-90498773D01*
X177889235Y-90522571D01*
X177880970Y-90545671D01*
X177870480Y-90567849D01*
X177857867Y-90588893D01*
X177843253Y-90608598D01*
X177826777Y-90626777D01*
X177808598Y-90643253D01*
X177788893Y-90657867D01*
X177767849Y-90670480D01*
X177745671Y-90680970D01*
X177722571Y-90689235D01*
X177698773Y-90695196D01*
X177674504Y-90698796D01*
X177650000Y-90700000D01*
X174650000Y-90700000D01*
X174625496Y-90698796D01*
X174601227Y-90695196D01*
X174577429Y-90689235D01*
X174554329Y-90680970D01*
X174532151Y-90670480D01*
X174511107Y-90657867D01*
X174491402Y-90643253D01*
X174473223Y-90626777D01*
X174456747Y-90608598D01*
X174442133Y-90588893D01*
X174429520Y-90567849D01*
X174419030Y-90545671D01*
X174410765Y-90522571D01*
X174404804Y-90498773D01*
X174401204Y-90474504D01*
X174400000Y-90450000D01*
X174400000Y-89950000D01*
X174401204Y-89925496D01*
X174404804Y-89901227D01*
X174410765Y-89877429D01*
X174419030Y-89854329D01*
X174429520Y-89832151D01*
X174442133Y-89811107D01*
X174456747Y-89791402D01*
X174473223Y-89773223D01*
X174491402Y-89756747D01*
X174511107Y-89742133D01*
X174532151Y-89729520D01*
X174554329Y-89719030D01*
X174577429Y-89710765D01*
X174601227Y-89704804D01*
X174625496Y-89701204D01*
X174650000Y-89700000D01*
X177650000Y-89700000D01*
X177674504Y-89701204D01*
X177674504Y-89701204D01*
G37*
D13*
X176150000Y-90200000D03*
D14*
X142400640Y-98275520D03*
X144900000Y-98275520D03*
X147399360Y-98275520D03*
X142400640Y-103924480D03*
X144900000Y-103924480D03*
X147399360Y-103924480D03*
D15*
X134550000Y-87100000D03*
X140850000Y-87100000D03*
X134550000Y-90900000D03*
X140850000Y-90900000D03*
X134550000Y-77400000D03*
X140850000Y-77400000D03*
X134550000Y-81200000D03*
X140850000Y-81200000D03*
D11*
G36*
X147186958Y-95090710D02*
G01*
X147201276Y-95092834D01*
X147215317Y-95096351D01*
X147228946Y-95101228D01*
X147242031Y-95107417D01*
X147254447Y-95114858D01*
X147266073Y-95123481D01*
X147276798Y-95133202D01*
X147286519Y-95143927D01*
X147295142Y-95155553D01*
X147302583Y-95167969D01*
X147308772Y-95181054D01*
X147313649Y-95194683D01*
X147317166Y-95208724D01*
X147319290Y-95223042D01*
X147320000Y-95237500D01*
X147320000Y-95532500D01*
X147319290Y-95546958D01*
X147317166Y-95561276D01*
X147313649Y-95575317D01*
X147308772Y-95588946D01*
X147302583Y-95602031D01*
X147295142Y-95614447D01*
X147286519Y-95626073D01*
X147276798Y-95636798D01*
X147266073Y-95646519D01*
X147254447Y-95655142D01*
X147242031Y-95662583D01*
X147228946Y-95668772D01*
X147215317Y-95673649D01*
X147201276Y-95677166D01*
X147186958Y-95679290D01*
X147172500Y-95680000D01*
X146827500Y-95680000D01*
X146813042Y-95679290D01*
X146798724Y-95677166D01*
X146784683Y-95673649D01*
X146771054Y-95668772D01*
X146757969Y-95662583D01*
X146745553Y-95655142D01*
X146733927Y-95646519D01*
X146723202Y-95636798D01*
X146713481Y-95626073D01*
X146704858Y-95614447D01*
X146697417Y-95602031D01*
X146691228Y-95588946D01*
X146686351Y-95575317D01*
X146682834Y-95561276D01*
X146680710Y-95546958D01*
X146680000Y-95532500D01*
X146680000Y-95237500D01*
X146680710Y-95223042D01*
X146682834Y-95208724D01*
X146686351Y-95194683D01*
X146691228Y-95181054D01*
X146697417Y-95167969D01*
X146704858Y-95155553D01*
X146713481Y-95143927D01*
X146723202Y-95133202D01*
X146733927Y-95123481D01*
X146745553Y-95114858D01*
X146757969Y-95107417D01*
X146771054Y-95101228D01*
X146784683Y-95096351D01*
X146798724Y-95092834D01*
X146813042Y-95090710D01*
X146827500Y-95090000D01*
X147172500Y-95090000D01*
X147186958Y-95090710D01*
X147186958Y-95090710D01*
G37*
D16*
X147000000Y-95385000D03*
D11*
G36*
X147186958Y-94120710D02*
G01*
X147201276Y-94122834D01*
X147215317Y-94126351D01*
X147228946Y-94131228D01*
X147242031Y-94137417D01*
X147254447Y-94144858D01*
X147266073Y-94153481D01*
X147276798Y-94163202D01*
X147286519Y-94173927D01*
X147295142Y-94185553D01*
X147302583Y-94197969D01*
X147308772Y-94211054D01*
X147313649Y-94224683D01*
X147317166Y-94238724D01*
X147319290Y-94253042D01*
X147320000Y-94267500D01*
X147320000Y-94562500D01*
X147319290Y-94576958D01*
X147317166Y-94591276D01*
X147313649Y-94605317D01*
X147308772Y-94618946D01*
X147302583Y-94632031D01*
X147295142Y-94644447D01*
X147286519Y-94656073D01*
X147276798Y-94666798D01*
X147266073Y-94676519D01*
X147254447Y-94685142D01*
X147242031Y-94692583D01*
X147228946Y-94698772D01*
X147215317Y-94703649D01*
X147201276Y-94707166D01*
X147186958Y-94709290D01*
X147172500Y-94710000D01*
X146827500Y-94710000D01*
X146813042Y-94709290D01*
X146798724Y-94707166D01*
X146784683Y-94703649D01*
X146771054Y-94698772D01*
X146757969Y-94692583D01*
X146745553Y-94685142D01*
X146733927Y-94676519D01*
X146723202Y-94666798D01*
X146713481Y-94656073D01*
X146704858Y-94644447D01*
X146697417Y-94632031D01*
X146691228Y-94618946D01*
X146686351Y-94605317D01*
X146682834Y-94591276D01*
X146680710Y-94576958D01*
X146680000Y-94562500D01*
X146680000Y-94267500D01*
X146680710Y-94253042D01*
X146682834Y-94238724D01*
X146686351Y-94224683D01*
X146691228Y-94211054D01*
X146697417Y-94197969D01*
X146704858Y-94185553D01*
X146713481Y-94173927D01*
X146723202Y-94163202D01*
X146733927Y-94153481D01*
X146745553Y-94144858D01*
X146757969Y-94137417D01*
X146771054Y-94131228D01*
X146784683Y-94126351D01*
X146798724Y-94122834D01*
X146813042Y-94120710D01*
X146827500Y-94120000D01*
X147172500Y-94120000D01*
X147186958Y-94120710D01*
X147186958Y-94120710D01*
G37*
D16*
X147000000Y-94415000D03*
D11*
G36*
X147186958Y-90090710D02*
G01*
X147201276Y-90092834D01*
X147215317Y-90096351D01*
X147228946Y-90101228D01*
X147242031Y-90107417D01*
X147254447Y-90114858D01*
X147266073Y-90123481D01*
X147276798Y-90133202D01*
X147286519Y-90143927D01*
X147295142Y-90155553D01*
X147302583Y-90167969D01*
X147308772Y-90181054D01*
X147313649Y-90194683D01*
X147317166Y-90208724D01*
X147319290Y-90223042D01*
X147320000Y-90237500D01*
X147320000Y-90532500D01*
X147319290Y-90546958D01*
X147317166Y-90561276D01*
X147313649Y-90575317D01*
X147308772Y-90588946D01*
X147302583Y-90602031D01*
X147295142Y-90614447D01*
X147286519Y-90626073D01*
X147276798Y-90636798D01*
X147266073Y-90646519D01*
X147254447Y-90655142D01*
X147242031Y-90662583D01*
X147228946Y-90668772D01*
X147215317Y-90673649D01*
X147201276Y-90677166D01*
X147186958Y-90679290D01*
X147172500Y-90680000D01*
X146827500Y-90680000D01*
X146813042Y-90679290D01*
X146798724Y-90677166D01*
X146784683Y-90673649D01*
X146771054Y-90668772D01*
X146757969Y-90662583D01*
X146745553Y-90655142D01*
X146733927Y-90646519D01*
X146723202Y-90636798D01*
X146713481Y-90626073D01*
X146704858Y-90614447D01*
X146697417Y-90602031D01*
X146691228Y-90588946D01*
X146686351Y-90575317D01*
X146682834Y-90561276D01*
X146680710Y-90546958D01*
X146680000Y-90532500D01*
X146680000Y-90237500D01*
X146680710Y-90223042D01*
X146682834Y-90208724D01*
X146686351Y-90194683D01*
X146691228Y-90181054D01*
X146697417Y-90167969D01*
X146704858Y-90155553D01*
X146713481Y-90143927D01*
X146723202Y-90133202D01*
X146733927Y-90123481D01*
X146745553Y-90114858D01*
X146757969Y-90107417D01*
X146771054Y-90101228D01*
X146784683Y-90096351D01*
X146798724Y-90092834D01*
X146813042Y-90090710D01*
X146827500Y-90090000D01*
X147172500Y-90090000D01*
X147186958Y-90090710D01*
X147186958Y-90090710D01*
G37*
D16*
X147000000Y-90385000D03*
D11*
G36*
X147186958Y-89120710D02*
G01*
X147201276Y-89122834D01*
X147215317Y-89126351D01*
X147228946Y-89131228D01*
X147242031Y-89137417D01*
X147254447Y-89144858D01*
X147266073Y-89153481D01*
X147276798Y-89163202D01*
X147286519Y-89173927D01*
X147295142Y-89185553D01*
X147302583Y-89197969D01*
X147308772Y-89211054D01*
X147313649Y-89224683D01*
X147317166Y-89238724D01*
X147319290Y-89253042D01*
X147320000Y-89267500D01*
X147320000Y-89562500D01*
X147319290Y-89576958D01*
X147317166Y-89591276D01*
X147313649Y-89605317D01*
X147308772Y-89618946D01*
X147302583Y-89632031D01*
X147295142Y-89644447D01*
X147286519Y-89656073D01*
X147276798Y-89666798D01*
X147266073Y-89676519D01*
X147254447Y-89685142D01*
X147242031Y-89692583D01*
X147228946Y-89698772D01*
X147215317Y-89703649D01*
X147201276Y-89707166D01*
X147186958Y-89709290D01*
X147172500Y-89710000D01*
X146827500Y-89710000D01*
X146813042Y-89709290D01*
X146798724Y-89707166D01*
X146784683Y-89703649D01*
X146771054Y-89698772D01*
X146757969Y-89692583D01*
X146745553Y-89685142D01*
X146733927Y-89676519D01*
X146723202Y-89666798D01*
X146713481Y-89656073D01*
X146704858Y-89644447D01*
X146697417Y-89632031D01*
X146691228Y-89618946D01*
X146686351Y-89605317D01*
X146682834Y-89591276D01*
X146680710Y-89576958D01*
X146680000Y-89562500D01*
X146680000Y-89267500D01*
X146680710Y-89253042D01*
X146682834Y-89238724D01*
X146686351Y-89224683D01*
X146691228Y-89211054D01*
X146697417Y-89197969D01*
X146704858Y-89185553D01*
X146713481Y-89173927D01*
X146723202Y-89163202D01*
X146733927Y-89153481D01*
X146745553Y-89144858D01*
X146757969Y-89137417D01*
X146771054Y-89131228D01*
X146784683Y-89126351D01*
X146798724Y-89122834D01*
X146813042Y-89120710D01*
X146827500Y-89120000D01*
X147172500Y-89120000D01*
X147186958Y-89120710D01*
X147186958Y-89120710D01*
G37*
D16*
X147000000Y-89415000D03*
D11*
G36*
X147086958Y-82590710D02*
G01*
X147101276Y-82592834D01*
X147115317Y-82596351D01*
X147128946Y-82601228D01*
X147142031Y-82607417D01*
X147154447Y-82614858D01*
X147166073Y-82623481D01*
X147176798Y-82633202D01*
X147186519Y-82643927D01*
X147195142Y-82655553D01*
X147202583Y-82667969D01*
X147208772Y-82681054D01*
X147213649Y-82694683D01*
X147217166Y-82708724D01*
X147219290Y-82723042D01*
X147220000Y-82737500D01*
X147220000Y-83032500D01*
X147219290Y-83046958D01*
X147217166Y-83061276D01*
X147213649Y-83075317D01*
X147208772Y-83088946D01*
X147202583Y-83102031D01*
X147195142Y-83114447D01*
X147186519Y-83126073D01*
X147176798Y-83136798D01*
X147166073Y-83146519D01*
X147154447Y-83155142D01*
X147142031Y-83162583D01*
X147128946Y-83168772D01*
X147115317Y-83173649D01*
X147101276Y-83177166D01*
X147086958Y-83179290D01*
X147072500Y-83180000D01*
X146727500Y-83180000D01*
X146713042Y-83179290D01*
X146698724Y-83177166D01*
X146684683Y-83173649D01*
X146671054Y-83168772D01*
X146657969Y-83162583D01*
X146645553Y-83155142D01*
X146633927Y-83146519D01*
X146623202Y-83136798D01*
X146613481Y-83126073D01*
X146604858Y-83114447D01*
X146597417Y-83102031D01*
X146591228Y-83088946D01*
X146586351Y-83075317D01*
X146582834Y-83061276D01*
X146580710Y-83046958D01*
X146580000Y-83032500D01*
X146580000Y-82737500D01*
X146580710Y-82723042D01*
X146582834Y-82708724D01*
X146586351Y-82694683D01*
X146591228Y-82681054D01*
X146597417Y-82667969D01*
X146604858Y-82655553D01*
X146613481Y-82643927D01*
X146623202Y-82633202D01*
X146633927Y-82623481D01*
X146645553Y-82614858D01*
X146657969Y-82607417D01*
X146671054Y-82601228D01*
X146684683Y-82596351D01*
X146698724Y-82592834D01*
X146713042Y-82590710D01*
X146727500Y-82590000D01*
X147072500Y-82590000D01*
X147086958Y-82590710D01*
X147086958Y-82590710D01*
G37*
D16*
X146900000Y-82885000D03*
D11*
G36*
X147086958Y-81620710D02*
G01*
X147101276Y-81622834D01*
X147115317Y-81626351D01*
X147128946Y-81631228D01*
X147142031Y-81637417D01*
X147154447Y-81644858D01*
X147166073Y-81653481D01*
X147176798Y-81663202D01*
X147186519Y-81673927D01*
X147195142Y-81685553D01*
X147202583Y-81697969D01*
X147208772Y-81711054D01*
X147213649Y-81724683D01*
X147217166Y-81738724D01*
X147219290Y-81753042D01*
X147220000Y-81767500D01*
X147220000Y-82062500D01*
X147219290Y-82076958D01*
X147217166Y-82091276D01*
X147213649Y-82105317D01*
X147208772Y-82118946D01*
X147202583Y-82132031D01*
X147195142Y-82144447D01*
X147186519Y-82156073D01*
X147176798Y-82166798D01*
X147166073Y-82176519D01*
X147154447Y-82185142D01*
X147142031Y-82192583D01*
X147128946Y-82198772D01*
X147115317Y-82203649D01*
X147101276Y-82207166D01*
X147086958Y-82209290D01*
X147072500Y-82210000D01*
X146727500Y-82210000D01*
X146713042Y-82209290D01*
X146698724Y-82207166D01*
X146684683Y-82203649D01*
X146671054Y-82198772D01*
X146657969Y-82192583D01*
X146645553Y-82185142D01*
X146633927Y-82176519D01*
X146623202Y-82166798D01*
X146613481Y-82156073D01*
X146604858Y-82144447D01*
X146597417Y-82132031D01*
X146591228Y-82118946D01*
X146586351Y-82105317D01*
X146582834Y-82091276D01*
X146580710Y-82076958D01*
X146580000Y-82062500D01*
X146580000Y-81767500D01*
X146580710Y-81753042D01*
X146582834Y-81738724D01*
X146586351Y-81724683D01*
X146591228Y-81711054D01*
X146597417Y-81697969D01*
X146604858Y-81685553D01*
X146613481Y-81673927D01*
X146623202Y-81663202D01*
X146633927Y-81653481D01*
X146645553Y-81644858D01*
X146657969Y-81637417D01*
X146671054Y-81631228D01*
X146684683Y-81626351D01*
X146698724Y-81622834D01*
X146713042Y-81620710D01*
X146727500Y-81620000D01*
X147072500Y-81620000D01*
X147086958Y-81620710D01*
X147086958Y-81620710D01*
G37*
D16*
X146900000Y-81915000D03*
D11*
G36*
X147086958Y-77590710D02*
G01*
X147101276Y-77592834D01*
X147115317Y-77596351D01*
X147128946Y-77601228D01*
X147142031Y-77607417D01*
X147154447Y-77614858D01*
X147166073Y-77623481D01*
X147176798Y-77633202D01*
X147186519Y-77643927D01*
X147195142Y-77655553D01*
X147202583Y-77667969D01*
X147208772Y-77681054D01*
X147213649Y-77694683D01*
X147217166Y-77708724D01*
X147219290Y-77723042D01*
X147220000Y-77737500D01*
X147220000Y-78032500D01*
X147219290Y-78046958D01*
X147217166Y-78061276D01*
X147213649Y-78075317D01*
X147208772Y-78088946D01*
X147202583Y-78102031D01*
X147195142Y-78114447D01*
X147186519Y-78126073D01*
X147176798Y-78136798D01*
X147166073Y-78146519D01*
X147154447Y-78155142D01*
X147142031Y-78162583D01*
X147128946Y-78168772D01*
X147115317Y-78173649D01*
X147101276Y-78177166D01*
X147086958Y-78179290D01*
X147072500Y-78180000D01*
X146727500Y-78180000D01*
X146713042Y-78179290D01*
X146698724Y-78177166D01*
X146684683Y-78173649D01*
X146671054Y-78168772D01*
X146657969Y-78162583D01*
X146645553Y-78155142D01*
X146633927Y-78146519D01*
X146623202Y-78136798D01*
X146613481Y-78126073D01*
X146604858Y-78114447D01*
X146597417Y-78102031D01*
X146591228Y-78088946D01*
X146586351Y-78075317D01*
X146582834Y-78061276D01*
X146580710Y-78046958D01*
X146580000Y-78032500D01*
X146580000Y-77737500D01*
X146580710Y-77723042D01*
X146582834Y-77708724D01*
X146586351Y-77694683D01*
X146591228Y-77681054D01*
X146597417Y-77667969D01*
X146604858Y-77655553D01*
X146613481Y-77643927D01*
X146623202Y-77633202D01*
X146633927Y-77623481D01*
X146645553Y-77614858D01*
X146657969Y-77607417D01*
X146671054Y-77601228D01*
X146684683Y-77596351D01*
X146698724Y-77592834D01*
X146713042Y-77590710D01*
X146727500Y-77590000D01*
X147072500Y-77590000D01*
X147086958Y-77590710D01*
X147086958Y-77590710D01*
G37*
D16*
X146900000Y-77885000D03*
D11*
G36*
X147086958Y-76620710D02*
G01*
X147101276Y-76622834D01*
X147115317Y-76626351D01*
X147128946Y-76631228D01*
X147142031Y-76637417D01*
X147154447Y-76644858D01*
X147166073Y-76653481D01*
X147176798Y-76663202D01*
X147186519Y-76673927D01*
X147195142Y-76685553D01*
X147202583Y-76697969D01*
X147208772Y-76711054D01*
X147213649Y-76724683D01*
X147217166Y-76738724D01*
X147219290Y-76753042D01*
X147220000Y-76767500D01*
X147220000Y-77062500D01*
X147219290Y-77076958D01*
X147217166Y-77091276D01*
X147213649Y-77105317D01*
X147208772Y-77118946D01*
X147202583Y-77132031D01*
X147195142Y-77144447D01*
X147186519Y-77156073D01*
X147176798Y-77166798D01*
X147166073Y-77176519D01*
X147154447Y-77185142D01*
X147142031Y-77192583D01*
X147128946Y-77198772D01*
X147115317Y-77203649D01*
X147101276Y-77207166D01*
X147086958Y-77209290D01*
X147072500Y-77210000D01*
X146727500Y-77210000D01*
X146713042Y-77209290D01*
X146698724Y-77207166D01*
X146684683Y-77203649D01*
X146671054Y-77198772D01*
X146657969Y-77192583D01*
X146645553Y-77185142D01*
X146633927Y-77176519D01*
X146623202Y-77166798D01*
X146613481Y-77156073D01*
X146604858Y-77144447D01*
X146597417Y-77132031D01*
X146591228Y-77118946D01*
X146586351Y-77105317D01*
X146582834Y-77091276D01*
X146580710Y-77076958D01*
X146580000Y-77062500D01*
X146580000Y-76767500D01*
X146580710Y-76753042D01*
X146582834Y-76738724D01*
X146586351Y-76724683D01*
X146591228Y-76711054D01*
X146597417Y-76697969D01*
X146604858Y-76685553D01*
X146613481Y-76673927D01*
X146623202Y-76663202D01*
X146633927Y-76653481D01*
X146645553Y-76644858D01*
X146657969Y-76637417D01*
X146671054Y-76631228D01*
X146684683Y-76626351D01*
X146698724Y-76622834D01*
X146713042Y-76620710D01*
X146727500Y-76620000D01*
X147072500Y-76620000D01*
X147086958Y-76620710D01*
X147086958Y-76620710D01*
G37*
D16*
X146900000Y-76915000D03*
D11*
G36*
X161486958Y-71590710D02*
G01*
X161501276Y-71592834D01*
X161515317Y-71596351D01*
X161528946Y-71601228D01*
X161542031Y-71607417D01*
X161554447Y-71614858D01*
X161566073Y-71623481D01*
X161576798Y-71633202D01*
X161586519Y-71643927D01*
X161595142Y-71655553D01*
X161602583Y-71667969D01*
X161608772Y-71681054D01*
X161613649Y-71694683D01*
X161617166Y-71708724D01*
X161619290Y-71723042D01*
X161620000Y-71737500D01*
X161620000Y-72032500D01*
X161619290Y-72046958D01*
X161617166Y-72061276D01*
X161613649Y-72075317D01*
X161608772Y-72088946D01*
X161602583Y-72102031D01*
X161595142Y-72114447D01*
X161586519Y-72126073D01*
X161576798Y-72136798D01*
X161566073Y-72146519D01*
X161554447Y-72155142D01*
X161542031Y-72162583D01*
X161528946Y-72168772D01*
X161515317Y-72173649D01*
X161501276Y-72177166D01*
X161486958Y-72179290D01*
X161472500Y-72180000D01*
X161127500Y-72180000D01*
X161113042Y-72179290D01*
X161098724Y-72177166D01*
X161084683Y-72173649D01*
X161071054Y-72168772D01*
X161057969Y-72162583D01*
X161045553Y-72155142D01*
X161033927Y-72146519D01*
X161023202Y-72136798D01*
X161013481Y-72126073D01*
X161004858Y-72114447D01*
X160997417Y-72102031D01*
X160991228Y-72088946D01*
X160986351Y-72075317D01*
X160982834Y-72061276D01*
X160980710Y-72046958D01*
X160980000Y-72032500D01*
X160980000Y-71737500D01*
X160980710Y-71723042D01*
X160982834Y-71708724D01*
X160986351Y-71694683D01*
X160991228Y-71681054D01*
X160997417Y-71667969D01*
X161004858Y-71655553D01*
X161013481Y-71643927D01*
X161023202Y-71633202D01*
X161033927Y-71623481D01*
X161045553Y-71614858D01*
X161057969Y-71607417D01*
X161071054Y-71601228D01*
X161084683Y-71596351D01*
X161098724Y-71592834D01*
X161113042Y-71590710D01*
X161127500Y-71590000D01*
X161472500Y-71590000D01*
X161486958Y-71590710D01*
X161486958Y-71590710D01*
G37*
D16*
X161300000Y-71885000D03*
D11*
G36*
X161486958Y-70620710D02*
G01*
X161501276Y-70622834D01*
X161515317Y-70626351D01*
X161528946Y-70631228D01*
X161542031Y-70637417D01*
X161554447Y-70644858D01*
X161566073Y-70653481D01*
X161576798Y-70663202D01*
X161586519Y-70673927D01*
X161595142Y-70685553D01*
X161602583Y-70697969D01*
X161608772Y-70711054D01*
X161613649Y-70724683D01*
X161617166Y-70738724D01*
X161619290Y-70753042D01*
X161620000Y-70767500D01*
X161620000Y-71062500D01*
X161619290Y-71076958D01*
X161617166Y-71091276D01*
X161613649Y-71105317D01*
X161608772Y-71118946D01*
X161602583Y-71132031D01*
X161595142Y-71144447D01*
X161586519Y-71156073D01*
X161576798Y-71166798D01*
X161566073Y-71176519D01*
X161554447Y-71185142D01*
X161542031Y-71192583D01*
X161528946Y-71198772D01*
X161515317Y-71203649D01*
X161501276Y-71207166D01*
X161486958Y-71209290D01*
X161472500Y-71210000D01*
X161127500Y-71210000D01*
X161113042Y-71209290D01*
X161098724Y-71207166D01*
X161084683Y-71203649D01*
X161071054Y-71198772D01*
X161057969Y-71192583D01*
X161045553Y-71185142D01*
X161033927Y-71176519D01*
X161023202Y-71166798D01*
X161013481Y-71156073D01*
X161004858Y-71144447D01*
X160997417Y-71132031D01*
X160991228Y-71118946D01*
X160986351Y-71105317D01*
X160982834Y-71091276D01*
X160980710Y-71076958D01*
X160980000Y-71062500D01*
X160980000Y-70767500D01*
X160980710Y-70753042D01*
X160982834Y-70738724D01*
X160986351Y-70724683D01*
X160991228Y-70711054D01*
X160997417Y-70697969D01*
X161004858Y-70685553D01*
X161013481Y-70673927D01*
X161023202Y-70663202D01*
X161033927Y-70653481D01*
X161045553Y-70644858D01*
X161057969Y-70637417D01*
X161071054Y-70631228D01*
X161084683Y-70626351D01*
X161098724Y-70622834D01*
X161113042Y-70620710D01*
X161127500Y-70620000D01*
X161472500Y-70620000D01*
X161486958Y-70620710D01*
X161486958Y-70620710D01*
G37*
D16*
X161300000Y-70915000D03*
D11*
G36*
X163986958Y-70620710D02*
G01*
X164001276Y-70622834D01*
X164015317Y-70626351D01*
X164028946Y-70631228D01*
X164042031Y-70637417D01*
X164054447Y-70644858D01*
X164066073Y-70653481D01*
X164076798Y-70663202D01*
X164086519Y-70673927D01*
X164095142Y-70685553D01*
X164102583Y-70697969D01*
X164108772Y-70711054D01*
X164113649Y-70724683D01*
X164117166Y-70738724D01*
X164119290Y-70753042D01*
X164120000Y-70767500D01*
X164120000Y-71062500D01*
X164119290Y-71076958D01*
X164117166Y-71091276D01*
X164113649Y-71105317D01*
X164108772Y-71118946D01*
X164102583Y-71132031D01*
X164095142Y-71144447D01*
X164086519Y-71156073D01*
X164076798Y-71166798D01*
X164066073Y-71176519D01*
X164054447Y-71185142D01*
X164042031Y-71192583D01*
X164028946Y-71198772D01*
X164015317Y-71203649D01*
X164001276Y-71207166D01*
X163986958Y-71209290D01*
X163972500Y-71210000D01*
X163627500Y-71210000D01*
X163613042Y-71209290D01*
X163598724Y-71207166D01*
X163584683Y-71203649D01*
X163571054Y-71198772D01*
X163557969Y-71192583D01*
X163545553Y-71185142D01*
X163533927Y-71176519D01*
X163523202Y-71166798D01*
X163513481Y-71156073D01*
X163504858Y-71144447D01*
X163497417Y-71132031D01*
X163491228Y-71118946D01*
X163486351Y-71105317D01*
X163482834Y-71091276D01*
X163480710Y-71076958D01*
X163480000Y-71062500D01*
X163480000Y-70767500D01*
X163480710Y-70753042D01*
X163482834Y-70738724D01*
X163486351Y-70724683D01*
X163491228Y-70711054D01*
X163497417Y-70697969D01*
X163504858Y-70685553D01*
X163513481Y-70673927D01*
X163523202Y-70663202D01*
X163533927Y-70653481D01*
X163545553Y-70644858D01*
X163557969Y-70637417D01*
X163571054Y-70631228D01*
X163584683Y-70626351D01*
X163598724Y-70622834D01*
X163613042Y-70620710D01*
X163627500Y-70620000D01*
X163972500Y-70620000D01*
X163986958Y-70620710D01*
X163986958Y-70620710D01*
G37*
D16*
X163800000Y-70915000D03*
D11*
G36*
X163986958Y-71590710D02*
G01*
X164001276Y-71592834D01*
X164015317Y-71596351D01*
X164028946Y-71601228D01*
X164042031Y-71607417D01*
X164054447Y-71614858D01*
X164066073Y-71623481D01*
X164076798Y-71633202D01*
X164086519Y-71643927D01*
X164095142Y-71655553D01*
X164102583Y-71667969D01*
X164108772Y-71681054D01*
X164113649Y-71694683D01*
X164117166Y-71708724D01*
X164119290Y-71723042D01*
X164120000Y-71737500D01*
X164120000Y-72032500D01*
X164119290Y-72046958D01*
X164117166Y-72061276D01*
X164113649Y-72075317D01*
X164108772Y-72088946D01*
X164102583Y-72102031D01*
X164095142Y-72114447D01*
X164086519Y-72126073D01*
X164076798Y-72136798D01*
X164066073Y-72146519D01*
X164054447Y-72155142D01*
X164042031Y-72162583D01*
X164028946Y-72168772D01*
X164015317Y-72173649D01*
X164001276Y-72177166D01*
X163986958Y-72179290D01*
X163972500Y-72180000D01*
X163627500Y-72180000D01*
X163613042Y-72179290D01*
X163598724Y-72177166D01*
X163584683Y-72173649D01*
X163571054Y-72168772D01*
X163557969Y-72162583D01*
X163545553Y-72155142D01*
X163533927Y-72146519D01*
X163523202Y-72136798D01*
X163513481Y-72126073D01*
X163504858Y-72114447D01*
X163497417Y-72102031D01*
X163491228Y-72088946D01*
X163486351Y-72075317D01*
X163482834Y-72061276D01*
X163480710Y-72046958D01*
X163480000Y-72032500D01*
X163480000Y-71737500D01*
X163480710Y-71723042D01*
X163482834Y-71708724D01*
X163486351Y-71694683D01*
X163491228Y-71681054D01*
X163497417Y-71667969D01*
X163504858Y-71655553D01*
X163513481Y-71643927D01*
X163523202Y-71633202D01*
X163533927Y-71623481D01*
X163545553Y-71614858D01*
X163557969Y-71607417D01*
X163571054Y-71601228D01*
X163584683Y-71596351D01*
X163598724Y-71592834D01*
X163613042Y-71590710D01*
X163627500Y-71590000D01*
X163972500Y-71590000D01*
X163986958Y-71590710D01*
X163986958Y-71590710D01*
G37*
D16*
X163800000Y-71885000D03*
D11*
G36*
X167686958Y-70620710D02*
G01*
X167701276Y-70622834D01*
X167715317Y-70626351D01*
X167728946Y-70631228D01*
X167742031Y-70637417D01*
X167754447Y-70644858D01*
X167766073Y-70653481D01*
X167776798Y-70663202D01*
X167786519Y-70673927D01*
X167795142Y-70685553D01*
X167802583Y-70697969D01*
X167808772Y-70711054D01*
X167813649Y-70724683D01*
X167817166Y-70738724D01*
X167819290Y-70753042D01*
X167820000Y-70767500D01*
X167820000Y-71062500D01*
X167819290Y-71076958D01*
X167817166Y-71091276D01*
X167813649Y-71105317D01*
X167808772Y-71118946D01*
X167802583Y-71132031D01*
X167795142Y-71144447D01*
X167786519Y-71156073D01*
X167776798Y-71166798D01*
X167766073Y-71176519D01*
X167754447Y-71185142D01*
X167742031Y-71192583D01*
X167728946Y-71198772D01*
X167715317Y-71203649D01*
X167701276Y-71207166D01*
X167686958Y-71209290D01*
X167672500Y-71210000D01*
X167327500Y-71210000D01*
X167313042Y-71209290D01*
X167298724Y-71207166D01*
X167284683Y-71203649D01*
X167271054Y-71198772D01*
X167257969Y-71192583D01*
X167245553Y-71185142D01*
X167233927Y-71176519D01*
X167223202Y-71166798D01*
X167213481Y-71156073D01*
X167204858Y-71144447D01*
X167197417Y-71132031D01*
X167191228Y-71118946D01*
X167186351Y-71105317D01*
X167182834Y-71091276D01*
X167180710Y-71076958D01*
X167180000Y-71062500D01*
X167180000Y-70767500D01*
X167180710Y-70753042D01*
X167182834Y-70738724D01*
X167186351Y-70724683D01*
X167191228Y-70711054D01*
X167197417Y-70697969D01*
X167204858Y-70685553D01*
X167213481Y-70673927D01*
X167223202Y-70663202D01*
X167233927Y-70653481D01*
X167245553Y-70644858D01*
X167257969Y-70637417D01*
X167271054Y-70631228D01*
X167284683Y-70626351D01*
X167298724Y-70622834D01*
X167313042Y-70620710D01*
X167327500Y-70620000D01*
X167672500Y-70620000D01*
X167686958Y-70620710D01*
X167686958Y-70620710D01*
G37*
D16*
X167500000Y-70915000D03*
D11*
G36*
X167686958Y-71590710D02*
G01*
X167701276Y-71592834D01*
X167715317Y-71596351D01*
X167728946Y-71601228D01*
X167742031Y-71607417D01*
X167754447Y-71614858D01*
X167766073Y-71623481D01*
X167776798Y-71633202D01*
X167786519Y-71643927D01*
X167795142Y-71655553D01*
X167802583Y-71667969D01*
X167808772Y-71681054D01*
X167813649Y-71694683D01*
X167817166Y-71708724D01*
X167819290Y-71723042D01*
X167820000Y-71737500D01*
X167820000Y-72032500D01*
X167819290Y-72046958D01*
X167817166Y-72061276D01*
X167813649Y-72075317D01*
X167808772Y-72088946D01*
X167802583Y-72102031D01*
X167795142Y-72114447D01*
X167786519Y-72126073D01*
X167776798Y-72136798D01*
X167766073Y-72146519D01*
X167754447Y-72155142D01*
X167742031Y-72162583D01*
X167728946Y-72168772D01*
X167715317Y-72173649D01*
X167701276Y-72177166D01*
X167686958Y-72179290D01*
X167672500Y-72180000D01*
X167327500Y-72180000D01*
X167313042Y-72179290D01*
X167298724Y-72177166D01*
X167284683Y-72173649D01*
X167271054Y-72168772D01*
X167257969Y-72162583D01*
X167245553Y-72155142D01*
X167233927Y-72146519D01*
X167223202Y-72136798D01*
X167213481Y-72126073D01*
X167204858Y-72114447D01*
X167197417Y-72102031D01*
X167191228Y-72088946D01*
X167186351Y-72075317D01*
X167182834Y-72061276D01*
X167180710Y-72046958D01*
X167180000Y-72032500D01*
X167180000Y-71737500D01*
X167180710Y-71723042D01*
X167182834Y-71708724D01*
X167186351Y-71694683D01*
X167191228Y-71681054D01*
X167197417Y-71667969D01*
X167204858Y-71655553D01*
X167213481Y-71643927D01*
X167223202Y-71633202D01*
X167233927Y-71623481D01*
X167245553Y-71614858D01*
X167257969Y-71607417D01*
X167271054Y-71601228D01*
X167284683Y-71596351D01*
X167298724Y-71592834D01*
X167313042Y-71590710D01*
X167327500Y-71590000D01*
X167672500Y-71590000D01*
X167686958Y-71590710D01*
X167686958Y-71590710D01*
G37*
D16*
X167500000Y-71885000D03*
D17*
X146020880Y-74000000D03*
X147179120Y-74000000D03*
D11*
G36*
X118186958Y-85420710D02*
G01*
X118201276Y-85422834D01*
X118215317Y-85426351D01*
X118228946Y-85431228D01*
X118242031Y-85437417D01*
X118254447Y-85444858D01*
X118266073Y-85453481D01*
X118276798Y-85463202D01*
X118286519Y-85473927D01*
X118295142Y-85485553D01*
X118302583Y-85497969D01*
X118308772Y-85511054D01*
X118313649Y-85524683D01*
X118317166Y-85538724D01*
X118319290Y-85553042D01*
X118320000Y-85567500D01*
X118320000Y-85862500D01*
X118319290Y-85876958D01*
X118317166Y-85891276D01*
X118313649Y-85905317D01*
X118308772Y-85918946D01*
X118302583Y-85932031D01*
X118295142Y-85944447D01*
X118286519Y-85956073D01*
X118276798Y-85966798D01*
X118266073Y-85976519D01*
X118254447Y-85985142D01*
X118242031Y-85992583D01*
X118228946Y-85998772D01*
X118215317Y-86003649D01*
X118201276Y-86007166D01*
X118186958Y-86009290D01*
X118172500Y-86010000D01*
X117827500Y-86010000D01*
X117813042Y-86009290D01*
X117798724Y-86007166D01*
X117784683Y-86003649D01*
X117771054Y-85998772D01*
X117757969Y-85992583D01*
X117745553Y-85985142D01*
X117733927Y-85976519D01*
X117723202Y-85966798D01*
X117713481Y-85956073D01*
X117704858Y-85944447D01*
X117697417Y-85932031D01*
X117691228Y-85918946D01*
X117686351Y-85905317D01*
X117682834Y-85891276D01*
X117680710Y-85876958D01*
X117680000Y-85862500D01*
X117680000Y-85567500D01*
X117680710Y-85553042D01*
X117682834Y-85538724D01*
X117686351Y-85524683D01*
X117691228Y-85511054D01*
X117697417Y-85497969D01*
X117704858Y-85485553D01*
X117713481Y-85473927D01*
X117723202Y-85463202D01*
X117733927Y-85453481D01*
X117745553Y-85444858D01*
X117757969Y-85437417D01*
X117771054Y-85431228D01*
X117784683Y-85426351D01*
X117798724Y-85422834D01*
X117813042Y-85420710D01*
X117827500Y-85420000D01*
X118172500Y-85420000D01*
X118186958Y-85420710D01*
X118186958Y-85420710D01*
G37*
D16*
X118000000Y-85715000D03*
D11*
G36*
X118186958Y-86390710D02*
G01*
X118201276Y-86392834D01*
X118215317Y-86396351D01*
X118228946Y-86401228D01*
X118242031Y-86407417D01*
X118254447Y-86414858D01*
X118266073Y-86423481D01*
X118276798Y-86433202D01*
X118286519Y-86443927D01*
X118295142Y-86455553D01*
X118302583Y-86467969D01*
X118308772Y-86481054D01*
X118313649Y-86494683D01*
X118317166Y-86508724D01*
X118319290Y-86523042D01*
X118320000Y-86537500D01*
X118320000Y-86832500D01*
X118319290Y-86846958D01*
X118317166Y-86861276D01*
X118313649Y-86875317D01*
X118308772Y-86888946D01*
X118302583Y-86902031D01*
X118295142Y-86914447D01*
X118286519Y-86926073D01*
X118276798Y-86936798D01*
X118266073Y-86946519D01*
X118254447Y-86955142D01*
X118242031Y-86962583D01*
X118228946Y-86968772D01*
X118215317Y-86973649D01*
X118201276Y-86977166D01*
X118186958Y-86979290D01*
X118172500Y-86980000D01*
X117827500Y-86980000D01*
X117813042Y-86979290D01*
X117798724Y-86977166D01*
X117784683Y-86973649D01*
X117771054Y-86968772D01*
X117757969Y-86962583D01*
X117745553Y-86955142D01*
X117733927Y-86946519D01*
X117723202Y-86936798D01*
X117713481Y-86926073D01*
X117704858Y-86914447D01*
X117697417Y-86902031D01*
X117691228Y-86888946D01*
X117686351Y-86875317D01*
X117682834Y-86861276D01*
X117680710Y-86846958D01*
X117680000Y-86832500D01*
X117680000Y-86537500D01*
X117680710Y-86523042D01*
X117682834Y-86508724D01*
X117686351Y-86494683D01*
X117691228Y-86481054D01*
X117697417Y-86467969D01*
X117704858Y-86455553D01*
X117713481Y-86443927D01*
X117723202Y-86433202D01*
X117733927Y-86423481D01*
X117745553Y-86414858D01*
X117757969Y-86407417D01*
X117771054Y-86401228D01*
X117784683Y-86396351D01*
X117798724Y-86392834D01*
X117813042Y-86390710D01*
X117827500Y-86390000D01*
X118172500Y-86390000D01*
X118186958Y-86390710D01*
X118186958Y-86390710D01*
G37*
D16*
X118000000Y-86685000D03*
D11*
G36*
X118186958Y-96120710D02*
G01*
X118201276Y-96122834D01*
X118215317Y-96126351D01*
X118228946Y-96131228D01*
X118242031Y-96137417D01*
X118254447Y-96144858D01*
X118266073Y-96153481D01*
X118276798Y-96163202D01*
X118286519Y-96173927D01*
X118295142Y-96185553D01*
X118302583Y-96197969D01*
X118308772Y-96211054D01*
X118313649Y-96224683D01*
X118317166Y-96238724D01*
X118319290Y-96253042D01*
X118320000Y-96267500D01*
X118320000Y-96562500D01*
X118319290Y-96576958D01*
X118317166Y-96591276D01*
X118313649Y-96605317D01*
X118308772Y-96618946D01*
X118302583Y-96632031D01*
X118295142Y-96644447D01*
X118286519Y-96656073D01*
X118276798Y-96666798D01*
X118266073Y-96676519D01*
X118254447Y-96685142D01*
X118242031Y-96692583D01*
X118228946Y-96698772D01*
X118215317Y-96703649D01*
X118201276Y-96707166D01*
X118186958Y-96709290D01*
X118172500Y-96710000D01*
X117827500Y-96710000D01*
X117813042Y-96709290D01*
X117798724Y-96707166D01*
X117784683Y-96703649D01*
X117771054Y-96698772D01*
X117757969Y-96692583D01*
X117745553Y-96685142D01*
X117733927Y-96676519D01*
X117723202Y-96666798D01*
X117713481Y-96656073D01*
X117704858Y-96644447D01*
X117697417Y-96632031D01*
X117691228Y-96618946D01*
X117686351Y-96605317D01*
X117682834Y-96591276D01*
X117680710Y-96576958D01*
X117680000Y-96562500D01*
X117680000Y-96267500D01*
X117680710Y-96253042D01*
X117682834Y-96238724D01*
X117686351Y-96224683D01*
X117691228Y-96211054D01*
X117697417Y-96197969D01*
X117704858Y-96185553D01*
X117713481Y-96173927D01*
X117723202Y-96163202D01*
X117733927Y-96153481D01*
X117745553Y-96144858D01*
X117757969Y-96137417D01*
X117771054Y-96131228D01*
X117784683Y-96126351D01*
X117798724Y-96122834D01*
X117813042Y-96120710D01*
X117827500Y-96120000D01*
X118172500Y-96120000D01*
X118186958Y-96120710D01*
X118186958Y-96120710D01*
G37*
D16*
X118000000Y-96415000D03*
D11*
G36*
X118186958Y-97090710D02*
G01*
X118201276Y-97092834D01*
X118215317Y-97096351D01*
X118228946Y-97101228D01*
X118242031Y-97107417D01*
X118254447Y-97114858D01*
X118266073Y-97123481D01*
X118276798Y-97133202D01*
X118286519Y-97143927D01*
X118295142Y-97155553D01*
X118302583Y-97167969D01*
X118308772Y-97181054D01*
X118313649Y-97194683D01*
X118317166Y-97208724D01*
X118319290Y-97223042D01*
X118320000Y-97237500D01*
X118320000Y-97532500D01*
X118319290Y-97546958D01*
X118317166Y-97561276D01*
X118313649Y-97575317D01*
X118308772Y-97588946D01*
X118302583Y-97602031D01*
X118295142Y-97614447D01*
X118286519Y-97626073D01*
X118276798Y-97636798D01*
X118266073Y-97646519D01*
X118254447Y-97655142D01*
X118242031Y-97662583D01*
X118228946Y-97668772D01*
X118215317Y-97673649D01*
X118201276Y-97677166D01*
X118186958Y-97679290D01*
X118172500Y-97680000D01*
X117827500Y-97680000D01*
X117813042Y-97679290D01*
X117798724Y-97677166D01*
X117784683Y-97673649D01*
X117771054Y-97668772D01*
X117757969Y-97662583D01*
X117745553Y-97655142D01*
X117733927Y-97646519D01*
X117723202Y-97636798D01*
X117713481Y-97626073D01*
X117704858Y-97614447D01*
X117697417Y-97602031D01*
X117691228Y-97588946D01*
X117686351Y-97575317D01*
X117682834Y-97561276D01*
X117680710Y-97546958D01*
X117680000Y-97532500D01*
X117680000Y-97237500D01*
X117680710Y-97223042D01*
X117682834Y-97208724D01*
X117686351Y-97194683D01*
X117691228Y-97181054D01*
X117697417Y-97167969D01*
X117704858Y-97155553D01*
X117713481Y-97143927D01*
X117723202Y-97133202D01*
X117733927Y-97123481D01*
X117745553Y-97114858D01*
X117757969Y-97107417D01*
X117771054Y-97101228D01*
X117784683Y-97096351D01*
X117798724Y-97092834D01*
X117813042Y-97090710D01*
X117827500Y-97090000D01*
X118172500Y-97090000D01*
X118186958Y-97090710D01*
X118186958Y-97090710D01*
G37*
D16*
X118000000Y-97385000D03*
D15*
X173750000Y-101600000D03*
X167450000Y-101600000D03*
X173750000Y-97800000D03*
X167450000Y-97800000D03*
D18*
X127800000Y-75150000D03*
D19*
X128800000Y-78400000D03*
X126800000Y-78400000D03*
D11*
G36*
X118186958Y-106620710D02*
G01*
X118201276Y-106622834D01*
X118215317Y-106626351D01*
X118228946Y-106631228D01*
X118242031Y-106637417D01*
X118254447Y-106644858D01*
X118266073Y-106653481D01*
X118276798Y-106663202D01*
X118286519Y-106673927D01*
X118295142Y-106685553D01*
X118302583Y-106697969D01*
X118308772Y-106711054D01*
X118313649Y-106724683D01*
X118317166Y-106738724D01*
X118319290Y-106753042D01*
X118320000Y-106767500D01*
X118320000Y-107062500D01*
X118319290Y-107076958D01*
X118317166Y-107091276D01*
X118313649Y-107105317D01*
X118308772Y-107118946D01*
X118302583Y-107132031D01*
X118295142Y-107144447D01*
X118286519Y-107156073D01*
X118276798Y-107166798D01*
X118266073Y-107176519D01*
X118254447Y-107185142D01*
X118242031Y-107192583D01*
X118228946Y-107198772D01*
X118215317Y-107203649D01*
X118201276Y-107207166D01*
X118186958Y-107209290D01*
X118172500Y-107210000D01*
X117827500Y-107210000D01*
X117813042Y-107209290D01*
X117798724Y-107207166D01*
X117784683Y-107203649D01*
X117771054Y-107198772D01*
X117757969Y-107192583D01*
X117745553Y-107185142D01*
X117733927Y-107176519D01*
X117723202Y-107166798D01*
X117713481Y-107156073D01*
X117704858Y-107144447D01*
X117697417Y-107132031D01*
X117691228Y-107118946D01*
X117686351Y-107105317D01*
X117682834Y-107091276D01*
X117680710Y-107076958D01*
X117680000Y-107062500D01*
X117680000Y-106767500D01*
X117680710Y-106753042D01*
X117682834Y-106738724D01*
X117686351Y-106724683D01*
X117691228Y-106711054D01*
X117697417Y-106697969D01*
X117704858Y-106685553D01*
X117713481Y-106673927D01*
X117723202Y-106663202D01*
X117733927Y-106653481D01*
X117745553Y-106644858D01*
X117757969Y-106637417D01*
X117771054Y-106631228D01*
X117784683Y-106626351D01*
X117798724Y-106622834D01*
X117813042Y-106620710D01*
X117827500Y-106620000D01*
X118172500Y-106620000D01*
X118186958Y-106620710D01*
X118186958Y-106620710D01*
G37*
D16*
X118000000Y-106915000D03*
D11*
G36*
X118186958Y-107590710D02*
G01*
X118201276Y-107592834D01*
X118215317Y-107596351D01*
X118228946Y-107601228D01*
X118242031Y-107607417D01*
X118254447Y-107614858D01*
X118266073Y-107623481D01*
X118276798Y-107633202D01*
X118286519Y-107643927D01*
X118295142Y-107655553D01*
X118302583Y-107667969D01*
X118308772Y-107681054D01*
X118313649Y-107694683D01*
X118317166Y-107708724D01*
X118319290Y-107723042D01*
X118320000Y-107737500D01*
X118320000Y-108032500D01*
X118319290Y-108046958D01*
X118317166Y-108061276D01*
X118313649Y-108075317D01*
X118308772Y-108088946D01*
X118302583Y-108102031D01*
X118295142Y-108114447D01*
X118286519Y-108126073D01*
X118276798Y-108136798D01*
X118266073Y-108146519D01*
X118254447Y-108155142D01*
X118242031Y-108162583D01*
X118228946Y-108168772D01*
X118215317Y-108173649D01*
X118201276Y-108177166D01*
X118186958Y-108179290D01*
X118172500Y-108180000D01*
X117827500Y-108180000D01*
X117813042Y-108179290D01*
X117798724Y-108177166D01*
X117784683Y-108173649D01*
X117771054Y-108168772D01*
X117757969Y-108162583D01*
X117745553Y-108155142D01*
X117733927Y-108146519D01*
X117723202Y-108136798D01*
X117713481Y-108126073D01*
X117704858Y-108114447D01*
X117697417Y-108102031D01*
X117691228Y-108088946D01*
X117686351Y-108075317D01*
X117682834Y-108061276D01*
X117680710Y-108046958D01*
X117680000Y-108032500D01*
X117680000Y-107737500D01*
X117680710Y-107723042D01*
X117682834Y-107708724D01*
X117686351Y-107694683D01*
X117691228Y-107681054D01*
X117697417Y-107667969D01*
X117704858Y-107655553D01*
X117713481Y-107643927D01*
X117723202Y-107633202D01*
X117733927Y-107623481D01*
X117745553Y-107614858D01*
X117757969Y-107607417D01*
X117771054Y-107601228D01*
X117784683Y-107596351D01*
X117798724Y-107592834D01*
X117813042Y-107590710D01*
X117827500Y-107590000D01*
X118172500Y-107590000D01*
X118186958Y-107590710D01*
X118186958Y-107590710D01*
G37*
D16*
X118000000Y-107885000D03*
D11*
G36*
X171086958Y-114020710D02*
G01*
X171101276Y-114022834D01*
X171115317Y-114026351D01*
X171128946Y-114031228D01*
X171142031Y-114037417D01*
X171154447Y-114044858D01*
X171166073Y-114053481D01*
X171176798Y-114063202D01*
X171186519Y-114073927D01*
X171195142Y-114085553D01*
X171202583Y-114097969D01*
X171208772Y-114111054D01*
X171213649Y-114124683D01*
X171217166Y-114138724D01*
X171219290Y-114153042D01*
X171220000Y-114167500D01*
X171220000Y-114462500D01*
X171219290Y-114476958D01*
X171217166Y-114491276D01*
X171213649Y-114505317D01*
X171208772Y-114518946D01*
X171202583Y-114532031D01*
X171195142Y-114544447D01*
X171186519Y-114556073D01*
X171176798Y-114566798D01*
X171166073Y-114576519D01*
X171154447Y-114585142D01*
X171142031Y-114592583D01*
X171128946Y-114598772D01*
X171115317Y-114603649D01*
X171101276Y-114607166D01*
X171086958Y-114609290D01*
X171072500Y-114610000D01*
X170727500Y-114610000D01*
X170713042Y-114609290D01*
X170698724Y-114607166D01*
X170684683Y-114603649D01*
X170671054Y-114598772D01*
X170657969Y-114592583D01*
X170645553Y-114585142D01*
X170633927Y-114576519D01*
X170623202Y-114566798D01*
X170613481Y-114556073D01*
X170604858Y-114544447D01*
X170597417Y-114532031D01*
X170591228Y-114518946D01*
X170586351Y-114505317D01*
X170582834Y-114491276D01*
X170580710Y-114476958D01*
X170580000Y-114462500D01*
X170580000Y-114167500D01*
X170580710Y-114153042D01*
X170582834Y-114138724D01*
X170586351Y-114124683D01*
X170591228Y-114111054D01*
X170597417Y-114097969D01*
X170604858Y-114085553D01*
X170613481Y-114073927D01*
X170623202Y-114063202D01*
X170633927Y-114053481D01*
X170645553Y-114044858D01*
X170657969Y-114037417D01*
X170671054Y-114031228D01*
X170684683Y-114026351D01*
X170698724Y-114022834D01*
X170713042Y-114020710D01*
X170727500Y-114020000D01*
X171072500Y-114020000D01*
X171086958Y-114020710D01*
X171086958Y-114020710D01*
G37*
D16*
X170900000Y-114315000D03*
D11*
G36*
X171086958Y-114990710D02*
G01*
X171101276Y-114992834D01*
X171115317Y-114996351D01*
X171128946Y-115001228D01*
X171142031Y-115007417D01*
X171154447Y-115014858D01*
X171166073Y-115023481D01*
X171176798Y-115033202D01*
X171186519Y-115043927D01*
X171195142Y-115055553D01*
X171202583Y-115067969D01*
X171208772Y-115081054D01*
X171213649Y-115094683D01*
X171217166Y-115108724D01*
X171219290Y-115123042D01*
X171220000Y-115137500D01*
X171220000Y-115432500D01*
X171219290Y-115446958D01*
X171217166Y-115461276D01*
X171213649Y-115475317D01*
X171208772Y-115488946D01*
X171202583Y-115502031D01*
X171195142Y-115514447D01*
X171186519Y-115526073D01*
X171176798Y-115536798D01*
X171166073Y-115546519D01*
X171154447Y-115555142D01*
X171142031Y-115562583D01*
X171128946Y-115568772D01*
X171115317Y-115573649D01*
X171101276Y-115577166D01*
X171086958Y-115579290D01*
X171072500Y-115580000D01*
X170727500Y-115580000D01*
X170713042Y-115579290D01*
X170698724Y-115577166D01*
X170684683Y-115573649D01*
X170671054Y-115568772D01*
X170657969Y-115562583D01*
X170645553Y-115555142D01*
X170633927Y-115546519D01*
X170623202Y-115536798D01*
X170613481Y-115526073D01*
X170604858Y-115514447D01*
X170597417Y-115502031D01*
X170591228Y-115488946D01*
X170586351Y-115475317D01*
X170582834Y-115461276D01*
X170580710Y-115446958D01*
X170580000Y-115432500D01*
X170580000Y-115137500D01*
X170580710Y-115123042D01*
X170582834Y-115108724D01*
X170586351Y-115094683D01*
X170591228Y-115081054D01*
X170597417Y-115067969D01*
X170604858Y-115055553D01*
X170613481Y-115043927D01*
X170623202Y-115033202D01*
X170633927Y-115023481D01*
X170645553Y-115014858D01*
X170657969Y-115007417D01*
X170671054Y-115001228D01*
X170684683Y-114996351D01*
X170698724Y-114992834D01*
X170713042Y-114990710D01*
X170727500Y-114990000D01*
X171072500Y-114990000D01*
X171086958Y-114990710D01*
X171086958Y-114990710D01*
G37*
D16*
X170900000Y-115285000D03*
D11*
G36*
X171086958Y-117120710D02*
G01*
X171101276Y-117122834D01*
X171115317Y-117126351D01*
X171128946Y-117131228D01*
X171142031Y-117137417D01*
X171154447Y-117144858D01*
X171166073Y-117153481D01*
X171176798Y-117163202D01*
X171186519Y-117173927D01*
X171195142Y-117185553D01*
X171202583Y-117197969D01*
X171208772Y-117211054D01*
X171213649Y-117224683D01*
X171217166Y-117238724D01*
X171219290Y-117253042D01*
X171220000Y-117267500D01*
X171220000Y-117562500D01*
X171219290Y-117576958D01*
X171217166Y-117591276D01*
X171213649Y-117605317D01*
X171208772Y-117618946D01*
X171202583Y-117632031D01*
X171195142Y-117644447D01*
X171186519Y-117656073D01*
X171176798Y-117666798D01*
X171166073Y-117676519D01*
X171154447Y-117685142D01*
X171142031Y-117692583D01*
X171128946Y-117698772D01*
X171115317Y-117703649D01*
X171101276Y-117707166D01*
X171086958Y-117709290D01*
X171072500Y-117710000D01*
X170727500Y-117710000D01*
X170713042Y-117709290D01*
X170698724Y-117707166D01*
X170684683Y-117703649D01*
X170671054Y-117698772D01*
X170657969Y-117692583D01*
X170645553Y-117685142D01*
X170633927Y-117676519D01*
X170623202Y-117666798D01*
X170613481Y-117656073D01*
X170604858Y-117644447D01*
X170597417Y-117632031D01*
X170591228Y-117618946D01*
X170586351Y-117605317D01*
X170582834Y-117591276D01*
X170580710Y-117576958D01*
X170580000Y-117562500D01*
X170580000Y-117267500D01*
X170580710Y-117253042D01*
X170582834Y-117238724D01*
X170586351Y-117224683D01*
X170591228Y-117211054D01*
X170597417Y-117197969D01*
X170604858Y-117185553D01*
X170613481Y-117173927D01*
X170623202Y-117163202D01*
X170633927Y-117153481D01*
X170645553Y-117144858D01*
X170657969Y-117137417D01*
X170671054Y-117131228D01*
X170684683Y-117126351D01*
X170698724Y-117122834D01*
X170713042Y-117120710D01*
X170727500Y-117120000D01*
X171072500Y-117120000D01*
X171086958Y-117120710D01*
X171086958Y-117120710D01*
G37*
D16*
X170900000Y-117415000D03*
D11*
G36*
X171086958Y-118090710D02*
G01*
X171101276Y-118092834D01*
X171115317Y-118096351D01*
X171128946Y-118101228D01*
X171142031Y-118107417D01*
X171154447Y-118114858D01*
X171166073Y-118123481D01*
X171176798Y-118133202D01*
X171186519Y-118143927D01*
X171195142Y-118155553D01*
X171202583Y-118167969D01*
X171208772Y-118181054D01*
X171213649Y-118194683D01*
X171217166Y-118208724D01*
X171219290Y-118223042D01*
X171220000Y-118237500D01*
X171220000Y-118532500D01*
X171219290Y-118546958D01*
X171217166Y-118561276D01*
X171213649Y-118575317D01*
X171208772Y-118588946D01*
X171202583Y-118602031D01*
X171195142Y-118614447D01*
X171186519Y-118626073D01*
X171176798Y-118636798D01*
X171166073Y-118646519D01*
X171154447Y-118655142D01*
X171142031Y-118662583D01*
X171128946Y-118668772D01*
X171115317Y-118673649D01*
X171101276Y-118677166D01*
X171086958Y-118679290D01*
X171072500Y-118680000D01*
X170727500Y-118680000D01*
X170713042Y-118679290D01*
X170698724Y-118677166D01*
X170684683Y-118673649D01*
X170671054Y-118668772D01*
X170657969Y-118662583D01*
X170645553Y-118655142D01*
X170633927Y-118646519D01*
X170623202Y-118636798D01*
X170613481Y-118626073D01*
X170604858Y-118614447D01*
X170597417Y-118602031D01*
X170591228Y-118588946D01*
X170586351Y-118575317D01*
X170582834Y-118561276D01*
X170580710Y-118546958D01*
X170580000Y-118532500D01*
X170580000Y-118237500D01*
X170580710Y-118223042D01*
X170582834Y-118208724D01*
X170586351Y-118194683D01*
X170591228Y-118181054D01*
X170597417Y-118167969D01*
X170604858Y-118155553D01*
X170613481Y-118143927D01*
X170623202Y-118133202D01*
X170633927Y-118123481D01*
X170645553Y-118114858D01*
X170657969Y-118107417D01*
X170671054Y-118101228D01*
X170684683Y-118096351D01*
X170698724Y-118092834D01*
X170713042Y-118090710D01*
X170727500Y-118090000D01*
X171072500Y-118090000D01*
X171086958Y-118090710D01*
X171086958Y-118090710D01*
G37*
D16*
X170900000Y-118385000D03*
D11*
G36*
X156186958Y-82590710D02*
G01*
X156201276Y-82592834D01*
X156215317Y-82596351D01*
X156228946Y-82601228D01*
X156242031Y-82607417D01*
X156254447Y-82614858D01*
X156266073Y-82623481D01*
X156276798Y-82633202D01*
X156286519Y-82643927D01*
X156295142Y-82655553D01*
X156302583Y-82667969D01*
X156308772Y-82681054D01*
X156313649Y-82694683D01*
X156317166Y-82708724D01*
X156319290Y-82723042D01*
X156320000Y-82737500D01*
X156320000Y-83032500D01*
X156319290Y-83046958D01*
X156317166Y-83061276D01*
X156313649Y-83075317D01*
X156308772Y-83088946D01*
X156302583Y-83102031D01*
X156295142Y-83114447D01*
X156286519Y-83126073D01*
X156276798Y-83136798D01*
X156266073Y-83146519D01*
X156254447Y-83155142D01*
X156242031Y-83162583D01*
X156228946Y-83168772D01*
X156215317Y-83173649D01*
X156201276Y-83177166D01*
X156186958Y-83179290D01*
X156172500Y-83180000D01*
X155827500Y-83180000D01*
X155813042Y-83179290D01*
X155798724Y-83177166D01*
X155784683Y-83173649D01*
X155771054Y-83168772D01*
X155757969Y-83162583D01*
X155745553Y-83155142D01*
X155733927Y-83146519D01*
X155723202Y-83136798D01*
X155713481Y-83126073D01*
X155704858Y-83114447D01*
X155697417Y-83102031D01*
X155691228Y-83088946D01*
X155686351Y-83075317D01*
X155682834Y-83061276D01*
X155680710Y-83046958D01*
X155680000Y-83032500D01*
X155680000Y-82737500D01*
X155680710Y-82723042D01*
X155682834Y-82708724D01*
X155686351Y-82694683D01*
X155691228Y-82681054D01*
X155697417Y-82667969D01*
X155704858Y-82655553D01*
X155713481Y-82643927D01*
X155723202Y-82633202D01*
X155733927Y-82623481D01*
X155745553Y-82614858D01*
X155757969Y-82607417D01*
X155771054Y-82601228D01*
X155784683Y-82596351D01*
X155798724Y-82592834D01*
X155813042Y-82590710D01*
X155827500Y-82590000D01*
X156172500Y-82590000D01*
X156186958Y-82590710D01*
X156186958Y-82590710D01*
G37*
D16*
X156000000Y-82885000D03*
D11*
G36*
X156186958Y-81620710D02*
G01*
X156201276Y-81622834D01*
X156215317Y-81626351D01*
X156228946Y-81631228D01*
X156242031Y-81637417D01*
X156254447Y-81644858D01*
X156266073Y-81653481D01*
X156276798Y-81663202D01*
X156286519Y-81673927D01*
X156295142Y-81685553D01*
X156302583Y-81697969D01*
X156308772Y-81711054D01*
X156313649Y-81724683D01*
X156317166Y-81738724D01*
X156319290Y-81753042D01*
X156320000Y-81767500D01*
X156320000Y-82062500D01*
X156319290Y-82076958D01*
X156317166Y-82091276D01*
X156313649Y-82105317D01*
X156308772Y-82118946D01*
X156302583Y-82132031D01*
X156295142Y-82144447D01*
X156286519Y-82156073D01*
X156276798Y-82166798D01*
X156266073Y-82176519D01*
X156254447Y-82185142D01*
X156242031Y-82192583D01*
X156228946Y-82198772D01*
X156215317Y-82203649D01*
X156201276Y-82207166D01*
X156186958Y-82209290D01*
X156172500Y-82210000D01*
X155827500Y-82210000D01*
X155813042Y-82209290D01*
X155798724Y-82207166D01*
X155784683Y-82203649D01*
X155771054Y-82198772D01*
X155757969Y-82192583D01*
X155745553Y-82185142D01*
X155733927Y-82176519D01*
X155723202Y-82166798D01*
X155713481Y-82156073D01*
X155704858Y-82144447D01*
X155697417Y-82132031D01*
X155691228Y-82118946D01*
X155686351Y-82105317D01*
X155682834Y-82091276D01*
X155680710Y-82076958D01*
X155680000Y-82062500D01*
X155680000Y-81767500D01*
X155680710Y-81753042D01*
X155682834Y-81738724D01*
X155686351Y-81724683D01*
X155691228Y-81711054D01*
X155697417Y-81697969D01*
X155704858Y-81685553D01*
X155713481Y-81673927D01*
X155723202Y-81663202D01*
X155733927Y-81653481D01*
X155745553Y-81644858D01*
X155757969Y-81637417D01*
X155771054Y-81631228D01*
X155784683Y-81626351D01*
X155798724Y-81622834D01*
X155813042Y-81620710D01*
X155827500Y-81620000D01*
X156172500Y-81620000D01*
X156186958Y-81620710D01*
X156186958Y-81620710D01*
G37*
D16*
X156000000Y-81915000D03*
D11*
G36*
X156186958Y-77490710D02*
G01*
X156201276Y-77492834D01*
X156215317Y-77496351D01*
X156228946Y-77501228D01*
X156242031Y-77507417D01*
X156254447Y-77514858D01*
X156266073Y-77523481D01*
X156276798Y-77533202D01*
X156286519Y-77543927D01*
X156295142Y-77555553D01*
X156302583Y-77567969D01*
X156308772Y-77581054D01*
X156313649Y-77594683D01*
X156317166Y-77608724D01*
X156319290Y-77623042D01*
X156320000Y-77637500D01*
X156320000Y-77932500D01*
X156319290Y-77946958D01*
X156317166Y-77961276D01*
X156313649Y-77975317D01*
X156308772Y-77988946D01*
X156302583Y-78002031D01*
X156295142Y-78014447D01*
X156286519Y-78026073D01*
X156276798Y-78036798D01*
X156266073Y-78046519D01*
X156254447Y-78055142D01*
X156242031Y-78062583D01*
X156228946Y-78068772D01*
X156215317Y-78073649D01*
X156201276Y-78077166D01*
X156186958Y-78079290D01*
X156172500Y-78080000D01*
X155827500Y-78080000D01*
X155813042Y-78079290D01*
X155798724Y-78077166D01*
X155784683Y-78073649D01*
X155771054Y-78068772D01*
X155757969Y-78062583D01*
X155745553Y-78055142D01*
X155733927Y-78046519D01*
X155723202Y-78036798D01*
X155713481Y-78026073D01*
X155704858Y-78014447D01*
X155697417Y-78002031D01*
X155691228Y-77988946D01*
X155686351Y-77975317D01*
X155682834Y-77961276D01*
X155680710Y-77946958D01*
X155680000Y-77932500D01*
X155680000Y-77637500D01*
X155680710Y-77623042D01*
X155682834Y-77608724D01*
X155686351Y-77594683D01*
X155691228Y-77581054D01*
X155697417Y-77567969D01*
X155704858Y-77555553D01*
X155713481Y-77543927D01*
X155723202Y-77533202D01*
X155733927Y-77523481D01*
X155745553Y-77514858D01*
X155757969Y-77507417D01*
X155771054Y-77501228D01*
X155784683Y-77496351D01*
X155798724Y-77492834D01*
X155813042Y-77490710D01*
X155827500Y-77490000D01*
X156172500Y-77490000D01*
X156186958Y-77490710D01*
X156186958Y-77490710D01*
G37*
D16*
X156000000Y-77785000D03*
D11*
G36*
X156186958Y-76520710D02*
G01*
X156201276Y-76522834D01*
X156215317Y-76526351D01*
X156228946Y-76531228D01*
X156242031Y-76537417D01*
X156254447Y-76544858D01*
X156266073Y-76553481D01*
X156276798Y-76563202D01*
X156286519Y-76573927D01*
X156295142Y-76585553D01*
X156302583Y-76597969D01*
X156308772Y-76611054D01*
X156313649Y-76624683D01*
X156317166Y-76638724D01*
X156319290Y-76653042D01*
X156320000Y-76667500D01*
X156320000Y-76962500D01*
X156319290Y-76976958D01*
X156317166Y-76991276D01*
X156313649Y-77005317D01*
X156308772Y-77018946D01*
X156302583Y-77032031D01*
X156295142Y-77044447D01*
X156286519Y-77056073D01*
X156276798Y-77066798D01*
X156266073Y-77076519D01*
X156254447Y-77085142D01*
X156242031Y-77092583D01*
X156228946Y-77098772D01*
X156215317Y-77103649D01*
X156201276Y-77107166D01*
X156186958Y-77109290D01*
X156172500Y-77110000D01*
X155827500Y-77110000D01*
X155813042Y-77109290D01*
X155798724Y-77107166D01*
X155784683Y-77103649D01*
X155771054Y-77098772D01*
X155757969Y-77092583D01*
X155745553Y-77085142D01*
X155733927Y-77076519D01*
X155723202Y-77066798D01*
X155713481Y-77056073D01*
X155704858Y-77044447D01*
X155697417Y-77032031D01*
X155691228Y-77018946D01*
X155686351Y-77005317D01*
X155682834Y-76991276D01*
X155680710Y-76976958D01*
X155680000Y-76962500D01*
X155680000Y-76667500D01*
X155680710Y-76653042D01*
X155682834Y-76638724D01*
X155686351Y-76624683D01*
X155691228Y-76611054D01*
X155697417Y-76597969D01*
X155704858Y-76585553D01*
X155713481Y-76573927D01*
X155723202Y-76563202D01*
X155733927Y-76553481D01*
X155745553Y-76544858D01*
X155757969Y-76537417D01*
X155771054Y-76531228D01*
X155784683Y-76526351D01*
X155798724Y-76522834D01*
X155813042Y-76520710D01*
X155827500Y-76520000D01*
X156172500Y-76520000D01*
X156186958Y-76520710D01*
X156186958Y-76520710D01*
G37*
D16*
X156000000Y-76815000D03*
D11*
G36*
X156186958Y-94990710D02*
G01*
X156201276Y-94992834D01*
X156215317Y-94996351D01*
X156228946Y-95001228D01*
X156242031Y-95007417D01*
X156254447Y-95014858D01*
X156266073Y-95023481D01*
X156276798Y-95033202D01*
X156286519Y-95043927D01*
X156295142Y-95055553D01*
X156302583Y-95067969D01*
X156308772Y-95081054D01*
X156313649Y-95094683D01*
X156317166Y-95108724D01*
X156319290Y-95123042D01*
X156320000Y-95137500D01*
X156320000Y-95432500D01*
X156319290Y-95446958D01*
X156317166Y-95461276D01*
X156313649Y-95475317D01*
X156308772Y-95488946D01*
X156302583Y-95502031D01*
X156295142Y-95514447D01*
X156286519Y-95526073D01*
X156276798Y-95536798D01*
X156266073Y-95546519D01*
X156254447Y-95555142D01*
X156242031Y-95562583D01*
X156228946Y-95568772D01*
X156215317Y-95573649D01*
X156201276Y-95577166D01*
X156186958Y-95579290D01*
X156172500Y-95580000D01*
X155827500Y-95580000D01*
X155813042Y-95579290D01*
X155798724Y-95577166D01*
X155784683Y-95573649D01*
X155771054Y-95568772D01*
X155757969Y-95562583D01*
X155745553Y-95555142D01*
X155733927Y-95546519D01*
X155723202Y-95536798D01*
X155713481Y-95526073D01*
X155704858Y-95514447D01*
X155697417Y-95502031D01*
X155691228Y-95488946D01*
X155686351Y-95475317D01*
X155682834Y-95461276D01*
X155680710Y-95446958D01*
X155680000Y-95432500D01*
X155680000Y-95137500D01*
X155680710Y-95123042D01*
X155682834Y-95108724D01*
X155686351Y-95094683D01*
X155691228Y-95081054D01*
X155697417Y-95067969D01*
X155704858Y-95055553D01*
X155713481Y-95043927D01*
X155723202Y-95033202D01*
X155733927Y-95023481D01*
X155745553Y-95014858D01*
X155757969Y-95007417D01*
X155771054Y-95001228D01*
X155784683Y-94996351D01*
X155798724Y-94992834D01*
X155813042Y-94990710D01*
X155827500Y-94990000D01*
X156172500Y-94990000D01*
X156186958Y-94990710D01*
X156186958Y-94990710D01*
G37*
D16*
X156000000Y-95285000D03*
D11*
G36*
X156186958Y-94020710D02*
G01*
X156201276Y-94022834D01*
X156215317Y-94026351D01*
X156228946Y-94031228D01*
X156242031Y-94037417D01*
X156254447Y-94044858D01*
X156266073Y-94053481D01*
X156276798Y-94063202D01*
X156286519Y-94073927D01*
X156295142Y-94085553D01*
X156302583Y-94097969D01*
X156308772Y-94111054D01*
X156313649Y-94124683D01*
X156317166Y-94138724D01*
X156319290Y-94153042D01*
X156320000Y-94167500D01*
X156320000Y-94462500D01*
X156319290Y-94476958D01*
X156317166Y-94491276D01*
X156313649Y-94505317D01*
X156308772Y-94518946D01*
X156302583Y-94532031D01*
X156295142Y-94544447D01*
X156286519Y-94556073D01*
X156276798Y-94566798D01*
X156266073Y-94576519D01*
X156254447Y-94585142D01*
X156242031Y-94592583D01*
X156228946Y-94598772D01*
X156215317Y-94603649D01*
X156201276Y-94607166D01*
X156186958Y-94609290D01*
X156172500Y-94610000D01*
X155827500Y-94610000D01*
X155813042Y-94609290D01*
X155798724Y-94607166D01*
X155784683Y-94603649D01*
X155771054Y-94598772D01*
X155757969Y-94592583D01*
X155745553Y-94585142D01*
X155733927Y-94576519D01*
X155723202Y-94566798D01*
X155713481Y-94556073D01*
X155704858Y-94544447D01*
X155697417Y-94532031D01*
X155691228Y-94518946D01*
X155686351Y-94505317D01*
X155682834Y-94491276D01*
X155680710Y-94476958D01*
X155680000Y-94462500D01*
X155680000Y-94167500D01*
X155680710Y-94153042D01*
X155682834Y-94138724D01*
X155686351Y-94124683D01*
X155691228Y-94111054D01*
X155697417Y-94097969D01*
X155704858Y-94085553D01*
X155713481Y-94073927D01*
X155723202Y-94063202D01*
X155733927Y-94053481D01*
X155745553Y-94044858D01*
X155757969Y-94037417D01*
X155771054Y-94031228D01*
X155784683Y-94026351D01*
X155798724Y-94022834D01*
X155813042Y-94020710D01*
X155827500Y-94020000D01*
X156172500Y-94020000D01*
X156186958Y-94020710D01*
X156186958Y-94020710D01*
G37*
D16*
X156000000Y-94315000D03*
D11*
G36*
X156186958Y-90090710D02*
G01*
X156201276Y-90092834D01*
X156215317Y-90096351D01*
X156228946Y-90101228D01*
X156242031Y-90107417D01*
X156254447Y-90114858D01*
X156266073Y-90123481D01*
X156276798Y-90133202D01*
X156286519Y-90143927D01*
X156295142Y-90155553D01*
X156302583Y-90167969D01*
X156308772Y-90181054D01*
X156313649Y-90194683D01*
X156317166Y-90208724D01*
X156319290Y-90223042D01*
X156320000Y-90237500D01*
X156320000Y-90532500D01*
X156319290Y-90546958D01*
X156317166Y-90561276D01*
X156313649Y-90575317D01*
X156308772Y-90588946D01*
X156302583Y-90602031D01*
X156295142Y-90614447D01*
X156286519Y-90626073D01*
X156276798Y-90636798D01*
X156266073Y-90646519D01*
X156254447Y-90655142D01*
X156242031Y-90662583D01*
X156228946Y-90668772D01*
X156215317Y-90673649D01*
X156201276Y-90677166D01*
X156186958Y-90679290D01*
X156172500Y-90680000D01*
X155827500Y-90680000D01*
X155813042Y-90679290D01*
X155798724Y-90677166D01*
X155784683Y-90673649D01*
X155771054Y-90668772D01*
X155757969Y-90662583D01*
X155745553Y-90655142D01*
X155733927Y-90646519D01*
X155723202Y-90636798D01*
X155713481Y-90626073D01*
X155704858Y-90614447D01*
X155697417Y-90602031D01*
X155691228Y-90588946D01*
X155686351Y-90575317D01*
X155682834Y-90561276D01*
X155680710Y-90546958D01*
X155680000Y-90532500D01*
X155680000Y-90237500D01*
X155680710Y-90223042D01*
X155682834Y-90208724D01*
X155686351Y-90194683D01*
X155691228Y-90181054D01*
X155697417Y-90167969D01*
X155704858Y-90155553D01*
X155713481Y-90143927D01*
X155723202Y-90133202D01*
X155733927Y-90123481D01*
X155745553Y-90114858D01*
X155757969Y-90107417D01*
X155771054Y-90101228D01*
X155784683Y-90096351D01*
X155798724Y-90092834D01*
X155813042Y-90090710D01*
X155827500Y-90090000D01*
X156172500Y-90090000D01*
X156186958Y-90090710D01*
X156186958Y-90090710D01*
G37*
D16*
X156000000Y-90385000D03*
D11*
G36*
X156186958Y-89120710D02*
G01*
X156201276Y-89122834D01*
X156215317Y-89126351D01*
X156228946Y-89131228D01*
X156242031Y-89137417D01*
X156254447Y-89144858D01*
X156266073Y-89153481D01*
X156276798Y-89163202D01*
X156286519Y-89173927D01*
X156295142Y-89185553D01*
X156302583Y-89197969D01*
X156308772Y-89211054D01*
X156313649Y-89224683D01*
X156317166Y-89238724D01*
X156319290Y-89253042D01*
X156320000Y-89267500D01*
X156320000Y-89562500D01*
X156319290Y-89576958D01*
X156317166Y-89591276D01*
X156313649Y-89605317D01*
X156308772Y-89618946D01*
X156302583Y-89632031D01*
X156295142Y-89644447D01*
X156286519Y-89656073D01*
X156276798Y-89666798D01*
X156266073Y-89676519D01*
X156254447Y-89685142D01*
X156242031Y-89692583D01*
X156228946Y-89698772D01*
X156215317Y-89703649D01*
X156201276Y-89707166D01*
X156186958Y-89709290D01*
X156172500Y-89710000D01*
X155827500Y-89710000D01*
X155813042Y-89709290D01*
X155798724Y-89707166D01*
X155784683Y-89703649D01*
X155771054Y-89698772D01*
X155757969Y-89692583D01*
X155745553Y-89685142D01*
X155733927Y-89676519D01*
X155723202Y-89666798D01*
X155713481Y-89656073D01*
X155704858Y-89644447D01*
X155697417Y-89632031D01*
X155691228Y-89618946D01*
X155686351Y-89605317D01*
X155682834Y-89591276D01*
X155680710Y-89576958D01*
X155680000Y-89562500D01*
X155680000Y-89267500D01*
X155680710Y-89253042D01*
X155682834Y-89238724D01*
X155686351Y-89224683D01*
X155691228Y-89211054D01*
X155697417Y-89197969D01*
X155704858Y-89185553D01*
X155713481Y-89173927D01*
X155723202Y-89163202D01*
X155733927Y-89153481D01*
X155745553Y-89144858D01*
X155757969Y-89137417D01*
X155771054Y-89131228D01*
X155784683Y-89126351D01*
X155798724Y-89122834D01*
X155813042Y-89120710D01*
X155827500Y-89120000D01*
X156172500Y-89120000D01*
X156186958Y-89120710D01*
X156186958Y-89120710D01*
G37*
D16*
X156000000Y-89415000D03*
D11*
G36*
X177886958Y-97490710D02*
G01*
X177901276Y-97492834D01*
X177915317Y-97496351D01*
X177928946Y-97501228D01*
X177942031Y-97507417D01*
X177954447Y-97514858D01*
X177966073Y-97523481D01*
X177976798Y-97533202D01*
X177986519Y-97543927D01*
X177995142Y-97555553D01*
X178002583Y-97567969D01*
X178008772Y-97581054D01*
X178013649Y-97594683D01*
X178017166Y-97608724D01*
X178019290Y-97623042D01*
X178020000Y-97637500D01*
X178020000Y-97932500D01*
X178019290Y-97946958D01*
X178017166Y-97961276D01*
X178013649Y-97975317D01*
X178008772Y-97988946D01*
X178002583Y-98002031D01*
X177995142Y-98014447D01*
X177986519Y-98026073D01*
X177976798Y-98036798D01*
X177966073Y-98046519D01*
X177954447Y-98055142D01*
X177942031Y-98062583D01*
X177928946Y-98068772D01*
X177915317Y-98073649D01*
X177901276Y-98077166D01*
X177886958Y-98079290D01*
X177872500Y-98080000D01*
X177527500Y-98080000D01*
X177513042Y-98079290D01*
X177498724Y-98077166D01*
X177484683Y-98073649D01*
X177471054Y-98068772D01*
X177457969Y-98062583D01*
X177445553Y-98055142D01*
X177433927Y-98046519D01*
X177423202Y-98036798D01*
X177413481Y-98026073D01*
X177404858Y-98014447D01*
X177397417Y-98002031D01*
X177391228Y-97988946D01*
X177386351Y-97975317D01*
X177382834Y-97961276D01*
X177380710Y-97946958D01*
X177380000Y-97932500D01*
X177380000Y-97637500D01*
X177380710Y-97623042D01*
X177382834Y-97608724D01*
X177386351Y-97594683D01*
X177391228Y-97581054D01*
X177397417Y-97567969D01*
X177404858Y-97555553D01*
X177413481Y-97543927D01*
X177423202Y-97533202D01*
X177433927Y-97523481D01*
X177445553Y-97514858D01*
X177457969Y-97507417D01*
X177471054Y-97501228D01*
X177484683Y-97496351D01*
X177498724Y-97492834D01*
X177513042Y-97490710D01*
X177527500Y-97490000D01*
X177872500Y-97490000D01*
X177886958Y-97490710D01*
X177886958Y-97490710D01*
G37*
D16*
X177700000Y-97785000D03*
D11*
G36*
X177886958Y-96520710D02*
G01*
X177901276Y-96522834D01*
X177915317Y-96526351D01*
X177928946Y-96531228D01*
X177942031Y-96537417D01*
X177954447Y-96544858D01*
X177966073Y-96553481D01*
X177976798Y-96563202D01*
X177986519Y-96573927D01*
X177995142Y-96585553D01*
X178002583Y-96597969D01*
X178008772Y-96611054D01*
X178013649Y-96624683D01*
X178017166Y-96638724D01*
X178019290Y-96653042D01*
X178020000Y-96667500D01*
X178020000Y-96962500D01*
X178019290Y-96976958D01*
X178017166Y-96991276D01*
X178013649Y-97005317D01*
X178008772Y-97018946D01*
X178002583Y-97032031D01*
X177995142Y-97044447D01*
X177986519Y-97056073D01*
X177976798Y-97066798D01*
X177966073Y-97076519D01*
X177954447Y-97085142D01*
X177942031Y-97092583D01*
X177928946Y-97098772D01*
X177915317Y-97103649D01*
X177901276Y-97107166D01*
X177886958Y-97109290D01*
X177872500Y-97110000D01*
X177527500Y-97110000D01*
X177513042Y-97109290D01*
X177498724Y-97107166D01*
X177484683Y-97103649D01*
X177471054Y-97098772D01*
X177457969Y-97092583D01*
X177445553Y-97085142D01*
X177433927Y-97076519D01*
X177423202Y-97066798D01*
X177413481Y-97056073D01*
X177404858Y-97044447D01*
X177397417Y-97032031D01*
X177391228Y-97018946D01*
X177386351Y-97005317D01*
X177382834Y-96991276D01*
X177380710Y-96976958D01*
X177380000Y-96962500D01*
X177380000Y-96667500D01*
X177380710Y-96653042D01*
X177382834Y-96638724D01*
X177386351Y-96624683D01*
X177391228Y-96611054D01*
X177397417Y-96597969D01*
X177404858Y-96585553D01*
X177413481Y-96573927D01*
X177423202Y-96563202D01*
X177433927Y-96553481D01*
X177445553Y-96544858D01*
X177457969Y-96537417D01*
X177471054Y-96531228D01*
X177484683Y-96526351D01*
X177498724Y-96522834D01*
X177513042Y-96520710D01*
X177527500Y-96520000D01*
X177872500Y-96520000D01*
X177886958Y-96520710D01*
X177886958Y-96520710D01*
G37*
D16*
X177700000Y-96815000D03*
D11*
G36*
X133886958Y-101690710D02*
G01*
X133901276Y-101692834D01*
X133915317Y-101696351D01*
X133928946Y-101701228D01*
X133942031Y-101707417D01*
X133954447Y-101714858D01*
X133966073Y-101723481D01*
X133976798Y-101733202D01*
X133986519Y-101743927D01*
X133995142Y-101755553D01*
X134002583Y-101767969D01*
X134008772Y-101781054D01*
X134013649Y-101794683D01*
X134017166Y-101808724D01*
X134019290Y-101823042D01*
X134020000Y-101837500D01*
X134020000Y-102132500D01*
X134019290Y-102146958D01*
X134017166Y-102161276D01*
X134013649Y-102175317D01*
X134008772Y-102188946D01*
X134002583Y-102202031D01*
X133995142Y-102214447D01*
X133986519Y-102226073D01*
X133976798Y-102236798D01*
X133966073Y-102246519D01*
X133954447Y-102255142D01*
X133942031Y-102262583D01*
X133928946Y-102268772D01*
X133915317Y-102273649D01*
X133901276Y-102277166D01*
X133886958Y-102279290D01*
X133872500Y-102280000D01*
X133527500Y-102280000D01*
X133513042Y-102279290D01*
X133498724Y-102277166D01*
X133484683Y-102273649D01*
X133471054Y-102268772D01*
X133457969Y-102262583D01*
X133445553Y-102255142D01*
X133433927Y-102246519D01*
X133423202Y-102236798D01*
X133413481Y-102226073D01*
X133404858Y-102214447D01*
X133397417Y-102202031D01*
X133391228Y-102188946D01*
X133386351Y-102175317D01*
X133382834Y-102161276D01*
X133380710Y-102146958D01*
X133380000Y-102132500D01*
X133380000Y-101837500D01*
X133380710Y-101823042D01*
X133382834Y-101808724D01*
X133386351Y-101794683D01*
X133391228Y-101781054D01*
X133397417Y-101767969D01*
X133404858Y-101755553D01*
X133413481Y-101743927D01*
X133423202Y-101733202D01*
X133433927Y-101723481D01*
X133445553Y-101714858D01*
X133457969Y-101707417D01*
X133471054Y-101701228D01*
X133484683Y-101696351D01*
X133498724Y-101692834D01*
X133513042Y-101690710D01*
X133527500Y-101690000D01*
X133872500Y-101690000D01*
X133886958Y-101690710D01*
X133886958Y-101690710D01*
G37*
D16*
X133700000Y-101985000D03*
D11*
G36*
X133886958Y-100720710D02*
G01*
X133901276Y-100722834D01*
X133915317Y-100726351D01*
X133928946Y-100731228D01*
X133942031Y-100737417D01*
X133954447Y-100744858D01*
X133966073Y-100753481D01*
X133976798Y-100763202D01*
X133986519Y-100773927D01*
X133995142Y-100785553D01*
X134002583Y-100797969D01*
X134008772Y-100811054D01*
X134013649Y-100824683D01*
X134017166Y-100838724D01*
X134019290Y-100853042D01*
X134020000Y-100867500D01*
X134020000Y-101162500D01*
X134019290Y-101176958D01*
X134017166Y-101191276D01*
X134013649Y-101205317D01*
X134008772Y-101218946D01*
X134002583Y-101232031D01*
X133995142Y-101244447D01*
X133986519Y-101256073D01*
X133976798Y-101266798D01*
X133966073Y-101276519D01*
X133954447Y-101285142D01*
X133942031Y-101292583D01*
X133928946Y-101298772D01*
X133915317Y-101303649D01*
X133901276Y-101307166D01*
X133886958Y-101309290D01*
X133872500Y-101310000D01*
X133527500Y-101310000D01*
X133513042Y-101309290D01*
X133498724Y-101307166D01*
X133484683Y-101303649D01*
X133471054Y-101298772D01*
X133457969Y-101292583D01*
X133445553Y-101285142D01*
X133433927Y-101276519D01*
X133423202Y-101266798D01*
X133413481Y-101256073D01*
X133404858Y-101244447D01*
X133397417Y-101232031D01*
X133391228Y-101218946D01*
X133386351Y-101205317D01*
X133382834Y-101191276D01*
X133380710Y-101176958D01*
X133380000Y-101162500D01*
X133380000Y-100867500D01*
X133380710Y-100853042D01*
X133382834Y-100838724D01*
X133386351Y-100824683D01*
X133391228Y-100811054D01*
X133397417Y-100797969D01*
X133404858Y-100785553D01*
X133413481Y-100773927D01*
X133423202Y-100763202D01*
X133433927Y-100753481D01*
X133445553Y-100744858D01*
X133457969Y-100737417D01*
X133471054Y-100731228D01*
X133484683Y-100726351D01*
X133498724Y-100722834D01*
X133513042Y-100720710D01*
X133527500Y-100720000D01*
X133872500Y-100720000D01*
X133886958Y-100720710D01*
X133886958Y-100720710D01*
G37*
D16*
X133700000Y-101015000D03*
D11*
G36*
X137286958Y-101690710D02*
G01*
X137301276Y-101692834D01*
X137315317Y-101696351D01*
X137328946Y-101701228D01*
X137342031Y-101707417D01*
X137354447Y-101714858D01*
X137366073Y-101723481D01*
X137376798Y-101733202D01*
X137386519Y-101743927D01*
X137395142Y-101755553D01*
X137402583Y-101767969D01*
X137408772Y-101781054D01*
X137413649Y-101794683D01*
X137417166Y-101808724D01*
X137419290Y-101823042D01*
X137420000Y-101837500D01*
X137420000Y-102132500D01*
X137419290Y-102146958D01*
X137417166Y-102161276D01*
X137413649Y-102175317D01*
X137408772Y-102188946D01*
X137402583Y-102202031D01*
X137395142Y-102214447D01*
X137386519Y-102226073D01*
X137376798Y-102236798D01*
X137366073Y-102246519D01*
X137354447Y-102255142D01*
X137342031Y-102262583D01*
X137328946Y-102268772D01*
X137315317Y-102273649D01*
X137301276Y-102277166D01*
X137286958Y-102279290D01*
X137272500Y-102280000D01*
X136927500Y-102280000D01*
X136913042Y-102279290D01*
X136898724Y-102277166D01*
X136884683Y-102273649D01*
X136871054Y-102268772D01*
X136857969Y-102262583D01*
X136845553Y-102255142D01*
X136833927Y-102246519D01*
X136823202Y-102236798D01*
X136813481Y-102226073D01*
X136804858Y-102214447D01*
X136797417Y-102202031D01*
X136791228Y-102188946D01*
X136786351Y-102175317D01*
X136782834Y-102161276D01*
X136780710Y-102146958D01*
X136780000Y-102132500D01*
X136780000Y-101837500D01*
X136780710Y-101823042D01*
X136782834Y-101808724D01*
X136786351Y-101794683D01*
X136791228Y-101781054D01*
X136797417Y-101767969D01*
X136804858Y-101755553D01*
X136813481Y-101743927D01*
X136823202Y-101733202D01*
X136833927Y-101723481D01*
X136845553Y-101714858D01*
X136857969Y-101707417D01*
X136871054Y-101701228D01*
X136884683Y-101696351D01*
X136898724Y-101692834D01*
X136913042Y-101690710D01*
X136927500Y-101690000D01*
X137272500Y-101690000D01*
X137286958Y-101690710D01*
X137286958Y-101690710D01*
G37*
D16*
X137100000Y-101985000D03*
D11*
G36*
X137286958Y-100720710D02*
G01*
X137301276Y-100722834D01*
X137315317Y-100726351D01*
X137328946Y-100731228D01*
X137342031Y-100737417D01*
X137354447Y-100744858D01*
X137366073Y-100753481D01*
X137376798Y-100763202D01*
X137386519Y-100773927D01*
X137395142Y-100785553D01*
X137402583Y-100797969D01*
X137408772Y-100811054D01*
X137413649Y-100824683D01*
X137417166Y-100838724D01*
X137419290Y-100853042D01*
X137420000Y-100867500D01*
X137420000Y-101162500D01*
X137419290Y-101176958D01*
X137417166Y-101191276D01*
X137413649Y-101205317D01*
X137408772Y-101218946D01*
X137402583Y-101232031D01*
X137395142Y-101244447D01*
X137386519Y-101256073D01*
X137376798Y-101266798D01*
X137366073Y-101276519D01*
X137354447Y-101285142D01*
X137342031Y-101292583D01*
X137328946Y-101298772D01*
X137315317Y-101303649D01*
X137301276Y-101307166D01*
X137286958Y-101309290D01*
X137272500Y-101310000D01*
X136927500Y-101310000D01*
X136913042Y-101309290D01*
X136898724Y-101307166D01*
X136884683Y-101303649D01*
X136871054Y-101298772D01*
X136857969Y-101292583D01*
X136845553Y-101285142D01*
X136833927Y-101276519D01*
X136823202Y-101266798D01*
X136813481Y-101256073D01*
X136804858Y-101244447D01*
X136797417Y-101232031D01*
X136791228Y-101218946D01*
X136786351Y-101205317D01*
X136782834Y-101191276D01*
X136780710Y-101176958D01*
X136780000Y-101162500D01*
X136780000Y-100867500D01*
X136780710Y-100853042D01*
X136782834Y-100838724D01*
X136786351Y-100824683D01*
X136791228Y-100811054D01*
X136797417Y-100797969D01*
X136804858Y-100785553D01*
X136813481Y-100773927D01*
X136823202Y-100763202D01*
X136833927Y-100753481D01*
X136845553Y-100744858D01*
X136857969Y-100737417D01*
X136871054Y-100731228D01*
X136884683Y-100726351D01*
X136898724Y-100722834D01*
X136913042Y-100720710D01*
X136927500Y-100720000D01*
X137272500Y-100720000D01*
X137286958Y-100720710D01*
X137286958Y-100720710D01*
G37*
D16*
X137100000Y-101015000D03*
D11*
G36*
X159846958Y-108380710D02*
G01*
X159861276Y-108382834D01*
X159875317Y-108386351D01*
X159888946Y-108391228D01*
X159902031Y-108397417D01*
X159914447Y-108404858D01*
X159926073Y-108413481D01*
X159936798Y-108423202D01*
X159946519Y-108433927D01*
X159955142Y-108445553D01*
X159962583Y-108457969D01*
X159968772Y-108471054D01*
X159973649Y-108484683D01*
X159977166Y-108498724D01*
X159979290Y-108513042D01*
X159980000Y-108527500D01*
X159980000Y-108872500D01*
X159979290Y-108886958D01*
X159977166Y-108901276D01*
X159973649Y-108915317D01*
X159968772Y-108928946D01*
X159962583Y-108942031D01*
X159955142Y-108954447D01*
X159946519Y-108966073D01*
X159936798Y-108976798D01*
X159926073Y-108986519D01*
X159914447Y-108995142D01*
X159902031Y-109002583D01*
X159888946Y-109008772D01*
X159875317Y-109013649D01*
X159861276Y-109017166D01*
X159846958Y-109019290D01*
X159832500Y-109020000D01*
X159537500Y-109020000D01*
X159523042Y-109019290D01*
X159508724Y-109017166D01*
X159494683Y-109013649D01*
X159481054Y-109008772D01*
X159467969Y-109002583D01*
X159455553Y-108995142D01*
X159443927Y-108986519D01*
X159433202Y-108976798D01*
X159423481Y-108966073D01*
X159414858Y-108954447D01*
X159407417Y-108942031D01*
X159401228Y-108928946D01*
X159396351Y-108915317D01*
X159392834Y-108901276D01*
X159390710Y-108886958D01*
X159390000Y-108872500D01*
X159390000Y-108527500D01*
X159390710Y-108513042D01*
X159392834Y-108498724D01*
X159396351Y-108484683D01*
X159401228Y-108471054D01*
X159407417Y-108457969D01*
X159414858Y-108445553D01*
X159423481Y-108433927D01*
X159433202Y-108423202D01*
X159443927Y-108413481D01*
X159455553Y-108404858D01*
X159467969Y-108397417D01*
X159481054Y-108391228D01*
X159494683Y-108386351D01*
X159508724Y-108382834D01*
X159523042Y-108380710D01*
X159537500Y-108380000D01*
X159832500Y-108380000D01*
X159846958Y-108380710D01*
X159846958Y-108380710D01*
G37*
D16*
X159685000Y-108700000D03*
D11*
G36*
X158876958Y-108380710D02*
G01*
X158891276Y-108382834D01*
X158905317Y-108386351D01*
X158918946Y-108391228D01*
X158932031Y-108397417D01*
X158944447Y-108404858D01*
X158956073Y-108413481D01*
X158966798Y-108423202D01*
X158976519Y-108433927D01*
X158985142Y-108445553D01*
X158992583Y-108457969D01*
X158998772Y-108471054D01*
X159003649Y-108484683D01*
X159007166Y-108498724D01*
X159009290Y-108513042D01*
X159010000Y-108527500D01*
X159010000Y-108872500D01*
X159009290Y-108886958D01*
X159007166Y-108901276D01*
X159003649Y-108915317D01*
X158998772Y-108928946D01*
X158992583Y-108942031D01*
X158985142Y-108954447D01*
X158976519Y-108966073D01*
X158966798Y-108976798D01*
X158956073Y-108986519D01*
X158944447Y-108995142D01*
X158932031Y-109002583D01*
X158918946Y-109008772D01*
X158905317Y-109013649D01*
X158891276Y-109017166D01*
X158876958Y-109019290D01*
X158862500Y-109020000D01*
X158567500Y-109020000D01*
X158553042Y-109019290D01*
X158538724Y-109017166D01*
X158524683Y-109013649D01*
X158511054Y-109008772D01*
X158497969Y-109002583D01*
X158485553Y-108995142D01*
X158473927Y-108986519D01*
X158463202Y-108976798D01*
X158453481Y-108966073D01*
X158444858Y-108954447D01*
X158437417Y-108942031D01*
X158431228Y-108928946D01*
X158426351Y-108915317D01*
X158422834Y-108901276D01*
X158420710Y-108886958D01*
X158420000Y-108872500D01*
X158420000Y-108527500D01*
X158420710Y-108513042D01*
X158422834Y-108498724D01*
X158426351Y-108484683D01*
X158431228Y-108471054D01*
X158437417Y-108457969D01*
X158444858Y-108445553D01*
X158453481Y-108433927D01*
X158463202Y-108423202D01*
X158473927Y-108413481D01*
X158485553Y-108404858D01*
X158497969Y-108397417D01*
X158511054Y-108391228D01*
X158524683Y-108386351D01*
X158538724Y-108382834D01*
X158553042Y-108380710D01*
X158567500Y-108380000D01*
X158862500Y-108380000D01*
X158876958Y-108380710D01*
X158876958Y-108380710D01*
G37*
D16*
X158715000Y-108700000D03*
D11*
G36*
X159846958Y-110280710D02*
G01*
X159861276Y-110282834D01*
X159875317Y-110286351D01*
X159888946Y-110291228D01*
X159902031Y-110297417D01*
X159914447Y-110304858D01*
X159926073Y-110313481D01*
X159936798Y-110323202D01*
X159946519Y-110333927D01*
X159955142Y-110345553D01*
X159962583Y-110357969D01*
X159968772Y-110371054D01*
X159973649Y-110384683D01*
X159977166Y-110398724D01*
X159979290Y-110413042D01*
X159980000Y-110427500D01*
X159980000Y-110772500D01*
X159979290Y-110786958D01*
X159977166Y-110801276D01*
X159973649Y-110815317D01*
X159968772Y-110828946D01*
X159962583Y-110842031D01*
X159955142Y-110854447D01*
X159946519Y-110866073D01*
X159936798Y-110876798D01*
X159926073Y-110886519D01*
X159914447Y-110895142D01*
X159902031Y-110902583D01*
X159888946Y-110908772D01*
X159875317Y-110913649D01*
X159861276Y-110917166D01*
X159846958Y-110919290D01*
X159832500Y-110920000D01*
X159537500Y-110920000D01*
X159523042Y-110919290D01*
X159508724Y-110917166D01*
X159494683Y-110913649D01*
X159481054Y-110908772D01*
X159467969Y-110902583D01*
X159455553Y-110895142D01*
X159443927Y-110886519D01*
X159433202Y-110876798D01*
X159423481Y-110866073D01*
X159414858Y-110854447D01*
X159407417Y-110842031D01*
X159401228Y-110828946D01*
X159396351Y-110815317D01*
X159392834Y-110801276D01*
X159390710Y-110786958D01*
X159390000Y-110772500D01*
X159390000Y-110427500D01*
X159390710Y-110413042D01*
X159392834Y-110398724D01*
X159396351Y-110384683D01*
X159401228Y-110371054D01*
X159407417Y-110357969D01*
X159414858Y-110345553D01*
X159423481Y-110333927D01*
X159433202Y-110323202D01*
X159443927Y-110313481D01*
X159455553Y-110304858D01*
X159467969Y-110297417D01*
X159481054Y-110291228D01*
X159494683Y-110286351D01*
X159508724Y-110282834D01*
X159523042Y-110280710D01*
X159537500Y-110280000D01*
X159832500Y-110280000D01*
X159846958Y-110280710D01*
X159846958Y-110280710D01*
G37*
D16*
X159685000Y-110600000D03*
D11*
G36*
X158876958Y-110280710D02*
G01*
X158891276Y-110282834D01*
X158905317Y-110286351D01*
X158918946Y-110291228D01*
X158932031Y-110297417D01*
X158944447Y-110304858D01*
X158956073Y-110313481D01*
X158966798Y-110323202D01*
X158976519Y-110333927D01*
X158985142Y-110345553D01*
X158992583Y-110357969D01*
X158998772Y-110371054D01*
X159003649Y-110384683D01*
X159007166Y-110398724D01*
X159009290Y-110413042D01*
X159010000Y-110427500D01*
X159010000Y-110772500D01*
X159009290Y-110786958D01*
X159007166Y-110801276D01*
X159003649Y-110815317D01*
X158998772Y-110828946D01*
X158992583Y-110842031D01*
X158985142Y-110854447D01*
X158976519Y-110866073D01*
X158966798Y-110876798D01*
X158956073Y-110886519D01*
X158944447Y-110895142D01*
X158932031Y-110902583D01*
X158918946Y-110908772D01*
X158905317Y-110913649D01*
X158891276Y-110917166D01*
X158876958Y-110919290D01*
X158862500Y-110920000D01*
X158567500Y-110920000D01*
X158553042Y-110919290D01*
X158538724Y-110917166D01*
X158524683Y-110913649D01*
X158511054Y-110908772D01*
X158497969Y-110902583D01*
X158485553Y-110895142D01*
X158473927Y-110886519D01*
X158463202Y-110876798D01*
X158453481Y-110866073D01*
X158444858Y-110854447D01*
X158437417Y-110842031D01*
X158431228Y-110828946D01*
X158426351Y-110815317D01*
X158422834Y-110801276D01*
X158420710Y-110786958D01*
X158420000Y-110772500D01*
X158420000Y-110427500D01*
X158420710Y-110413042D01*
X158422834Y-110398724D01*
X158426351Y-110384683D01*
X158431228Y-110371054D01*
X158437417Y-110357969D01*
X158444858Y-110345553D01*
X158453481Y-110333927D01*
X158463202Y-110323202D01*
X158473927Y-110313481D01*
X158485553Y-110304858D01*
X158497969Y-110297417D01*
X158511054Y-110291228D01*
X158524683Y-110286351D01*
X158538724Y-110282834D01*
X158553042Y-110280710D01*
X158567500Y-110280000D01*
X158862500Y-110280000D01*
X158876958Y-110280710D01*
X158876958Y-110280710D01*
G37*
D16*
X158715000Y-110600000D03*
D11*
G36*
X162976958Y-110280710D02*
G01*
X162991276Y-110282834D01*
X163005317Y-110286351D01*
X163018946Y-110291228D01*
X163032031Y-110297417D01*
X163044447Y-110304858D01*
X163056073Y-110313481D01*
X163066798Y-110323202D01*
X163076519Y-110333927D01*
X163085142Y-110345553D01*
X163092583Y-110357969D01*
X163098772Y-110371054D01*
X163103649Y-110384683D01*
X163107166Y-110398724D01*
X163109290Y-110413042D01*
X163110000Y-110427500D01*
X163110000Y-110772500D01*
X163109290Y-110786958D01*
X163107166Y-110801276D01*
X163103649Y-110815317D01*
X163098772Y-110828946D01*
X163092583Y-110842031D01*
X163085142Y-110854447D01*
X163076519Y-110866073D01*
X163066798Y-110876798D01*
X163056073Y-110886519D01*
X163044447Y-110895142D01*
X163032031Y-110902583D01*
X163018946Y-110908772D01*
X163005317Y-110913649D01*
X162991276Y-110917166D01*
X162976958Y-110919290D01*
X162962500Y-110920000D01*
X162667500Y-110920000D01*
X162653042Y-110919290D01*
X162638724Y-110917166D01*
X162624683Y-110913649D01*
X162611054Y-110908772D01*
X162597969Y-110902583D01*
X162585553Y-110895142D01*
X162573927Y-110886519D01*
X162563202Y-110876798D01*
X162553481Y-110866073D01*
X162544858Y-110854447D01*
X162537417Y-110842031D01*
X162531228Y-110828946D01*
X162526351Y-110815317D01*
X162522834Y-110801276D01*
X162520710Y-110786958D01*
X162520000Y-110772500D01*
X162520000Y-110427500D01*
X162520710Y-110413042D01*
X162522834Y-110398724D01*
X162526351Y-110384683D01*
X162531228Y-110371054D01*
X162537417Y-110357969D01*
X162544858Y-110345553D01*
X162553481Y-110333927D01*
X162563202Y-110323202D01*
X162573927Y-110313481D01*
X162585553Y-110304858D01*
X162597969Y-110297417D01*
X162611054Y-110291228D01*
X162624683Y-110286351D01*
X162638724Y-110282834D01*
X162653042Y-110280710D01*
X162667500Y-110280000D01*
X162962500Y-110280000D01*
X162976958Y-110280710D01*
X162976958Y-110280710D01*
G37*
D16*
X162815000Y-110600000D03*
D11*
G36*
X163946958Y-110280710D02*
G01*
X163961276Y-110282834D01*
X163975317Y-110286351D01*
X163988946Y-110291228D01*
X164002031Y-110297417D01*
X164014447Y-110304858D01*
X164026073Y-110313481D01*
X164036798Y-110323202D01*
X164046519Y-110333927D01*
X164055142Y-110345553D01*
X164062583Y-110357969D01*
X164068772Y-110371054D01*
X164073649Y-110384683D01*
X164077166Y-110398724D01*
X164079290Y-110413042D01*
X164080000Y-110427500D01*
X164080000Y-110772500D01*
X164079290Y-110786958D01*
X164077166Y-110801276D01*
X164073649Y-110815317D01*
X164068772Y-110828946D01*
X164062583Y-110842031D01*
X164055142Y-110854447D01*
X164046519Y-110866073D01*
X164036798Y-110876798D01*
X164026073Y-110886519D01*
X164014447Y-110895142D01*
X164002031Y-110902583D01*
X163988946Y-110908772D01*
X163975317Y-110913649D01*
X163961276Y-110917166D01*
X163946958Y-110919290D01*
X163932500Y-110920000D01*
X163637500Y-110920000D01*
X163623042Y-110919290D01*
X163608724Y-110917166D01*
X163594683Y-110913649D01*
X163581054Y-110908772D01*
X163567969Y-110902583D01*
X163555553Y-110895142D01*
X163543927Y-110886519D01*
X163533202Y-110876798D01*
X163523481Y-110866073D01*
X163514858Y-110854447D01*
X163507417Y-110842031D01*
X163501228Y-110828946D01*
X163496351Y-110815317D01*
X163492834Y-110801276D01*
X163490710Y-110786958D01*
X163490000Y-110772500D01*
X163490000Y-110427500D01*
X163490710Y-110413042D01*
X163492834Y-110398724D01*
X163496351Y-110384683D01*
X163501228Y-110371054D01*
X163507417Y-110357969D01*
X163514858Y-110345553D01*
X163523481Y-110333927D01*
X163533202Y-110323202D01*
X163543927Y-110313481D01*
X163555553Y-110304858D01*
X163567969Y-110297417D01*
X163581054Y-110291228D01*
X163594683Y-110286351D01*
X163608724Y-110282834D01*
X163623042Y-110280710D01*
X163637500Y-110280000D01*
X163932500Y-110280000D01*
X163946958Y-110280710D01*
X163946958Y-110280710D01*
G37*
D16*
X163785000Y-110600000D03*
D11*
G36*
X162976958Y-108380710D02*
G01*
X162991276Y-108382834D01*
X163005317Y-108386351D01*
X163018946Y-108391228D01*
X163032031Y-108397417D01*
X163044447Y-108404858D01*
X163056073Y-108413481D01*
X163066798Y-108423202D01*
X163076519Y-108433927D01*
X163085142Y-108445553D01*
X163092583Y-108457969D01*
X163098772Y-108471054D01*
X163103649Y-108484683D01*
X163107166Y-108498724D01*
X163109290Y-108513042D01*
X163110000Y-108527500D01*
X163110000Y-108872500D01*
X163109290Y-108886958D01*
X163107166Y-108901276D01*
X163103649Y-108915317D01*
X163098772Y-108928946D01*
X163092583Y-108942031D01*
X163085142Y-108954447D01*
X163076519Y-108966073D01*
X163066798Y-108976798D01*
X163056073Y-108986519D01*
X163044447Y-108995142D01*
X163032031Y-109002583D01*
X163018946Y-109008772D01*
X163005317Y-109013649D01*
X162991276Y-109017166D01*
X162976958Y-109019290D01*
X162962500Y-109020000D01*
X162667500Y-109020000D01*
X162653042Y-109019290D01*
X162638724Y-109017166D01*
X162624683Y-109013649D01*
X162611054Y-109008772D01*
X162597969Y-109002583D01*
X162585553Y-108995142D01*
X162573927Y-108986519D01*
X162563202Y-108976798D01*
X162553481Y-108966073D01*
X162544858Y-108954447D01*
X162537417Y-108942031D01*
X162531228Y-108928946D01*
X162526351Y-108915317D01*
X162522834Y-108901276D01*
X162520710Y-108886958D01*
X162520000Y-108872500D01*
X162520000Y-108527500D01*
X162520710Y-108513042D01*
X162522834Y-108498724D01*
X162526351Y-108484683D01*
X162531228Y-108471054D01*
X162537417Y-108457969D01*
X162544858Y-108445553D01*
X162553481Y-108433927D01*
X162563202Y-108423202D01*
X162573927Y-108413481D01*
X162585553Y-108404858D01*
X162597969Y-108397417D01*
X162611054Y-108391228D01*
X162624683Y-108386351D01*
X162638724Y-108382834D01*
X162653042Y-108380710D01*
X162667500Y-108380000D01*
X162962500Y-108380000D01*
X162976958Y-108380710D01*
X162976958Y-108380710D01*
G37*
D16*
X162815000Y-108700000D03*
D11*
G36*
X163946958Y-108380710D02*
G01*
X163961276Y-108382834D01*
X163975317Y-108386351D01*
X163988946Y-108391228D01*
X164002031Y-108397417D01*
X164014447Y-108404858D01*
X164026073Y-108413481D01*
X164036798Y-108423202D01*
X164046519Y-108433927D01*
X164055142Y-108445553D01*
X164062583Y-108457969D01*
X164068772Y-108471054D01*
X164073649Y-108484683D01*
X164077166Y-108498724D01*
X164079290Y-108513042D01*
X164080000Y-108527500D01*
X164080000Y-108872500D01*
X164079290Y-108886958D01*
X164077166Y-108901276D01*
X164073649Y-108915317D01*
X164068772Y-108928946D01*
X164062583Y-108942031D01*
X164055142Y-108954447D01*
X164046519Y-108966073D01*
X164036798Y-108976798D01*
X164026073Y-108986519D01*
X164014447Y-108995142D01*
X164002031Y-109002583D01*
X163988946Y-109008772D01*
X163975317Y-109013649D01*
X163961276Y-109017166D01*
X163946958Y-109019290D01*
X163932500Y-109020000D01*
X163637500Y-109020000D01*
X163623042Y-109019290D01*
X163608724Y-109017166D01*
X163594683Y-109013649D01*
X163581054Y-109008772D01*
X163567969Y-109002583D01*
X163555553Y-108995142D01*
X163543927Y-108986519D01*
X163533202Y-108976798D01*
X163523481Y-108966073D01*
X163514858Y-108954447D01*
X163507417Y-108942031D01*
X163501228Y-108928946D01*
X163496351Y-108915317D01*
X163492834Y-108901276D01*
X163490710Y-108886958D01*
X163490000Y-108872500D01*
X163490000Y-108527500D01*
X163490710Y-108513042D01*
X163492834Y-108498724D01*
X163496351Y-108484683D01*
X163501228Y-108471054D01*
X163507417Y-108457969D01*
X163514858Y-108445553D01*
X163523481Y-108433927D01*
X163533202Y-108423202D01*
X163543927Y-108413481D01*
X163555553Y-108404858D01*
X163567969Y-108397417D01*
X163581054Y-108391228D01*
X163594683Y-108386351D01*
X163608724Y-108382834D01*
X163623042Y-108380710D01*
X163637500Y-108380000D01*
X163932500Y-108380000D01*
X163946958Y-108380710D01*
X163946958Y-108380710D01*
G37*
D16*
X163785000Y-108700000D03*
D20*
X150200000Y-113800000D03*
X134400000Y-113800000D03*
M02*
